<svg xmlns:xlink="http://www.w3.org/1999/xlink" xmlns="http://www.w3.org/2000/svg" width="72" height="72" viewBox="0 0 72 72">
	<defs>
		<linearGradient id="black_fruit-a" x1="12.9988" y1="10.4546" x2="59.8168" y2="62.4513" gradientUnits="userSpaceOnUse">
			<stop offset="0" stop-color="#fff" stop-opacity="0">
			</stop>
			<stop offset="1" stop-color="#fff" stop-opacity="0.2">
			</stop>
		</linearGradient>
		<linearGradient id="black_fruit-a" x1="12.9988" y1="10.4546" x2="59.8168" y2="62.4513" gradientUnits="userSpaceOnUse">
			<stop offset="0" stop-color="#fff" stop-opacity="0">
			</stop>
			<stop offset="1" stop-color="#fff" stop-opacity="0.2">
			</stop>
		</linearGradient>
	</defs>
	<title>
		blackberries_72pt
	</title>
	<circle cx="36" cy="36" r="36" fill="#2C3E80">
	</circle>
	<circle cx="36" cy="36" r="35" fill="url(#black_fruit-a)">
	</circle>
	<path d="M37.2455,34.5625a9.3346,9.3346,0,0,1,1.1013,2.9066" fill="none" stroke="#FFFFFF" stroke-linecap="round" stroke-linejoin="round">
	</path>
	<path d="M36.5046,45.0654a9.2437,9.2437,0,0,0,1.8422-7.5963" fill="none" stroke="#FFFFFF" stroke-linecap="round" stroke-linejoin="round">
	</path>
	<path d="M37.2455,34.5625a10.0753,10.0753,0,0,0-8.7311-4.9253,10.3688,10.3688,0,0,0-2.4718.308" fill="none" stroke="#FFFFFF" stroke-linecap="round" stroke-linejoin="round">
	</path>
	<path d="M26.0426,29.9452A9.7091,9.7091,0,0,0,18.5,39.2739a9.831,9.831,0,0,0,10.0144,9.6367,10.122,10.122,0,0,0,7.99-3.8452" fill="none" stroke="#FFFFFF" stroke-linecap="round" stroke-linejoin="round">
	</path>
	<polygon points="26.75 40.251 24.902 40.58 23.055 40.251 22.81 42.043 21.913 43.632 23.609 44.411 24.902 45.722 26.195 44.411 27.892 43.632 26.995 42.043 26.75 40.251" fill="none" stroke="#FFFFFF" stroke-linecap="round" stroke-linejoin="round">
	</polygon>
	<path d="M45.5126,30.7343a10.3556,10.3556,0,0,1,2.7273.4344,9.5721,9.5721,0,0,1,6.5454,12.0855,10.0944,10.0944,0,0,1-12.559,6.2986,9.8965,9.8965,0,0,1-5.7217-4.4874" fill="none" stroke="#FFFFFF" stroke-linecap="round" stroke-linejoin="round">
	</path>
	<path d="M37.2455,34.5625a10.1708,10.1708,0,0,1,8.2671-3.8282" fill="none" stroke="#FFFFFF" stroke-linecap="round" stroke-linejoin="round">
	</path>
	<polygon points="45.552 42.933 43.899 42.653 43.695 44.256 42.908 45.682 44.429 46.363 45.596 47.525 46.739 46.343 48.247 45.635 47.433 44.223 47.199 42.624 45.552 42.933" fill="none" stroke="#FFFFFF" stroke-linecap="round" stroke-linejoin="round">
	</polygon>
	<path d="M45.5126,30.7343a9.5742,9.5742,0,0,0-6.626-11.7871,10.0944,10.0944,0,0,0-12.559,6.2986,9.2444,9.2444,0,0,0-.285,4.6994" fill="none" stroke="#FFFFFF" stroke-linecap="round" stroke-linejoin="round">
	</path>
	<polygon points="35.146 25.604 36.752 24.849 35.885 23.346 35.636 21.643 33.882 21.972 32.121 21.674 31.905 23.381 31.066 24.9 32.686 25.626 33.928 26.862 35.146 25.604" fill="none" stroke="#FFFFFF" stroke-linecap="round" stroke-linejoin="round">
	</polygon>
</svg>
