<svg xmlns:xlink="http://www.w3.org/1999/xlink" xmlns="http://www.w3.org/2000/svg" width="72" height="72" viewBox="0 0 72 72">
	<defs>
		<linearGradient id="earth-a" x1="12.9988" y1="10.4546" x2="59.8168" y2="62.4513" gradientUnits="userSpaceOnUse">
			<stop offset="0" stop-color="#fff" stop-opacity="0">
			</stop>
			<stop offset="1" stop-color="#fff" stop-opacity="0.2">
			</stop>
		</linearGradient>
		<linearGradient id="earth-a" x1="12.9988" y1="10.4546" x2="59.8168" y2="62.4513" gradientUnits="userSpaceOnUse">
			<stop offset="0" stop-color="#fff" stop-opacity="0">
			</stop>
			<stop offset="1" stop-color="#fff" stop-opacity="0.2">
			</stop>
		</linearGradient>
	</defs>
	<title>
		earthy_72pt
	</title>
	<circle cx="36" cy="36" r="36" fill="#B59B6F">
	</circle>
	<circle cx="36" cy="36" r="35" fill="url(#earth-a)">
	</circle>
	<path d="M36,20.25c-10.1482,0-18.3749,5.4461-18.3749,12.1641a8.2814,8.2814,0,0,0,.4033,2.5377A137.5762,137.5762,0,0,0,36,36.086a137.5755,137.5755,0,0,0,17.9717-1.1342,8.2784,8.2784,0,0,0,.4034-2.5377C54.375,25.6961,46.1482,20.25,36,20.25Z" fill="none" stroke="#FFFFFF" stroke-linecap="round" stroke-linejoin="round">
	</path>
	<path d="M42.5826,35.9425a16.2536,16.2536,0,0,1,.8474,5.2647c0,6.2419-.33,10.3989-7.375,10.5378-6.6225.1306-7.9152-2.2937-7.3749-10.5378a20.53,20.53,0,0,1,.8472-5.2645" fill="none" stroke="#FFFFFF" stroke-linecap="round" stroke-linejoin="round">
	</path>
	<line x1="26.4259" y1="35.7158" x2="26.1499" y2="32.5811" fill="none" stroke="#FFFFFF" stroke-linecap="round" stroke-linejoin="round">
	</line>
	<line x1="50.4532" y1="35.35" x2="50.8157" y2="32.2225" fill="none" stroke="#FFFFFF" stroke-linecap="round" stroke-linejoin="round">
	</line>
	<line x1="23.6085" y1="34.8704" x2="23.3326" y2="31.7357" fill="none" stroke="#FFFFFF" stroke-linecap="round" stroke-linejoin="round">
	</line>
	<ellipse cx="44.4669" cy="29.2323" rx="1.3125" ry="1.1816" fill="none" stroke="#FFFFFF" stroke-linecap="round" stroke-linejoin="round">
	</ellipse>
	<ellipse cx="40.0278" cy="25.9083" rx="1.3125" ry="1.1816" fill="none" stroke="#FFFFFF" stroke-linecap="round" stroke-linejoin="round">
	</ellipse>
	<ellipse cx="27.563" cy="26.7537" rx="1.3125" ry="1.1816" fill="none" stroke="#FFFFFF" stroke-linecap="round" stroke-linejoin="round">
	</ellipse>
</svg>
