<svg xmlns:xlink="http://www.w3.org/1999/xlink" xmlns="http://www.w3.org/2000/svg" width="72" height="72" viewBox="0 0 72 72">
<defs>
<linearGradient id="floral-a" x1="12.9988" y1="10.4546" x2="59.8168" y2="62.4513" gradientUnits="userSpaceOnUse">
<stop offset="0" stop-color="#fff" stop-opacity="0"></stop>
<stop offset="1" stop-color="#fff" stop-opacity="0.2"></stop>
</linearGradient>
</defs>
<title>floral_72pt</title>
<circle cx="36" cy="36" r="36" fill="#F86676"></circle>
<circle cx="36" cy="36" r="35" fill="url(#floral-a)"></circle>
<path d="M40.9378,36.3746A4.9378,4.9378,0,1,1,36,31.4368,4.9378,4.9378,0,0,1,40.9378,36.3746Z" fill="none" stroke="#FFFFFF" stroke-linecap="round" stroke-linejoin="round"></path>
<path d="M33.1983,32.3288S24.5749,17.472,36.0246,17.472c11.3362,0,2.8259,14.8568,2.8259,14.8568" fill="none" stroke="#FFFFFF" stroke-linecap="round" stroke-linejoin="round"></path>
<path d="M38.8646,32.2817s9.9163-14.0268,14.6843-3.6171c4.7207,10.3066-12.33,8.756-12.33,8.756" fill="none" stroke="#FFFFFF" stroke-linecap="round" stroke-linejoin="round"></path>
<path d="M33.1354,32.2817s-9.9163-14.0268-14.6843-3.6171c-4.7207,10.3066,12.3305,8.756,12.3305,8.756" fill="none" stroke="#FFFFFF" stroke-linecap="round" stroke-linejoin="round"></path>
<path d="M37.1828,41.4136s4.5821,16.5557,12.5927,8.3748c7.9311-8.1-8.6381-12.4134-8.6381-12.4134" fill="none" stroke="#FFFFFF" stroke-linecap="round" stroke-linejoin="round"></path><path d="M34.7624,41.4136S30.18,57.9693,22.17,49.7884c-7.9311-8.1,8.6381-12.4134,8.6381-12.4134" fill="none" stroke="#FFFFFF" stroke-linecap="round" stroke-linejoin="round"></path>
<path d="M35.8271,41.3094s1.3557,10.0329-1.0647,13.2186" fill="none" stroke="#FFFFFF" stroke-linecap="round" stroke-linejoin="round"></path>
<path d="M39.5476,39.8065s5.4948,6.2123,7.295,6.1608" fill="none" stroke="#FFFFFF" stroke-linecap="round" stroke-linejoin="round"></path>
<path d="M40.5776,34.525s8.7854-3.3711,8.7854-4.657" fill="none" stroke="#FFFFFF" stroke-linecap="round" stroke-linejoin="round"></path>
<path d="M36,31.4368s1.0387-7.1753,0-9.1813" fill="none" stroke="#FFFFFF" stroke-linecap="round" stroke-linejoin="round"></path>
<path d="M31.4228,34.525s-7.16-4.1941-8.9092-3.7312" fill="none" stroke="#FFFFFF" stroke-linecap="round" stroke-linejoin="round"></path>
<path d="M32.1786,39.5013s-5.4472,5.643-6.013,6.7232" fill="none" stroke="#FFFFFF" stroke-linecap="round" stroke-linejoin="round"></path></svg>