<svg xmlns:xlink="http://www.w3.org/1999/xlink" xmlns="http://www.w3.org/2000/svg" width="72" height="72" viewBox="0 0 72 72">
	<defs>
		<linearGradient id="vegetal-a" x1="12.9988" y1="10.4546" x2="59.8168" y2="62.4513" gradientUnits="userSpaceOnUse">
			<stop offset="0" stop-color="#fff" stop-opacity="0">
			</stop>
			<stop offset="1" stop-color="#fff" stop-opacity="0.2">
			</stop>
		</linearGradient>
		<linearGradient id="vegetal-a" x1="12.9988" y1="10.4546" x2="59.8168" y2="62.4513" gradientUnits="userSpaceOnUse">
			<stop offset="0" stop-color="#fff" stop-opacity="0">
			</stop>
			<stop offset="1" stop-color="#fff" stop-opacity="0.2">
			</stop>
		</linearGradient>
	</defs>
	<title>
		vegetal_72pt
	</title>
	<circle cx="36" cy="36" r="36" fill="#9C9A2A">
	</circle>
	<circle cx="36" cy="36" r="35" fill="url(#vegetal-a)">
	</circle>
	<path d="M35.4275,16.4429a1.28,1.28,0,0,1,1.145,0c1.8208.92,1.4407,2.8031,1.4407,4.8068,0,1.3269,5.4651-2.5892,5.4651.8789,0,2.5054-4.5557,2.5054-4.5557,4.6914,0,2.1978,5.5654-1.97,5.5654.7533,0,4.2738-8.488,5.4846-8.488,5.4846s-8.488-1.2108-8.488-5.4846c0-2.7237,5.5654,1.4445,5.5654-.7533,0-2.186-4.5557-2.186-4.5557-4.6914,0-3.4681,5.4651.448,5.4651-.8789C33.9868,19.246,33.6067,17.3631,35.4275,16.4429Z" fill="none" stroke="#FFFFFF" stroke-linecap="round" stroke-linejoin="round" fill-rule="evenodd">
	</path>
	<path d="M56.7478,38.3192a1.2787,1.2787,0,0,1,.1988,1.1275c-.59,1.953-2.51,1.9056-4.4836,2.2535-1.3068.23,3.4989,4.9325.0835,5.5348-2.4674.435-3.2585-4.0515-5.4113-3.6719-2.1644.3817,2.9069,5.1386.2246,5.6116-4.2089.7422-6.8752-7.4066-6.8752-7.4066s-.2815-8.5693,3.9274-9.3114c2.6823-.473-.4562,5.7316,1.7082,5.35,2.1528-.38,1.3617-4.866,3.8291-5.3011,3.4154-.6022.5078,5.46,1.8145,5.23C53.7371,37.387,55.5254,36.6858,56.7478,38.3192Z" fill="none" stroke="#FFFFFF" stroke-linecap="round" stroke-linejoin="round" fill-rule="evenodd">
	</path>
	<path d="M15.2522,38.3192a1.2787,1.2787,0,0,0-.1988,1.1275c.59,1.953,2.51,1.9056,4.4836,2.2535,1.3068.23-3.4989,4.9325-.0835,5.5348,2.4674.435,3.2585-4.0515,5.4113-3.6719,2.1644.3817-2.9069,5.1386-.2246,5.6116,4.2089.7422,6.8752-7.4066,6.8752-7.4066s.2815-8.5693-3.9274-9.3114c-2.6823-.473.4562,5.7316-1.7082,5.35-2.1528-.38-1.3617-4.866-3.8291-5.3011-3.4154-.6022-.5078,5.46-1.8145,5.23C18.2629,37.387,16.4746,36.6858,15.2522,38.3192Z" fill="none" stroke="#FFFFFF" stroke-linecap="round" stroke-linejoin="round" fill-rule="evenodd">
	</path>
	<line x1="36" y1="28.8138" x2="36" y2="55.6924" fill="none" stroke="#FFFFFF" stroke-linecap="round" stroke-linejoin="round">
	</line>
	<line x1="36" y1="42.5125" x2="23.2597" y2="40.3438" fill="none" stroke="#FFFFFF" stroke-linecap="round" stroke-linejoin="round">
	</line>
	<line x1="48.7403" y1="40.3438" x2="36" y2="42.5125" fill="none" stroke="#FFFFFF" stroke-linecap="round" stroke-linejoin="round">
	</line>
</svg>
