<svg xmlns:xlink="http://www.w3.org/1999/xlink" xmlns="http://www.w3.org/2000/svg" width="72" height="72" viewBox="0 0 72 72">
	<defs>
		<linearGradient id="citrus_fruit-a" x1="12.9988" y1="10.4546" x2="59.8168" y2="62.4513" gradientUnits="userSpaceOnUse">
			<stop offset="0" stop-color="#fff" stop-opacity="0">
			</stop>
			<stop offset="1" stop-color="#fff" stop-opacity="0.2">
			</stop>
		</linearGradient>
		<linearGradient id="citrus_fruit-a" x1="12.9988" y1="10.4546" x2="59.8168" y2="62.4513" gradientUnits="userSpaceOnUse">
			<stop offset="0" stop-color="#fff" stop-opacity="0">
			</stop>
			<stop offset="1" stop-color="#fff" stop-opacity="0.2">
			</stop>
		</linearGradient>
	</defs>
	<title>
		citrus_72pt
	</title>
	<circle cx="36" cy="36" r="36" fill="#EE803E">
	</circle>
	<circle cx="36" cy="36" r="35" fill="url(#citrus_fruit-a)">
	</circle>
	<path d="M49.1563,35.125a16.2686,16.2686,0,0,0-1.2478-6.4971c1.5377-3.6513,1.7607-6.6766.3027-8.2169s-4.3216-1.3047-7.7779.32a14.0834,14.0834,0,0,0-16.2889,3.2115A16.13,16.13,0,0,0,20.989,40.87c-1.8311,3.9859-2.19,7.3237-.6329,8.9685s4.7166,1.266,8.49-.6685A13.9872,13.9872,0,0,0,36.81,50.1778" fill="none" stroke="#FFFFFF" stroke-linecap="round" stroke-linejoin="round">
	</path>
	<path d="M41.2166,50.875c8.2337,0,14.9084-7.0515,14.9084-15.75H26.3082C26.3082,43.8235,32.9829,50.875,41.2166,50.875Z" fill="none" stroke="#FFFFFF" stroke-linecap="round" stroke-linejoin="round">
	</path>
	<path d="M43.25,39.2344l.111,7.1066A6.4887,6.4887,0,0,0,47.5461,44.7Z" fill="none" stroke="#FFFFFF" stroke-linecap="round" stroke-linejoin="round">
	</path>
	<path d="M46.9622,38.7523l3.9871,3.3591a5.5568,5.5568,0,0,0,1.11-3.3771Z" fill="none" stroke="#FFFFFF" stroke-linecap="round" stroke-linejoin="round">
	</path>
	<path d="M39.7875,39.2344l-.111,7.1066A6.4887,6.4887,0,0,1,35.4914,44.7Z" fill="none" stroke="#FFFFFF" stroke-linecap="round" stroke-linejoin="round">
	</path>
	<path d="M36.0753,38.7523l-3.9871,3.3591a5.5568,5.5568,0,0,1-1.11-3.3771Z" fill="none" stroke="#FFFFFF" stroke-linecap="round" stroke-linejoin="round">
	</path>
	<path d="M41.6075,31.413a.75.75,0,0,0,0-1.5.75.75,0,0,0,0,1.5Z" fill="#FFFFFF">
	</path>
	<path d="M33.4263,28.1719a.75.75,0,0,0,0-1.5.75.75,0,0,0,0,1.5Z" fill="#FFFFFF">
	</path>
	<path d="M30.3584,29.2523a.75.75,0,0,0,0-1.5.75.75,0,0,0,0,1.5Z" fill="#FFFFFF">
	</path>
</svg>
