<svg xmlns:xlink="http://www.w3.org/1999/xlink" xmlns="http://www.w3.org/2000/svg" width="72" height="72" viewBox="0 0 72 72">
	<defs>
		<linearGradient id="dried_fruit-a" x1="12.9988" y1="10.4546" x2="59.8168" y2="62.4513" gradientUnits="userSpaceOnUse">
			<stop offset="0" stop-color="#fff" stop-opacity="0">
			</stop>
			<stop offset="1" stop-color="#fff" stop-opacity="0.2">
			</stop>
		</linearGradient>
		<linearGradient id="dried_fruit-a" x1="12.9988" y1="10.4546" x2="59.8168" y2="62.4513" gradientUnits="userSpaceOnUse">
			<stop offset="0" stop-color="#fff" stop-opacity="0">
			</stop>
			<stop offset="1" stop-color="#fff" stop-opacity="0.2">
			</stop>
		</linearGradient>
	</defs>
	<title>
		driedfruit_72pt
	</title>
	<circle cx="36" cy="36" r="36" fill="#B9655D">
	</circle>
	<circle cx="36" cy="36" r="35" fill="url(#dried_fruit-a)">
	</circle>
	<path d="M33.6611,28.519c-1.84-1.9716-3.3121-2.0641-3.9115-3.0676-1.0639-1.7811.1864-5.6389-2.1893-5.6389s-1.2961,3.2261-2.8027,5.8308c-.8263,1.4285-2.7543,2.0544-4.3277,3.8147a11.044,11.044,0,0,0-2.3444,2.5464l-.0061.0064h.0019a10.5159,10.5159,0,0,0-1.7688,5.8362c0,5.8576.7415,10.6308,10.5626,10.84.2237.0048.4521-.5411.6852-.5411.2886,0,.57.5446.8437.5373A12.1665,12.1665,0,0,0,33.32,47.71" fill="none" stroke="#FFFFFF" stroke-linecap="round" stroke-linejoin="round">
	</path>
	<path d="M32.2,31.9165A10.7512,10.7512,0,0,0,30.6511,29.63" fill="none" stroke="#FFFFFF" stroke-linecap="round" stroke-linejoin="round">
	</path>
	<path d="M24.3056,30.9024c-5.5656,5.0563-5.6325,11.0894-2.6611,13.3389" fill="none" stroke="#FFFFFF" stroke-linecap="round" stroke-linejoin="round">
	</path>
	<path d="M27.56,29.0826a49.4069,49.4069,0,0,0-1.4007,10.61C26.3035,44,27.56,45.1662,27.56,45.1662" fill="none" stroke="#FFFFFF" stroke-linecap="round" stroke-linejoin="round">
	</path>
	<path d="M53.9187,32.0108h.0019l-.0061-.0062a11.0591,11.0591,0,0,0-2.6069-2.7456c-1.8406-1.9716-4.0794-2.804-4.6788-3.8076-1.0638-1.7811.1865-5.6389-2.1892-5.6389s-1.2962,3.2261-2.8027,5.8308c-.8264,1.4285-2.7543,2.0544-4.3277,3.8147a11.04,11.04,0,0,0-2.3444,2.5465l-.0061.0063h.0018a10.5167,10.5167,0,0,0-1.7688,5.8362c0,5.8576.7415,10.6308,10.5627,10.84.2237.0047.452-.5411.6852-.5411.2885,0,.57.5446.8436.5373,9.6708-.2575,10.4043-5.0108,10.4043-10.8367A10.5159,10.5159,0,0,0,53.9187,32.0108Z" fill="none" stroke="#FFFFFF" stroke-linecap="round" stroke-linejoin="round">
	</path>
	<path d="M52.4492,37.8456c0,4.0348-.136,7.347-6.7977,7.6945-.3821.02-.7856-.3052-1.2119-.3052-.3433,0-.672.3287-.9866.3157-6.8839-.2842-7.0229-3.6252-7.0229-7.705a8.0148,8.0148,0,0,1,16.0191,0Z" fill="none" stroke="#FFFFFF" stroke-linecap="round" stroke-linejoin="round">
	</path>
	<path d="M40.4825,41.7886a.75.75,0,0,0,0-1.5.75.75,0,0,0,0,1.5Z" fill="#FFFFFF">
	</path>
	<path d="M40.4825,44.7484a.75.75,0,0,0,0-1.5.75.75,0,0,0,0,1.5Z" fill="#FFFFFF">
	</path>
	<path d="M43.7125,43.2685a.75.75,0,0,0,0-1.5.75.75,0,0,0,0,1.5Z" fill="#FFFFFF">
	</path>
	<path d="M45.8532,41.3124a.75.75,0,0,0,0-1.5.75.75,0,0,0,0,1.5Z" fill="#FFFFFF">
	</path>
	<path d="M46.4419,43.8453a.75.75,0,0,0,0-1.5.75.75,0,0,0,0,1.5Z" fill="#FFFFFF">
	</path>
	<path d="M48.9221,42.5286a.75.75,0,0,0,0-1.5.75.75,0,0,0,0,1.5Z" fill="#FFFFFF">
	</path>
	<path d="M51.2238,40.3087a.75.75,0,0,0,0-1.5.75.75,0,0,0,0,1.5Z" fill="#FFFFFF">
	</path>
	<path d="M48.9221,38.4148a.75.75,0,0,0,0-1.5.75.75,0,0,0,0,1.5Z" fill="#FFFFFF">
	</path>
	<path d="M45.8532,38.8289a.75.75,0,0,0,0-1.5.75.75,0,0,0,0,1.5Z" fill="#FFFFFF">
	</path>
	<path d="M42.7842,39.87a.75.75,0,0,0,0-1.5.75.75,0,0,0,0,1.5Z" fill="#FFFFFF">
	</path>
	<path d="M41.6837,38.0889a.75.75,0,0,0,0-1.5.75.75,0,0,0,0,1.5Z" fill="#FFFFFF">
	</path>
	<path d="M38.1808,39.5688a.75.75,0,0,0,0-1.5.75.75,0,0,0,0,1.5Z" fill="#FFFFFF">
	</path>
	<path d="M38.948,36.609a.75.75,0,0,0,0-1.5.75.75,0,0,0,0,1.5Z" fill="#FFFFFF">
	</path>
	<path d="M41.25,35.1291a.75.75,0,0,0,0-1.5.75.75,0,0,0,0,1.5Z" fill="#FFFFFF">
	</path>
	<path d="M42.017,32.9093a.75.75,0,0,0,0-1.5.75.75,0,0,0,0,1.5Z" fill="#FFFFFF">
	</path>
	<path d="M45.0859,33.6493a.75.75,0,0,0,0-1.5.75.75,0,0,0,0,1.5Z" fill="#FFFFFF">
	</path>
	<path d="M44.3187,35.8691a.75.75,0,0,0,0-1.5.75.75,0,0,0,0,1.5Z" fill="#FFFFFF">
	</path>
	<path d="M47.3876,36.609a.75.75,0,0,0,0-1.5.75.75,0,0,0,0,1.5Z" fill="#FFFFFF">
	</path>
	<path d="M51.2238,36.609a.75.75,0,0,0,0-1.5.75.75,0,0,0,0,1.5Z" fill="#FFFFFF">
	</path>
	<path d="M48.7882,35.1291a.75.75,0,0,0,0-1.5.75.75,0,0,0,0,1.5Z" fill="#FFFFFF">
	</path>
	<path d="M48.1549,32.9093a.75.75,0,0,0,0-1.5.75.75,0,0,0,0,1.5Z" fill="#FFFFFF">
	</path>
</svg>
