<svg xmlns:xlink="http://www.w3.org/1999/xlink" xmlns="http://www.w3.org/2000/svg" width="72" height="72" viewBox="0 0 72 72">
	<defs>
		<linearGradient id="spices-a" x1="12.9988" y1="10.4546" x2="59.8168" y2="62.4513" gradientUnits="userSpaceOnUse">
			<stop offset="0" stop-color="#fff" stop-opacity="0">
			</stop>
			<stop offset="1" stop-color="#fff" stop-opacity="0.2">
			</stop>
		</linearGradient>
		<linearGradient id="spices-a" x1="12.9988" y1="10.4546" x2="59.8168" y2="62.4513" gradientUnits="userSpaceOnUse">
			<stop offset="0" stop-color="#fff" stop-opacity="0">
			</stop>
			<stop offset="1" stop-color="#fff" stop-opacity="0.2">
			</stop>
		</linearGradient>
	</defs>
	<title>
		spices_72pt
	</title>
	<circle cx="36" cy="36" r="36" fill="#B19157">
	</circle>
	<circle cx="36" cy="36" r="35" fill="url(#spices-a)">
	</circle>
	<rect x="26.9846" y="50.7348" width="18.0308" height="3.6402" rx="0.91" fill="none" stroke="#FFFFFF" stroke-linecap="round" stroke-linejoin="round">
	</rect>
	<line x1="36.0896" y1="36.3042" x2="45.5814" y2="27.4532" fill="none" stroke="#FFFFFF" stroke-linecap="round" stroke-linejoin="round">
	</line>
	<line x1="48.6527" y1="30.7888" x2="44.2468" y2="36.3622" fill="none" stroke="#FFFFFF" stroke-linecap="round" stroke-linejoin="round">
	</line>
	<path d="M49.7953,31.2682,45.14,26.2122a2.2157,2.2157,0,0,1,0-2.9417h0a1.8147,1.8147,0,0,1,2.7085,0l4.6553,5.056a2.2157,2.2157,0,0,1,0,2.9417h0A1.815,1.815,0,0,1,49.7953,31.2682Z" fill="none" stroke="#FFFFFF" stroke-linecap="round" stroke-linejoin="round">
	</path>
	<path d="M34.6125,20.8754a7.9293,7.9293,0,0,0-.8106,6.4474,6.71,6.71,0,0,0,5.19-3.2505,7.929,7.929,0,0,0,.8106-6.4473A6.7093,6.7093,0,0,0,34.6125,20.8754Z" fill="none" stroke="#FFFFFF" stroke-linecap="round" stroke-linejoin="round">
	</path>
	<line x1="37.6638" y1="21.075" x2="32.1739" y2="29.9904" fill="none" stroke="#FFFFFF" stroke-linecap="round" stroke-linejoin="round">
	</line>
	<path d="M20.2672,28.2845a8.85,8.85,0,0,0,6.6387,4.53A10.3952,10.3952,0,0,0,26.14,24.34a8.85,8.85,0,0,0-6.6386-4.53A10.3946,10.3946,0,0,0,20.2672,28.2845Z" fill="none" stroke="#FFFFFF" stroke-linecap="round" stroke-linejoin="round">
	</path>
	<line x1="22.1335" y1="24.442" x2="28.9548" y2="36.3622" fill="none" stroke="#FFFFFF" stroke-linecap="round" stroke-linejoin="round">
	</line>
	<path d="M20.6093,36.3042v5.07c0,5.1482,3.8783,9.36,8.6185,9.36H42.7722c4.74,0,8.6185-4.2121,8.6185-9.36v-5.07Z" fill="none" stroke="#FFFFFF" stroke-linecap="round" stroke-linejoin="round">
	</path>
</svg>
