<svg xmlns:xlink="http://www.w3.org/1999/xlink" xmlns="http://www.w3.org/2000/svg" width="72" height="72" viewBox="0 0 72 72">
	<defs>
		<linearGradient id="red_fruit-a" x1="12.9988" y1="10.4546" x2="59.8168" y2="62.4513" gradientUnits="userSpaceOnUse">
			<stop offset="0" stop-color="#fff" stop-opacity="0">
			</stop>
			<stop offset="1" stop-color="#fff" stop-opacity="0.2">
			</stop>
		</linearGradient>
		<linearGradient id="red_fruit-a" x1="12.9988" y1="10.4546" x2="59.8168" y2="62.4513" gradientUnits="userSpaceOnUse">
			<stop offset="0" stop-color="#fff" stop-opacity="0">
			</stop>
			<stop offset="1" stop-color="#fff" stop-opacity="0.2">
			</stop>
		</linearGradient>
	</defs>
	<title>
		redberries_72pt
	</title>
	<circle cx="36" cy="36" r="36" fill="#C73A31">
	</circle>
	<circle cx="36" cy="36" r="35" fill="url(#red_fruit-a)">
	</circle>
	<path d="M42.4453,22.7183a5.1922,5.1922,0,0,0,4.5088.7055,5.18,5.18,0,0,0-6.7094-4.6932A5.1631,5.1631,0,0,0,42.4453,22.7183Z" fill="none" stroke="#FFFFFF" stroke-linecap="round" stroke-linejoin="round">
	</path>
	<path d="M46.5467,24.5526s-10.0771-1.684-16.7,6.6649" fill="none" stroke="#FFFFFF" stroke-linecap="round" stroke-linejoin="round">
	</path>
	<path d="M35.5509,35.7626c-.3655-2.0165-1.29-3.6232-2.3336-3.9775-1.8337-.6223-2.35.11-3.2293-.188s-1.0019-1.2479-2.6818-1.818c-1.53-.5192-5.8362,2.1383-7.0875,5.8056a7.7893,7.7893,0,0,0,5.0252,9.9179,7.6443,7.6443,0,0,0,7.8084-1.5079" fill="none" stroke="#FFFFFF" stroke-linecap="round" stroke-linejoin="round">
	</path>
	<path d="M35.5509,35.7626a3.51,3.51,0,0,1,2.1164-1.31c1.7744,0,2.1973.8595,3.126.8595s1.1809-.8595,3.1179-.8595,4.7763,3.7709,4.7763,7.7739A7.6691,7.6691,0,0,1,40.7933,50a7.7882,7.7882,0,0,1-7.741-6.0053" fill="none" stroke="#FFFFFF" stroke-linecap="round" stroke-linejoin="round">
	</path>
	<path d="M35.5509,35.7626a10.09,10.09,0,0,0-2.7182,6.4626,7.6,7.6,0,0,0,.22,1.77" fill="none" stroke="#FFFFFF" stroke-linecap="round" stroke-linejoin="round">
	</path>
	<path d="M46.9959,24.5279a12.8551,12.8551,0,0,0-6.2026,10.7837" fill="none" stroke="#FFFFFF" stroke-linecap="round" stroke-linejoin="round">
	</path>
</svg>
