<svg xmlns:xlink="http://www.w3.org/1999/xlink" xmlns="http://www.w3.org/2000/svg" width="72" height="72" viewBox="0 0 72 72">
	<defs>
		<linearGradient id="tree_fruit-a" x1="12.9988" y1="10.4546" x2="59.8168" y2="62.4513" gradientUnits="userSpaceOnUse">
			<stop offset="0" stop-color="#fff" stop-opacity="0">
			</stop>
			<stop offset="1" stop-color="#fff" stop-opacity="0.2">
			</stop>
		</linearGradient>
		<linearGradient id="tree_fruit-a" x1="12.9988" y1="10.4546" x2="59.8168" y2="62.4513" gradientUnits="userSpaceOnUse">
			<stop offset="0" stop-color="#fff" stop-opacity="0">
			</stop>
			<stop offset="1" stop-color="#fff" stop-opacity="0.2">
			</stop>
		</linearGradient>
	</defs>
	<title>
		treefruit_72pt
	</title>
	<circle cx="36" cy="36" r="36" fill="#819632">
	</circle>
	<circle cx="36" cy="36" r="35" fill="url(#tree_fruit-a)">
	</circle>
	<path d="M34.7092,18.1557a5.3221,5.3221,0,0,0,4.3173-.6635,4.8285,4.8285,0,0,0-3.2125-2.737,5.3222,5.3222,0,0,0-4.3172.6634A4.8285,4.8285,0,0,0,34.7092,18.1557Z" fill="none" stroke="#FFFFFF" stroke-linecap="round" stroke-linejoin="round">
	</path>
	<path d="M41.39,17.0226s-5.9485,1.2245-5.9485,6.2479" fill="none" stroke="#FFFFFF" stroke-linecap="round" stroke-linejoin="round">
	</path>
	<path d="M42.6891,31.5052v-3.79c0-3.6355-3.2307-6.61-7.18-6.61h0c-3.9486,0-7.1794,2.9745-7.1794,6.61V31.891A10.7847,10.7847,0,0,0,32.713,52.4973,10.5515,10.5515,0,0,0,36,51.9728v-.0034a10.5473,10.5473,0,0,0,3.2867.5279,10.7834,10.7834,0,0,0,3.4023-20.9921Z" fill="none" stroke="#FFFFFF" stroke-linecap="round" stroke-linejoin="round">
	</path>
	<path d="M33.65,23.5506a6.8608,6.8608,0,0,0,2.1247.56,2.3533,2.3533,0,0,0,1.46-.56" fill="none" stroke="#FFFFFF" stroke-linecap="round" stroke-linejoin="round">
	</path>
	<polyline points="34.861 53.937 36 51.969 36.902 53.785" fill="none" stroke="#FFFFFF" stroke-linecap="round" stroke-linejoin="round">
	</polyline>
</svg>
