<svg xmlns:xlink="http://www.w3.org/1999/xlink" xmlns="http://www.w3.org/2000/svg" width="72" height="72" viewBox="0 0 72 72">
	<defs>
		<linearGradient id="oak-a" x1="12.9988" y1="10.4546" x2="59.8168" y2="62.4513" gradientUnits="userSpaceOnUse">
			<stop offset="0" stop-color="#fff" stop-opacity="0">
			</stop>
			<stop offset="1" stop-color="#fff" stop-opacity="0.2">
			</stop>
		</linearGradient>
		<linearGradient id="oak-a" x1="12.9988" y1="10.4546" x2="59.8168" y2="62.4513" gradientUnits="userSpaceOnUse">
			<stop offset="0" stop-color="#fff" stop-opacity="0">
			</stop>
			<stop offset="1" stop-color="#fff" stop-opacity="0.2">
			</stop>
		</linearGradient>
	</defs>
	<title>
		oaky_72pt
	</title>
	<circle cx="36" cy="36" r="36" fill="#8C5433">
	</circle>
	<circle cx="36" cy="36" r="35" fill="url(#oak-a)">
	</circle>
	<path d="M48.575,23.6524a28.3492,28.3492,0,0,0-1.5109-3.6384,1.6569,1.6569,0,0,0-1.4545-.95l-19.0255-.1263a1.6538,1.6538,0,0,0-1.4655.9309,28.3167,28.3167,0,0,0-1.5532,3.6183" fill="none" stroke="#FFFFFF" stroke-linecap="round" stroke-linejoin="round" fill-rule="evenodd">
	</path>
	<path d="M49.7867,42.7442a40.2459,40.2459,0,0,0,.04-14.19" fill="none" stroke="#FFFFFF" stroke-linecap="round" stroke-linejoin="round" fill-rule="evenodd">
	</path>
	<path d="M23.3478,47.4621A27.8684,27.8684,0,0,0,25.3064,52.04a1.6553,1.6553,0,0,0,1.4293.9011l18.3273.1216a1.6519,1.6519,0,0,0,1.44-.8821,27.8214,27.8214,0,0,0,2.0116-4.5513" fill="none" stroke="#FFFFFF" stroke-linecap="round" stroke-linejoin="round" fill-rule="evenodd">
	</path>
	<path d="M22.2566,28.3711a40.2436,40.2436,0,0,0-.1244,14.19" fill="none" stroke="#FFFFFF" stroke-linecap="round" stroke-linejoin="round" fill-rule="evenodd">
	</path>
	<path d="M42.2571,23.6107c-.1884-1.1437-.4038-2.2288-.6434-3.2453a1.6777,1.6777,0,0,0-1.5924-1.3387l-7.8489-.0521a1.6741,1.6741,0,0,0-1.6078,1.3175c-.2515,1.0133-.4795,2.0954-.6811,3.2366" fill="none" stroke="#FFFFFF" stroke-linecap="round" stroke-linejoin="round" fill-rule="evenodd">
	</path>
	<path d="M42.8005,42.6978c.209-2.209.3281-4.5518.3421-6.9791.0146-2.511-.0842-4.9327-.28-7.2107" fill="none" stroke="#FFFFFF" stroke-linecap="round" stroke-linejoin="round" fill-rule="evenodd">
	</path>
	<path d="M29.7054,47.5041c.24,1.4948.5255,2.8917.8509,4.1692A1.6732,1.6732,0,0,0,32.14,52.9767l7.5179.05a1.67,1.67,0,0,0,1.5991-1.2823c.34-1.2731.6421-2.6661.8993-4.1576" fill="none" stroke="#FFFFFF" stroke-linecap="round" stroke-linejoin="round" fill-rule="evenodd">
	</path>
	<path d="M29.2215,28.4174c-.2226,2.2753-.35,4.6955-.3641,7.2065-.0141,2.4273.0777,4.7715.261,6.9831" fill="none" stroke="#FFFFFF" stroke-linecap="round" stroke-linejoin="round" fill-rule="evenodd">
	</path>
	<path d="M48.5652,28.5458,23.5185,28.38a1.7284,1.7284,0,0,1-1.6179-2.0334l.2-1.369a1.6849,1.6849,0,0,1,1.6383-1.4893l24.6622.1637a1.6883,1.6883,0,0,1,1.6208,1.5109l.1844,1.3715A1.7251,1.7251,0,0,1,48.5652,28.5458Z" fill="none" stroke="#FFFFFF" stroke-linecap="round" stroke-linejoin="round" fill-rule="evenodd">
	</path>
	<path d="M48.2621,47.6271,23.6,47.4635a1.6885,1.6885,0,0,1-1.6209-1.5109l-.1844-1.3716a1.7252,1.7252,0,0,1,1.6414-2.0118l25.0467.1662a1.7283,1.7283,0,0,1,1.6179,2.0334l-.2,1.3691A1.6848,1.6848,0,0,1,48.2621,47.6271Z" fill="none" stroke="#FFFFFF" stroke-linecap="round" stroke-linejoin="round" fill-rule="evenodd">
	</path>
</svg>
