<svg xmlns:xlink="http://www.w3.org/1999/xlink" xmlns="http://www.w3.org/2000/svg" width="72" height="72" viewBox="0 0 72 72">
	<defs>
		<linearGradient id="tropical_fruit-a" x1="12.9988" y1="10.4546" x2="59.8168" y2="62.4513" gradientUnits="userSpaceOnUse">
			<stop offset="0" stop-color="#fff" stop-opacity="0">
			</stop>
			<stop offset="1" stop-color="#fff" stop-opacity="0.2">
			</stop>
		</linearGradient>
		<linearGradient id="tropical_fruit-a" x1="12.9988" y1="10.4546" x2="59.8168" y2="62.4513" gradientUnits="userSpaceOnUse">
			<stop offset="0" stop-color="#fff" stop-opacity="0">
			</stop>
			<stop offset="1" stop-color="#fff" stop-opacity="0.2">
			</stop>
		</linearGradient>
	</defs>
	<title>
		tropical_72pt
	</title>
	<circle cx="36" cy="36" r="36" fill="#E99228">
	</circle>
	<circle cx="36" cy="36" r="35" fill="url(#tropical_fruit-a)">
	</circle>
	<path d="M42.3812,27.0442H29.6187A9.2869,9.2869,0,0,0,25.5,34.6409V45.7664c0,5.216,4.5756,9.4836,10.1681,9.4836h.6638c5.5925,0,10.1681-4.2676,10.1681-9.4836V34.6409A9.2869,9.2869,0,0,0,42.3812,27.0442Z" fill="none" stroke="#FFFFFF" stroke-linecap="round" stroke-linejoin="round">
	</path>
	<path d="M27.6057,51.3949a2.6529,2.6529,0,0,0,2.7118-1.7806,2.6527,2.6527,0,0,0,2.7118,1.7806" fill="none" stroke="#FFFFFF" stroke-linecap="round" stroke-linejoin="round">
	</path>
	<path d="M38.8865,51.3949a2.6529,2.6529,0,0,0,2.7118-1.7806A2.6527,2.6527,0,0,0,44.31,51.3949" fill="none" stroke="#FFFFFF" stroke-linecap="round" stroke-linejoin="round">
	</path>
	<path d="M27.6057,42.8463a2.6529,2.6529,0,0,0,2.7118-1.7807,2.6528,2.6528,0,0,0,2.7118,1.7807" fill="none" stroke="#FFFFFF" stroke-linecap="round" stroke-linejoin="round">
	</path>
	<path d="M38.8865,42.8463a2.6529,2.6529,0,0,0,2.7118-1.7807A2.6528,2.6528,0,0,0,44.31,42.8463" fill="none" stroke="#FFFFFF" stroke-linecap="round" stroke-linejoin="round">
	</path>
	<path d="M33.2461,47.4494a2.6529,2.6529,0,0,0,2.7118-1.7807A2.6528,2.6528,0,0,0,38.67,47.4494" fill="none" stroke="#FFFFFF" stroke-linecap="round" stroke-linejoin="round">
	</path>
	<path d="M27.6057,34.2976a2.6529,2.6529,0,0,0,2.7118-1.7807,2.6528,2.6528,0,0,0,2.7118,1.7807" fill="none" stroke="#FFFFFF" stroke-linecap="round" stroke-linejoin="round">
	</path>
	<path d="M38.8865,34.2976a2.6529,2.6529,0,0,0,2.7118-1.7807A2.6528,2.6528,0,0,0,44.31,34.2976" fill="none" stroke="#FFFFFF" stroke-linecap="round" stroke-linejoin="round">
	</path>
	<path d="M33.2461,38.9007A2.6529,2.6529,0,0,0,35.9579,37.12,2.6527,2.6527,0,0,0,38.67,38.9007" fill="none" stroke="#FFFFFF" stroke-linecap="round" stroke-linejoin="round">
	</path>
	<path d="M33.2461,30.352a2.6529,2.6529,0,0,0,2.7118-1.7806A2.6527,2.6527,0,0,0,38.67,30.352" fill="none" stroke="#FFFFFF" stroke-linecap="round" stroke-linejoin="round">
	</path>
	<polyline points="33.977 19.304 35.958 13.25 37.945 19.309" fill="none" stroke="#FFFFFF" stroke-linecap="round" stroke-linejoin="round">
	</polyline>
	<line x1="31.4453" y1="27.0442" x2="34.8439" y2="27.0442" fill="none" stroke="#FFFFFF" stroke-linecap="round" stroke-linejoin="round">
	</line>
	<line x1="37.0827" y1="27.0441" x2="40.4812" y2="27.044" fill="none" stroke="#FFFFFF" stroke-linecap="round" stroke-linejoin="round">
	</line>
	<line x1="36.6706" y1="27.0441" x2="37.0827" y2="27.0441" fill="none" stroke="#FFFFFF" stroke-linecap="round" stroke-linejoin="round">
	</line>
	<line x1="36.6706" y1="27.0441" x2="34.8439" y2="27.0442" fill="none" stroke="#FFFFFF" stroke-linecap="round" stroke-linejoin="round">
	</line>
	<path d="M30.5818,21.3013a14.762,14.762,0,0,0-4.769-.9773,7.5788,7.5788,0,0,1,3.8058,6.72h1.8267" fill="none" stroke="#FFFFFF" stroke-linecap="round" stroke-linejoin="round">
	</path>
	<line x1="34.8439" y1="27.0442" x2="34.8439" y2="27.0442" fill="none" stroke="#FFFFFF" stroke-linecap="round" stroke-linejoin="round">
	</line>
	<path d="M37.0827,27.0441h5.2252a7.5788,7.5788,0,0,1,3.8059-6.72,14.76,14.76,0,0,0-4.7691.9773" fill="none" stroke="#FFFFFF" stroke-linecap="round" stroke-linejoin="round">
	</path>
	<line x1="37.0827" y1="27.0441" x2="37.0827" y2="27.044" fill="none" stroke="#FFFFFF" stroke-linecap="round" stroke-linejoin="round">
	</line>
	<path d="M30.5818,21.3013A10.5442,10.5442,0,0,0,27.64,16.4907a9.9039,9.9039,0,0,1,6.3379,2.8135" fill="none" stroke="#FFFFFF" stroke-linecap="round" stroke-linejoin="round">
	</path>
	<path d="M33.9774,19.3042a8.909,8.909,0,0,1,1.9859,3.2547" fill="none" stroke="#FFFFFF" stroke-linecap="round" stroke-linejoin="round">
	</path>
	<path d="M36.6706,27.044a13.2646,13.2646,0,0,0-.7073-4.4851" fill="none" stroke="#FFFFFF" stroke-linecap="round" stroke-linejoin="round">
	</path>
	<path d="M30.5818,21.3013a18.14,18.14,0,0,1,.8635,5.7429" fill="none" stroke="#FFFFFF" stroke-linecap="round" stroke-linejoin="round">
	</path>
	<polyline points="36.671 27.044 36.671 27.044 34.844 27.044" fill="none" stroke="#FFFFFF" stroke-linecap="round" stroke-linejoin="round">
	</polyline>
	<line x1="36.6706" y1="27.0441" x2="36.6706" y2="27.044" fill="none" stroke="#FFFFFF" stroke-linecap="round" stroke-linejoin="round">
	</line>
	<line x1="31.4453" y1="27.0442" x2="34.8439" y2="27.0442" fill="none" stroke="#FFFFFF" stroke-linecap="round" stroke-linejoin="round">
	</line>
	<path d="M41.3447,21.3013a18.135,18.135,0,0,0-.8635,5.7427" fill="none" stroke="#FFFFFF" stroke-linecap="round" stroke-linejoin="round">
	</path>
	<path d="M37.9446,19.3087a8.9084,8.9084,0,0,0-1.9813,3.25" fill="none" stroke="#FFFFFF" stroke-linecap="round" stroke-linejoin="round">
	</path>
	<line x1="36.6706" y1="27.044" x2="37.0827" y2="27.044" fill="none" stroke="#FFFFFF" stroke-linecap="round" stroke-linejoin="round">
	</line>
	<path d="M41.3447,21.3013a10.5429,10.5429,0,0,1,2.9424-4.8107,9.9025,9.9025,0,0,0-6.3425,2.8181" fill="none" stroke="#FFFFFF" stroke-linecap="round" stroke-linejoin="round">
	</path>
	<line x1="40.4812" y1="27.044" x2="37.0827" y2="27.044" fill="none" stroke="#FFFFFF" stroke-linecap="round" stroke-linejoin="round">
	</line>
</svg>
