<svg xmlns:xlink="http://www.w3.org/1999/xlink" xmlns="http://www.w3.org/2000/svg" width="72" height="72" viewBox="0 0 72 72">
	<defs>
		<linearGradient id="microbio-a" x1="12.9988" y1="10.4546" x2="59.8168" y2="62.4513" gradientUnits="userSpaceOnUse">
			<stop offset="0" stop-color="#fff" stop-opacity="0">
			</stop>
			<stop offset="1" stop-color="#fff" stop-opacity="0.2">
			</stop>
		</linearGradient>
		<linearGradient id="microbio-a" x1="12.9988" y1="10.4546" x2="59.8168" y2="62.4513" gradientUnits="userSpaceOnUse">
			<stop offset="0" stop-color="#fff" stop-opacity="0">
			</stop>
			<stop offset="1" stop-color="#fff" stop-opacity="0.2">
			</stop>
		</linearGradient>
	</defs>
	<title>
		yeasty_72pt
	</title>
	<circle cx="36" cy="36" r="36" fill="#C38349">
	</circle>
	<circle cx="36" cy="36" r="35" fill="url(#microbio-a)">
	</circle>
	<path d="M31.89,24.1525a20.3161,20.3161,0,0,1,8.22,0c4.4864.9266,11.4794,3.271,14.8505,9.1055,7.0348,12.1756-6.3867,10.9772-6.3867,10.9772H23.4262S10.0047,45.4336,17.04,33.258C20.4106,27.4235,27.4036,25.0791,31.89,24.1525Z" fill="none" stroke="#FFFFFF" stroke-linecap="round" stroke-linejoin="round">
	</path>
	<path d="M28.9975,24.9374l-.4122,8.5951s.2812,2.32-2.5629,2.32-2.5629-2.32-2.5629-2.32l.4122-6.47" fill="none" stroke="#FFFFFF" stroke-linecap="round" stroke-linejoin="round">
	</path>
	<path d="M38.5629,23.8949l-.4122,9.6376s.2812,2.32-2.5629,2.32-2.5629-2.32-2.5629-2.32l.4122-9.6376" fill="none" stroke="#FFFFFF" stroke-linecap="round" stroke-linejoin="round">
	</path>
	<path d="M43.07,24.9374l-.4122,8.5951s-.2812,2.32,2.5628,2.32,2.5629-2.32,2.5629-2.32l.4122-6.47" fill="none" stroke="#FFFFFF" stroke-linecap="round" stroke-linejoin="round">
	</path>
</svg>
