<svg width="36" height="36" viewBox="0 0 36 36" fill="none" xmlns="http://www.w3.org/2000/svg">
    <defs>
        <linearGradient id="paint0_linear_2_14328" x1="27.7083" y1="31.1111" x2="6.80556"
            y2="3.88888" gradientUnits="userSpaceOnUse">
            <stop stop-color="#765A50" />
            <stop offset="1" stop-color="#441E10" />
        </linearGradient>
    </defs>
    <circle cx="18" cy="18" r="18" fill="#441E10" />
    <circle cx="17.5" cy="17.5" r="17.5" fill="url(#paint0_linear_2_14328)" />
    <path
        d="M14.3267 9.86957L14.1744 8.7628C14.5889 8.00757 17.5857 8.00757 18.1444 8.00757C22.4115 7.91132 22.9626 8.7628 22.9118 8.85904C22.861 8.95528 22.7086 9.43648 22.7086 9.86956C25.4009 12.035 26.2137 13.3824 26.4168 13.8155C26.874 17.4245 25.2993 22.3809 25.2485 22.6215C24.2325 26.0381 22.9626 27.2892 21.9974 27.6742C21.0323 28.0592 16.9176 28.1554 15.2413 27.6742C12.9554 27.2411 12.0408 23.0065 11.7868 22.6215C10.1615 17.7614 10.5169 14.1523 10.5677 13.8155C12.3456 11.0726 13.0907 11.0726 14.3267 9.86957Z"
        stroke="#F6F3F0" stroke-width="0.5" stroke-linecap="round" stroke-linejoin="round" />
    <path
        d="M14.3282 9.86969C15.0901 10.399 20.2715 10.9765 22.7098 9.86969M14.2266 8.90728C15.0393 9.58096 22.1511 9.72533 22.913 8.81104"
        stroke="#F6F3F0" stroke-width="0.5" stroke-linecap="round" stroke-linejoin="round" />
    <path d="M10.7695 14.2002C11.0235 15.0182 13.9258 16.1437 18.4972 15.6024" stroke="#F6F3F0"
        stroke-width="0.5" stroke-linecap="round" stroke-linejoin="round" />
    <path d="M23.1172 15.3553C23.7776 15.2591 24.8951 15.1147 25.5047 14.7297" stroke="#F6F3F0"
        stroke-width="0.5" stroke-linecap="round" stroke-linejoin="round" />
    <path
        d="M16.4141 19.2531C18.446 17.0877 20.3255 15.1629 21.0367 14.1523C23.0686 16.029 24.3386 17.4245 25.3037 18.9644C25.1513 19.3493 22.8654 22.5734 21.1891 24.1133C21.1891 24.1133 18.3952 21.3223 16.4141 19.2531Z"
        stroke="#F6F3F0" stroke-width="0.5" stroke-linecap="round" stroke-linejoin="round" />
    <path
        d="M23.1305 17.4674C23.0831 17.5128 23.0356 17.5438 22.9882 17.5604C22.9408 17.5728 22.8631 17.579 22.7553 17.579C22.7338 17.579 22.7122 17.581 22.6906 17.5852C22.6734 17.5893 22.6432 17.5996 22.6001 17.6161C22.5569 17.6285 22.4987 17.6492 22.4254 17.6781C22.3521 17.7029 22.2529 17.7381 22.1278 17.7835C22.1925 17.8373 22.2357 17.8931 22.2572 17.9509C22.2831 18.0088 22.3003 18.0729 22.309 18.1431C22.4383 18.1597 22.5548 18.1927 22.6583 18.2423C22.7661 18.2919 22.8523 18.3498 22.917 18.4159C22.986 18.482 23.0356 18.5564 23.0658 18.6391C23.096 18.7176 23.1025 18.7962 23.0852 18.8747C23.0766 18.916 23.0701 18.9532 23.0658 18.9863C23.0615 19.0152 23.0572 19.0524 23.0529 19.0979C23.0529 19.1433 23.0529 19.2033 23.0529 19.2777C23.0572 19.3521 23.0637 19.4513 23.0723 19.5752C23.0895 19.877 23.0917 20.1766 23.0788 20.4742C23.0658 20.7677 23.0313 21.0714 22.9753 21.3856C22.9408 21.5798 22.9041 21.6955 22.8653 21.7327C22.8308 21.7699 22.779 21.7617 22.71 21.7079C22.6195 21.6335 22.5354 21.5488 22.4577 21.4538C22.3844 21.3587 22.3068 21.2264 22.2249 21.057C22.1904 21.0487 22.1257 21.0508 22.0308 21.0632C21.9402 21.0756 21.8367 21.0962 21.7203 21.1252C21.6082 21.1541 21.4917 21.1892 21.371 21.2306C21.2502 21.276 21.1467 21.3236 21.0605 21.3732C20.9742 21.4228 20.9009 21.4393 20.8405 21.4228C20.7802 21.4104 20.7068 21.3566 20.6206 21.2616C20.543 21.1706 20.4977 21.0983 20.4847 21.0446C20.4718 20.995 20.4804 20.9392 20.5106 20.8772C20.4891 20.8359 20.4697 20.7966 20.4524 20.7594C20.4395 20.7222 20.4287 20.6788 20.4201 20.6292C20.4114 20.5796 20.405 20.5155 20.4007 20.437C20.3963 20.3585 20.3942 20.2531 20.3942 20.1208C20.3942 19.9886 20.3942 19.8253 20.3942 19.631C20.3985 19.4368 20.4028 19.1991 20.4071 18.9181C20.4114 18.8148 20.4179 18.7466 20.4265 18.7135C20.4352 18.6763 20.461 18.6391 20.5042 18.6019C20.543 18.5688 20.5775 18.5626 20.6077 18.5833C20.6378 18.5998 20.6486 18.6329 20.64 18.6825C20.6357 18.7073 20.6378 18.728 20.6465 18.7445C20.6551 18.761 20.668 18.7796 20.6853 18.8003C20.7586 18.7011 20.8341 18.6184 20.9117 18.5523C20.9893 18.4862 21.0713 18.4283 21.1575 18.3787C21.1575 18.358 21.1489 18.3291 21.1316 18.2919C21.1187 18.2506 21.0971 18.2155 21.0669 18.1865C21.0324 18.1493 21.0044 18.1059 20.9828 18.0563C20.9656 18.0067 20.9505 17.9613 20.9376 17.9199C20.8729 17.9365 20.806 17.9365 20.737 17.9199C20.668 17.8993 20.6012 17.86 20.5365 17.8021C20.4891 17.7567 20.4546 17.7257 20.433 17.7091C20.4114 17.6885 20.3812 17.674 20.3424 17.6657C20.2562 17.7236 20.1807 17.767 20.116 17.7959C20.0513 17.8249 19.991 17.8455 19.9349 17.8579C19.8788 17.8662 19.8271 17.8662 19.7796 17.8579C19.7322 17.8455 19.6805 17.829 19.6244 17.8083C19.5123 17.7629 19.4497 17.7319 19.4368 17.7153C19.4282 17.6947 19.4497 17.6678 19.5015 17.6347C19.5748 17.6017 19.633 17.5542 19.6761 17.4922C19.6244 17.3806 19.5856 17.2938 19.5597 17.2318C19.5338 17.1656 19.5144 17.1119 19.5015 17.0706C19.4885 17.0251 19.4778 16.9838 19.4691 16.9466C19.4605 16.9094 19.4476 16.8598 19.4303 16.7978C19.4088 16.7193 19.4109 16.6738 19.4368 16.6614C19.4627 16.6449 19.495 16.6593 19.5338 16.7048C19.577 16.7792 19.6524 16.8453 19.7602 16.9032C19.8724 16.9569 20.0319 17.0065 20.2389 17.052C20.2864 17.0685 20.323 17.0871 20.3489 17.1078C20.3748 17.1243 20.3942 17.147 20.4071 17.176C20.4201 17.2049 20.4287 17.2442 20.433 17.2938C20.4373 17.3392 20.4416 17.4012 20.4459 17.4798C20.5408 17.4756 20.6896 17.4591 20.8923 17.4302C21.0993 17.3971 21.3171 17.362 21.5456 17.3248C21.7742 17.2834 21.9898 17.2421 22.1925 17.2008C22.3995 17.1594 22.5505 17.1264 22.6453 17.1016C22.7359 17.0809 22.8049 17.0726 22.8523 17.0768C22.8998 17.0809 22.9558 17.1057 23.0205 17.1512C23.0809 17.1966 23.1262 17.2338 23.1564 17.2628C23.1866 17.2876 23.2038 17.3124 23.2081 17.3372C23.2168 17.3578 23.2124 17.3785 23.1952 17.3992C23.1823 17.4198 23.1607 17.4426 23.1305 17.4674ZM20.0772 18.5957C20.0815 18.6866 20.0837 18.761 20.0837 18.8189C20.088 18.8768 20.088 18.9263 20.0837 18.9677C20.0794 19.0049 20.0751 19.04 20.0707 19.0731C20.0664 19.102 20.06 19.1351 20.0513 19.1723C20.0298 19.2591 20.0125 19.3459 19.9996 19.4327C19.9866 19.5153 19.9759 19.5897 19.9672 19.6558C19.9629 19.7261 19.9565 19.786 19.9478 19.8356C19.9435 19.8811 19.937 19.9224 19.9284 19.9596C19.9198 19.9968 19.909 20.034 19.8961 20.0712C19.8831 20.1043 19.868 20.1456 19.8508 20.1952C19.8292 20.2531 19.8098 20.3027 19.7926 20.344C19.7796 20.3853 19.7667 20.4308 19.7538 20.4804C19.7408 20.5259 19.7279 20.5817 19.715 20.6478C19.7063 20.7098 19.6955 20.7925 19.6826 20.8958C19.6654 21.0032 19.6481 21.09 19.6309 21.1562C19.6179 21.2223 19.6028 21.2719 19.5856 21.305C19.5726 21.338 19.5554 21.3587 19.5338 21.367C19.5166 21.3794 19.495 21.3856 19.4691 21.3856C19.4088 21.3856 19.3441 21.3566 19.2751 21.2988C19.2104 21.245 19.1543 21.1624 19.1069 21.0508C19.0896 21.0136 19.0767 20.9722 19.0681 20.9268C19.0594 20.8772 19.053 20.8007 19.0487 20.6974C19.0443 20.5899 19.0443 20.4411 19.0487 20.251C19.053 20.0609 19.0594 19.8026 19.0681 19.4761C19.0724 19.3479 19.0681 19.2611 19.0551 19.2157C19.0422 19.1702 19.0142 19.1309 18.971 19.0979C18.8546 19.0069 18.7683 18.8974 18.7123 18.7693C18.6605 18.637 18.6368 18.4531 18.6411 18.2175C18.6411 18.1597 18.6584 18.1266 18.6929 18.1183C18.7274 18.1059 18.7554 18.1245 18.777 18.1741C18.846 18.3105 18.9171 18.3932 18.9904 18.4221C19.1026 18.48 19.1931 18.5378 19.2621 18.5957C19.3354 18.6494 19.4109 18.73 19.4885 18.8375C19.5705 18.9449 19.6158 19.0317 19.6244 19.0979C19.633 19.164 19.6158 19.2446 19.5726 19.3397C19.5468 19.4017 19.523 19.4657 19.5015 19.5319C19.4799 19.598 19.4605 19.6724 19.4433 19.755C19.426 19.8336 19.4109 19.9245 19.398 20.0278C19.385 20.127 19.3743 20.2427 19.3656 20.375C19.3613 20.4205 19.3699 20.4432 19.3915 20.4432C19.4131 20.4391 19.4411 20.3853 19.4756 20.282C19.536 20.1167 19.5877 19.9658 19.6309 19.8294C19.6783 19.693 19.7193 19.5587 19.7538 19.4265C19.7926 19.2942 19.8271 19.1578 19.8573 19.0173C19.8918 18.8768 19.9284 18.7176 19.9672 18.5399C19.9802 18.482 19.9996 18.4552 20.0255 18.4593C20.0556 18.4634 20.0729 18.5089 20.0772 18.5957ZM21.7979 18.1493C21.8022 17.9261 21.7613 17.8249 21.675 17.8455C21.5586 17.8621 21.5607 17.8352 21.6815 17.7649C21.6039 17.7319 21.509 17.7215 21.3969 17.7339C21.2847 17.7463 21.1769 17.7856 21.0734 17.8517C21.2071 17.9013 21.3084 17.9551 21.3774 18.0129C21.4508 18.0667 21.5133 18.1307 21.565 18.2051C21.5995 18.1886 21.6405 18.1762 21.688 18.1679C21.7354 18.1555 21.772 18.1493 21.7979 18.1493ZM21.7462 18.5771C21.716 18.5936 21.6901 18.606 21.6685 18.6143C21.6513 18.6226 21.6319 18.637 21.6103 18.6577C21.6017 18.728 21.5866 18.8251 21.565 18.9491C21.5435 19.0731 21.5219 19.1826 21.5004 19.2777C21.5219 19.2735 21.5392 19.2715 21.5521 19.2715C21.5694 19.2673 21.5845 19.2632 21.5974 19.2591C21.6448 19.1268 21.6815 18.9966 21.7074 18.8685C21.7332 18.7404 21.7462 18.6432 21.7462 18.5771ZM21.1446 18.8003C21.0799 18.8003 21.026 18.8003 20.9828 18.8003C20.944 18.8003 20.9095 18.8044 20.8793 18.8127C20.8535 18.8168 20.8298 18.8251 20.8082 18.8375C20.7909 18.8458 20.7694 18.8582 20.7435 18.8747C20.7953 18.9987 20.8254 19.1061 20.8341 19.1971C20.847 19.2839 20.8427 19.3872 20.8211 19.5071C20.8686 19.5112 20.9117 19.5174 20.9505 19.5257C20.9893 19.5298 21.0368 19.5153 21.0928 19.4823C21.0669 19.4079 21.0583 19.3107 21.0669 19.1909C21.0799 19.071 21.1058 18.9408 21.1446 18.8003ZM22.5936 20.5114C22.585 20.375 22.5785 20.2469 22.5742 20.127C22.5699 20.0072 22.5656 19.8852 22.5612 19.7612C22.5612 19.6372 22.5612 19.5091 22.5612 19.3769C22.5656 19.2446 22.5699 19.0999 22.5742 18.9429C22.5742 18.8561 22.5656 18.7879 22.5483 18.7383C22.5354 18.6846 22.516 18.6412 22.4901 18.6081C22.4642 18.5709 22.434 18.542 22.3995 18.5213C22.365 18.5006 22.3262 18.4779 22.2831 18.4531C22.2313 18.5812 22.1882 18.6887 22.1537 18.7755C22.1235 18.8582 22.0998 18.9284 22.0826 18.9863C22.0696 19.04 22.061 19.0855 22.0567 19.1227C22.0524 19.1599 22.0502 19.1929 22.0502 19.2219C22.2098 19.2632 22.3047 19.3128 22.3348 19.3707C22.3693 19.4285 22.3629 19.4802 22.3154 19.5257C22.2206 19.6207 22.1516 19.6972 22.1084 19.755C22.0653 19.8088 22.0243 19.8666 21.9855 19.9286C22.0804 19.9658 22.1516 20.001 22.199 20.034C22.2507 20.063 22.2852 20.0919 22.3025 20.1208C22.3197 20.1456 22.3219 20.1704 22.309 20.1952C22.296 20.22 22.2745 20.2448 22.2443 20.2696C22.1666 20.3399 22.102 20.3977 22.0502 20.4432C22.0028 20.4887 21.9596 20.5279 21.9208 20.561C21.882 20.5941 21.8454 20.6251 21.8109 20.654C21.7764 20.6829 21.7375 20.716 21.6944 20.7532C21.7893 20.7449 21.8691 20.7346 21.9338 20.7222C21.9985 20.7057 22.089 20.685 22.2055 20.6602C22.2745 20.6437 22.3305 20.654 22.3737 20.6912C22.4168 20.7325 22.4664 20.7449 22.5224 20.7284C22.5785 20.7077 22.6022 20.6354 22.5936 20.5114ZM21.4745 20.5176C21.4529 20.5093 21.4227 20.5073 21.3839 20.5114C21.3451 20.5114 21.3128 20.5238 21.2869 20.5486C21.2653 20.5734 21.2351 20.5879 21.1963 20.592C21.1618 20.5961 21.1273 20.5899 21.0928 20.5734C21.0626 20.5527 21.0368 20.5217 21.0152 20.4804C20.9936 20.4391 20.9872 20.3833 20.9958 20.313C21.0087 20.2056 21.026 20.1394 21.0475 20.1146C21.0734 20.0857 21.123 20.065 21.1963 20.0526C21.2093 20.0485 21.2351 20.0444 21.2739 20.0402C21.3171 20.032 21.3624 20.0237 21.4098 20.0154C21.4615 20.003 21.509 19.9906 21.5521 19.9782C21.5995 19.9617 21.6319 19.9452 21.6491 19.9286C21.4163 19.9121 21.2351 19.8832 21.1058 19.8418C20.9807 19.7964 20.8772 19.7261 20.7953 19.631C20.7866 19.7674 20.7802 19.8811 20.7758 19.972C20.7715 20.063 20.7694 20.1498 20.7694 20.2324C20.7694 20.3151 20.7694 20.4039 20.7694 20.499C20.7737 20.5899 20.7802 20.7057 20.7888 20.8462C20.8147 20.8503 20.8599 20.8441 20.9246 20.8276C20.9893 20.8069 21.0562 20.7821 21.1252 20.7532C21.1985 20.7201 21.2675 20.6829 21.3322 20.6416C21.3969 20.6003 21.4443 20.5589 21.4745 20.5176Z"
        fill="#F6F3F0" />
</svg>
