<svg width="36" height="36" viewBox="0 0 36 36" fill="none" xmlns="http://www.w3.org/2000/svg">
    <defs>
        <linearGradient id="paint0_linear_2_14307" x1="33.5417" y1="35" x2="6.31945" y2="4.375"
            gradientUnits="userSpaceOnUse">
            <stop stop-color="#FFECD5" stop-opacity="0.12" />
            <stop offset="1" stop-color="#986A31" />
        </linearGradient>
    </defs>
    <path
        d="M36 18C36 27.9411 27.9411 36 18 36C8.05887 36 0 27.9411 0 18C0 8.05887 8.05887 0 18 0C27.9411 0 36 8.05887 36 18Z"
        fill="#986A31" />
    <path
        d="M35 17.5C35 27.165 27.165 35 17.5 35C7.83502 35 0 27.165 0 17.5C0 7.83502 7.83502 0 17.5 0C27.165 0 35 7.83502 35 17.5Z"
        fill="url(#paint0_linear_2_14307)" />
    <path
        d="M15.6096 24.9784C15.7765 24.9784 16.1103 25.316 16.2772 25.4286C17.2229 31.1688 17.7235 30.9437 17.946 31C18.2796 30.9437 18.1688 30.6623 18.1131 30.6061C17.8906 30.4372 17.39 28.1299 17.2787 27.8485C17.1675 27.5671 16.7781 25.8225 16.8893 25.6537C17.0006 25.4848 17.946 24.3593 18.1131 24.3593M15.6096 24.9784H13.1063C12.6057 24.9784 11.5487 24.4719 11.1593 24.4719C10.7699 24.4719 8.21101 22.8961 7.71036 21.8268C7.49411 21.444 5.80703 19.5198 6.01826 15.6926M15.6096 24.9784C15.3313 24.6407 11.4377 22.2208 11.2708 22.1645C10.395 21.7215 9.58959 21.065 9.06215 20.5451M15.7211 24.6407C15.8324 23.8528 15.1092 22.5022 14.9979 22.3333C13.6629 20.4762 13.1063 20.1948 12.8841 19.9697C12.6645 19.7474 11.1965 18.7567 10.8388 18.5153L10.8258 18.5065C10.4922 18.2814 9.43507 17.8312 9.21256 17.8312C8.99004 17.8312 8.87879 17.6061 8.65627 17.5498C8.43376 17.4935 7.48809 16.7056 7.32121 16.4242C7.15432 16.1429 6.37527 15.2987 6.04149 15.355C6.0321 15.4691 6.02438 15.5817 6.01826 15.6926M15.7211 24.6407C15.9436 24.7533 16.0549 24.9784 16.1105 24.8658C16.1661 24.7533 15.9436 22.8961 15.888 22.671C15.8324 22.4459 15.554 17.381 15.4986 17.0996C15.4569 17.0433 15.443 17.0863 15.1092 16.9307C14.7448 16.761 12.8284 15.1862 12.6059 15.1862C12.3834 15.1862 11.549 15.1862 11.3264 15.0736C11.1039 14.961 10.1026 14.1732 9.82447 14.0606C9.54633 13.9481 8.65627 14.1732 8.54501 13.7229C8.48938 13.4978 8.54501 13.4978 8.48938 13.4416M15.7211 24.6407L14.7754 23.9091M8.48938 13.4416C8.43376 13.3853 7.98873 12.9913 8.04435 12.4849M8.48938 13.4416C8.60064 13.2727 9.15473 13.4438 9.26819 13.329C9.34236 13.254 9.16929 13.0539 9.06215 12.8788M8.04435 12.4849C8.09998 11.9784 8.54501 11.4156 9.60196 11.9784M8.04435 12.4849C8.17415 12.5974 8.47921 12.7663 8.60064 12.8225C8.72222 12.8788 9.02301 12.9351 9.06215 12.8788M9.60196 11.9784C9.71322 12.0346 9.82447 11.9784 9.82447 11.9784C9.82447 11.9784 10.3251 11.9221 10.4364 12.8225C11.2337 13.4228 12.3834 13.329 12.8284 14.7922C13.088 15.0361 13.6183 15.5126 13.6629 15.4675C13.7185 15.4113 13.6072 13.8918 13.5516 13.8355M9.60196 11.9784C9.65759 12.0072 9.93573 12.5411 9.82447 12.71C9.71322 12.8788 9.04567 12.4849 8.99004 12.6537C8.9715 12.71 9.00859 12.7912 9.06215 12.8788M13.5516 13.8355C13.496 13.7792 12.7728 13.1039 12.5503 12.0909M13.5516 13.8355C13.6851 13.8805 13.9039 13.7792 13.9966 13.7229M12.5503 12.0909C12.4947 12.0346 12.1609 12.1472 11.994 12.0346C11.8271 11.9221 10.8258 11.5281 10.6589 11.1905C10.5476 11.0216 10.3808 11.3593 10.1026 11.303C9.82447 11.2468 9.71322 11.1342 9.71322 10.8528M12.5503 12.0909C12.5688 11.8095 12.5837 11.213 12.4947 11.0779C12.3834 10.9091 11.8271 10.684 11.9384 10.1775M9.71322 10.8528C9.71322 10.5714 8.99004 10.4026 8.99004 9.78355M9.71322 10.8528C9.91719 10.8153 10.3363 10.7177 10.3808 10.6277C10.4364 10.5152 9.82447 10.2338 9.93573 9.89611M8.99004 9.78355C9.10625 9.91418 9.34653 10.0921 9.60196 10.0665M8.99004 9.78355C8.99004 9.55597 9.178 9.40445 9.43507 9.31501M11.9384 10.1775C11.8271 10.29 11.1596 10.0087 11.0483 9.89611C10.937 9.78355 11.1596 9.55844 10.7702 9.33333C10.7143 9.30102 10.6377 9.27451 10.5476 9.25462M11.9384 10.1775C12.0496 10.0649 12.2165 9.83983 12.1052 9.72727M11.9384 10.1775C12.0125 10.1587 12.1943 10.155 12.3278 10.29C12.4947 10.4589 12.6615 10.684 12.6615 10.6277C12.6615 10.5714 12.5503 9.83983 12.8284 9.78355M12.1052 9.72727C11.994 9.61472 11.7158 9.72727 11.6602 9.671C11.6046 9.61472 11.3821 9.50217 11.3264 9.1645M12.1052 9.72727C12.1783 9.56885 12.3208 9.32836 12.4948 9.1645M11.3264 9.1645C11.2801 8.88311 11.1039 9.38961 11.0483 8.08049M11.3264 9.1645C11.3821 9.07071 11.5156 8.88312 11.6046 8.88312C11.7158 8.88312 11.8827 9.10822 11.9384 8.99567C11.994 8.88312 11.6602 8.4329 11.7715 8.37662C11.8827 8.32035 11.2708 8.08049 11.0483 8.08049M11.0483 8.08049C11.0668 7.89782 11.2041 7.55498 11.6046 7.64502C12.1052 7.75757 12.7728 8.26407 12.8284 8.37662C12.8841 8.48917 12.8841 8.82683 12.9397 8.99567M12.9397 8.99567C12.7841 8.95632 12.6299 9.03733 12.4948 9.1645M12.9397 8.99567C12.96 9.05733 13.0322 9.1415 13.1212 9.22078M13.5516 9.44589C13.6629 9.38961 13.6629 8.77056 13.6072 8.65801C13.5516 8.54545 13.1066 8.15151 13.1066 7.81385M13.5516 9.44589C13.481 9.48161 13.2758 9.35859 13.1212 9.22078M13.5516 9.44589C13.5516 9.58095 13.737 9.83983 13.8297 9.95238M13.1066 7.81385C13.1066 7.47619 12.6059 7.53246 12.6615 6.85714C12.6906 6.50455 12.8864 6.22867 13.1066 6.07754M13.1066 7.81385C13.1532 7.76664 13.2347 7.78104 13.3291 7.82628M14.5529 7.08225C14.386 6.29437 13.941 6.23809 13.6629 6.01298C13.5299 5.90541 13.3081 5.93921 13.1066 6.07754M14.5529 7.08225C14.5987 7.36003 14.908 7.67589 15.0472 7.71653M14.5529 7.08225C13.9744 7.35238 14.0523 7.41991 14.1079 7.64502M15.0472 7.71653C15.0772 7.72529 15.0993 7.72126 15.1092 7.7013M15.0472 7.71653C15.067 7.71171 15.0876 7.70677 15.1092 7.7013M15.0472 7.71653C14.8635 7.7613 14.7484 7.79587 14.4973 8.15152C14.4003 8.2889 14.2748 7.64502 14.1079 7.64502M15.1092 7.7013C15.1648 7.58874 15.2205 7.25108 15.1092 7.02597C14.9979 6.80087 14.6642 6.68831 14.6085 6.35065C14.5529 6.18182 14.7754 6.18182 14.7754 6.12554M15.1092 7.7013C15.1258 7.78511 15.1288 7.85894 15.1219 7.92445M15.1092 7.7013C15.1092 7.756 15.1136 7.83286 15.1219 7.92445M14.7754 6.12554C14.9238 6.25685 15.2427 6.50823 15.3317 6.4632C15.443 6.40693 15.4986 5.67532 15.7211 5.67532M14.7754 6.12554C14.7754 6.08048 14.9894 5.38598 15.3317 5.11094M16.7224 6.2381C16.7224 6.57576 16.4443 6.74459 16.3887 6.80087C16.333 6.85714 16.4443 7.25108 16.4999 7.25108M16.7224 6.2381C16.333 5.95671 16.3887 6.4632 16.2218 6.4632C16.0549 6.4632 15.9436 5.67532 15.7211 5.67532M16.7224 6.2381C16.7224 5.85901 16.4448 5.42886 16.1105 5.18845M16.4999 7.25108C16.5449 7.25108 16.8075 7.03059 16.9066 6.85686M16.4999 7.25108C16.5741 7.88889 16.3333 8.93939 16.0549 9.55844C15.9993 9.671 15.888 10.7965 15.9436 10.9654M16.9066 6.85686C16.9301 6.81561 16.9444 6.77699 16.9444 6.74459M16.9066 6.85686C16.92 6.80956 16.9329 6.77082 16.9444 6.74459M16.9066 6.85686C16.8336 7.11402 16.7449 7.62451 16.7778 7.75758C16.8333 7.98268 16.8333 8.03896 16.8333 8.15152C16.8333 8.27739 16.6112 8.65801 16.6112 8.99567C16.6112 9.11862 16.5964 9.22665 16.5777 9.33333M16.9444 6.74459C16.9444 6.57576 17.4444 6.18182 17.6125 6.18182C17.7237 6.18182 18.1667 6.2381 18.28 6.9697C18.2975 7.08225 18.2244 7.25108 18.28 7.25108M16.9444 6.74459C16.963 6.98846 16.9561 7.54372 17.2231 7.58874C17.5569 7.64502 17.3343 6.85714 17.6681 6.91342C18.0019 6.9697 17.8906 7.41991 17.9463 7.47619C17.9908 7.52121 18.1873 7.30736 18.28 7.25108M18.28 7.25108C18.3357 7.25108 18.3905 7.37036 18.4444 7.58874C18.5 7.81385 18.0575 7.87013 18.0019 7.92641C17.9463 7.98268 17.8906 8.4329 17.9463 8.54545M17.9463 8.54545C18.0019 8.65801 18.2774 8.03896 18.5556 7.98268M17.9463 8.54545C17.949 8.65919 17.9639 8.89755 18.0019 8.94116M18.5556 7.98268C18.8337 7.92641 19.5595 7.7013 19.782 8.15152M18.5556 7.98268C18.4999 8.13276 18.3579 8.41039 18.4469 8.54545M19.782 8.15152C20.0045 8.60173 19.337 9.22078 19.2257 9.33333M19.782 8.15152C19.6151 8.03896 19.0032 8.94116 18.9476 8.94116M19.2257 9.33333C19.1145 9.44589 19.2257 9.50216 19.3926 9.38961M19.2257 9.33333C18.9742 9.33333 19.1111 9.10823 19.1111 9.10823C19.1111 9.10823 18.8223 9.20952 18.7778 9.1645C18.7333 9.11948 18.892 8.97809 18.9476 8.94116M19.2257 9.33333C19.1734 9.3787 19.0856 9.44234 18.976 9.50216M19.3926 9.38961C19.3184 9.53968 19.1923 9.85108 19.2814 9.8961C19.3926 9.95238 19.782 9.671 19.8376 9.72727C19.8933 9.78355 19.8933 9.83983 19.6708 10.1212C19.5595 10.3463 19.6151 10.684 19.5039 10.9091M19.3926 9.38961C19.5289 9.29768 19.8879 9.05557 20.227 9.0006M20.7277 9.671C20.839 9.33333 20.839 9.05195 20.4496 8.99567C20.3782 8.98536 20.3031 8.98827 20.227 9.0006M20.7277 9.671C20.635 9.72727 20.4162 9.82857 20.2827 9.78355M20.7277 9.671C20.7277 9.915 21.0623 9.43961 21.4052 9.8961M18.7251 13.9481C18.7807 13.8918 19.0032 13.8918 19.0588 13.8355C20.0602 12.9913 20.6721 11.7532 20.7833 11.697C20.8946 11.6407 21.0325 11.5844 21.1111 11.5844C21.2222 11.5844 21.5156 11.3259 21.5065 11.2468C21.5 11.1905 21.4798 11.1575 21.4859 11.0779M18.7251 13.9481C18.6694 14.0043 18.1688 14.6797 18.2244 14.7922C18.28 14.9048 19.0032 14.6797 19.1145 14.4545C19.2257 14.2294 19.1701 14.0606 19.337 13.9481C19.5039 13.8355 19.8933 13.1602 20.8946 12.71C21.1171 12.6537 20.839 12.0346 21.2284 11.8095C21.3396 11.7532 21.5065 11.7532 21.5065 11.8095M18.7251 13.9481C18.6138 13.9481 18.3913 13.903 18.3913 13.7229M21.5065 11.8095C21.5065 11.8658 21.729 11.697 22.0628 11.697C22.3966 11.697 22.6191 11.8658 22.6747 12.0346M21.5065 11.8095C21.4557 12.0346 21.3805 12.4848 21.4859 12.4848M22.6747 12.0346C22.7303 12.2035 23.1197 12.8225 22.4522 13.3853M22.6747 12.0346C21.9303 12.0346 21.6729 12.3929 21.5324 12.4703M22.4522 13.3853C22.3409 13.4416 22.2297 13.6667 22.0072 13.6667C21.7846 13.6667 21.7846 13.4978 21.6178 13.4978C21.4509 13.4978 21.1727 14.0606 21.0615 14.1169C20.9502 14.1732 20.3939 14.7359 19.3926 14.7922C19.1701 14.7922 18.892 15.1861 17.8906 15.2424C17.7237 15.2987 16.7224 16.5931 16.1661 16.987C16.0549 17.1558 16.2772 24.4156 16.7781 25.1472C16.8893 25.2035 17.6125 24.4719 17.6681 24.2468M22.4522 13.3853C22.3966 13.3665 22.2742 13.3065 22.2297 13.2165C22.174 13.1039 21.9515 13.2165 21.8959 13.0476C21.8403 12.8788 22.2853 12.71 22.2297 12.4848C22.188 12.3162 21.7733 12.3976 21.5324 12.4703M17.6681 24.2468C17.7238 24.0215 18.0019 22.8961 18.0019 22.8398C18.0019 22.7836 18.3913 20.8701 18.9476 20.3636C19.5039 19.8571 20.0602 19.1255 20.1714 19.0693C20.2827 19.013 21.3396 18.1126 22.0072 17.8874C22.6747 17.6623 23.1754 17.4935 23.3979 17.3247C23.6204 17.1558 24.4548 16.7056 24.733 16.6494C25.0111 16.5931 25.2893 16.7056 25.4561 16.5931C25.623 16.4805 26.1793 16.4242 26.5687 16.4242C26.9581 16.4242 29.7952 15.8615 29.9621 16.0866C30.2402 16.368 28.9051 17.381 28.6826 17.6623C28.5528 17.9062 28.2821 18.4502 28.2376 18.6753C28.1819 18.9567 26.3462 20.8139 26.0681 20.9827C25.7899 21.1515 23.7873 22.9524 23.3979 23.0649C23.0085 23.1775 21.2284 24.2468 18.1131 24.3593M17.6681 24.2468C18.5967 23.2878 19.6464 22.3016 20.6721 21.4018M18.1131 24.3593C18.1594 24.1721 18.4748 23.8008 18.9476 23.334M15.7211 5.67532C15.6099 5.50542 15.3762 5.15467 15.3317 5.11094M15.7211 5.67532C15.7582 5.53833 15.888 5.24916 16.1105 5.18845M15.3317 5.11094C15.4169 5.04247 15.5101 5 15.6099 5C15.7733 5 15.9485 5.07195 16.1105 5.18845M12.8284 9.78355C13.1066 9.72727 13.2735 10.4589 13.3847 10.4589C13.496 10.4589 13.6629 9.83983 13.8297 9.95238M12.8284 9.78355C12.81 9.61472 12.7175 9.25455 12.4948 9.1645M12.8284 9.78355C12.9124 9.61472 13.0884 9.2658 13.1212 9.22078M13.8297 9.95238C13.9517 10.0346 13.836 10.3273 13.7431 10.5448M14.1079 11.9784C14.0523 11.8095 13.6072 10.9091 13.6629 10.7403C13.6778 10.6948 13.7089 10.6249 13.7431 10.5448M14.1079 11.9784C14.1436 12.0867 14.1921 12.7662 14.1661 13.1039M14.1079 11.9784C14.1997 11.8095 14.3617 11.4381 14.2748 11.303M13.9966 13.7229C13.8854 14.0606 14.1079 15.6364 14.1635 15.6926C14.2191 15.7489 15.3317 16.6494 15.443 16.5368C15.5542 16.4242 15.4986 14.1732 15.443 14.0606M13.9966 13.7229C14.0458 13.5736 14.1459 13.3654 14.1661 13.1039M15.443 14.0606C15.3873 13.9481 15.2205 14.1169 14.9423 13.7229C14.6642 13.329 14.3356 13.0476 14.1661 13.1039M15.443 14.0606C15.5542 13.8918 15.5542 13.7792 15.4986 13.4978M15.4986 13.4978C15.2761 13.1602 14.386 12.8225 14.386 12.5974C14.386 12.3723 14.4973 11.8095 14.4973 11.7532C14.4973 11.6543 14.4989 11.3167 14.5529 11.303M15.4986 13.4978C15.4986 13.4416 15.5542 11.697 15.4986 11.697M14.5529 11.303C14.6236 11.2852 14.6774 11.2502 14.7198 11.2109M14.5529 11.303C14.4787 11.3218 14.3193 11.3481 14.2748 11.303M14.8867 11.0216C14.9979 11.0216 15.443 11.697 15.4986 11.697M14.8867 11.0216C14.8487 11.0216 14.8108 11.1264 14.7198 11.2109M14.8867 11.0216C14.9052 10.8903 14.9534 10.6277 14.9979 10.6277M15.4986 11.697C15.4986 11.5657 15.5097 11.2693 15.5542 11.1342M9.93573 9.89611C10.0144 9.6572 10.4364 10.0649 10.5476 9.83983C10.6502 9.63229 10.5662 9.39341 10.5476 9.25462M9.93573 9.89611C9.82762 10.0055 9.71335 10.0553 9.60196 10.0665M10.5476 9.25462C10.2409 9.18691 9.77688 9.19608 9.43507 9.31501M9.60196 10.0665C9.47216 9.97873 9.25706 9.70554 9.43507 9.31501M14.2748 11.303C14.1661 11.1342 13.7677 10.9122 13.7431 10.5448M13.7431 10.5448C14.0687 10.7362 14.7198 11.1372 14.7198 11.2109M14.9979 10.6277C15.0536 10.6277 15.1092 9.74971 15.0536 9.50216C14.9979 9.25462 14.7198 8.71429 14.7198 8.54545C14.7198 8.40177 15.0824 8.29884 15.1219 7.92445M14.9979 10.6277C15.0869 10.8528 15.4059 11.0592 15.5542 11.1342M15.1219 7.92445C15.1647 8.39825 15.3121 9.26636 15.4986 9.50216C15.5763 9.60043 15.6099 10.9654 15.5542 11.1342M14.1079 7.64502C13.8854 7.64502 13.9966 8.26407 13.941 8.26407C13.9009 8.26407 13.5722 7.94284 13.3291 7.82628M13.3291 7.82628C13.3662 7.61579 13.3625 7.10476 13.0509 6.74459C12.9174 6.5645 13.0324 6.22485 13.1066 6.07754M15.9436 10.9654C15.9526 10.9925 15.9543 11.1575 15.9517 11.4156M15.9436 10.9654C16.0549 10.8528 16.1893 10.6602 16.3333 10.4589M15.8973 14.1169C15.8728 15.4383 15.8649 16.6791 15.9436 16.7056C16.1105 16.7619 17.5012 15.2424 17.5569 15.0173C17.6125 14.7922 17.3343 13.6104 17.4456 13.1039C17.0006 12.5411 16.0549 13.8355 15.8973 14.1169ZM15.8973 14.1169C15.9008 13.9298 15.9046 13.7412 15.9085 13.5541M16.5 10.2338C16.5556 10.1775 16.5 10.0649 16.4999 9.95238C16.4997 9.70188 16.5449 9.51965 16.5777 9.33333M16.5 10.2338C16.4444 10.29 16.3944 10.3735 16.3333 10.4589M16.5 10.2338C16.5556 10.2338 16.9449 10.29 17.0562 10.4589C17.1114 10.5427 16.982 10.7403 16.8893 10.8528M15.9517 11.4156C16.1159 11.1905 16.4554 10.7515 16.4999 10.7965M15.9517 11.4156C15.9467 11.8994 15.9263 12.7105 15.9085 13.5541M16.4999 10.7965C16.5555 10.8528 16.8337 10.9091 16.8893 10.8528M16.4999 10.7965C16.473 10.7403 16.3889 10.6277 16.3333 10.4589M16.8893 10.8528C16.9449 10.7965 17.0006 11.9784 16.9449 12.0909C16.8893 12.2035 16.7224 12.3723 16.7781 12.6537C16.7224 12.8225 16.2169 13.3478 15.9085 13.5541M18.3913 13.7229C18.3913 13.4978 18.1131 13.1039 18.7251 12.316C19.337 11.5281 19.5595 11.2468 19.8376 11.1342C19.9489 11.0216 19.5595 10.8528 19.5039 10.9091M18.3913 13.7229C18.3913 13.8355 17.9463 14.6234 17.835 14.6234C17.746 14.6234 17.7237 13.6104 17.7237 13.1039C18.3357 12.6537 18.1688 11.8658 18.2244 11.8658M19.5039 10.9091C19.4482 10.9654 18.8363 11.8095 18.2244 11.8658M18.2244 11.8658C18.1804 11.5876 18.1181 11.1364 18.0933 10.7965M18.3913 9.671C18.4469 10.1775 18.2244 10.2338 18.1131 10.3463C18.0769 10.3829 18.0763 10.5636 18.0933 10.7965M18.3913 9.671C18.2429 9.74603 17.924 9.88485 17.835 9.83983C17.7237 9.78355 17.7237 9.33333 17.6125 9.27706M18.3913 9.671C18.3644 9.42652 18.195 9.15581 18.0019 8.94116M18.3913 9.671C18.6038 9.671 18.8137 9.59077 18.976 9.50216M16.5777 9.33333C16.609 9.1645 17.2231 8.54545 17.4456 8.54545M16.5777 9.33333C16.7743 9.5772 17.1786 10.0537 17.2231 10.0087C17.2787 9.95238 17.5012 9.22078 17.6125 9.27706M17.4456 8.54545C17.4463 8.54532 17.4471 8.54533 17.4479 8.54548M17.4456 8.54545C17.4464 8.54545 17.4471 8.54546 17.4479 8.54548M17.6125 9.27706C17.576 9.03404 17.4929 8.55394 17.4479 8.54548M17.4479 8.54548C17.5638 8.54761 17.7963 8.71261 18.0019 8.94116M18.0019 8.94116C18.1317 8.80926 18.4024 8.54545 18.4469 8.54545M18.4469 8.54545C18.5025 8.54545 18.7807 8.32035 18.9476 8.4329C19.1145 8.54545 18.892 8.94116 18.9476 8.94116M18.0933 10.7965C18.2668 10.6277 18.6361 10.2788 18.7251 10.2338C18.8363 10.1775 19.0044 9.671 18.976 9.50216M20.227 9.0006C20.19 9.24283 20.1492 9.73853 20.2827 9.78355M20.2827 9.78355C20.1714 9.8961 19.96 10.1325 20.0045 10.1775C20.0602 10.2338 20.1158 10.684 20.227 10.684M20.227 10.684C20.3383 10.684 20.3383 10.3463 20.3939 10.29C20.4496 10.2338 20.7833 9.94214 21.1171 9.95238C21.3841 9.96057 21.4204 9.91828 21.4052 9.8961M20.227 10.684C20.5 10.7403 20.7722 10.155 20.9502 10.29C21.1727 10.4589 20.7833 11.0216 20.839 11.0779C20.8946 11.1342 21.4097 11.0779 21.4859 11.0779M21.4052 9.8961C21.4577 9.96604 21.5104 10.0579 21.5621 10.1775C21.5807 10.3276 21.6066 10.6502 21.5621 10.7403C21.5286 10.808 21.4951 10.9575 21.4859 11.0779M21.4859 12.4848C21.5001 12.4848 21.5154 12.4796 21.5324 12.4703M21.4859 12.4848C21.5005 12.4801 21.5161 12.4752 21.5324 12.4703M14.7754 23.9091C13.6999 23.29 11.5156 22.0407 11.3821 21.9957M14.7754 23.9091C14.59 23.3088 14.1413 22.0632 13.8297 21.8831M11.3821 21.9957C11.2152 21.9394 9.04567 20.3074 8.43376 19.7446C8.4094 19.8185 8.65153 20.1404 9.06215 20.5451M11.3821 21.9957C11.2152 21.3203 11.2708 20.7013 10.047 19.1818M9.06215 20.5451C8.61171 20.5222 7.54388 20.3074 6.87615 19.632M8.15561 19.3507C8.04435 19.2381 7.87747 19.013 7.82184 18.9004M6.01826 15.6926C6.87615 17.6061 7.04304 17.7186 7.48807 18.3939C7.50661 18 7.53257 17.2009 7.48807 17.1558M9.65759 23.1212C10.0841 23.1775 10.9704 23.3013 11.1039 23.3463C11.2708 23.4026 12.1052 23.4026 12.1609 23.3463M12.439 23.29H12.7728M18.9476 23.334C19.4297 23.4507 20.6164 23.5602 21.5065 23.0649M18.9476 23.334C19.8816 22.4118 21.4299 21.1168 22.7303 20.1322M20.6721 21.4018C22.5959 19.7141 24.4354 18.3304 25.2336 18C25.623 18 24.6217 18.8231 24.2323 19.0693C23.8291 19.3242 23.3038 19.698 22.7303 20.1322M20.6721 21.4018C20.6721 21.2996 20.6943 21.084 20.7833 21.039M20.9502 20.5887C21.2098 20.0823 21.8959 18.8779 22.5634 18.1126M22.7303 20.1322C23.3422 20.1531 24.6106 20.1385 24.7886 19.9134C25.0667 19.6883 25.6045 19.5945 25.9012 19.5758M25.7899 17.8312C26.06 17.6649 26.5278 17.3932 26.9025 17.2164M26.9025 17.2164C27.1195 17.1139 27.3052 17.0433 27.4031 17.0433M26.9025 17.2164C27.0137 17.3463 27.4476 17.5723 28.2932 17.4372M26.7912 16.5931C26.4389 16.8369 25.7232 17.4035 25.6787 17.7186M28.0151 16.8182C28.1078 16.7807 28.3043 16.7056 28.3488 16.7056M28.6826 16.5931C28.868 16.518 29.2723 16.368 29.4058 16.368"
        stroke="white" stroke-width="0.2" stroke-linecap="round" stroke-linejoin="round" />
</svg>
