<svg width="36" height="36" viewBox="0 0 36 36" fill="none" xmlns="http://www.w3.org/2000/svg">
    <defs>
        <linearGradient id="paint0_linear_2_14287" x1="27.7083" y1="31.1111" x2="6.80556"
            y2="3.88888" gradientUnits="userSpaceOnUse">
            <stop stop-color="#E19A99" />
            <stop offset="1" stop-color="#D17D7C" />
        </linearGradient>
    </defs>
    <circle cx="18" cy="18" r="18" fill="#D17D7C" />
    <circle cx="17.5" cy="17.5" r="17.5" fill="url(#paint0_linear_2_14287)" />
    <path fill-rule="evenodd" clip-rule="evenodd"
        d="M25.8072 13.0231C26.9007 13.9112 27.6172 15.2071 27.9184 16.7601C28.0102 17.2335 28.01 17.5709 27.9875 17.921C27.9816 18.0127 27.9744 18.103 27.9671 18.1956C27.9466 18.4543 27.9245 18.7316 27.9245 19.1099V21.7473C27.9245 23.3252 26.9007 24.3808 25.7532 25.0451C24.6044 25.7101 23.2641 26.0275 22.4562 26.1189C21.6449 26.2106 20.9696 26.1642 20.3057 26.0741C20.0247 26.0359 19.7588 25.9924 19.4888 25.9482C19.1002 25.8846 18.7031 25.8196 18.2402 25.7672C17.6251 25.6977 17.1769 25.907 16.5371 26.2059C16.479 26.233 16.4194 26.2609 16.3578 26.2893C15.624 26.6289 14.7128 27 13.2672 27C10.9343 27 9.03531 25.5263 8.36666 24.7837C8.22768 24.6293 8.15356 24.4064 8.10746 24.1965C8.05874 23.9746 8.03013 23.7115 8.01479 23.4305C7.98405 22.8672 8.00474 22.1928 8.04462 21.5506C8.08462 20.9064 8.14455 20.2855 8.19436 19.8263C8.21929 19.5966 8.24173 19.4068 8.25797 19.2743C8.2661 19.208 8.27267 19.1561 8.27723 19.1205L8.2825 19.0798L8.28401 19.0684C8.3841 18.2102 8.86772 17.5357 9.49936 17.013C10.1294 16.4917 10.9276 16.103 11.7102 15.8112C12.4956 15.5184 13.2829 15.3169 13.9023 15.178C14.1884 15.1139 14.4401 15.0628 14.6387 15.0225C14.6553 15.0191 14.6716 15.0158 14.6874 15.0126C14.9066 14.968 15.025 14.9426 15.0653 14.9289C15.0641 14.9293 15.0647 14.9289 15.0674 14.9272C15.0778 14.9205 15.1198 14.8934 15.2075 14.8148C15.2867 14.7437 15.3789 14.6538 15.492 14.5435C15.5197 14.5165 15.5485 14.4884 15.5788 14.459C15.8811 14.165 16.2879 13.779 16.8134 13.3919C17.8682 12.6151 19.3959 11.8387 21.5438 11.7476C23.2669 11.6745 24.7131 12.1344 25.8072 13.0231ZM8.76568 20.5974C8.73727 20.9079 8.70993 21.247 8.68849 21.5923C8.64921 22.2248 8.63032 22.8691 8.65895 23.3937C8.67329 23.6566 8.69911 23.8798 8.73696 24.0521C8.77745 24.2365 8.82206 24.3157 8.8414 24.3372C9.43927 25.0012 11.1787 26.3407 13.2672 26.3407C14.5849 26.3407 15.4007 26.0085 16.0917 25.6887C16.156 25.659 16.2199 25.6289 16.2837 25.5988C16.9014 25.3081 17.5104 25.0213 18.3112 25.1119C18.7762 25.1645 19.2156 25.2359 19.6252 25.3025C19.8936 25.3461 20.1492 25.3877 20.3907 25.4205C21.0221 25.5062 21.6421 25.5476 22.3852 25.4635C23.1316 25.3791 24.382 25.0811 25.4352 24.4714C26.4897 23.861 27.2794 22.9825 27.2794 21.7473V20.3019C27.1725 20.4154 27.0568 20.5244 26.9351 20.6289C26.4431 21.051 25.8129 21.433 25.1513 21.7586C23.8325 22.4075 22.3275 22.8617 21.4164 22.9544C20.5123 23.0465 19.9973 22.9547 19.5713 22.8342C19.484 22.8095 19.4044 22.7852 19.3289 22.7621C19.0416 22.6741 18.8138 22.6044 18.4484 22.6044C18.0573 22.6044 17.6388 22.7158 16.9979 22.8864C16.876 22.9188 16.7461 22.9534 16.6069 22.9898C15.7549 23.2121 14.6162 23.4796 12.9554 23.6576C11.4974 23.8138 10.4068 23.0564 9.65662 22.1034C9.2861 21.6326 8.991 21.1059 8.76568 20.5974ZM27.2794 19.0744C27.2808 18.6841 27.305 18.3803 27.3253 18.1245C27.3323 18.0372 27.3387 17.9554 27.3437 17.8777C27.3637 17.568 27.3635 17.2907 27.2855 16.8883C27.0093 15.4636 26.3615 14.3155 25.4058 13.5393C24.4509 12.7637 23.1634 12.3388 21.5705 12.4064C19.5734 12.4911 18.165 13.2092 17.1906 13.9268C16.7014 14.2871 16.3202 14.6482 16.0234 14.9367C15.996 14.9634 15.969 14.9897 15.9424 15.0156C15.8284 15.1269 15.7234 15.2293 15.6331 15.3103C15.5334 15.3997 15.4041 15.5087 15.2686 15.5547C15.1804 15.5846 15.0102 15.6192 14.8199 15.6579L14.8133 15.6592C14.7975 15.6624 14.7813 15.6657 14.7649 15.6691C14.566 15.7094 14.3201 15.7594 14.0406 15.822C13.4349 15.9579 12.6786 16.152 11.9313 16.4306C11.1811 16.7103 10.4572 17.0688 9.90533 17.5255C9.37188 17.9669 9.01899 18.4823 8.9316 19.0928C9.10431 19.8181 9.50649 20.8607 10.1593 21.6901C10.8254 22.5363 11.7209 23.1269 12.8881 23.0018C14.5087 22.8281 15.6152 22.5681 16.4472 22.3509C16.5746 22.3177 16.6973 22.2848 16.8158 22.2531C17.4522 22.0829 17.9672 21.9451 18.4484 21.9451C18.9162 21.9451 19.2433 22.0461 19.5417 22.1382C19.61 22.1593 19.6768 22.1799 19.7434 22.1988C20.0946 22.2981 20.5296 22.3821 21.3525 22.2983C22.1685 22.2153 23.5995 21.7903 24.8714 21.1645C25.505 20.8527 26.0838 20.4985 26.5202 20.1239C26.9508 19.7544 27.2055 19.3971 27.2794 19.0744ZM14.1799 16.585C14.3092 16.7102 14.3147 16.9189 14.1921 17.051L11.256 20.2159C11.1335 20.348 10.9293 20.3535 10.8 20.2283C10.6707 20.103 10.6653 19.8943 10.7879 19.7622L13.7239 16.5974C13.8465 16.4653 14.0506 16.4597 14.1799 16.585Z"
        fill="#F6F3F0" />
    <path fill-rule="evenodd" clip-rule="evenodd"
        d="M20.4043 13.6025C20.5301 13.7315 20.5297 13.9402 20.4034 14.0687L12.8043 21.805C12.678 21.9335 12.4738 21.9331 12.3481 21.8041C12.2223 21.6751 12.2227 21.4663 12.349 21.3378L19.9481 13.6016C20.0743 13.4731 20.2786 13.4735 20.4043 13.6025Z"
        fill="#F6F3F0" />
    <path fill-rule="evenodd" clip-rule="evenodd"
        d="M22.9898 13.9487C23.1185 14.0746 23.1229 14.2832 22.9997 14.4148L15.9187 21.9752C15.7955 22.1067 15.5913 22.1113 15.4626 21.9854C15.3339 21.8595 15.3294 21.6508 15.4526 21.5193L22.5337 13.9589C22.6569 13.8273 22.861 13.8228 22.9898 13.9487Z"
        fill="#F6F3F0" />
    <path fill-rule="evenodd" clip-rule="evenodd"
        d="M24.7145 15.3533C24.8442 15.4781 24.8504 15.6867 24.7283 15.8193L19.5471 21.4457C19.425 21.5783 19.2208 21.5846 19.0911 21.4598C18.9613 21.335 18.9552 21.1264 19.0773 20.9938L24.2585 15.3675C24.3806 15.2349 24.5848 15.2285 24.7145 15.3533Z"
        fill="#F6F3F0" />
    <path fill-rule="evenodd" clip-rule="evenodd"
        d="M25.5858 17.6464C25.7115 17.7754 25.7111 17.9842 25.5849 18.1127L22.6489 21.1017C22.5226 21.2301 22.3184 21.2297 22.1927 21.1008C22.0669 20.9718 22.0673 20.763 22.1935 20.6345L25.1296 17.6455C25.2558 17.517 25.4601 17.5174 25.5858 17.6464Z"
        fill="#F6F3F0" />
    <path fill-rule="evenodd" clip-rule="evenodd"
        d="M11.3394 8.3034C11.4783 8.1894 11.6814 8.21206 11.7929 8.35402C12.0413 8.6701 12.3423 9.17561 12.4298 9.71437C12.4743 9.98864 12.4657 10.2856 12.3521 10.571C12.2371 10.8601 12.0248 11.1108 11.7069 11.305C11.6147 11.3613 11.5599 11.4556 11.5561 11.6336C11.5521 11.8215 11.61 12.0586 11.7093 12.3013C11.8073 12.5406 11.9339 12.7572 12.0398 12.8978C12.0676 12.9346 12.0909 12.9622 12.109 12.9819C12.1746 12.9922 12.2377 13.0233 12.2881 13.075C12.4138 13.204 12.4134 13.4127 12.2872 13.5412C12.1721 13.6584 12.0276 13.6596 11.9375 13.6366C11.858 13.6163 11.7958 13.5741 11.7575 13.5444C11.6762 13.4814 11.5977 13.3917 11.5286 13.3C11.3862 13.1109 11.2321 12.844 11.1141 12.5558C10.9976 12.271 10.9043 11.9367 10.9111 11.6191C10.9181 11.2917 11.0362 10.9464 11.376 10.739C11.5879 10.6096 11.6982 10.4641 11.7545 10.3226C11.8123 10.1774 11.8237 10.0093 11.7933 9.82232C11.731 9.43859 11.5021 9.03687 11.2899 8.76687C11.1783 8.62491 11.2005 8.41741 11.3394 8.3034Z"
        fill="#F6F3F0" />
    <path fill-rule="evenodd" clip-rule="evenodd"
        d="M13.6876 7.09453C13.8147 6.96691 14.0189 6.96874 14.1438 7.09861C14.5159 7.4856 14.973 8.11098 15.1062 8.78152C15.1746 9.12537 15.1601 9.49546 14.9894 9.8463C14.8187 10.197 14.5097 10.4915 14.0552 10.7183C13.8456 10.8229 13.7686 10.9782 13.763 11.1902C13.7568 11.4283 13.8465 11.7294 14.0015 12.0389C14.1539 12.3431 14.3522 12.6212 14.5218 12.8052C14.5931 12.8826 14.6513 12.9345 14.6917 12.9644C14.7915 12.9586 14.8924 13.0002 14.9603 13.0854C15.0728 13.2266 15.052 13.4342 14.9138 13.5492C14.795 13.648 14.6602 13.6451 14.5782 13.6279C14.4978 13.6111 14.4279 13.5742 14.3754 13.541C14.2678 13.4729 14.1565 13.3705 14.0521 13.2573C13.84 13.0271 13.6067 12.6977 13.4272 12.3393C13.2503 11.9862 13.1077 11.5694 13.1181 11.1725C13.1292 10.7494 13.3178 10.3525 13.7722 10.1258C14.1323 9.94612 14.3191 9.74295 14.4117 9.55262C14.5043 9.36248 14.5208 9.14834 14.474 8.91274C14.3769 8.42439 14.0195 7.91002 13.6836 7.56073C13.5588 7.43087 13.5605 7.22214 13.6876 7.09453Z"
        fill="#F6F3F0" />
    <path
        d="M12.1494 13.0205C12.1494 13.0206 12.1487 13.0201 12.1471 13.0188M14.7287 12.9883C14.7287 12.9883 14.7286 12.9882 14.7283 12.9881M27.9184 16.7601C27.6172 15.2071 26.9007 13.9112 25.8072 13.0231C24.7131 12.1344 23.2669 11.6745 21.5438 11.7476C19.3959 11.8387 17.8682 12.6151 16.8134 13.3919C16.2879 13.779 15.8811 14.165 15.5788 14.459C15.5485 14.4884 15.5197 14.5165 15.492 14.5435C15.3789 14.6538 15.2867 14.7437 15.2075 14.8148C15.1198 14.8934 15.0778 14.9205 15.0674 14.9272C15.0647 14.9289 15.0641 14.9293 15.0653 14.9289C15.025 14.9426 14.9066 14.968 14.6874 15.0126C14.6716 15.0158 14.6553 15.0191 14.6387 15.0225C14.4401 15.0628 14.1884 15.1139 13.9023 15.178C13.2829 15.3169 12.4956 15.5184 11.7102 15.8112C10.9276 16.103 10.1294 16.4917 9.49936 17.013C8.86772 17.5357 8.3841 18.2102 8.28401 19.0684L8.2825 19.0798L8.27723 19.1205C8.27267 19.1561 8.2661 19.208 8.25797 19.2743C8.24173 19.4068 8.21929 19.5966 8.19436 19.8263C8.14455 20.2855 8.08462 20.9064 8.04462 21.5506C8.00474 22.1928 7.98405 22.8672 8.01479 23.4305C8.03013 23.7115 8.05874 23.9746 8.10746 24.1965C8.15356 24.4064 8.22768 24.6293 8.36666 24.7837C9.03531 25.5263 10.9343 27 13.2672 27C14.7128 27 15.624 26.6289 16.3578 26.2893C16.4194 26.2609 16.479 26.233 16.5371 26.2059C17.1769 25.907 17.6251 25.6977 18.2402 25.7672C18.7031 25.8196 19.1002 25.8846 19.4888 25.9482C19.7588 25.9924 20.0247 26.0359 20.3057 26.0741C20.9696 26.1642 21.6449 26.2106 22.4562 26.1189C23.2641 26.0275 24.6044 25.7101 25.7532 25.0451C26.9007 24.3808 27.9245 23.3252 27.9245 21.7473V19.1099C27.9245 18.7316 27.9466 18.4543 27.9671 18.1956C27.9744 18.103 27.9816 18.0127 27.9875 17.921C28.01 17.5709 28.0102 17.2335 27.9184 16.7601ZM8.68849 21.5923C8.70993 21.247 8.73727 20.9079 8.76568 20.5974C8.991 21.1059 9.2861 21.6326 9.65662 22.1034C10.4068 23.0564 11.4974 23.8138 12.9554 23.6576C14.6162 23.4796 15.7549 23.2121 16.6069 22.9898C16.7461 22.9534 16.876 22.9188 16.9979 22.8864C17.6388 22.7158 18.0573 22.6044 18.4484 22.6044C18.8138 22.6044 19.0416 22.6741 19.3289 22.7621C19.4044 22.7852 19.484 22.8095 19.5713 22.8342C19.9973 22.9547 20.5123 23.0465 21.4164 22.9544C22.3275 22.8617 23.8325 22.4075 25.1513 21.7586C25.8129 21.433 26.4431 21.051 26.9351 20.6289C27.0568 20.5244 27.1725 20.4154 27.2794 20.3019V21.7473C27.2794 22.9825 26.4897 23.861 25.4352 24.4714C24.382 25.0811 23.1316 25.3791 22.3852 25.4635C21.6421 25.5476 21.0221 25.5062 20.3907 25.4205C20.1492 25.3877 19.8936 25.3461 19.6252 25.3025C19.2156 25.2359 18.7762 25.1645 18.3112 25.1119C17.5104 25.0213 16.9014 25.3081 16.2837 25.5988C16.2199 25.6289 16.156 25.659 16.0917 25.6887C15.4007 26.0085 14.5849 26.3407 13.2672 26.3407C11.1787 26.3407 9.43927 25.0012 8.8414 24.3372C8.82206 24.3157 8.77745 24.2365 8.73696 24.0521C8.69911 23.8798 8.67329 23.6566 8.65895 23.3937C8.63032 22.8691 8.64921 22.2248 8.68849 21.5923ZM27.3253 18.1245C27.305 18.3803 27.2808 18.6841 27.2794 19.0744C27.2055 19.3971 26.9508 19.7544 26.5202 20.1239C26.0838 20.4985 25.505 20.8527 24.8714 21.1645C23.5995 21.7903 22.1685 22.2153 21.3525 22.2983C20.5296 22.3821 20.0946 22.2981 19.7434 22.1988C19.6768 22.1799 19.61 22.1593 19.5417 22.1382C19.2433 22.0461 18.9162 21.9451 18.4484 21.9451C17.9672 21.9451 17.4522 22.0829 16.8158 22.2531C16.6973 22.2848 16.5746 22.3177 16.4472 22.3509C15.6152 22.5681 14.5087 22.8281 12.8881 23.0018C11.7209 23.1269 10.8254 22.5363 10.1593 21.6901C9.50649 20.8607 9.10431 19.8181 8.9316 19.0928C9.01899 18.4823 9.37188 17.9669 9.90533 17.5255C10.4572 17.0688 11.1811 16.7103 11.9313 16.4306C12.6786 16.152 13.4349 15.9579 14.0406 15.822C14.3201 15.7594 14.566 15.7094 14.7649 15.6691C14.7813 15.6657 14.7975 15.6624 14.8133 15.6592L14.8199 15.6579C15.0102 15.6192 15.1804 15.5846 15.2686 15.5547C15.4041 15.5087 15.5334 15.3997 15.6331 15.3103C15.7234 15.2293 15.8284 15.1269 15.9424 15.0156C15.969 14.9897 15.996 14.9634 16.0234 14.9367C16.3202 14.6482 16.7014 14.2871 17.1906 13.9268C18.165 13.2092 19.5734 12.4911 21.5705 12.4064C23.1634 12.3388 24.4509 12.7637 25.4058 13.5393C26.3615 14.3155 27.0093 15.4636 27.2855 16.8883C27.3635 17.2907 27.3637 17.568 27.3437 17.8777C27.3387 17.9554 27.3323 18.0372 27.3253 18.1245ZM14.1921 17.051C14.3147 16.9189 14.3092 16.7102 14.1799 16.585C14.0506 16.4597 13.8465 16.4653 13.7239 16.5974L10.7879 19.7622C10.6653 19.8943 10.6707 20.103 10.8 20.2283C10.9293 20.3535 11.1335 20.348 11.256 20.2159L14.1921 17.051ZM20.4034 14.0687C20.5297 13.9402 20.5301 13.7315 20.4043 13.6025C20.2786 13.4735 20.0743 13.4731 19.9481 13.6016L12.349 21.3378C12.2227 21.4663 12.2223 21.6751 12.3481 21.8041C12.4738 21.9331 12.678 21.9335 12.8043 21.805L20.4034 14.0687ZM22.9997 14.4148C23.1229 14.2832 23.1185 14.0746 22.9898 13.9487C22.861 13.8228 22.6569 13.8273 22.5337 13.9589L15.4526 21.5193C15.3294 21.6508 15.3339 21.8595 15.4626 21.9854C15.5913 22.1113 15.7955 22.1067 15.9187 21.9752L22.9997 14.4148ZM24.7283 15.8193C24.8504 15.6867 24.8442 15.4781 24.7145 15.3533C24.5848 15.2285 24.3806 15.2349 24.2585 15.3675L19.0773 20.9938C18.9552 21.1264 18.9613 21.335 19.0911 21.4598C19.2208 21.5846 19.425 21.5783 19.5471 21.4457L24.7283 15.8193ZM25.5849 18.1127C25.7111 17.9842 25.7115 17.7754 25.5858 17.6464C25.4601 17.5174 25.2558 17.517 25.1296 17.6455L22.1935 20.6345C22.0673 20.763 22.0669 20.9718 22.1927 21.1008C22.3184 21.2297 22.5226 21.2301 22.6489 21.1017L25.5849 18.1127ZM11.7929 8.35402C11.6814 8.21206 11.4783 8.1894 11.3394 8.3034C11.2005 8.41741 11.1783 8.62491 11.2899 8.76687C11.5021 9.03687 11.731 9.43859 11.7933 9.82232C11.8237 10.0093 11.8123 10.1774 11.7545 10.3226C11.6982 10.4641 11.5879 10.6096 11.376 10.739C11.0362 10.9464 10.9181 11.2917 10.9111 11.6191C10.9043 11.9367 10.9976 12.271 11.1141 12.5558C11.2321 12.844 11.3862 13.1109 11.5286 13.3C11.5977 13.3917 11.6762 13.4814 11.7575 13.5444C11.7958 13.5741 11.858 13.6163 11.9375 13.6366C12.0276 13.6596 12.1721 13.6584 12.2872 13.5412C12.4134 13.4127 12.4138 13.204 12.2881 13.075C12.2377 13.0233 12.1746 12.9922 12.109 12.9819C12.0909 12.9622 12.0676 12.9346 12.0398 12.8978C11.9339 12.7572 11.8073 12.5406 11.7093 12.3013C11.61 12.0586 11.5521 11.8215 11.5561 11.6336C11.5599 11.4556 11.6147 11.3613 11.7069 11.305C12.0248 11.1108 12.2371 10.8601 12.3521 10.571C12.4657 10.2856 12.4743 9.98864 12.4298 9.71437C12.3423 9.17561 12.0413 8.6701 11.7929 8.35402ZM14.1438 7.09861C14.0189 6.96874 13.8147 6.96691 13.6876 7.09453C13.5605 7.22214 13.5588 7.43087 13.6836 7.56073C14.0195 7.91002 14.3769 8.42439 14.474 8.91274C14.5208 9.14834 14.5043 9.36248 14.4117 9.55262C14.3191 9.74295 14.1323 9.94612 13.7722 10.1258C13.3178 10.3525 13.1292 10.7494 13.1181 11.1725C13.1077 11.5694 13.2503 11.9862 13.4272 12.3393C13.6067 12.6977 13.84 13.0271 14.0521 13.2573C14.1565 13.3705 14.2678 13.4729 14.3754 13.541C14.4279 13.5742 14.4978 13.6111 14.5782 13.6279C14.6602 13.6451 14.795 13.648 14.9138 13.5492C15.052 13.4342 15.0728 13.2266 14.9603 13.0854C14.8924 13.0002 14.7915 12.9586 14.6917 12.9644C14.6513 12.9345 14.5931 12.8826 14.5218 12.8052C14.3522 12.6212 14.1539 12.3431 14.0015 12.0389C13.8465 11.7294 13.7568 11.4283 13.763 11.1902C13.7686 10.9782 13.8456 10.8229 14.0552 10.7183C14.5097 10.4915 14.8187 10.197 14.9894 9.8463C15.1601 9.49546 15.1746 9.12537 15.1062 8.78152C14.973 8.11098 14.5159 7.4856 14.1438 7.09861Z"
        stroke="#F6F3F0" stroke-width="0.2" stroke-linecap="round" stroke-linejoin="round" />
</svg>
