<svg width="36" height="36" viewBox="0 0 36 36" fill="none" xmlns="http://www.w3.org/2000/svg">
    <defs>
        <linearGradient id="paint0_linear_2_14266" x1="27.7083" y1="31.1111" x2="6.80556"
            y2="3.88888" gradientUnits="userSpaceOnUse">
            <stop stop-color="#DCB253" />
            <stop offset="1" stop-color="#CEA139" />
        </linearGradient>
    </defs>
    <path
        d="M36 18C36 27.9411 27.9411 36 18 36C8.05887 36 0 27.9411 0 18C0 8.05887 8.05887 0 18 0C27.9411 0 36 8.05887 36 18Z"
        fill="#CFA33B" />
    <path
        d="M35 17.5C35 27.165 27.165 35 17.5 35C7.83502 35 0 27.165 0 17.5C0 7.83502 7.83502 0 17.5 0C27.165 0 35 7.83502 35 17.5Z"
        fill="url(#paint0_linear_2_14266)" />
    <path fill-rule="evenodd" clip-rule="evenodd"
        d="M22.815 18.2676C23.0418 18.321 23.1674 18.5498 23.1066 18.7639C23.0598 18.9285 22.9951 19.1254 22.9134 19.3488C23.3766 19.3449 23.8908 19.4648 24.3067 19.748C24.6201 19.9614 24.8799 20.2697 25.0114 20.6853C25.0966 20.9549 25.1247 21.2595 25.0867 21.5993C25.3645 21.4875 25.6099 21.4013 25.8159 21.3421C26.0386 21.2782 26.2784 21.4119 26.3231 21.6512C26.4614 22.3921 26.2225 23.3023 25.7652 24.178C25.3034 25.0625 24.5979 25.9529 23.7415 26.6662C22.0433 28.0806 19.6746 28.8462 17.4422 27.3312C17.4228 27.3212 17.4069 27.3104 17.3947 27.301C17.3814 27.2908 17.37 27.2803 17.3604 27.2703C17.3408 27.2521 17.3227 27.231 17.3072 27.2073C16.4481 26.1568 16.1882 25.0118 16.3318 23.9038C16.4762 22.7904 17.0253 21.7294 17.7487 20.8373C18.4727 19.9446 19.3849 19.2041 20.2829 18.7345C21.1618 18.2749 22.0855 18.0456 22.815 18.2676ZM17.9885 26.9825C19.8553 28.1086 21.8318 27.4902 23.3611 26.2164C24.1579 25.5528 24.814 24.7233 25.2398 23.9079C25.6171 23.1853 25.7981 22.5045 25.7669 21.973C25.5017 22.0621 25.178 22.1909 24.8089 22.3575L24.8042 22.3596C24.1541 22.6533 23.3635 23.0639 22.5028 23.5813C21.1704 24.3824 19.6845 25.4313 18.3105 26.6799C18.2045 26.7831 18.0972 26.8841 17.9885 26.9825ZM20.2556 24.3566C20.9186 23.8804 21.5741 23.4532 22.1962 23.0791C23.0152 22.5867 23.7813 22.1836 24.4347 21.882C24.5432 21.4489 24.527 21.1149 24.4468 20.8611C24.3594 20.5849 24.189 20.3799 23.9719 20.2321C23.5911 19.9728 23.0751 19.8969 22.6769 19.9532C22.3699 20.6936 21.9344 21.6056 21.3902 22.56C21.054 23.1497 20.6744 23.759 20.2556 24.3566ZM17.9032 26.2538C17.7891 26.3575 17.6758 26.4626 17.5634 26.569C16.9745 25.7269 16.8069 24.8414 16.9188 23.9787C17.0454 23.0018 17.5335 22.0393 18.2097 21.2055C18.8854 20.3723 19.7355 19.6845 20.5588 19.254C21.306 18.8632 21.9845 18.7078 22.4803 18.7914C22.2396 19.5424 21.6846 20.8511 20.8751 22.2709C20.0916 23.6452 19.0803 25.1044 17.9032 26.2538Z"
        fill="#F6F3F0" />
    <path fill-rule="evenodd" clip-rule="evenodd"
        d="M16.941 26.0921C16.9787 26.1795 17.0199 26.267 17.0646 26.3547C17.0915 26.4073 17.1316 26.4534 17.1796 26.4883L17.2892 26.5679C16.418 27.1324 15.3593 27.427 14.3027 27.5174C13.1521 27.6158 11.9822 27.4741 11.0194 27.1551C10.077 26.843 9.27131 26.3395 8.92844 25.6631C8.81051 25.4636 8.89018 25.2154 9.08817 25.1109C9.24036 25.0306 9.42843 24.9408 9.64751 24.8449C9.3244 24.5156 9.05609 24.0641 8.97465 23.5702C8.91326 23.198 8.95804 22.7986 9.1697 22.417C9.30702 22.1694 9.50936 21.9387 9.78301 21.7309C9.50955 21.6091 9.27707 21.4929 9.09155 21.3861C8.89099 21.2707 8.82253 21.0063 8.96581 20.8089C9.40954 20.1973 10.2373 19.7392 11.1911 19.4614C12.1544 19.1808 13.2905 19.0706 14.4019 19.1912C15.7879 19.3416 17.1705 19.8595 18.1155 20.8816C17.9888 21.0212 17.8605 21.1755 17.735 21.3427C16.91 20.4061 15.6611 19.9185 14.3376 19.7749C13.3034 19.6627 12.2459 19.7661 11.3578 20.0247C10.5708 20.254 9.9501 20.5951 9.58468 20.9849C9.83299 21.1134 10.1506 21.2563 10.5271 21.4057L10.5319 21.4076C11.1952 21.6705 12.0409 21.9533 13.0127 22.2123C14.1613 22.5185 15.4768 22.7889 16.8621 22.9538C16.7786 23.1929 16.7113 23.4417 16.6656 23.6983C15.4733 23.788 14.2741 24.0105 13.1843 24.2852C11.591 24.6868 10.2544 25.194 9.54121 25.5408C9.8232 25.954 10.4056 26.3328 11.2068 26.5982C12.0895 26.8906 13.1781 27.0243 14.2519 26.9324C15.2293 26.8488 16.1765 26.5801 16.941 26.0921ZM12.8592 22.7794C13.5616 22.9666 14.326 23.141 15.1311 23.287C14.4064 23.4 13.7004 23.5493 13.0386 23.7161C11.9675 23.9861 11.0024 24.3046 10.2511 24.5965C9.93476 24.35 9.63322 23.9277 9.55863 23.4754C9.51611 23.2176 9.54749 22.9536 9.68811 22.7001C9.81742 22.467 10.0494 22.2245 10.4397 22.0027C11.1111 22.2626 11.9344 22.5329 12.8592 22.7794Z"
        fill="#F6F3F0" />
    <path fill-rule="evenodd" clip-rule="evenodd"
        d="M16.4337 9.03843C14.087 8.00725 11.2372 8.78842 9.84217 10.9111L9.76666 11.026C9.01105 12.1757 8.52196 13.3516 8.59991 14.5498C8.67711 15.7366 9.31547 17.0074 10.9492 18.3422C11.0753 18.4453 11.0934 18.6303 10.9895 18.7555C10.8856 18.8806 10.6991 18.8986 10.573 18.7955C8.85312 17.3902 8.10006 15.9814 8.00939 14.5876C7.91945 13.2052 8.48603 11.8996 9.27099 10.7053L9.34651 10.5904C10.9069 8.21613 14.0729 7.35886 16.6733 8.50155C17.7634 8.98054 18.4923 9.77694 19.1977 10.645C19.7622 11.3399 20.3216 11.7638 21.0055 12.0458C21.6991 12.3319 22.5365 12.4789 23.6734 12.5923C24.1828 12.6431 24.6899 12.7501 25.1764 12.926C28.5366 14.1411 30.0037 18.0509 28.2625 21.1506L28.0836 21.4692L28.0821 21.4717C27.8402 21.883 27.5563 22.2557 27.2388 22.5876C27.1263 22.7052 26.939 22.71 26.8205 22.5983C26.702 22.4867 26.6972 22.3009 26.8097 22.1833C27.0954 21.8847 27.3512 21.5491 27.5695 21.1782L27.7456 20.8648C29.3095 18.0807 27.9918 14.569 24.9738 13.4777C24.5389 13.3204 24.0806 13.223 23.6142 13.1765C22.4661 13.062 21.5562 12.9088 20.7783 12.588C19.9907 12.2631 19.3544 11.7734 18.737 11.0136C18.0404 10.1563 17.386 9.45688 16.4337 9.03843Z"
        fill="#F6F3F0" />
    <path fill-rule="evenodd" clip-rule="evenodd"
        d="M15.7286 11.0741C14.8236 10.5128 13.7576 10.2523 12.1663 10.6334C12.0074 10.6715 11.8476 10.5745 11.8092 10.4169C11.7709 10.2593 11.8686 10.1007 12.0274 10.0626C13.7654 9.64642 14.9956 9.92708 16.0422 10.5762C16.5563 10.895 17.0187 11.2979 17.4691 11.7313C17.6899 11.9438 17.9103 12.166 18.1329 12.3905L18.1467 12.4044C18.3747 12.6344 18.6057 12.867 18.8468 13.0992C19.7825 14.0004 20.5326 14.2956 21.2164 14.4117C21.5516 14.4686 21.8757 14.4835 22.2199 14.4993C22.2368 14.5001 22.2538 14.5008 22.2709 14.5016C22.6289 14.5181 23.0082 14.5379 23.4058 14.6168C24.1907 14.7726 24.8782 15.0629 25.4853 15.5369C26.0909 16.0097 26.6031 16.6547 27.0536 17.5016C27.1299 17.645 27.0745 17.8226 26.93 17.8983C26.7855 17.9739 26.6065 17.919 26.5303 17.7757C26.1082 16.9822 25.6446 16.4084 25.1194 15.9983C24.5957 15.5895 23.9973 15.333 23.2897 15.1926C22.9411 15.1234 22.6028 15.1047 22.2434 15.0882C22.2235 15.0872 22.2035 15.0863 22.1835 15.0854C21.8467 15.07 21.4889 15.0537 21.1166 14.9905C20.3078 14.8531 19.4507 14.499 18.4347 13.5206C18.1879 13.2829 17.9524 13.0457 17.7249 12.8162L17.7133 12.8045C17.4891 12.5784 17.2729 12.3604 17.0571 12.1528C16.6178 11.7301 16.1904 11.3605 15.7286 11.0741Z"
        fill="#F6F3F0" />
    <path fill-rule="evenodd" clip-rule="evenodd"
        d="M11.0688 12.0966C11.1501 11.9559 11.3309 11.9072 11.4727 11.9878L16.5815 14.8927C16.7233 14.9733 16.7723 15.1527 16.6911 15.2933C16.6099 15.434 16.4291 15.4827 16.2873 15.4021L11.1784 12.4973C11.0367 12.4166 10.9876 12.2372 11.0688 12.0966ZM9.74806 13.3283C9.90457 13.2817 10.0695 13.3699 10.1165 13.5252C10.2649 14.0159 11.0138 15.3326 12.7833 16.2544C12.928 16.3298 12.9837 16.5073 12.9078 16.6508C12.8318 16.7944 12.653 16.8497 12.5083 16.7743C10.604 15.7823 9.74571 14.3423 9.54968 13.6939C9.50272 13.5386 9.59154 13.3749 9.74806 13.3283ZM18.7602 16.3694C18.8408 16.2284 19.0214 16.179 19.1635 16.259L21.2874 17.4552C21.4296 17.5352 21.4794 17.7144 21.3987 17.8554C21.3181 17.9964 21.1375 18.0458 20.9954 17.9658L18.8715 16.7697C18.7293 16.6897 18.6795 16.5105 18.7602 16.3694ZM17.3479 17.5315C17.4475 17.403 17.6333 17.3789 17.7628 17.4778C17.7945 17.5019 17.8247 17.5242 17.8553 17.5467C17.93 17.6017 18.0066 17.6581 18.1104 17.747C18.2576 17.873 18.469 18.0712 18.86 18.4591C18.9756 18.5738 18.9756 18.7597 18.86 18.8743C18.7445 18.989 18.5571 18.989 18.4416 18.8743C18.0519 18.4876 17.8535 18.3026 17.7239 18.1916C17.6368 18.1171 17.5849 18.0789 17.5185 18.0301C17.4853 18.0057 17.4486 17.9787 17.402 17.9432C17.2725 17.8443 17.2483 17.66 17.3479 17.5315Z"
        fill="#F6F3F0" />
    <path fill-rule="evenodd" clip-rule="evenodd"
        d="M22.815 18.2676C23.0418 18.321 23.1674 18.5498 23.1066 18.7639C23.0598 18.9285 22.9951 19.1254 22.9134 19.3488C23.3766 19.3449 23.8908 19.4648 24.3067 19.748C24.6201 19.9614 24.8799 20.2697 25.0114 20.6853C25.0966 20.9549 25.1247 21.2595 25.0867 21.5993C25.3645 21.4875 25.6099 21.4013 25.8159 21.3421C26.0386 21.2782 26.2784 21.4119 26.3231 21.6512C26.4614 22.3921 26.2225 23.3023 25.7652 24.178C25.3034 25.0625 24.5979 25.9529 23.7415 26.6662C22.0433 28.0806 19.6746 28.8462 17.4422 27.3312C17.4228 27.3212 17.4069 27.3104 17.3947 27.301C17.3814 27.2908 17.37 27.2803 17.3604 27.2703C17.3408 27.2521 17.3227 27.231 17.3072 27.2073C16.4481 26.1568 16.1882 25.0118 16.3318 23.9038C16.4762 22.7904 17.0253 21.7294 17.7487 20.8373C18.4727 19.9446 19.3849 19.2041 20.2829 18.7345C21.1618 18.2749 22.0855 18.0456 22.815 18.2676ZM17.9885 26.9825C19.8553 28.1086 21.8318 27.4902 23.3611 26.2164C24.1579 25.5528 24.814 24.7233 25.2398 23.9079C25.6171 23.1853 25.7981 22.5045 25.7669 21.973C25.5017 22.0621 25.178 22.1909 24.8089 22.3575L24.8042 22.3596C24.1541 22.6533 23.3635 23.0639 22.5028 23.5813C21.1704 24.3824 19.6845 25.4313 18.3105 26.6799C18.2045 26.7831 18.0972 26.8841 17.9885 26.9825ZM20.2556 24.3566C20.9186 23.8804 21.5741 23.4532 22.1962 23.0791C23.0152 22.5867 23.7813 22.1836 24.4347 21.882C24.5432 21.4489 24.527 21.1149 24.4468 20.8611C24.3594 20.5849 24.189 20.3799 23.9719 20.2321C23.5911 19.9728 23.0751 19.8969 22.6769 19.9532C22.3699 20.6936 21.9344 21.6056 21.3902 22.56C21.054 23.1497 20.6744 23.759 20.2556 24.3566ZM17.9032 26.2538C17.7891 26.3575 17.6758 26.4626 17.5634 26.569C16.9745 25.7269 16.8069 24.8414 16.9188 23.9787C17.0454 23.0018 17.5335 22.0393 18.2097 21.2055C18.8854 20.3723 19.7355 19.6845 20.5588 19.254C21.306 18.8632 21.9845 18.7078 22.4803 18.7914C22.2396 19.5424 21.6846 20.8511 20.8751 22.2709C20.0916 23.6452 19.0803 25.1044 17.9032 26.2538Z"
        stroke="#F6F3F0" stroke-width="0.2" stroke-linecap="round" />
    <path fill-rule="evenodd" clip-rule="evenodd"
        d="M16.941 26.0921C16.9787 26.1795 17.0199 26.267 17.0646 26.3547C17.0915 26.4073 17.1316 26.4534 17.1796 26.4883L17.2892 26.5679C16.418 27.1324 15.3593 27.427 14.3027 27.5174C13.1521 27.6158 11.9822 27.4741 11.0194 27.1551C10.077 26.843 9.27131 26.3395 8.92844 25.6631C8.81051 25.4636 8.89018 25.2154 9.08817 25.1109C9.24036 25.0306 9.42843 24.9408 9.64751 24.8449C9.3244 24.5156 9.05609 24.0641 8.97465 23.5702C8.91326 23.198 8.95804 22.7986 9.1697 22.417C9.30702 22.1694 9.50936 21.9387 9.78301 21.7309C9.50955 21.6091 9.27707 21.4929 9.09155 21.3861C8.89099 21.2707 8.82253 21.0063 8.96581 20.8089C9.40954 20.1973 10.2373 19.7392 11.1911 19.4614C12.1544 19.1808 13.2905 19.0706 14.4019 19.1912C15.7879 19.3416 17.1705 19.8595 18.1155 20.8816C17.9888 21.0212 17.8605 21.1755 17.735 21.3427C16.91 20.4061 15.6611 19.9185 14.3376 19.7749C13.3034 19.6627 12.2459 19.7661 11.3578 20.0247C10.5708 20.254 9.9501 20.5951 9.58468 20.9849C9.83299 21.1134 10.1506 21.2563 10.5271 21.4057L10.5319 21.4076C11.1952 21.6705 12.0409 21.9533 13.0127 22.2123C14.1613 22.5185 15.4768 22.7889 16.8621 22.9538C16.7786 23.1929 16.7113 23.4417 16.6656 23.6983C15.4733 23.788 14.2741 24.0105 13.1843 24.2852C11.591 24.6868 10.2544 25.194 9.54121 25.5408C9.8232 25.954 10.4056 26.3328 11.2068 26.5982C12.0895 26.8906 13.1781 27.0243 14.2519 26.9324C15.2293 26.8488 16.1765 26.5801 16.941 26.0921ZM12.8592 22.7794C13.5616 22.9666 14.326 23.141 15.1311 23.287C14.4064 23.4 13.7004 23.5493 13.0386 23.7161C11.9675 23.9861 11.0024 24.3046 10.2511 24.5965C9.93476 24.35 9.63322 23.9277 9.55863 23.4754C9.51611 23.2176 9.54749 22.9536 9.68811 22.7001C9.81742 22.467 10.0494 22.2245 10.4397 22.0027C11.1111 22.2626 11.9344 22.5329 12.8592 22.7794Z"
        stroke="#F6F3F0" stroke-width="0.2" stroke-linecap="round" />
    <path fill-rule="evenodd" clip-rule="evenodd"
        d="M16.4337 9.03843C14.087 8.00725 11.2372 8.78842 9.84217 10.9111L9.76666 11.026C9.01105 12.1757 8.52196 13.3516 8.59991 14.5498C8.67711 15.7366 9.31547 17.0074 10.9492 18.3422C11.0753 18.4453 11.0934 18.6303 10.9895 18.7555C10.8856 18.8806 10.6991 18.8986 10.573 18.7955C8.85312 17.3902 8.10006 15.9814 8.00939 14.5876C7.91945 13.2052 8.48603 11.8996 9.27099 10.7053L9.34651 10.5904C10.9069 8.21613 14.0729 7.35886 16.6733 8.50155C17.7634 8.98054 18.4923 9.77694 19.1977 10.645C19.7622 11.3399 20.3216 11.7638 21.0055 12.0458C21.6991 12.3319 22.5365 12.4789 23.6734 12.5923C24.1828 12.6431 24.6899 12.7501 25.1764 12.926C28.5366 14.1411 30.0037 18.0509 28.2625 21.1506L28.0836 21.4692L28.0821 21.4717C27.8402 21.883 27.5563 22.2557 27.2388 22.5876C27.1263 22.7052 26.939 22.71 26.8205 22.5983C26.702 22.4867 26.6972 22.3009 26.8097 22.1833C27.0954 21.8847 27.3512 21.5491 27.5695 21.1782L27.7456 20.8648C29.3095 18.0807 27.9918 14.569 24.9738 13.4777C24.5389 13.3204 24.0806 13.223 23.6142 13.1765C22.4661 13.062 21.5562 12.9088 20.7783 12.588C19.9907 12.2631 19.3544 11.7734 18.737 11.0136C18.0404 10.1563 17.386 9.45688 16.4337 9.03843Z"
        stroke="#F6F3F0" stroke-width="0.2" stroke-linecap="round" />
    <path fill-rule="evenodd" clip-rule="evenodd"
        d="M15.7286 11.0741C14.8236 10.5128 13.7576 10.2523 12.1663 10.6334C12.0074 10.6715 11.8476 10.5745 11.8092 10.4169C11.7709 10.2593 11.8686 10.1007 12.0274 10.0626C13.7654 9.64642 14.9956 9.92708 16.0422 10.5762C16.5563 10.895 17.0187 11.2979 17.4691 11.7313C17.6899 11.9438 17.9103 12.166 18.1329 12.3905L18.1467 12.4044C18.3747 12.6344 18.6057 12.867 18.8468 13.0992C19.7825 14.0004 20.5326 14.2956 21.2164 14.4117C21.5516 14.4686 21.8757 14.4835 22.2199 14.4993C22.2368 14.5001 22.2538 14.5008 22.2709 14.5016C22.6289 14.5181 23.0082 14.5379 23.4058 14.6168C24.1907 14.7726 24.8782 15.0629 25.4853 15.5369C26.0909 16.0097 26.6031 16.6547 27.0536 17.5016C27.1299 17.645 27.0745 17.8226 26.93 17.8983C26.7855 17.9739 26.6065 17.919 26.5303 17.7757C26.1082 16.9822 25.6446 16.4084 25.1194 15.9983C24.5957 15.5895 23.9973 15.333 23.2897 15.1926C22.9411 15.1234 22.6028 15.1047 22.2434 15.0882C22.2235 15.0872 22.2035 15.0863 22.1835 15.0854C21.8467 15.07 21.4889 15.0537 21.1166 14.9905C20.3078 14.8531 19.4507 14.499 18.4347 13.5206C18.1879 13.2829 17.9524 13.0457 17.7249 12.8162L17.7133 12.8045C17.4891 12.5784 17.2729 12.3604 17.0571 12.1528C16.6178 11.7301 16.1904 11.3605 15.7286 11.0741Z"
        stroke="#F6F3F0" stroke-width="0.2" stroke-linecap="round" />
    <path fill-rule="evenodd" clip-rule="evenodd"
        d="M11.0688 12.0966C11.1501 11.9559 11.3309 11.9072 11.4727 11.9878L16.5815 14.8927C16.7233 14.9733 16.7723 15.1527 16.6911 15.2933C16.6099 15.434 16.4291 15.4827 16.2873 15.4021L11.1784 12.4973C11.0367 12.4166 10.9876 12.2372 11.0688 12.0966ZM9.74806 13.3283C9.90457 13.2817 10.0695 13.3699 10.1165 13.5252C10.2649 14.0159 11.0138 15.3326 12.7833 16.2544C12.928 16.3298 12.9837 16.5073 12.9078 16.6508C12.8318 16.7944 12.653 16.8497 12.5083 16.7743C10.604 15.7823 9.74571 14.3423 9.54968 13.6939C9.50272 13.5386 9.59154 13.3749 9.74806 13.3283ZM18.7602 16.3694C18.8408 16.2284 19.0214 16.179 19.1635 16.259L21.2874 17.4552C21.4296 17.5352 21.4794 17.7144 21.3987 17.8554C21.3181 17.9964 21.1375 18.0458 20.9954 17.9658L18.8715 16.7697C18.7293 16.6897 18.6795 16.5105 18.7602 16.3694ZM17.3479 17.5315C17.4475 17.403 17.6333 17.3789 17.7628 17.4778C17.7945 17.5019 17.8247 17.5242 17.8553 17.5467C17.93 17.6017 18.0066 17.6581 18.1104 17.747C18.2576 17.873 18.469 18.0712 18.86 18.4591C18.9756 18.5738 18.9756 18.7597 18.86 18.8743C18.7445 18.989 18.5571 18.989 18.4416 18.8743C18.0519 18.4876 17.8535 18.3026 17.7239 18.1916C17.6368 18.1171 17.5849 18.0789 17.5185 18.0301C17.4853 18.0057 17.4486 17.9787 17.402 17.9432C17.2725 17.8443 17.2483 17.66 17.3479 17.5315Z"
        stroke="#F6F3F0" stroke-width="0.2" stroke-linecap="round" />
</svg>
