<svg width="60" height="201" viewBox="0 0 60 201" fill="none" xmlns="http://www.w3.org/2000/svg">
<path d="M20.8465 3.96443C20.8465 3.96443 20.8836 6.79343 20.7352 6.82671C18.954 6.89328 19.1767 8.85694 19.2509 10.8206C19.3251 12.4514 20.2899 12.5513 20.2899 12.5513L19.3622 49.528C19.3622 49.528 18.2119 57.2495 12.3861 61.0104C6.56038 64.7714 4.00001 71.2614 4.00001 80.4474V190.978C4.00001 190.978 3.88869 198.5 29.7521 198.5C53.352 198.5 55.8753 192.376 55.8753 192.376L55.9124 84.5744C55.9124 84.5744 57.508 68.499 47.081 60.8107C43.5929 57.2495 39.1772 54.3207 39.6225 42.0062L39.5112 12.8175C40.2905 12.3237 40.7375 11.5093 40.6986 10.6542C40.6986 9.1232 40.7728 7.59221 40.7728 7.59221C40.7728 7.59221 40.6986 6.59373 39.1772 6.59373C39.103 5.39557 39.1772 3.86458 39.1772 3.86458C39.1772 3.86458 39.2886 2.5 36.654 2.5H22.9616C22.9616 2.5 20.7723 2.5 20.8465 3.96443Z" fill="url(#paint0_linear_25939_164341)"/>
<path d="M20.8465 3.96443C20.8465 3.96443 20.8836 6.79343 20.7352 6.82671C18.954 6.89328 19.1767 8.85694 19.2509 10.8206C19.3251 12.4514 20.2899 12.5513 20.2899 12.5513L19.3622 49.528C19.3622 49.528 18.2119 57.2495 12.3861 61.0104C6.56038 64.7714 4.00001 71.2614 4.00001 80.4474V190.978C4.00001 190.978 3.88869 198.5 29.7521 198.5C53.352 198.5 55.8753 192.376 55.8753 192.376L55.9124 84.5744C55.9124 84.5744 57.508 68.499 47.081 60.8107C43.5929 57.2495 39.1772 54.3207 39.6225 42.0062L39.5112 12.8175C40.2905 12.3237 40.7375 11.5093 40.6986 10.6542C40.6986 9.1232 40.7728 7.59221 40.7728 7.59221C40.7728 7.59221 40.6986 6.59373 39.1772 6.59373C39.103 5.39557 39.1772 3.86458 39.1772 3.86458C39.1772 3.86458 39.2886 2.5 36.654 2.5H22.9616C22.9616 2.5 20.7723 2.5 20.8465 3.96443Z" fill="url(#paint1_radial_25939_164341)"/>
<path opacity="0.485001" d="M43.5936 62.0757C43.5936 62.0757 53.3156 67.8668 53.3156 80.4475V187.018C53.3156 187.018 51.8313 190.279 47.8609 190.279C43.948 190.279 43.4228 187.273 43.4084 178.967L43.4081 82.2448C43.4081 82.2448 43.4236 81.9501 43.4253 81.4459L43.4249 81.1767C43.4088 78.6515 43.0298 72.3147 39.7716 69.4977C37.471 67.1346 36.1352 64.1725 38.6213 62.8412C41.1075 61.5099 42.5917 61.5099 43.5936 62.0757ZM26.9698 13.084V47.2346H22.2104V13.084H26.9698Z" fill="url(#paint2_linear_25939_164341)"/>
<defs>
<linearGradient id="paint0_linear_25939_164341" x1="56" y1="100.5" x2="4" y2="100.5" gradientUnits="userSpaceOnUse">
<stop stop-color="#D9D9D9"/>
<stop offset="0.617539" stop-color="#F0F0F0"/>
<stop offset="1" stop-color="#D9D9D9"/>
</linearGradient>
<radialGradient id="paint1_radial_25939_164341" cx="0" cy="0" r="1" gradientUnits="userSpaceOnUse" gradientTransform="translate(18.8079 73.9737) rotate(84.8642) scale(125.028 33.172)">
<stop stop-color="white" stop-opacity="0.7"/>
<stop offset="1" stop-color="white" stop-opacity="0"/>
</radialGradient>
<linearGradient id="paint2_linear_25939_164341" x1="65.5777" y1="101.682" x2="33.7792" y2="101.682" gradientUnits="userSpaceOnUse">
<stop stop-color="#FAFAFA"/>
<stop offset="1" stop-color="white"/>
</linearGradient>
</defs>
</svg>
