<svg width="26" height="27" viewBox="0 0 26 27" fill="none" xmlns="http://www.w3.org/2000/svg">
<path d="M2.83239 3.57594L1.12895 5.95583V11.2388C1.12895 11.607 1.27522 11.9601 1.53559 12.2205L3.31124 13.9962C3.57161 14.2565 3.92474 14.4028 4.29295 14.4028H5.65006C5.85918 14.4028 6.0287 14.2333 6.0287 14.0242C6.0287 13.815 5.85918 13.6455 5.65006 13.6455H4.29295C4.12558 13.6455 3.96507 13.579 3.84672 13.4607L2.07107 11.685C1.95272 11.5667 1.88623 11.4062 1.88623 11.2388V7.18094L3.21715 8.89212C3.52225 9.28439 4.01374 9.48367 4.50588 9.41465L7.72039 8.96383C7.92748 8.93479 8.07181 8.74336 8.04277 8.53627C8.01373 8.32918 7.8223 8.18484 7.61521 8.21389L4.4007 8.66471C4.177 8.69608 3.9536 8.6055 3.81492 8.4272L1.97996 6.06797L3.44819 4.0167C3.57615 3.83792 3.78793 3.73863 4.00721 3.7546L8.22625 4.06201C8.36992 4.07248 8.50568 4.13178 8.61098 4.23006L10.8868 6.35418C11.0397 6.49687 11.2793 6.48861 11.422 6.33573C11.5647 6.18285 11.5564 5.94325 11.4035 5.80057L9.12769 3.67645C8.89602 3.46022 8.59734 3.32976 8.28128 3.30673L4.06224 2.99932C3.57984 2.96417 3.11391 3.18262 2.83239 3.57594Z" fill="#1B1B1B"/>
<path d="M13.7454 7.6527C14.6454 7.99206 15.4273 8.5325 15.8661 9.26388C15.9737 9.4432 15.9156 9.67578 15.7362 9.78337C15.5569 9.89096 15.3243 9.83281 15.2168 9.6535C14.8947 9.11676 14.2807 8.66387 13.4782 8.36129C12.6806 8.06058 11.7308 7.92202 10.7882 7.98718C8.89389 8.11812 7.13772 9.05165 6.60781 10.9953C5.88033 13.6636 6.38114 15.3813 7.32619 16.4533C8.2882 17.5445 9.77842 18.0454 11.1679 18.1264L11.5459 18.1484L11.5018 18.9044L11.1238 18.8824C9.61071 18.7942 7.89786 18.2469 6.75814 16.954C5.60146 15.642 5.10188 13.6399 5.8772 10.7961C6.52266 8.42864 8.65509 7.37554 10.736 7.2317C11.781 7.15946 12.8404 7.31148 13.7454 7.6527Z" fill="#1B1B1B"/>
<path d="M12.1796 13.3124L16.1122 16.9425H17.5454C17.7545 16.9425 17.9241 17.112 17.9241 17.3211C17.9241 17.5302 17.7545 17.6997 17.5454 17.6997H16.3428V18.8368C16.3428 19.0459 16.1732 19.2154 15.9641 19.2154C15.755 19.2154 15.5855 19.0459 15.5855 18.8368V17.4869L11.691 13.892C11.6616 14.0329 11.6378 14.2063 11.6205 14.4092C11.5743 14.9479 11.5772 15.6409 11.6073 16.3701C11.6675 17.8253 11.8339 19.3756 11.9079 20.0167C11.9188 20.1111 11.9668 20.1978 12.0453 20.2602L14.8357 22.4783C14.92 22.5453 15.0289 22.5732 15.1351 22.5551L18.2675 22.0203C18.4737 21.9851 18.6693 22.1236 18.7045 22.3298C18.7397 22.5359 18.6011 22.7316 18.395 22.7668L15.2625 23.3016C14.944 23.3559 14.6174 23.2721 14.3645 23.0711L11.5741 20.853C11.3427 20.6691 11.1901 20.4024 11.1556 20.1036C11.081 19.4573 10.912 17.8849 10.8507 16.4014C10.8201 15.6612 10.8157 14.9309 10.8659 14.3446C10.8909 14.0525 10.9306 13.7824 10.9926 13.5594C11.0469 13.3642 11.1363 13.1352 11.3095 12.9857C11.4405 12.8522 11.6249 12.7414 11.8147 12.6478C12.0224 12.5454 12.2724 12.4466 12.5468 12.3527C13.0962 12.1647 13.7704 11.9874 14.458 11.8365C15.8187 11.5378 17.3012 11.3275 18.0121 11.3633C18.4126 11.3834 18.9038 11.5456 19.4021 11.7744C19.9093 12.0074 20.4581 12.3255 20.9832 12.6892C21.5084 13.0529 22.017 13.4671 22.4411 13.8952C22.8613 14.3194 23.2171 14.7757 23.4127 15.2257L23.4212 15.2451L23.4274 15.2653C23.6785 16.0815 23.8882 18.2431 22.9112 20.7554C22.8354 20.9503 22.6159 21.0469 22.421 20.9711C22.2261 20.8953 22.1296 20.6758 22.2054 20.4809C22.9157 18.6543 22.9443 17.0503 22.8282 16.1186C22.5257 16.3786 22.1554 16.661 21.7474 16.9138C21.0711 17.3328 20.2447 17.6997 19.4303 17.6997C19.2212 17.6997 19.0516 17.5302 19.0516 17.3211C19.0516 17.112 19.2212 16.9425 19.4303 16.9425C20.0361 16.9425 20.7173 16.6612 21.3486 16.2701C21.8547 15.9565 22.2985 15.5911 22.603 15.3024C22.4448 15.0312 22.2061 14.734 21.9031 14.4282C21.5177 14.0392 21.0465 13.6542 20.5521 13.3117C20.0576 12.9693 19.5472 12.6744 19.086 12.4626C18.6158 12.2467 18.2296 12.1324 17.9741 12.1196C17.373 12.0894 15.9771 12.2783 14.6203 12.5761C13.9491 12.7235 13.3049 12.8937 12.7919 13.0692C12.5501 13.1519 12.3435 13.2338 12.1796 13.3124ZM18.56 19.5896C18.7079 19.4417 18.9476 19.4417 19.0955 19.5896L20.6589 21.153C21.0061 21.5002 21.0688 22.004 20.9309 22.4202C20.7697 22.907 20.6676 23.5101 20.759 24.0676C20.8479 24.6098 21.1175 25.1084 21.7181 25.4448C22.6304 25.9557 23.5015 25.7651 24.0551 25.2115C24.6151 24.6515 24.895 23.6703 24.4746 22.5239C24.4026 22.3275 24.5034 22.11 24.6998 22.038C24.8961 21.966 25.1136 22.0668 25.1856 22.2632C25.6952 23.6529 25.3833 24.9543 24.5906 25.747C23.7916 26.546 22.5492 26.7781 21.348 26.1055C20.516 25.6396 20.1319 24.9232 20.0117 24.1901C19.894 23.4721 20.0274 22.7394 20.212 22.1821C20.277 21.986 20.2324 21.7974 20.1234 21.6885L18.56 20.125C18.4122 19.9772 18.4122 19.7374 18.56 19.5896Z" fill="#1B1B1B"/>
<path d="M10.668 9.87733C10.717 10.0806 10.592 10.2852 10.3887 10.3342C9.71663 10.4965 8.48043 11.349 8.48048 13.1787C8.48048 13.3878 8.31097 13.5573 8.10185 13.5573C7.89273 13.5574 7.7232 13.3878 7.7232 13.1787C7.72314 10.9505 9.24869 9.8304 10.211 9.59811C10.4143 9.54904 10.6189 9.67405 10.668 9.87733Z" fill="#1B1B1B"/>
<path d="M0.970193 0.606188C1.12067 0.460969 1.36037 0.465228 1.50559 0.615701L2.96374 2.12661C3.10896 2.27708 3.1047 2.51678 2.95423 2.662C2.80376 2.80722 2.56405 2.80296 2.41883 2.65249L0.96068 1.14158C0.815461 0.991111 0.819721 0.751406 0.970193 0.606188Z" fill="#1B1B1B"/>
</svg>
