<svg width="29" height="28" viewBox="0 0 29 28" fill="none" xmlns="http://www.w3.org/2000/svg">
<path d="M9.57393 1.6231C9.57393 1.23326 9.88996 0.917236 10.2798 0.917236H11.8599C12.2498 0.917236 12.5658 1.23326 12.5658 1.6231V4.84834H15.7269V1.6231C15.7269 1.23326 16.0429 0.917236 16.4328 0.917236H18.0129C18.4027 0.917236 18.7188 1.23326 18.7188 1.6231V5.58583C18.7188 5.58586 18.7187 5.5858 18.7188 5.58583C18.7188 5.58595 18.719 5.58618 18.719 5.58633C18.7194 5.58696 18.7201 5.58787 18.721 5.58899C18.7254 5.59405 18.7338 5.59993 18.7453 5.60234C19.2781 5.7144 19.7538 5.9386 20.1753 6.34647C20.5909 6.74872 20.9363 7.31262 21.2416 8.07664C21.8487 9.59582 22.3323 11.9988 22.8464 15.7519C23.1542 17.9994 23.3401 19.859 23.3022 21.3758C23.2642 22.8908 23.0026 24.1065 22.3779 25.0353C21.7459 25.975 20.7758 26.5727 19.4264 26.918C18.0882 27.2605 16.3525 27.3614 14.1464 27.2957C11.9402 27.3614 10.2046 27.2605 8.86639 26.918C7.51697 26.5727 6.54679 25.975 5.91479 25.0353C5.2901 24.1065 5.02847 22.8909 4.99054 21.3758C4.95256 19.859 5.13845 17.9994 5.44632 15.7519C5.96043 11.9988 6.44401 9.59582 7.05111 8.07664C7.35644 7.31262 7.70177 6.74872 8.11742 6.34647C8.53888 5.9386 9.01458 5.7144 9.54743 5.60234C9.55888 5.59993 9.56729 5.59405 9.57167 5.58899C9.57264 5.58787 9.57327 5.58696 9.57364 5.58633C9.57376 5.58614 9.57386 5.58597 9.57393 5.58583V1.6231ZM10.2813 1.62456V5.58655C10.2813 5.95028 10.0115 6.22754 9.693 6.29452C9.27282 6.38289 8.92269 6.55148 8.60931 6.85475C8.29012 7.16365 7.99161 7.62926 7.70793 8.33913C7.13702 9.76772 6.66187 12.09 6.1471 15.8479C5.83982 18.091 5.66119 19.9025 5.69764 21.3581C5.73413 22.8155 5.98585 23.8735 6.50172 24.6406C7.01028 25.3967 7.80788 25.9171 9.04174 26.2328C10.2847 26.5509 11.9444 26.6542 14.1358 26.5884L14.1464 26.5881L14.157 26.5884C16.3484 26.6542 18.0081 26.5509 19.251 26.2328C20.4849 25.9171 21.2825 25.3967 21.791 24.6406C22.3069 23.8735 22.5586 22.8155 22.5951 21.3581C22.6315 19.9025 22.4529 18.091 22.1456 15.8479C21.6308 12.09 21.1557 9.76772 20.5848 8.33913C20.3011 7.62926 20.0026 7.16365 19.6834 6.85475C19.37 6.55148 19.0199 6.38289 18.5997 6.29452C18.2812 6.22754 18.0114 5.95028 18.0114 5.58655V1.62456H16.4342V4.84979C16.4342 5.23963 16.1182 5.55566 15.7284 5.55566H12.5643C12.1745 5.55566 11.8585 5.23963 11.8585 4.84979V1.62456H10.2813Z" fill="#1B1B1B"/>
<path d="M3.48462 6.44713C2.44895 6.33281 1.57343 6.59139 0.892534 6.92305C0.85668 6.94051 0.845158 6.97737 0.856305 7.00698C1.6353 9.07654 3.99148 10.3321 6.54031 10.7432C6.73314 10.7743 6.86425 10.9559 6.83315 11.1487C6.80205 11.3415 6.62051 11.4726 6.42768 11.4415C3.78398 11.0151 1.10694 9.68071 0.194324 7.25616C0.0516594 6.87714 0.22612 6.46088 0.582796 6.28715C1.349 5.91394 2.35979 5.61135 3.56222 5.74408C4.7664 5.877 6.12744 6.44263 7.599 7.746C7.74522 7.8755 7.75877 8.09902 7.62926 8.24524C7.49976 8.39145 7.27624 8.405 7.13003 8.2755C5.74737 7.05088 4.51853 6.56125 3.48462 6.44713Z" fill="#1B1B1B"/>
<path d="M24.8044 6.44713C25.8401 6.33281 26.7156 6.59139 27.3965 6.92305C27.4324 6.94051 27.4439 6.97737 27.4328 7.00698C26.6538 9.07654 24.2976 10.3321 21.7488 10.7432C21.5559 10.7743 21.4248 10.9559 21.4559 11.1487C21.487 11.3415 21.6685 11.4726 21.8614 11.4415C24.5051 11.0151 27.1821 9.68071 28.0947 7.25616C28.2374 6.87714 28.0629 6.46088 27.7063 6.28715C26.9401 5.91394 25.9293 5.61135 24.7268 5.74408C23.5227 5.877 22.1616 6.44263 20.6901 7.746C20.5438 7.8755 20.5303 8.09902 20.6598 8.24524C20.7893 8.39145 21.0128 8.405 21.159 8.2755C22.5417 7.05088 23.7705 6.56125 24.8044 6.44713Z" fill="#1B1B1B"/>
<path d="M16.9793 19.4604H11.4857C9.94068 19.4604 8.68817 20.7129 8.68817 22.258C8.68817 24.6001 10.5868 26.4987 12.9289 26.4987H15.5361C17.8782 26.4987 19.7768 24.6001 19.7768 22.258C19.7768 20.7129 18.5243 19.4604 16.9793 19.4604ZM11.4857 18.7531H16.9793C18.915 18.7531 20.4842 20.3223 20.4842 22.258C20.4842 24.9907 18.2688 27.206 15.5361 27.206H12.9289C10.1962 27.206 7.98084 24.9907 7.98084 22.258C7.98084 20.3223 9.55003 18.7531 11.4857 18.7531Z" fill="#1B1B1B"/>
<path d="M11.5028 12.0613C11.5028 12.6449 11.0297 13.1179 10.4462 13.1179C9.86262 13.1179 9.38956 12.6449 9.38956 12.0613C9.38956 11.4777 9.86262 11.0047 10.4462 11.0047C11.0297 11.0047 11.5028 11.4777 11.5028 12.0613Z" fill="#1B1B1B"/>
<path d="M18.8991 12.0613C18.8991 12.6449 18.4261 13.118 17.8425 13.118C17.259 13.118 16.7859 12.6449 16.7859 12.0613C16.7859 11.4778 17.259 11.0047 17.8425 11.0047C18.4261 11.0047 18.8991 11.4778 18.8991 12.0613Z" fill="#1B1B1B"/>
<path d="M12.6795 24.0698C12.2906 24.289 11.6838 23.9494 11.3242 23.3114C10.9647 22.6733 10.9885 21.9784 11.3775 21.7592C11.7665 21.5401 12.3732 21.8796 12.7328 22.5177C13.0923 23.1558 13.0685 23.8507 12.6795 24.0698Z" fill="#1B1B1B"/>
<path d="M15.9053 24.0698C16.2942 24.289 16.901 23.9494 17.2605 23.3114C17.6201 22.6733 17.5962 21.9784 17.2073 21.7592C16.8183 21.5401 16.2116 21.8796 15.852 22.5177C15.4925 23.1558 15.5163 23.8507 15.9053 24.0698Z" fill="#1B1B1B"/>
</svg>
