<svg width="33" height="31" viewBox="0 0 33 31" fill="none" xmlns="http://www.w3.org/2000/svg">
<path fill-rule="evenodd" clip-rule="evenodd" d="M11.0633 13.1446C10.9979 12.5875 11.576 12.1736 12.0831 12.4234L19.1304 15.8946L22.6145 13.8236C23.0789 13.5476 23.6689 13.8724 23.684 14.4124L23.8631 20.8223C23.871 21.1051 23.7098 21.3655 23.4531 21.4844L18.8127 23.6347C18.7162 23.6794 18.6064 23.6863 18.5051 23.654L11.4501 21.4053C10.9788 21.255 10.8516 20.733 10.9953 20.378C11.1226 20.0637 11.2151 19.5992 11.2712 19.0187C11.3266 18.4447 11.3441 17.7846 11.3349 17.0945C11.3166 15.7144 11.1919 14.24 11.0633 13.1446ZM18.7044 16.6318L11.9359 13.2979C12.0561 14.3816 12.1669 15.7699 12.1844 17.0832C12.1938 17.7919 12.1762 18.4852 12.1168 19.1003C12.0611 19.6769 11.9665 20.2101 11.8096 20.6282L18.2507 22.6813L18.7044 16.6318ZM19.1118 22.5598L23.0113 20.7528L22.8415 14.677L19.5565 16.6297L19.1118 22.5598Z" fill="black"/>
<path fill-rule="evenodd" clip-rule="evenodd" d="M22.9554 13.1119C20.4642 10.7396 18.8398 10.1175 17.5852 10.1193C16.7299 10.1206 15.7395 10.4414 14.7367 10.9882C13.739 11.5323 12.7593 12.2837 11.9328 13.1055C11.7664 13.2709 11.4975 13.2701 11.332 13.1038C11.1666 12.9374 11.1674 12.6684 11.3338 12.503C12.2108 11.6311 13.2541 10.829 14.3299 10.2424C15.4006 9.6585 16.5341 9.27132 17.584 9.26978C19.1613 9.26747 20.9882 10.0654 23.5413 12.4966C23.7111 12.6584 23.7177 12.9273 23.5559 13.0972C23.3942 13.2671 23.1253 13.2737 22.9554 13.1119Z" fill="black"/>
<path fill-rule="evenodd" clip-rule="evenodd" d="M24.1044 9.32546C23.4659 9.28399 22.7216 9.40468 22.1314 9.99485C21.9655 10.1607 21.6965 10.1607 21.5307 9.99482C21.3648 9.82893 21.3648 9.55997 21.5307 9.3941C22.3564 8.56847 23.382 8.42719 24.1594 8.47769C24.5497 8.50304 24.889 8.57688 25.1306 8.64403C25.2519 8.67775 25.35 8.71016 25.4191 8.73472C25.4536 8.74701 25.4811 8.75737 25.5007 8.76499L25.5163 8.7712L25.5382 8.77843C25.5613 8.78618 25.5946 8.79752 25.6371 8.81245C25.722 8.84228 25.8436 8.88646 25.9933 8.94483C26.2924 9.06144 26.7055 9.23542 27.164 9.46576C28.0705 9.92125 29.1979 10.6185 29.9506 11.5612C30.0217 11.6503 30.0541 11.7643 30.0403 11.8775L29.3392 17.6464C29.328 17.739 29.2981 17.8315 29.2483 17.9163C28.622 18.9818 27.7033 19.4348 26.8842 19.8388C26.6763 19.9414 26.4747 20.0408 26.286 20.1462C26.1315 20.2326 25.9396 20.214 25.8045 20.0997C25.8054 20.1005 25.8059 20.1009 25.8059 20.1009C25.8058 20.1011 25.787 20.0884 25.7194 20.0631C25.6828 20.0494 25.6413 20.0353 25.5879 20.0171L25.5872 20.0168C25.5358 19.9993 25.476 19.979 25.4115 19.9554C25.1445 19.8578 24.8025 19.7072 24.4058 19.4056C24.2191 19.2636 24.1828 18.9971 24.3247 18.8104C24.4667 18.6236 24.7332 18.5873 24.92 18.7293C25.2312 18.9659 25.4919 19.0802 25.7032 19.1575C25.7388 19.1705 25.7731 19.1825 25.8071 19.1942C25.8092 19.1822 25.8113 19.17 25.8135 19.1575C25.8501 18.9403 25.8781 18.6714 25.8986 18.3653C25.9394 17.7536 25.9478 17.0211 25.9405 16.3112C25.9331 15.6027 25.9101 14.9237 25.8889 14.4212C25.8806 14.2266 25.8727 14.0587 25.866 13.9261C25.7603 13.9056 25.637 13.8814 25.5083 13.8557C25.155 13.7851 24.7307 13.6968 24.5431 13.6416C24.318 13.5755 24.1892 13.3394 24.2553 13.1143C24.3215 12.8892 24.5576 12.7604 24.7827 12.8266C24.9256 12.8686 25.3061 12.9489 25.6749 13.0227C25.8541 13.0585 26.0232 13.0913 26.1475 13.1152L26.1554 13.1167C26.1918 13.0875 26.234 13.0543 26.2815 13.0176C26.4622 12.8784 26.7215 12.6895 27.0396 12.4878C27.5177 12.1846 28.1406 11.8449 28.8369 11.6059C28.2317 11.0336 27.4678 10.5692 26.7825 10.2249C26.3529 10.009 25.9648 9.84557 25.6847 9.73634C25.5448 9.6818 25.4323 9.64095 25.3555 9.61398C25.3172 9.60051 25.2878 9.59051 25.2684 9.58402L25.247 9.57692L25.2422 9.57535L25.2414 9.5751L25.2413 9.57506C25.2412 9.57506 25.2412 9.57505 25.2412 9.57504M25.2073 9.56257C25.2071 9.56249 25.2069 9.56241 25.2067 9.56233L25.2069 9.5624L25.2053 9.56176L25.1926 9.55674C25.1804 9.55198 25.1608 9.54456 25.1346 9.53523C25.082 9.51654 25.003 9.49034 24.9031 9.46257C24.7023 9.40675 24.4221 9.34611 24.1044 9.32546M25.2073 9.56257L25.2072 9.56254C25.2074 9.5626 25.2074 9.56262 25.2073 9.56258M29.1202 12.4068C28.5074 12.6163 27.9432 12.9208 27.4946 13.2052C27.2022 13.3906 26.9642 13.5641 26.8001 13.6906C26.7663 13.7167 26.7356 13.7407 26.7083 13.7624L26.709 13.7758C26.7166 13.9218 26.7269 14.1312 26.7377 14.3853C26.7591 14.8934 26.7825 15.582 26.79 16.3024C26.7974 17.0212 26.7891 17.7786 26.7462 18.4218C26.7332 18.6167 26.7169 18.8037 26.6964 18.9777C27.4299 18.6112 28.0337 18.2896 28.4996 17.5132L29.1202 12.4068Z" fill="black"/>
<path fill-rule="evenodd" clip-rule="evenodd" d="M9.68431 7.38888C8.53072 7.94614 7.37959 8.68379 6.5757 9.26113C6.4916 9.32153 6.44456 9.43671 6.47547 9.56339C6.70653 10.5104 6.94622 11.8189 7.05159 13.1277C7.15593 14.4237 7.13361 15.7743 6.80369 16.775C6.75635 16.9186 6.75652 17.087 6.80203 17.2252C6.84658 17.3604 6.92047 17.4324 6.99794 17.4617C8.12133 17.8866 9.55253 18.3412 10.5596 18.4773C10.7921 18.5087 10.9551 18.7226 10.9236 18.9551C10.8922 19.1876 10.6783 19.3506 10.4458 19.3192C9.33887 19.1696 7.83331 18.686 6.69739 18.2563C6.32458 18.1153 6.09941 17.8075 5.99514 17.491C5.89184 17.1775 5.89346 16.8226 5.99685 16.509C6.27152 15.6759 6.30703 14.4661 6.20477 13.1959C6.10354 11.9385 5.8722 10.675 5.65012 9.76476C5.54355 9.32797 5.69313 8.84902 6.08012 8.57109C6.91059 7.97466 8.10454 7.20853 9.31478 6.6239C9.91994 6.33157 10.5384 6.08013 11.1237 5.91933C11.7036 5.76002 12.2821 5.68084 12.7946 5.76292C14.7441 6.0752 16.7032 7.24473 17.4451 7.79024C17.6341 7.92921 17.6747 8.19509 17.5357 8.3841C17.3968 8.57311 17.1309 8.61367 16.9419 8.47471C16.2524 7.96777 14.421 6.88383 12.6602 6.60179C12.318 6.54697 11.8736 6.59434 11.3487 6.73854C10.8293 6.88125 10.2611 7.11027 9.68431 7.38888Z" fill="black"/>
<path fill-rule="evenodd" clip-rule="evenodd" d="M6.74764 9.64401L6.63259 9.23511C6.40676 9.29865 6.2752 9.53323 6.33874 9.75906C6.40225 9.98479 6.63664 10.1163 6.86237 10.053L6.86157 10.0532C6.86148 10.0533 6.86152 10.0532 6.86171 10.0532L6.8621 10.0531L6.86237 10.053L6.86377 10.0526L6.878 10.049C6.89179 10.0455 6.91411 10.0401 6.9445 10.0335C7.00531 10.0201 7.09835 10.0017 7.22006 9.98348C7.46362 9.94692 7.82108 9.91103 8.26434 9.91698C9.15028 9.92888 10.3774 10.1078 11.7264 10.7823C11.9362 10.8872 12.1914 10.8021 12.2963 10.5923C12.4012 10.3825 12.3161 10.1273 12.1063 10.0224C10.6234 9.28103 9.26618 9.08081 8.27575 9.0675C7.78081 9.06085 7.37707 9.10084 7.09398 9.14333C6.95236 9.16458 6.84071 9.18649 6.76266 9.20359C6.72363 9.21215 6.69298 9.2195 6.67115 9.22498L6.64509 9.23171L6.63712 9.23386L6.63443 9.2346L6.6334 9.23489L6.63297 9.23501C6.63277 9.23506 6.63259 9.23511 6.74764 9.64401Z" fill="black"/>
<path fill-rule="evenodd" clip-rule="evenodd" d="M6.74765 13.2613L6.602 12.8623C6.38162 12.9427 6.26818 13.1866 6.34862 13.407C6.42604 13.6191 6.65485 13.7321 6.8684 13.6686C6.87481 13.6674 6.89051 13.6649 6.917 13.6627C6.98143 13.6576 7.10726 13.655 7.31444 13.6785C7.73029 13.7257 8.45807 13.8764 9.64842 14.3054C9.86913 14.3849 10.1125 14.2705 10.1921 14.0498C10.2716 13.8291 10.1572 13.5857 9.93647 13.5062C8.70634 13.0628 7.91172 12.8913 7.41029 12.8343C7.15882 12.8058 6.9773 12.8056 6.84903 12.8159C6.78473 12.8211 6.7333 12.8289 6.69282 12.8373C6.67257 12.8415 6.65502 12.8459 6.63996 12.8501L6.6192 12.8564L6.61016 12.8594L6.60597 12.8609L6.60396 12.8616L6.60297 12.8619C6.60248 12.8621 6.602 12.8623 6.74765 13.2613Z" fill="black"/>
<path fill-rule="evenodd" clip-rule="evenodd" d="M11.5806 15.8114C11.7213 15.6237 11.9876 15.5857 12.1753 15.7265C13.9815 17.0811 16.0867 17.9819 18.3138 18.3531L18.9336 18.4564L21.6419 17.1023C21.8518 16.9974 22.1069 17.0824 22.2118 17.2922C22.3168 17.5021 22.2317 17.7572 22.0219 17.8621L19.2327 19.2567C19.1247 19.3108 19.0023 19.3292 18.8831 19.3093L18.1741 19.1911C15.8128 18.7976 13.5806 17.8424 11.6655 16.4061C11.4779 16.2653 11.4398 15.9991 11.5806 15.8114Z" fill="black"/>
<path fill-rule="evenodd" clip-rule="evenodd" d="M5.23577 16.5901C5.32041 16.8089 5.21166 17.0549 4.99287 17.1395C3.91151 17.5579 3.07649 18.024 2.51931 18.5095C1.96073 18.9962 1.72456 19.4619 1.72456 19.8892C1.72456 20.3788 2.03684 20.9204 2.77912 21.4788C3.51416 22.0317 4.60471 22.5478 5.99045 22.9887C8.75703 23.8689 12.6054 24.4202 16.875 24.4202C21.1446 24.4202 24.993 23.8689 27.7596 22.9887C29.1453 22.5478 30.2358 22.0317 30.9709 21.4788C31.7132 20.9204 32.0254 20.3788 32.0254 19.8892C32.0254 19.0849 31.5154 18.2498 30.1244 17.4983C29.918 17.3868 29.8411 17.129 29.9526 16.9226C30.0641 16.7162 30.3219 16.6393 30.5282 16.7508C32.0606 17.5788 32.875 18.6461 32.875 19.8892C32.875 20.7681 32.3156 21.5303 31.4816 22.1577C30.6403 22.7905 29.45 23.3423 28.0171 23.7982C25.1466 24.7116 21.2073 25.2697 16.875 25.2697C12.5427 25.2697 8.60341 24.7116 5.73286 23.7982C4.30004 23.3423 3.10966 22.7905 2.2684 22.1577C1.43437 21.5303 0.875 20.7681 0.875 19.8892C0.875 19.1221 1.30282 18.4427 1.9612 17.869C2.62098 17.2941 3.55587 16.7846 4.68634 16.3472C4.90513 16.2626 5.15112 16.3713 5.23577 16.5901Z" fill="black"/>
</svg>
