<svg width="31" height="31" viewBox="0 0 31 31" fill="none" xmlns="http://www.w3.org/2000/svg">
<path d="M10.5582 22.2441C10.3824 22.0886 10.1138 22.105 9.95827 22.2808C9.80276 22.4567 9.81922 22.7253 9.99504 22.8808L10.5582 22.2441ZM21.5324 24.1132L21.9134 24.3016L22.2168 23.6882H21.5324V24.1132ZM20.1307 23.6882C19.896 23.6882 19.7057 23.8785 19.7057 24.1132C19.7057 24.3479 19.896 24.5382 20.1307 24.5382V23.6882ZM21.7695 21.0905C21.5348 21.0905 21.3445 21.2808 21.3445 21.5155C21.3445 21.7503 21.5348 21.9405 21.7695 21.9405V21.0905ZM22.8704 18.5377C22.6356 18.5377 22.4454 18.728 22.4454 18.9627C22.4454 19.1974 22.6356 19.3877 22.8704 19.3877V18.5377ZM23.2176 16.2252C23.0311 16.3677 22.9954 16.6344 23.1379 16.8209C23.2805 17.0074 23.5472 17.0431 23.7337 16.9005L23.2176 16.2252ZM25.8383 10.4128C25.6036 10.4128 25.4133 10.6031 25.4133 10.8378C25.4133 11.0725 25.6036 11.2628 25.8383 11.2628V10.4128ZM25.8383 12.5381C25.6036 12.5381 25.4133 12.7284 25.4133 12.9631C25.4133 13.1979 25.6036 13.3881 25.8383 13.3881V12.5381ZM10.1422 17.566C10.3649 17.6402 10.6056 17.5199 10.6798 17.2972C10.754 17.0745 10.6337 16.8339 10.411 16.7596L10.1422 17.566ZM12.5771 18.05C12.3586 17.9642 12.1119 18.0716 12.026 18.2901C11.9402 18.5085 12.0476 18.7552 12.2661 18.8411L12.5771 18.05ZM20.5166 20.5856C20.7502 20.5632 20.9214 20.3555 20.8989 20.1219C20.8764 19.8882 20.6688 19.7171 20.4351 19.7396L20.5166 20.5856ZM17.4055 13.9822C17.6369 14.0212 17.8562 13.8651 17.8952 13.6337C17.9342 13.4022 17.7781 13.183 17.5467 13.144L17.4055 13.9822ZM27.9567 12.5381C27.722 12.5381 27.5317 12.7284 27.5317 12.9631C27.5317 13.1979 27.722 13.3881 27.9567 13.3881V12.5381ZM23.5021 16.5426L23.244 16.205L23.5021 16.5426ZM23.6771 22.8144C23.6771 23.0491 23.8674 23.2394 24.1021 23.2394C24.3368 23.2394 24.5271 23.0491 24.5271 22.8144H23.6771ZM17.2407 24.4411L17.2286 24.8659L17.2286 24.8659L17.2407 24.4411ZM26.6816 17.5458C26.6764 17.7805 26.8624 17.9749 27.0971 17.9801C27.3318 17.9853 27.5262 17.7993 27.5314 17.5646L26.6816 17.5458ZM27.1065 17.5552L26.6816 17.5458L27.1065 17.5552ZM3.7044 19.5142L3.33893 19.2972L3.7044 19.5142ZM6.21584 14.4502L3.33893 19.2972L4.06987 19.7311L6.94678 14.8841L6.21584 14.4502ZM3.74481 21.6977C5.43631 23.0683 7.94936 24.7814 10.6478 25.9816C13.3314 27.1751 16.278 27.8971 18.7939 27.1704L18.5581 26.3538C16.336 26.9956 13.6216 26.374 10.9932 25.205C8.37979 24.0426 5.93001 22.3743 4.27991 21.0373L3.74481 21.6977ZM19.0832 26.6405L18.6062 25.0437L17.7918 25.287L18.2688 26.8838L19.0832 26.6405ZM17.2529 24.0163C15.8222 23.9755 14.4581 23.8131 13.2907 23.5159C12.1169 23.217 11.1757 22.7903 10.5582 22.2441L9.99504 22.8808C10.7555 23.5534 11.8435 24.0246 13.081 24.3396C14.3247 24.6563 15.7537 24.8239 17.2286 24.8659L17.2529 24.0163ZM18.7602 27.1787C19.249 27.0799 19.8416 26.7456 20.3943 26.2665C20.9559 25.7797 21.5121 25.1128 21.9134 24.3016L21.1515 23.9248C20.8052 24.6249 20.3225 25.2038 19.8375 25.6242C19.3435 26.0524 18.8817 26.2869 18.5918 26.3455L18.7602 27.1787ZM21.5324 23.6882H20.1307V24.5382H21.5324V23.6882ZM20.1307 24.5382H22.8033V23.6882H20.1307V24.5382ZM22.8033 21.0905H21.7695V21.9405H22.8033V21.0905ZM22.8704 19.3877H25.6675V18.5377H22.8704V19.3877ZM25.6675 15.6591H24.8573V16.5091H25.6675V15.6591ZM23.244 16.205L23.2176 16.2252L23.7337 16.9005L23.7602 16.8803L23.244 16.205ZM25.8383 11.2628H27.8125V10.4128H25.8383V11.2628ZM28.4502 11.9005V12.0446H29.3002V11.9005H28.4502ZM6.28077 14.9677C7.26013 15.9472 8.21634 16.5935 8.93115 16.9962C9.28866 17.1976 9.58627 17.3383 9.79693 17.4295C9.90228 17.4751 9.98596 17.5083 10.0446 17.5306C10.0739 17.5418 10.097 17.5502 10.1134 17.556C10.1216 17.5589 10.1282 17.5612 10.133 17.5629C10.1354 17.5637 10.1374 17.5644 10.1389 17.5649C10.1397 17.5652 10.1403 17.5654 10.1409 17.5656C10.1412 17.5657 10.1414 17.5658 10.1416 17.5658C10.1417 17.5659 10.1419 17.5659 10.1419 17.5659C10.1421 17.566 10.1422 17.566 10.2766 17.1628C10.411 16.7596 10.4111 16.7597 10.4112 16.7597C10.4113 16.7597 10.4114 16.7598 10.4114 16.7598C10.4115 16.7598 10.4116 16.7598 10.4117 16.7599C10.4118 16.7599 10.4118 16.7599 10.4117 16.7599C10.4115 16.7598 10.4109 16.7596 10.4098 16.7592C10.4077 16.7585 10.4039 16.7572 10.3985 16.7552C10.3876 16.7514 10.3701 16.745 10.3465 16.7361C10.2993 16.7181 10.2276 16.6897 10.1346 16.6494C9.94855 16.5689 9.67773 16.4412 9.34834 16.2556C8.68937 15.8844 7.79793 15.2829 6.88185 14.3667L6.28077 14.9677ZM12.2661 18.8411C13.6198 19.3733 16.4648 20.9757 20.5166 20.5856L20.4351 19.7396C16.6375 20.1052 14.0267 18.6199 12.5771 18.05L12.2661 18.8411ZM17.5467 13.144C15.9601 12.8767 12.5613 11.9595 10.1541 10.2966L9.67098 10.9959C12.223 12.759 15.7598 13.7049 17.4055 13.9822L17.5467 13.144ZM7.8674 10.8627L6.19536 14.4892L6.96726 14.8451L8.63931 11.2186L7.8674 10.8627ZM27.9567 12.5381H25.8383V13.3881H27.9567V12.5381ZM28.4502 12.0446C28.4502 12.3172 28.2293 12.5381 27.9567 12.5381V13.3881C28.6987 13.3881 29.3002 12.7866 29.3002 12.0446H28.4502ZM27.8125 11.2628C28.1647 11.2628 28.4502 11.5483 28.4502 11.9005H29.3002C29.3002 11.0788 28.6342 10.4128 27.8125 10.4128V11.2628ZM24.8573 15.6591C24.2742 15.6591 23.7073 15.8509 23.244 16.205L23.7602 16.8803C24.0752 16.6395 24.4608 16.5091 24.8573 16.5091V15.6591ZM22.8033 24.5382C23.7553 24.5382 24.5271 23.7664 24.5271 22.8144H23.6771C23.6771 23.297 23.2859 23.6882 22.8033 23.6882V24.5382ZM24.5271 22.8144C24.5271 21.8623 23.7553 21.0905 22.8033 21.0905V21.9405C23.2859 21.9405 23.6771 22.3318 23.6771 22.8144H24.5271ZM18.6062 25.0437C18.4251 24.4376 17.8707 24.0339 17.2529 24.0163L17.2286 24.8659C17.4945 24.8735 17.7198 25.0461 17.7918 25.287L18.6062 25.0437ZM25.6675 19.3877C26.6811 19.3877 27.509 18.5779 27.5314 17.5646L26.6816 17.5458C26.6694 18.0971 26.219 18.5377 25.6675 18.5377V19.3877ZM10.1541 10.2966C9.40993 9.78247 8.27957 9.9688 7.8674 10.8627L8.63931 11.2186C8.79768 10.8752 9.29406 10.7355 9.67098 10.9959L10.1541 10.2966ZM27.5314 17.5646C27.5545 16.5191 26.7133 15.6591 25.6675 15.6591V16.5091C26.2365 16.5091 26.6942 16.977 26.6816 17.5458L27.5314 17.5646ZM3.33893 19.2972C2.87322 20.0818 3.01557 21.1069 3.74481 21.6977L4.27991 21.0373C3.8986 20.7284 3.80603 20.1756 4.06987 19.7311L3.33893 19.2972Z" fill="black"/>
<path d="M23.4717 21.3623C24.0716 20.7624 24.6716 20.1624 24.6716 18.9625M25.8715 15.9627C26.2611 15.647 27.0714 14.7628 27.0714 12.963M27.0714 10.5631V9.92217C27.0714 9.36337 26.6135 8.91299 26.0547 8.92231L25.1778 8.93694M25.1778 8.93694C23.4717 10.5947 23.4717 12.363 24.0327 14.3839M25.1778 8.93694C22.6275 8.72744 17.1812 7.66543 14.2755 5.06235C13.7468 4.5887 12.8644 4.61894 12.4841 5.21832L9.07275 10.5947M24.0327 14.3839C23.0977 14.6997 20.9004 15.1417 19.5914 14.3839M24.0327 14.3839C21.0407 15.1417 20.6044 18.6467 20.7602 20.3045C19.8252 20.3045 18.8123 21.4097 18.4227 21.9623" stroke="black" stroke-width="0.85" stroke-linecap="round"/>
<path d="M12.0738 5.07123L11.2683 4.6533C10.5644 4.28813 9.70009 4.62647 9.43121 5.37239V5.37239C9.22256 5.95122 9.44455 6.59728 9.96491 6.92563L10.8878 7.50797M5.47424 15.9627L4.21451 15.2498C3.58158 14.8916 2.77786 15.1246 2.4346 15.7657V15.7657C2.11766 16.3577 2.3057 17.0938 2.86776 17.4612L4.24643 18.3626M18.9523 11.4954C19.5058 11.7169 20.9447 12.1599 22.273 12.1599M8.47402 10.5631L7.5295 10.1547C6.66445 9.78061 5.69923 10.4148 5.69923 11.3573C5.69923 11.8498 5.97548 12.3008 6.41428 12.5245L7.27411 12.963" stroke="black" stroke-width="0.85" stroke-linecap="round"/>
<path d="M11.4761 14.995C11.8147 15.4212 13.2118 16.4139 16.0908 16.9753" stroke="black" stroke-width="0.85" stroke-linecap="round"/>
</svg>
