<svg width="28" height="27" viewBox="0 0 28 27" fill="none" xmlns="http://www.w3.org/2000/svg">
<path d="M7.42842 6.32141C7.84985 5.78428 8.33065 5.46676 8.83181 5.46676C9.02242 5.46676 9.17694 5.62128 9.17694 5.81189C9.17694 6.0025 9.02242 6.15701 8.83181 6.15701C8.6365 6.15701 8.3337 6.28582 7.97148 6.74749C7.61451 7.20246 7.23842 7.93549 6.8971 9.01819C6.21521 11.1813 5.69389 14.6694 5.69389 19.9203C5.69389 21.3398 5.94836 22.3764 6.37391 23.1374C6.79649 23.8931 7.40122 24.4013 8.14901 24.7449C9.64789 25.4336 11.6928 25.4536 13.9302 25.4124C13.9456 25.4106 13.9613 25.4099 13.9772 25.4102C13.9894 25.4104 14.0016 25.4106 14.0138 25.4109C14.0261 25.4106 14.0383 25.4104 14.0505 25.4102C14.0664 25.4099 14.0821 25.4106 14.0975 25.4124C16.3349 25.4536 18.3798 25.4336 19.8787 24.7449C20.6265 24.4013 21.2312 23.8931 21.6538 23.1374C22.0793 22.3764 22.3338 21.3398 22.3338 19.9203C22.3338 14.6683 21.8341 11.1848 21.1733 9.02634C20.8425 7.94588 20.4769 7.21595 20.128 6.76362C19.7744 6.30534 19.4774 6.17879 19.283 6.17879C19.0924 6.17879 18.9378 6.02427 18.9378 5.83366C18.9378 5.64305 19.0924 5.48853 19.283 5.48853C19.785 5.48853 20.2607 5.80559 20.6745 6.34202C21.0929 6.88441 21.4892 7.70031 21.8333 8.82428C22.5223 11.0747 23.0241 14.6345 23.0241 19.9203C23.0241 21.4182 22.756 22.5806 22.2562 23.4743C21.7535 24.3733 21.0302 24.9755 20.1669 25.3721C18.483 26.1458 16.2412 26.1435 14.0138 26.1012C11.7865 26.1435 9.54467 26.1458 7.86081 25.3721C6.99751 24.9755 6.27418 24.3733 5.77145 23.4743C5.2717 22.5806 5.00363 21.4182 5.00363 19.9203C5.00363 14.6334 5.52738 11.0673 6.23878 8.81066C6.59412 7.68348 7.00173 6.86524 7.42842 6.32141Z" fill="#1B1B1B"/>
<path d="M14.8613 1.16813C14.5432 1.37524 14.4263 1.58948 14.4263 1.73365C14.4263 1.92426 14.2718 2.07878 14.0811 2.07878C13.8905 2.07878 13.736 1.92426 13.736 1.73365C13.736 1.58949 13.6191 1.37526 13.301 1.16815C12.9976 0.970614 12.5807 0.830418 12.1591 0.809056C11.7381 0.787722 11.3453 0.885611 11.0555 1.12177C10.7732 1.35184 10.5426 1.75056 10.5109 2.42884C10.4981 2.70267 10.2826 2.91242 10.0286 2.9424C9.40537 3.01598 8.90442 3.6372 8.83639 4.39103C8.80354 4.75506 8.87839 5.12081 9.07617 5.42669C9.27153 5.72881 9.60109 5.9949 10.12 6.14128C10.3438 6.2044 10.4823 6.39627 10.5139 6.5905C10.5418 6.76193 10.659 6.96347 10.8763 7.15293C11.0905 7.33962 11.3802 7.49438 11.7026 7.57757C12.3423 7.74258 13.0683 7.62044 13.589 6.9676C13.837 6.65659 14.3253 6.6566 14.5733 6.9676C15.094 7.62044 15.82 7.74258 16.4597 7.57757C16.7822 7.49438 17.0718 7.33962 17.286 7.15293C17.5033 6.96347 17.6206 6.76193 17.6484 6.5905C17.68 6.39627 17.8185 6.2044 18.0423 6.14128C18.5612 5.9949 18.8908 5.72881 19.0862 5.42669C19.2839 5.12081 19.3588 4.75506 19.3259 4.39103C19.2579 3.6372 18.757 3.01598 18.1337 2.9424C17.8797 2.91242 17.6642 2.70267 17.6514 2.42884C17.6197 1.75056 17.3892 1.35184 17.1068 1.12176C16.817 0.885599 16.4242 0.787706 16.0032 0.809037C15.5816 0.830396 15.1647 0.970591 14.8613 1.16813ZM18.3333 2.27483C19.3121 2.45573 19.9295 3.39926 20.0134 4.329C20.0582 4.82527 19.9582 5.34923 19.6658 5.8015C19.3836 6.23796 18.9353 6.5869 18.3142 6.78052C18.2352 7.12651 18.0148 7.43333 17.7396 7.67324C17.4403 7.93408 17.0531 8.13735 16.6321 8.24595C15.8031 8.45979 14.8018 8.31202 14.0811 7.45593C13.3605 8.31202 12.3592 8.45979 11.5302 8.24595C11.1092 8.13735 10.722 7.93408 10.4228 7.67324C10.1476 7.43333 9.92718 7.12651 9.8481 6.78052C9.22699 6.5869 8.77876 6.23796 8.49654 5.8015C8.20409 5.34923 8.10414 4.82527 8.14893 4.329C8.23283 3.39926 8.8502 2.45573 9.82905 2.27483C9.88984 1.50654 10.1775 0.946829 10.6194 0.58668C11.0769 0.21386 11.654 0.0923135 12.1941 0.119681C12.7336 0.14702 13.269 0.323661 13.6776 0.589691C13.8227 0.684147 13.9624 0.79754 14.0811 0.927662C14.1998 0.797531 14.3396 0.68413 14.4847 0.589669C14.8933 0.323636 15.4287 0.146998 15.9682 0.119662C16.5083 0.0922979 17.0854 0.21385 17.5429 0.586673C17.9848 0.946825 18.2725 1.50654 18.3333 2.27483Z" fill="#1B1B1B"/>
<path d="M7.05145 8.2062C7.13595 8.37706 7.06594 8.58407 6.89508 8.66856L1.43131 11.3708C1.65551 11.8712 2.0623 12.4592 2.68617 12.8398C3.34193 13.2399 4.27739 13.4359 5.58715 12.9961C5.76784 12.9354 5.96351 13.0327 6.02419 13.2134C6.08487 13.3941 5.98758 13.5898 5.80689 13.6504C4.32408 14.1484 3.1738 13.9459 2.32665 13.429C1.4942 12.9211 0.993882 12.1342 0.744537 11.5198C0.628052 11.2329 0.768939 10.9283 1.02175 10.8033L6.58908 8.04984C6.75994 7.96534 6.96695 8.03535 7.05145 8.2062Z" fill="#1B1B1B"/>
<path d="M21.2378 8.2062C21.1533 8.37706 21.2233 8.58407 21.3942 8.66856L26.858 11.3708C26.6338 11.8712 26.227 12.4592 25.6031 12.8398C24.9473 13.2399 24.0119 13.4359 22.7021 12.9961C22.5214 12.9354 22.3258 13.0327 22.2651 13.2134C22.2044 13.3941 22.3017 13.5898 22.4824 13.6504C23.9652 14.1484 25.1155 13.9459 25.9626 13.429C26.7951 12.9211 27.2954 12.1342 27.5447 11.5198C27.6612 11.2329 27.5203 10.9283 27.2675 10.8033L21.7002 8.04984C21.5293 7.96534 21.3223 8.03535 21.2378 8.2062Z" fill="#1B1B1B"/>
<path d="M11.3163 22.3058C10.9514 22.3482 10.6598 22.4735 10.4716 22.6648C10.3379 22.8007 10.1194 22.8024 9.98352 22.6688C9.84766 22.5351 9.8459 22.3165 9.97959 22.1807C10.3112 21.8437 10.7695 21.6744 11.2368 21.6202C11.7063 21.5657 12.2122 21.6234 12.6774 21.7681C13.1417 21.9124 13.5852 22.1495 13.9184 22.4719C14.0004 22.5512 14.0765 22.6366 14.1446 22.7276C14.2127 22.6366 14.2887 22.5512 14.3707 22.4719C14.704 22.1495 15.1475 21.9124 15.6117 21.7681C16.0769 21.6234 16.5829 21.5657 17.0524 21.6202C17.5197 21.6744 17.978 21.8437 18.3096 22.1807C18.4433 22.3165 18.4415 22.5351 18.3057 22.6688C18.1698 22.8024 17.9513 22.8007 17.8176 22.6648C17.6293 22.4735 17.3378 22.3482 16.9728 22.3058C16.6101 22.2638 16.2012 22.3076 15.8166 22.4272C15.4311 22.547 15.0898 22.7367 14.8507 22.968C14.6138 23.1972 14.4897 23.453 14.4897 23.7233V25.6028C14.4897 25.7935 14.3352 25.948 14.1446 25.948C13.954 25.948 13.7995 25.7935 13.7995 25.6028V23.7233C13.7995 23.453 13.6754 23.1972 13.4385 22.968C13.1994 22.7367 12.8581 22.547 12.4725 22.4272C12.0879 22.3076 11.6791 22.2638 11.3163 22.3058Z" fill="#1B1B1B"/>
<path d="M10.7481 11.9081C10.7481 12.4853 10.2802 12.9532 9.70306 12.9532C9.12589 12.9532 8.658 12.4853 8.658 11.9081C8.658 11.3309 9.12589 10.8631 9.70306 10.8631C10.2802 10.8631 10.7481 11.3309 10.7481 11.9081Z" fill="#1B1B1B"/>
<path d="M19.2827 11.9081C19.2827 12.4853 18.8148 12.9532 18.2376 12.9532C17.6604 12.9532 17.1925 12.4853 17.1925 11.9081C17.1925 11.3309 17.6604 10.8631 18.2376 10.8631C18.8148 10.8631 19.2827 11.3309 19.2827 11.9081Z" fill="#1B1B1B"/>
</svg>
