<svg width="30" height="29" viewBox="0 0 30 29" fill="none" xmlns="http://www.w3.org/2000/svg">
<path d="M2.11869 0.118459C2.32216 0.0949208 2.50618 0.240779 2.52971 0.444243C2.6325 1.33277 3.06175 2.83498 4.01967 4.35586C4.27777 2.54725 5.21184 1.48483 5.79068 1.12771C5.965 1.02017 6.19349 1.0743 6.30103 1.24861C6.40857 1.42293 6.35445 1.65142 6.18013 1.75896C5.73959 2.03075 4.7025 3.15578 4.69348 5.30908C5.5806 6.43072 6.78325 7.48992 8.38549 8.24513C8.57076 8.33246 8.65016 8.55344 8.56284 8.73871C8.47551 8.92398 8.25453 9.00338 8.06925 8.91606C6.30118 8.08269 4.98633 6.90302 4.02974 5.66429C2.56093 3.76226 1.92973 1.71217 1.79291 0.529481C1.76937 0.326017 1.91523 0.141996 2.11869 0.118459Z" fill="#1B1B1B"/>
<path d="M28.1704 0.118459C27.9669 0.0949208 27.7829 0.240779 27.7594 0.444243C27.6566 1.33277 27.2273 2.83498 26.2694 4.35586C26.0113 2.54725 25.0772 1.48483 24.4984 1.12771C24.3241 1.02017 24.0956 1.0743 23.988 1.24861C23.8805 1.42293 23.9346 1.65142 24.1089 1.75896C24.5495 2.03075 25.5866 3.15578 25.5956 5.30908C24.7085 6.43072 23.5058 7.48992 21.9036 8.24513C21.7183 8.33246 21.6389 8.55344 21.7262 8.73871C21.8136 8.92398 22.0346 9.00338 22.2198 8.91606C23.9879 8.08269 25.3027 6.90302 26.2593 5.66429C27.7282 3.76226 28.3593 1.71217 28.4962 0.529481C28.5197 0.326017 28.3738 0.141996 28.1704 0.118459Z" fill="#1B1B1B"/>
<path d="M8.35052 3.64691C8.53574 3.73435 8.61501 3.95538 8.52757 4.1406C8.19306 4.8492 7.60691 6.11012 7.84186 8.06544C7.8663 8.2688 7.72125 8.45346 7.5179 8.4779C7.31454 8.50233 7.12988 8.35729 7.10544 8.15393C6.84541 5.98998 7.5026 4.57435 7.85683 3.82396C7.94427 3.63875 8.1653 3.55948 8.35052 3.64691Z" fill="#1B1B1B"/>
<path d="M21.9386 3.64691C21.7533 3.73435 21.6741 3.95538 21.7615 4.1406C22.096 4.8492 22.6822 6.11012 22.4472 8.06544C22.4228 8.2688 22.5678 8.45346 22.7712 8.4779C22.9745 8.50233 23.1592 8.35729 23.1836 8.15393C23.4437 5.98998 22.7865 4.57435 22.4322 3.82396C22.3448 3.63875 22.1238 3.55948 21.9386 3.64691Z" fill="#1B1B1B"/>
<path d="M8.12687 9.85786C7.84036 10.1667 7.41368 10.5789 6.89581 10.9373C6.24822 11.3854 5.52058 11.7062 4.78419 11.7062C4.04781 11.7062 3.32017 11.3854 2.67258 10.9373C2.15471 10.5789 1.72803 10.1667 1.44152 9.85786C1.72803 9.54905 2.15471 9.13683 2.67258 8.77846C3.32017 8.33032 4.04781 8.00949 4.78419 8.00949C5.52058 8.00949 6.24822 8.33032 6.89581 8.77846C7.41368 9.13683 7.84036 9.54905 8.12687 9.85786ZM8.86819 10.142C9.01143 9.9765 9.01143 9.73922 8.86819 9.57372C8.28609 8.90117 6.67748 7.26777 4.78419 7.26777C2.89091 7.26777 1.2823 8.90117 0.700202 9.57372C0.556964 9.73922 0.556964 9.9765 0.700202 10.142C1.2823 10.8145 2.89091 12.4479 4.78419 12.4479C6.67748 12.4479 8.28609 10.8145 8.86819 10.142Z" fill="#1B1B1B"/>
<path d="M22.1622 9.85786C22.4487 10.1667 22.8754 10.5789 23.3933 10.9373C24.0409 11.3854 24.7685 11.7062 25.5049 11.7062C26.2413 11.7062 26.9689 11.3854 27.6165 10.9373C28.1344 10.5789 28.561 10.1667 28.8476 9.85786C28.561 9.54905 28.1344 9.13683 27.6165 8.77846C26.9689 8.33032 26.2413 8.00949 25.5049 8.00949C24.7685 8.00949 24.0409 8.33032 23.3933 8.77846C22.8754 9.13683 22.4487 9.54905 22.1622 9.85786ZM21.4209 10.142C21.2777 9.9765 21.2777 9.73922 21.4209 9.57372C22.003 8.90117 23.6116 7.26777 25.5049 7.26777C27.3982 7.26777 29.0068 8.90117 29.5889 9.57372C29.7321 9.73922 29.7321 9.9765 29.5889 10.142C29.0068 10.8145 27.3982 12.4479 25.5049 12.4479C23.6116 12.4479 22.003 10.8145 21.4209 10.142Z" fill="#1B1B1B"/>
<path d="M17.1014 21.7688C17.1014 22.7145 16.3348 23.4811 15.3891 23.4811C14.4434 23.4811 13.6768 22.7145 13.6768 21.7688C13.6768 20.8231 14.4434 20.0565 15.3891 20.0565C16.3348 20.0565 17.1014 20.8231 17.1014 21.7688Z" fill="#1B1B1B"/>
<path d="M15.1447 23.4811H15.6339V27.395H15.1447V23.4811Z" fill="#1B1B1B"/>
<path d="M12.7687 16.6757C12.7687 17.2718 12.2855 17.7549 11.6895 17.7549C11.0934 17.7549 10.6103 17.2718 10.6103 16.6757C10.6103 16.0797 11.0934 15.5965 11.6895 15.5965C12.2855 15.5965 12.7687 16.0797 12.7687 16.6757Z" fill="#1B1B1B"/>
<path d="M20.1072 16.6758C20.1072 17.2718 19.624 17.755 19.028 17.755C18.4319 17.755 17.9488 17.2718 17.9488 16.6758C17.9488 16.0797 18.4319 15.5966 19.028 15.5966C19.624 15.5966 20.1072 16.0797 20.1072 16.6758Z" fill="#1B1B1B"/>
<path d="M7.83789 8.48182C9.50805 6.99978 11.9149 6.09769 15.1403 6.09769C18.4072 6.09769 20.8503 7.02303 22.5503 8.53569C22.7288 8.69453 22.7447 8.96802 22.5859 9.14654C22.427 9.32505 22.1535 9.341 21.975 9.18215C20.4639 7.83756 18.2397 6.96303 15.1403 6.96303C12.0794 6.96303 9.89203 7.81597 8.41223 9.12908C8.2335 9.28768 7.96003 9.27135 7.80143 9.09262C7.64283 8.91389 7.65915 8.64042 7.83789 8.48182ZM6.10436 11.6284C6.32877 11.7105 6.44413 11.959 6.36202 12.1834C5.26785 15.174 5.80534 18.9542 7.50537 21.9984C9.20431 25.0406 12.0052 27.2506 15.3557 27.2506C18.7075 27.2506 21.4824 25.066 23.1392 22.0547C24.7974 19.0409 25.2807 15.2897 24.1254 12.2985C24.0393 12.0756 24.1502 11.8251 24.3731 11.739C24.596 11.6529 24.8465 11.7638 24.9326 11.9868C26.198 15.2631 25.6522 19.2822 23.8973 22.4719C22.1411 25.664 19.1189 28.116 15.3557 28.116C11.5911 28.116 8.54543 25.6355 6.74986 22.4203C4.95539 19.207 4.35042 15.163 5.54937 11.8861C5.63147 11.6616 5.87995 11.5463 6.10436 11.6284Z" fill="#1B1B1B"/>
</svg>
