<svg width="26" height="25" viewBox="0 0 26 25" fill="none" xmlns="http://www.w3.org/2000/svg">
<path d="M7.4954 0.337159C7.12327 0.548353 6.63536 0.959715 6.41123 1.25127C6.18731 1.54283 5.93668 1.99597 5.85441 2.25847C5.72337 2.67705 5.56243 2.73557 4.5425 2.73557C3.9032 2.73557 3.10995 2.8753 2.77958 3.046C2.44943 3.21669 1.93332 3.64905 1.63244 4.00655C1.33155 4.36384 1.01942 5.00824 0.938846 5.43805C0.844911 5.93868 0.920822 6.70224 1.14983 7.56186C1.3466 8.29998 1.69647 10.5597 1.92717 12.5834C2.2128 15.087 2.28298 16.4312 2.14664 16.7897C2.03638 17.0796 1.65343 17.5251 1.29529 17.7802C0.844487 18.1012 0.644531 18.4191 0.644531 18.8152C0.644531 19.2662 1.23804 19.9791 3.45685 22.1934C5.65848 24.3904 6.39215 25 6.8351 25C7.22462 25 7.54544 24.7973 7.86436 24.3492C8.11944 23.9911 8.56494 23.6082 8.8548 23.4979C9.21337 23.3615 10.5575 23.4317 13.0611 23.7174C15.0848 23.9481 17.3445 24.2979 18.0827 24.4947C18.9423 24.7237 19.7059 24.7996 20.2065 24.7057C20.6363 24.6251 21.2807 24.313 21.638 24.0121C21.9955 23.7112 22.4278 23.1951 22.5985 22.8649C22.7692 22.5346 22.909 21.7443 22.909 21.1084C22.909 20.0329 22.9503 19.9381 23.5031 19.7454C23.8299 19.6315 24.3988 19.2367 24.7673 18.8682C25.142 18.4935 25.4991 17.8688 25.5775 17.4509C25.6547 17.0397 25.6661 16.3186 25.603 15.8478C25.5398 15.3773 25.2896 14.7808 25.0468 14.5224C24.804 14.2639 24.6053 13.9437 24.6053 13.8105C24.6053 13.6774 24.8525 13.2064 25.1547 12.7639C25.621 12.0811 25.6916 11.7811 25.6212 10.7794C25.5669 10.0097 25.3765 9.37249 25.0737 8.94713C24.8184 8.58857 24.2092 8.09706 23.7202 7.85512L22.8309 7.41513L22.8831 6.29236C22.9238 5.40963 22.829 5.01205 22.4399 4.43466C22.1674 4.03051 21.6227 3.48281 21.2292 3.21775C20.7003 2.86131 20.2039 2.73408 19.3259 2.73006C18.1503 2.72475 18.134 2.71585 17.7508 1.88507C17.5379 1.42324 17.0672 0.833974 16.7046 0.575919C16.272 0.267822 15.6395 0.0778318 14.8651 0.0233369C13.8635 -0.0470611 13.5634 0.0235492 12.8806 0.48983C12.4381 0.79199 11.9672 1.03923 11.834 1.03923C11.7008 1.03923 11.3698 0.830582 11.0984 0.575495C10.7396 0.23856 10.2723 0.0899182 9.3883 0.0324548C8.49221 -0.0260689 7.99391 0.0542952 7.4954 0.337159ZM10.6824 1.25127C11.2341 1.60114 11.7963 1.8874 11.9318 1.8874C12.0672 1.8874 12.5278 1.64504 12.9553 1.3486C13.383 1.05238 14.056 0.761668 14.451 0.702508C14.9109 0.633595 15.4364 0.731982 15.9116 0.976043C16.4143 1.23431 16.8248 1.69932 17.1838 2.41751L17.7139 3.47772L19.0084 3.4862C19.8649 3.49171 20.4919 3.61851 20.8608 3.86024C21.1677 4.06126 21.5759 4.46541 21.7677 4.75824C21.9874 5.09369 22.1259 5.77986 22.1418 6.61085L22.1668 7.9306L23.227 8.46071C23.9452 8.8197 24.4102 9.23021 24.6685 9.73296C24.9125 10.2081 25.0109 10.7336 24.942 11.1935C24.8829 11.5885 24.5922 12.2616 24.2959 12.6893C23.9995 13.1167 23.7571 13.6227 23.7571 13.8137C23.7571 14.0046 23.8538 14.2206 23.9721 14.2938C24.0905 14.3669 24.3767 14.798 24.6083 15.252C24.8398 15.706 25.0294 16.2815 25.0294 16.5308C25.0294 16.7802 24.8693 17.3217 24.6736 17.7342C24.4272 18.2532 24.0442 18.6048 23.4293 18.8769C22.9408 19.0931 22.4206 19.415 22.2735 19.5923C22.111 19.7878 22.0525 20.2023 22.1246 20.6464C22.1899 21.0488 22.1518 21.7097 22.0398 22.1152C21.9278 22.5206 21.5455 23.0969 21.1901 23.3961C20.7419 23.7731 20.2943 23.9398 19.7292 23.9398C19.2811 23.9398 18.3581 23.7988 17.6781 23.6266C16.9981 23.4544 15.2012 23.169 13.6851 22.9924C12.169 22.816 10.3652 22.6705 9.67647 22.6694C8.48331 22.6675 8.38513 22.7089 7.58806 23.5467L6.75177 24.4258L3.98526 21.6593L1.21874 18.8928L2.09787 18.0565C2.93565 17.2594 2.977 17.1612 2.97509 15.9681C2.97403 15.2793 2.82729 13.4755 2.64875 11.9594C2.47043 10.4433 2.18502 8.66427 2.01475 8.00609C1.84427 7.3477 1.70474 6.42468 1.70474 5.95479C1.70474 5.34729 1.86165 4.91388 2.24842 4.45438C2.54761 4.099 3.12394 3.71669 3.52937 3.60473C3.93479 3.49277 4.59573 3.4546 4.99818 3.51991C5.4422 3.59201 5.85674 3.53348 6.05224 3.37106C6.22951 3.2239 6.55075 2.70525 6.76619 2.21861C7.027 1.62892 7.39786 1.21501 7.87687 0.979011C8.27254 0.784144 8.83975 0.622568 9.13767 0.620024C9.43559 0.617267 10.1307 0.901404 10.6824 1.25127ZM7.38556 4.9724C7.31835 5.0833 7.07195 5.79746 6.83765 6.55933C6.60355 7.32119 6.29567 8.86804 6.1536 9.99674C6.01153 11.1254 5.96658 12.4104 6.05373 12.8523C6.20428 13.6167 6.22039 13.6299 6.38685 13.1256C6.48311 12.8341 6.81072 10.9435 7.115 8.92423C7.41928 6.90495 7.63196 5.14437 7.58785 5.01184C7.54099 4.87105 7.45681 4.85472 7.38556 4.9724ZM12.3287 6.26628C11.7418 7.06505 10.7765 8.64582 10.1835 9.7794C9.59059 10.9128 8.87919 12.487 8.60269 13.2775C8.32618 14.068 8.14022 14.7548 8.18899 14.8037C8.23797 14.8527 8.30943 14.8529 8.34781 14.8044C8.38619 14.7558 8.80476 14.0003 9.27804 13.1256C9.75111 12.251 10.9169 10.0688 11.8686 8.27623C12.8204 6.48384 13.5532 4.97155 13.4975 4.91557C13.4415 4.85981 12.9156 5.46752 12.3287 6.26628ZM17.3638 7.76881C16.6234 8.3214 15.0611 9.72872 13.8919 10.8964C12.7227 12.0642 11.3052 13.6218 10.7418 14.3578C10.1786 15.0938 9.75598 15.7344 9.80285 15.7813C9.84949 15.8281 11.9341 13.8184 14.4351 11.3154C16.9362 8.81227 18.9213 6.76437 18.8462 6.76437C18.7714 6.76437 18.1043 7.21644 17.3638 7.76881ZM17.9745 12.7887C16.9663 13.3033 15.4455 14.2096 14.5952 14.8031C13.7447 15.3966 12.5719 16.3192 11.9888 16.8536C11.4057 17.3877 11.1041 17.7691 11.3189 17.7009C11.5335 17.6328 13.585 16.3741 15.8779 14.904C18.1705 13.4337 20.1369 12.1458 20.2478 12.0421C20.3715 11.9263 20.3254 11.8534 20.1285 11.8534C19.952 11.8534 18.9826 12.2743 17.9745 12.7887ZM15.5935 17.8915C14.8938 18.045 13.9158 18.3342 13.4201 18.5338C12.9243 18.7335 12.5189 18.9649 12.5189 19.048C12.5189 19.1309 14.2841 18.9089 16.4417 18.5546C18.5992 18.2002 20.3645 17.8355 20.3645 17.7443C20.3645 17.6532 19.5771 17.5862 18.6151 17.5953C17.6531 17.6046 16.2932 17.738 15.5935 17.8915Z" fill="#1B1B1B"/>
</svg>
