<svg width="32" height="31" viewBox="0 0 32 31" fill="none" xmlns="http://www.w3.org/2000/svg">
<path d="M5.0141 13.5048C5.10677 13.6066 5.22636 13.7476 5.35114 13.9206C5.48516 14.1064 5.59555 14.288 5.67223 14.4226C5.71071 14.4901 5.74106 14.5464 5.76199 14.5863C5.77246 14.6062 5.7806 14.6221 5.78626 14.6332L5.79284 14.6463L5.79471 14.65C5.79471 14.65 5.79559 14.6518 5.53713 14.7951L5.79471 14.65C5.86801 14.7991 5.80929 14.9878 5.66248 15.0692C5.5157 15.1506 5.33734 15.0958 5.264 14.9468L5.2628 14.9444L5.25795 14.9347C5.2535 14.926 5.24664 14.9126 5.23754 14.8953C5.21934 14.8606 5.19225 14.8103 5.15751 14.7494C5.08776 14.6269 4.98866 14.4642 4.87034 14.3001C4.79534 14.1961 4.72246 14.1053 4.65804 14.0299C4.65278 14.038 4.64747 14.0462 4.64209 14.0545C4.63189 14.0702 4.62141 14.0864 4.61081 14.1027C4.53329 14.2224 4.44839 14.3535 4.40492 14.4088C4.2995 14.5429 4.1121 14.5671 3.98635 14.4628C3.8606 14.3585 3.84412 14.1653 3.94953 14.0312C3.97316 14.0011 4.04141 13.8959 4.13034 13.7588C4.13763 13.7476 4.14504 13.7362 4.15259 13.7245C4.23116 13.6035 4.32882 13.4531 4.39151 13.3729C4.90506 12.5637 5.85613 11.6204 6.97079 10.8384C8.07855 10.0612 9.38239 9.41884 10.6273 9.23407C11.0047 8.35316 12.0389 6.76634 13.774 6.21422C14.0119 6.13853 14.2258 6.26002 14.3312 6.42417C14.5037 6.69293 14.8362 6.99193 15.2735 6.94472C15.4335 6.92746 15.6142 6.98397 15.7276 7.14123L16.2405 7.85224C17.3374 7.70295 18.6041 7.61243 19.8173 7.63117C21.0473 7.65009 22.2429 7.78147 23.1538 8.08958C24.0432 8.39053 24.7826 8.90538 24.8511 9.77386C24.8845 10.1974 24.7503 10.6557 24.4635 11.1438C24.2149 11.5672 23.8436 12.0269 23.3388 12.5277C23.875 13.0168 24.8481 13.7531 25.8228 14.0588C26.6083 12.547 28.1954 12.283 29.2428 12.8331C29.7793 13.115 30.1953 13.6207 30.2783 14.2981C30.3599 14.9626 30.114 15.7289 29.4659 16.5341C29.9404 17.5684 29.8051 18.5171 29.2976 19.184C28.792 19.8484 27.9493 20.1867 27.1186 20.0567C26.3977 19.944 25.9005 19.4553 25.5737 18.9624C25.2732 18.5091 25.0965 18.0227 25.0077 17.7307L23.4312 18.0778C23.6569 18.2109 23.846 18.3542 24.0029 18.5053C24.3974 18.8853 24.5861 19.3139 24.6232 19.7366C24.6598 20.1542 24.5468 20.5434 24.3752 20.8493L24.3649 20.8677L24.3522 20.8846C23.7672 21.6682 23.1485 22.1354 22.5174 22.3456C21.8848 22.5562 21.2717 22.4978 20.716 22.288C19.6442 21.8832 18.7556 20.9056 18.2287 20.0981L15.5493 20.7461C15.3731 20.8547 15.2095 21.1365 15.0911 21.5821C14.9754 22.018 14.9255 22.5229 14.9142 22.9321C14.9066 23.2071 14.6673 23.4973 14.3382 23.4345C13.6604 23.3052 13.0579 22.79 12.5774 22.2401C12.1028 21.697 11.7099 21.0761 11.4431 20.6248C7.35343 20.0457 4.4742 16.8125 3.53072 15.2489C3.44526 15.1072 3.48952 14.9164 3.6296 14.8226C3.76967 14.7289 3.95252 14.7677 4.03798 14.9094C4.93612 16.3979 7.70694 19.4905 11.585 20.0209C11.7274 20.0403 11.855 20.1232 11.9308 20.2522C12.1922 20.6965 12.5723 21.3007 13.0246 21.8184C13.4402 22.2939 13.8856 22.6598 14.3255 22.7943C14.3445 22.3818 14.3995 21.8875 14.5186 21.4394C14.6458 20.9608 14.8715 20.4357 15.2977 20.1981C15.3401 20.1745 15.3815 20.1602 15.4178 20.1514L18.1778 19.4839C18.381 19.4347 18.5835 19.5202 18.693 19.6916C19.1848 20.4617 20.0053 21.3572 20.9374 21.7091C21.3958 21.8822 21.8724 21.9212 22.3544 21.7607C22.834 21.601 23.3501 21.2334 23.874 20.5373C23.9862 20.3301 24.0544 20.077 24.0314 19.8145C24.0081 19.5496 23.8902 19.2522 23.5897 18.9628C23.332 18.7147 22.9406 18.4733 22.3671 18.2717C22.3638 18.2706 22.3605 18.2694 22.3571 18.2682C21.5604 17.9898 20.4145 17.7881 18.7918 17.751C18.628 17.7472 18.5029 17.6065 18.5126 17.4367C18.5222 17.2668 18.6628 17.1322 18.8266 17.136C20.4235 17.1725 21.6172 17.3654 22.4938 17.66L24.9834 17.1119C25.2452 17.0543 25.4856 17.2168 25.5558 17.4614C25.6277 17.7114 25.7874 18.1791 26.0676 18.6018C26.3488 19.0259 26.727 19.37 27.2283 19.4484C27.8579 19.5469 28.4761 19.2874 28.8361 18.8144C29.1858 18.3549 29.3249 17.647 28.9072 16.7712C28.8171 16.5823 28.8513 16.3506 28.9839 16.1891C29.5854 15.4568 29.744 14.8474 29.6888 14.3976C29.6338 13.949 29.3585 13.5939 28.9585 13.3838C28.149 12.9585 26.9149 13.1694 26.3152 14.3913C26.2147 14.5962 25.9771 14.749 25.7254 14.6763C24.4461 14.3073 23.205 13.2785 22.7082 12.7773C21.1478 11.6695 19.0346 10.9419 17.0052 10.4856C14.9713 10.0282 13.0486 9.84931 11.9062 9.82469C11.7424 9.82113 11.6173 9.68056 11.6267 9.51072C11.6362 9.34088 11.7766 9.20608 11.9404 9.20962C13.119 9.23512 15.0794 9.41824 17.1516 9.8842C19.139 10.3311 21.2543 11.0434 22.8816 12.1447C23.3897 11.6472 23.7386 11.2133 23.9589 10.8384C24.2033 10.4223 24.2786 10.0975 24.2589 9.84626C24.2208 9.36505 23.8019 8.96302 22.9506 8.67505C22.1208 8.39433 20.9932 8.26482 19.7867 8.24623C18.5847 8.2277 17.3247 8.3194 16.2408 8.46981C16.0639 8.49431 15.8951 8.41948 15.7927 8.27762L15.2752 7.56019C14.5767 7.61757 14.0958 7.16245 13.8631 6.82347C12.3811 7.32752 11.4709 8.73499 11.152 9.50667C11.0791 9.68296 10.9214 9.81071 10.7358 9.83645C9.6023 9.99341 8.36882 10.5879 7.29163 11.3436C6.31457 12.0291 5.49523 12.8268 5.0141 13.5048ZM10.4234 10.3219C10.5618 10.2253 10.7455 10.2603 10.8337 10.4001C11.3176 11.1661 11.8233 12.4895 11.7875 14.0019C11.7513 15.5282 11.163 17.2344 9.47706 18.729C9.35019 18.8415 9.16297 18.8295 9.05891 18.7022C8.95484 18.5749 8.97335 18.3805 9.10022 18.268C10.645 16.8986 11.1613 15.3671 11.1934 14.0095C11.2259 12.638 10.7635 11.4316 10.3328 10.7498C10.2445 10.6101 10.2851 10.4185 10.4234 10.3219ZM7.2201 13.8194C7.11252 13.9472 7.01679 14.1055 6.94561 14.2546C6.87185 14.409 6.69324 14.4769 6.54665 14.4061C6.40006 14.3354 6.34102 14.1529 6.41478 13.9984C6.50391 13.8118 6.62768 13.604 6.77832 13.4251C6.92519 13.2506 7.12082 13.0758 7.35821 13.0017C7.6181 12.9205 7.88578 12.9733 8.12068 13.1784C8.34025 13.3702 8.52616 13.6889 8.68645 14.1373C8.74271 14.2946 8.66334 14.4741 8.50918 14.5381C8.35503 14.6022 8.18447 14.5266 8.12822 14.3692C7.98238 13.9613 7.83941 13.752 7.72784 13.6546C7.63159 13.5705 7.56586 13.5728 7.51057 13.5901C7.43277 13.6144 7.33146 13.6871 7.2201 13.8194ZM12.3906 14.7725C12.3329 14.6157 12.4107 14.4356 12.5644 14.3701C13.4885 13.9763 14.7398 13.8765 15.7198 14.1749C16.2127 14.325 16.6622 14.5837 16.9585 14.985C17.2614 15.3954 17.3823 15.9262 17.2613 16.5621C17.1351 17.2253 16.7907 17.7076 16.3218 18.0276C15.8618 18.3416 15.2969 18.4902 14.7264 18.5298C13.5923 18.6083 12.3347 18.2626 11.586 17.7505C11.4515 17.6584 11.4185 17.468 11.5124 17.3253C11.6063 17.1825 11.7916 17.1414 11.9261 17.2334C12.5614 17.668 13.6912 17.9864 14.7084 17.9159C15.2135 17.8809 15.6651 17.7515 16.0076 17.5178C16.3412 17.2902 16.5852 16.9549 16.6785 16.4647C16.7698 15.9842 16.6753 15.6323 16.4814 15.3697C16.2809 15.0981 15.9526 14.8934 15.5331 14.7656C14.6883 14.5084 13.5767 14.5952 12.7731 14.9377C12.6195 15.0032 12.4482 14.9292 12.3906 14.7725Z" fill="#1B1B1B"/>
<path d="M5.0141 13.5048L4.8808 13.4015L4.79749 13.5189L4.89374 13.6246L5.0141 13.5048ZM5.53713 14.7951L5.45917 14.642L5.61474 14.9485L5.53713 14.7951ZM4.65804 14.0299L4.78196 13.9141L4.64042 13.7484L4.52077 13.9325L4.65804 14.0299ZM4.39151 13.3729L4.51999 13.4827L4.52524 13.476L4.52982 13.4688L4.39151 13.3729ZM10.6273 9.23407L10.6503 9.40601L10.7413 9.39246L10.7788 9.30484L10.6273 9.23407ZM16.2405 7.85224L16.1079 7.95693L16.1659 8.03744L16.2616 8.02445L16.2405 7.85224ZM23.3388 12.5277L23.2246 12.4019L23.0921 12.5333L23.2296 12.6587L23.3388 12.5277ZM25.8228 14.0588L25.7749 14.2251L25.9042 14.2657L25.9687 14.1414L25.8228 14.0588ZM29.4659 16.5341L29.339 16.4224L29.2698 16.5083L29.3162 16.6094L29.4659 16.5341ZM25.0077 17.7307L25.166 17.6779L25.1205 17.5286L24.9737 17.5609L25.0077 17.7307ZM23.4312 18.0778L23.3974 17.9079L22.9661 18.0028L23.3496 18.229L23.4312 18.0778ZM24.3649 20.8677L24.4957 20.9744L24.5024 20.9653L24.508 20.9554L24.3649 20.8677ZM18.2287 20.0981L18.3659 20.0001L18.302 19.9023L18.1915 19.9289L18.2287 20.0981ZM15.5493 20.7461L15.5121 20.5769L15.4872 20.583L15.4652 20.5966L15.5493 20.7461ZM11.4431 20.6248L11.5843 20.5333L11.5432 20.4637L11.4656 20.4527L11.4431 20.6248ZM14.3255 22.7943L14.2787 22.9609L14.4813 23.0229L14.4914 22.8023L14.3255 22.7943ZM23.874 20.5373L24.0043 20.6445L24.0121 20.6342L24.0184 20.6227L23.874 20.5373ZM22.3671 18.2717L22.4202 18.107L22.4172 18.1061L22.3671 18.2717ZM22.3571 18.2682L22.4129 18.1046L22.41 18.1035L22.3571 18.2682ZM22.4938 17.66L22.4426 17.8253L22.4846 17.8394L22.5277 17.8299L22.4938 17.66ZM22.7082 12.7773L22.8235 12.6523L22.8133 12.642L22.8015 12.6335L22.7082 12.7773ZM22.8816 12.1447L22.7912 12.2906L22.9 12.3642L22.9949 12.2714L22.8816 12.1447ZM15.2752 7.56019L15.4079 7.4555L15.3531 7.37965L15.2625 7.3871L15.2752 7.56019ZM13.8631 6.82347L13.998 6.72209L13.9273 6.61914L13.812 6.65834L13.8631 6.82347ZM5.48377 13.8159C5.35449 13.6367 5.23064 13.4906 5.13445 13.385L4.89374 13.6246C4.98291 13.7226 5.09822 13.8585 5.21852 14.0253L5.48377 13.8159ZM5.81491 14.3335C5.73619 14.1954 5.62244 14.0081 5.48377 13.8159L5.21852 14.0253C5.34788 14.2046 5.45493 14.3807 5.52954 14.5116L5.81491 14.3335ZM5.90756 14.5025C5.88581 14.4611 5.85451 14.403 5.81491 14.3335L5.52954 14.5116C5.56692 14.5772 5.5963 14.6317 5.61642 14.6701L5.90756 14.5025ZM5.9332 14.5521C5.92721 14.5403 5.91844 14.5232 5.90756 14.5025L5.61642 14.6701C5.62649 14.6892 5.63425 14.7043 5.63954 14.7148L5.9332 14.5521ZM5.94018 14.566L5.9332 14.5521L5.63954 14.7148L5.6459 14.7274L5.94018 14.566ZM5.94222 14.5701L5.94018 14.566L5.6459 14.7274L5.64736 14.7304L5.94222 14.5701ZM5.94292 14.5715L5.94222 14.5701L5.64736 14.7304L5.94292 14.5715ZM5.61474 14.9485C5.74403 14.8768 5.80884 14.8407 5.84143 14.8224C5.85765 14.8133 5.86625 14.8084 5.87098 14.8057C5.87319 14.8044 5.87724 14.8021 5.87724 14.8021C5.87724 14.8021 5.88026 14.8003 5.88309 14.7984C5.88309 14.7984 5.88827 14.795 5.89348 14.791C5.89348 14.791 5.90298 14.7838 5.91174 14.7747C5.91522 14.7712 5.92678 14.7592 5.93746 14.7406C5.94286 14.7312 5.95251 14.7126 5.95774 14.6868C5.96021 14.6709 5.96123 14.6453 5.96068 14.6357C5.95478 14.6027 5.94236 14.5704 5.79471 14.65C5.64706 14.7297 5.63575 14.6997 5.62986 14.6667C5.62931 14.6571 5.63033 14.6314 5.63281 14.6156C5.63802 14.5898 5.64767 14.5711 5.65307 14.5618C5.66376 14.5432 5.67531 14.5312 5.67879 14.5276C5.68755 14.5186 5.69704 14.5114 5.69704 14.5114C5.70224 14.5074 5.70733 14.5041 5.70733 14.5041C5.71003 14.5023 5.71232 14.5009 5.71232 14.5009C5.70903 14.5028 5.70082 14.5075 5.68481 14.5164C5.65295 14.5343 5.58835 14.5704 5.45917 14.642L5.61474 14.9485ZM5.71731 14.498L5.45917 14.642L5.61474 14.9485L5.87323 14.8044L5.71731 14.498ZM5.74008 15.2226C5.963 15.0989 6.05994 14.8095 5.94292 14.5715L5.64736 14.7304C5.67694 14.7905 5.65556 14.8766 5.58486 14.9158L5.74008 15.2226ZM5.11633 15.0264C5.23445 15.2664 5.5165 15.3465 5.74008 15.2226L5.58486 14.9158C5.51491 14.9546 5.44023 14.9252 5.41166 14.8671L5.11633 15.0264ZM5.11101 15.0158L5.11633 15.0264L5.41016 14.8641L5.40489 14.8536L5.11101 15.0158ZM5.09198 14.9791C5.10066 14.9956 5.10692 15.0078 5.11101 15.0158L5.40489 14.8536C5.40008 14.8442 5.39261 14.8296 5.38312 14.8115L5.09198 14.9791ZM5.01483 14.8384C5.04845 14.8974 5.07458 14.9459 5.09198 14.9791L5.38312 14.8115C5.3641 14.7753 5.33604 14.7232 5.3002 14.6603L5.01483 14.8384ZM4.73771 14.4048C4.85137 14.5624 4.94714 14.7196 5.01483 14.8384L5.3002 14.6603C5.2284 14.5343 5.12594 14.3659 5.00296 14.1954L4.73771 14.4048ZM4.53412 14.1457C4.5959 14.218 4.66582 14.3051 4.73771 14.4048L5.00296 14.1954C4.92486 14.0871 4.849 13.9926 4.78196 13.9141L4.53412 14.1457ZM4.77945 14.1518C4.7848 14.1436 4.79009 14.1354 4.79531 14.1274L4.52077 13.9325C4.51548 13.9406 4.51013 13.9488 4.50473 13.9571L4.77945 14.1518ZM4.74825 14.1999C4.75886 14.1835 4.76929 14.1674 4.77945 14.1518L4.50473 13.9571C4.49447 13.9729 4.48397 13.9892 4.47337 14.0055L4.74825 14.1999ZM4.53314 14.5189C4.5829 14.4556 4.67362 14.3152 4.74825 14.1999L4.47337 14.0055C4.39296 14.1297 4.31388 14.2514 4.27672 14.2987L4.53314 14.5189ZM3.88306 14.5989C4.08355 14.7652 4.3733 14.7223 4.53314 14.5189L4.27672 14.2987C4.22572 14.3636 4.14066 14.369 4.08965 14.3267L3.88306 14.5989ZM3.82133 13.9211C3.66024 14.126 3.6806 14.431 3.88306 14.5989L4.08965 14.3267C4.04059 14.286 4.02799 14.2046 4.07774 14.1413L3.82133 13.9211ZM3.99297 13.6615C3.90017 13.8046 3.83854 13.8992 3.82133 13.9211L4.07774 14.1413C4.10775 14.1031 4.18266 13.9873 4.26771 13.8561L3.99297 13.6615ZM4.01523 13.6272C4.00768 13.6389 4.00025 13.6503 3.99297 13.6615L4.26771 13.8561C4.27499 13.8449 4.28242 13.8335 4.28995 13.8219L4.01523 13.6272ZM4.26304 13.2631C4.19444 13.3508 4.09171 13.5094 4.01523 13.6272L4.28995 13.8219C4.3706 13.6976 4.4632 13.5553 4.51999 13.4827L4.26304 13.2631ZM6.87842 10.6943C5.75213 11.4845 4.78259 12.4428 4.25319 13.2771L4.52982 13.4688C5.02753 12.6845 5.96014 11.7564 7.06316 10.9825L6.87842 10.6943ZM10.6042 9.06218C9.32579 9.25192 7.99817 9.90864 6.87842 10.6943L7.06316 10.9825C8.15893 10.2137 9.43898 9.58577 10.6503 9.40601L10.6042 9.06218ZM13.7259 6.0481C11.9262 6.62079 10.8632 8.25913 10.4758 9.16328L10.7788 9.30484C11.1463 8.44712 12.1518 6.91183 13.8221 6.38034L13.7259 6.0481ZM14.4691 6.32723C14.3307 6.1117 14.046 5.94627 13.7259 6.0481L13.8221 6.38034C13.9778 6.33077 14.1209 6.40834 14.1932 6.5211L14.4691 6.32723ZM15.2566 6.77208C14.9067 6.80979 14.6252 6.57037 14.4691 6.32723L14.1932 6.5211C14.3822 6.81541 14.7657 7.17407 15.2903 7.11744L15.2566 6.77208ZM15.8602 7.03654C15.705 6.8214 15.4623 6.74983 15.2566 6.77208L15.2903 7.11744C15.4047 7.10508 15.5233 7.14653 15.595 7.24592L15.8602 7.03654ZM16.3731 7.74755L15.8602 7.03654L15.595 7.24592L16.1079 7.95693L16.3731 7.74755ZM19.82 7.45757C18.5978 7.43873 17.3232 7.5298 16.2193 7.6801L16.2616 8.02445C17.3515 7.87609 18.6102 7.78618 19.8146 7.80477L19.82 7.45757ZM23.2051 7.92443C22.2712 7.60845 21.0565 7.47656 19.82 7.45757L19.8146 7.80477C21.0382 7.82364 22.2146 7.95448 23.1025 8.25478L23.2051 7.92443ZM25.0166 9.75926C24.939 8.77654 24.1041 8.22854 23.2051 7.92443L23.1025 8.25478C23.9824 8.55244 24.6261 9.03412 24.6856 9.7884L25.0166 9.75926ZM24.6049 11.2345C24.9029 10.7274 25.054 10.2321 25.0166 9.75926L24.6856 9.7884C24.7152 10.1627 24.5977 10.584 24.3221 11.0531L24.6049 11.2345ZM23.453 12.6537C23.9643 12.1462 24.3463 11.6749 24.6049 11.2345L24.3221 11.0531C24.0833 11.4594 23.7228 11.9076 23.2246 12.4019L23.453 12.6537ZM25.8707 13.8925C24.9292 13.5972 23.9772 12.8795 23.448 12.3969L23.2296 12.6587C23.7728 13.1542 24.7671 13.9091 25.7749 14.2251L25.8707 13.8925ZM29.3175 12.6779C28.1976 12.0896 26.5092 12.3742 25.6769 13.9761L25.9687 14.1414C26.7074 12.7198 28.1931 12.4762 29.1681 12.9883L29.3175 12.6779ZM30.443 14.2758C30.3517 13.5311 29.8941 12.9808 29.3175 12.6779L29.1681 12.9883C29.6646 13.2492 30.0388 13.7102 30.1137 14.3206L30.443 14.2758ZM29.5929 16.6457C30.2596 15.8173 30.5324 15.0039 30.443 14.2758L30.1137 14.3206C30.1874 14.9212 29.9682 15.6405 29.339 16.4224L29.5929 16.6457ZM29.4274 19.292C29.9787 18.5678 30.1148 17.5468 29.6157 16.4588L29.3162 16.6094C29.766 17.5899 29.6317 18.4665 29.1677 19.0761L29.4274 19.292ZM27.0937 20.2285C27.9809 20.3672 28.8833 20.0069 29.4274 19.292L29.1677 19.0761C28.7005 19.6899 27.9179 20.0061 27.1433 19.885L27.0937 20.2285ZM25.4372 19.0614C25.7777 19.5752 26.3101 20.1058 27.0937 20.2285L27.1433 19.885C26.4853 19.7821 26.0232 19.3353 25.7102 18.8633L25.4372 19.0614ZM24.8495 17.7836C24.9409 18.0842 25.1236 18.5884 25.4372 19.0614L25.7102 18.8633C25.4228 18.4297 25.2521 17.9615 25.166 17.6779L24.8495 17.7836ZM23.4653 18.2477L25.0416 17.9007L24.9737 17.5609L23.3974 17.9079L23.4653 18.2477ZM24.1155 18.3775C23.9482 18.2164 23.7485 18.0655 23.5131 17.9265L23.3496 18.229C23.5653 18.3564 23.7439 18.4921 23.8902 18.6331L24.1155 18.3775ZM24.7886 19.7205C24.7474 19.252 24.5381 18.7845 24.1155 18.3775L23.8902 18.6331C24.2569 18.9861 24.4248 19.3759 24.4578 19.7528L24.7886 19.7205ZM24.5183 20.937C24.7043 20.6056 24.8288 20.1803 24.7886 19.7205L24.4578 19.7528C24.4908 20.1279 24.3893 20.4813 24.232 20.7616L24.5183 20.937ZM24.508 20.9554L24.5183 20.937L24.232 20.7616L24.2217 20.78L24.508 20.9554ZM24.483 20.9914L24.4957 20.9744L24.234 20.761L24.2214 20.7779L24.483 20.9914ZM22.5676 22.5111C23.2382 22.2877 23.8829 21.7951 24.483 20.9914L24.2214 20.7779C23.6515 21.5411 23.0589 21.9831 22.4672 22.1802L22.5676 22.5111ZM20.6593 22.4512C21.2433 22.6718 21.8944 22.7353 22.5676 22.5111L22.4672 22.1802C21.8753 22.3772 21.3001 22.3238 20.7726 22.1246L20.6593 22.4512ZM18.0915 20.1961C18.6276 21.0177 19.5408 22.0289 20.6593 22.4512L20.7726 22.1246C19.7475 21.7376 18.8837 20.7935 18.3659 20.0001L18.0915 20.1961ZM15.5865 20.9153L18.2658 20.2673L18.1915 19.9289L15.5121 20.5769L15.5865 20.9153ZM15.2511 21.6284C15.3077 21.4155 15.3734 21.2483 15.442 21.1248C15.5116 20.9999 15.5786 20.9295 15.6334 20.8957L15.4652 20.5966C15.3438 20.6714 15.241 20.7962 15.1551 20.9507C15.0683 21.1067 14.993 21.3032 14.9312 21.5359L15.2511 21.6284ZM15.0802 22.9369C15.0913 22.5359 15.1402 22.046 15.2511 21.6284L14.9312 21.5359C14.8105 21.9899 14.7598 22.51 14.7482 22.9274L15.0802 22.9369ZM14.3081 23.6053C14.7595 23.6914 15.0704 23.2933 15.0802 22.9369L14.7482 22.9274C14.7429 23.1208 14.5751 23.3031 14.3682 23.2637L14.3081 23.6053ZM12.4547 22.3573C12.9416 22.9145 13.5753 23.4656 14.3081 23.6053L14.3682 23.2637C13.7456 23.1449 13.1741 22.6654 12.7 22.1228L12.4547 22.3573ZM11.3018 20.7163C11.5705 21.1706 11.9698 21.8024 12.4547 22.3573L12.7 22.1228C12.236 21.5918 11.8494 20.9815 11.5843 20.5333L11.3018 20.7163ZM3.39025 15.3417C4.34851 16.9299 7.26452 20.2084 11.4206 20.7969L11.4656 20.4527C7.44234 19.8831 4.59988 16.6952 3.6712 15.1561L3.39025 15.3417ZM3.54024 14.6764C3.32794 14.8185 3.25312 15.1144 3.39025 15.3417L3.6712 15.1561C3.63738 15.1 3.65108 15.0142 3.71895 14.9688L3.54024 14.6764ZM4.17846 14.8166C4.04088 14.5885 3.75309 14.534 3.54024 14.6764L3.71895 14.9688C3.78626 14.9238 3.86415 14.9469 3.89751 15.0022L4.17846 14.8166ZM11.6067 19.8486C7.79557 19.3275 5.06178 16.2806 4.17846 14.8166L3.89751 15.0022C4.81047 16.5153 7.61831 19.6535 11.5632 20.193L11.6067 19.8486ZM12.0723 20.1611C11.9692 19.9857 11.7965 19.8746 11.6067 19.8486L11.5632 20.193C11.6582 20.206 11.7409 20.2608 11.7893 20.3433L12.0723 20.1611ZM13.1473 21.7011C12.7056 21.1956 12.332 20.6026 12.0723 20.1611L11.7893 20.3433C12.0524 20.7905 12.4389 21.4057 12.9019 21.9355L13.1473 21.7011ZM14.3723 22.6276C13.9761 22.5065 13.5558 22.1686 13.1473 21.7011L12.9019 21.9355C13.3246 22.4192 13.7951 22.8131 14.2787 22.9609L14.3723 22.6276ZM14.3586 21.3931C14.2351 21.8579 14.179 22.3659 14.1596 22.7862L14.4914 22.8023C14.51 22.3977 14.5639 21.9172 14.6786 21.4856L14.3586 21.3931ZM15.2197 20.0449C14.7286 20.3188 14.4875 20.9079 14.3586 21.3931L14.6786 21.4856C14.804 21.0136 15.0144 20.5527 15.3756 20.3512L15.2197 20.0449ZM15.3807 19.9822C15.333 19.9937 15.2773 20.0127 15.2197 20.0449L15.3756 20.3512C15.4029 20.3361 15.4301 20.3266 15.455 20.3205L15.3807 19.9822ZM18.1407 19.3147L15.3807 19.9822L15.455 20.3205L18.215 19.653L18.1407 19.3147ZM18.8311 19.5951C18.6827 19.3626 18.4098 19.2496 18.1407 19.3147L18.215 19.653C18.3521 19.6199 18.4843 19.6778 18.5548 19.7882L18.8311 19.5951ZM20.9941 21.5459C20.1095 21.2117 19.3138 20.3509 18.8311 19.5951L18.5548 19.7882C19.0558 20.5726 19.9011 21.5024 20.8808 21.8725L20.9941 21.5459ZM22.3043 21.5952C21.8628 21.7422 21.4241 21.7082 20.9941 21.5459L20.8808 21.8725C21.3675 22.0562 21.882 22.1 22.4046 21.926L22.3043 21.5952ZM23.7434 20.43C23.2349 21.1061 22.7447 21.4485 22.3043 21.5952L22.4046 21.926C22.9233 21.7534 23.4653 21.3608 24.0043 20.6445L23.7434 20.43ZM23.866 19.8307C23.8855 20.0521 23.828 20.2701 23.7295 20.4519L24.0184 20.6227C24.1443 20.3902 24.2234 20.102 24.1967 19.7984L23.866 19.8307ZM23.477 19.0906C23.7496 19.353 23.8468 19.6114 23.866 19.8307L24.1967 19.7984C24.1695 19.4877 24.0309 19.1514 23.7023 18.8349L23.477 19.0906ZM22.314 18.4362C22.8721 18.6325 23.2412 18.8634 23.477 19.0906L23.7023 18.8349C23.4229 18.566 23.009 18.314 22.4202 18.107L22.314 18.4362ZM22.3012 18.4318C22.3064 18.4337 22.3117 18.4356 22.317 18.4373L22.4172 18.1061L22.4129 18.1046L22.3012 18.4318ZM18.7879 17.9246C20.4006 17.9614 21.5285 18.1618 22.3042 18.4329L22.41 18.1035C21.5922 17.8178 20.4283 17.6147 18.7956 17.5774L18.7879 17.9246ZM18.3468 17.4267C18.3316 17.6959 18.5312 17.9187 18.7879 17.9246L18.7956 17.5774C18.7247 17.5758 18.6743 17.5172 18.6783 17.4468L18.3468 17.4267ZM18.8306 16.9624C18.5785 16.9566 18.3618 17.1624 18.3468 17.4267L18.6783 17.4468C18.6826 17.3713 18.7473 17.3078 18.8228 17.3096L18.8306 16.9624ZM22.5448 17.4947C21.6478 17.1932 20.4369 16.9991 18.8306 16.9624L18.8228 17.3096C20.4099 17.3459 21.5864 17.5374 22.4426 17.8253L22.5448 17.4947ZM24.9496 16.942L22.4598 17.4901L22.5277 17.8299L25.0175 17.2818L24.9496 16.942ZM25.7149 17.4113C25.6205 17.0823 25.2976 16.8653 24.9496 16.942L25.0175 17.2818C25.1928 17.2431 25.3507 17.3512 25.3967 17.5116L25.7149 17.4113ZM26.2041 18.5027C25.938 18.1013 25.7843 17.6531 25.7149 17.4113L25.3967 17.5116C25.4708 17.7697 25.6368 18.257 25.9311 18.7008L26.2041 18.5027ZM27.2532 19.2767C26.8145 19.2081 26.4712 18.9057 26.2041 18.5027L25.9311 18.7008C26.2262 19.146 26.6396 19.5319 27.2034 19.6201L27.2532 19.2767ZM28.7061 18.7064C28.3846 19.1289 27.8261 19.3663 27.2532 19.2767L27.2034 19.6201C27.8895 19.7274 28.5676 19.4458 28.9658 18.9224L28.7061 18.7064ZM28.7586 16.8489C29.1506 17.6707 29.0116 18.3052 28.7061 18.7064L28.9658 18.9224C29.3599 18.4047 29.4993 17.6234 29.0558 16.6935L28.7586 16.8489ZM28.858 16.0761C28.6849 16.2869 28.6366 16.5931 28.7586 16.8489L29.0558 16.6935C28.9976 16.5714 29.0177 16.4142 29.1098 16.3021L28.858 16.0761ZM29.524 14.42C29.5713 14.8051 29.4405 15.367 28.858 16.0761L29.1098 16.3021C29.7303 15.5467 29.9166 14.8897 29.8535 14.3752L29.524 14.42ZM28.8839 13.539C29.2435 13.7278 29.4773 14.0382 29.524 14.42L29.8535 14.3752C29.7903 13.8597 29.4735 13.4599 29.0332 13.2286L28.8839 13.539ZM26.4629 14.4704C27.0175 13.3403 28.1489 13.1528 28.8839 13.539L29.0332 13.2286C28.1491 12.7641 26.8123 12.9984 26.1675 14.3121L26.4629 14.4704ZM25.681 14.8437C26.023 14.9424 26.3336 14.7335 26.4629 14.4704L26.1675 14.3121C26.0956 14.4587 25.9312 14.5555 25.7697 14.5089L25.681 14.8437ZM22.5927 12.9023C23.0979 13.4119 24.3629 14.4634 25.681 14.8437L25.7697 14.5089C24.5294 14.1511 23.3122 13.1451 22.8235 12.6523L22.5927 12.9023ZM16.9701 10.6553C18.9911 11.1097 21.0803 11.8315 22.6148 12.921L22.8015 12.6335C21.2155 11.5075 19.0782 10.774 17.0404 10.3158L16.9701 10.6553ZM11.9025 9.99827C13.0348 10.0227 14.947 10.2004 16.9701 10.6553L17.0404 10.3158C14.9956 9.85608 13.0623 9.67597 11.9099 9.6511L11.9025 9.99827ZM11.4609 9.50094C11.4459 9.77021 11.6459 9.99268 11.9025 9.99827L11.9099 9.6511C11.8388 9.64958 11.7885 9.59097 11.7924 9.52057L11.4609 9.50094ZM11.9441 9.03603C11.692 9.03062 11.4756 9.23665 11.4609 9.50094L11.7924 9.52057C11.7966 9.44519 11.8612 9.3816 11.9367 9.38322L11.9441 9.03603ZM17.1867 9.71444C15.1037 9.24608 13.1327 9.06178 11.9441 9.03603L11.9367 9.38322C13.1053 9.40847 15.055 9.59049 17.1164 10.054L17.1867 9.71444ZM22.9719 11.9989C21.3203 10.8812 19.1827 10.1632 17.1867 9.71444L17.1164 10.054C19.0954 10.4989 21.1884 11.2057 22.7912 12.2906L22.9719 11.9989ZM23.8174 10.7478C23.6075 11.1051 23.2697 11.5271 22.7682 12.018L22.9949 12.2714C23.5096 11.7675 23.8698 11.3216 24.1002 10.9292L23.8174 10.7478ZM24.0934 9.86087C24.1093 10.0629 24.0506 10.3507 23.8174 10.7478L24.1002 10.9292C24.356 10.4939 24.4481 10.1321 24.4244 9.83173L24.0934 9.86087ZM22.8993 8.84017C23.7396 9.12447 24.0643 9.49296 24.0934 9.86087L24.4244 9.83173C24.3773 9.23714 23.8643 8.80158 23.002 8.50986L22.8993 8.84017ZM19.784 8.41984C20.9841 8.43829 22.0925 8.56735 22.8993 8.84017L23.002 8.50986C22.149 8.22131 21.0022 8.09135 19.7894 8.07262L19.784 8.41984ZM16.2624 8.64191C17.3391 8.49252 18.591 8.40146 19.784 8.41984L19.7894 8.07262C18.5784 8.05395 17.3102 8.14634 16.2192 8.2977L16.2624 8.64191ZM15.6601 8.38231C15.799 8.57486 16.0271 8.67453 16.2624 8.64191L16.2192 8.2977C16.1007 8.31409 15.9911 8.2641 15.9254 8.17293L15.6601 8.38231ZM15.1426 7.66488L15.6601 8.38231L15.9254 8.17293L15.4079 7.4555L15.1426 7.66488ZM13.7281 6.92491C13.9774 7.2878 14.5071 7.79744 15.288 7.73328L15.2625 7.3871C14.6464 7.43771 14.2143 7.03704 13.998 6.72209L13.7281 6.92491ZM11.3044 9.57536C11.6134 8.82769 12.4956 7.47112 13.9142 6.98859L13.812 6.65834C12.2667 7.184 11.3285 8.64222 10.9995 9.43804L11.3044 9.57536ZM10.7573 10.0086C11.002 9.97467 11.2087 9.80673 11.3044 9.57536L10.9995 9.43804C10.9495 9.55913 10.8409 9.64675 10.7143 9.6643L10.7573 10.0086ZM7.384 11.4878C8.44915 10.7404 9.65827 10.1608 10.7573 10.0086L10.7143 9.6643C9.54634 9.82606 8.28849 10.4353 7.19926 11.1995L7.384 11.4878ZM5.14739 13.6081C5.61452 12.9498 6.41845 12.1652 7.384 11.4878L7.19926 11.1995C6.21067 11.8931 5.37593 12.7037 4.8808 13.4015L5.14739 13.6081ZM10.9723 10.3042C10.8303 10.0793 10.5415 10.0309 10.3314 10.1776L10.5155 10.4662C10.5821 10.4198 10.6607 10.4413 10.6951 10.4959L10.9723 10.3042ZM11.9535 14.006C11.9902 12.4532 11.4721 11.0954 10.9723 10.3042L10.6951 10.4959C11.1631 11.2368 11.6563 12.5259 11.6215 13.9979L11.9535 14.006ZM9.58432 18.8614C11.3076 17.3337 11.9162 15.5802 11.9535 14.006L11.6215 13.9979C11.5865 15.4761 11.0185 17.1351 9.3698 18.5967L9.58432 18.8614ZM8.93261 18.8151C9.09967 19.0195 9.392 19.0319 9.58432 18.8614L9.3698 18.5967C9.30837 18.6511 9.22627 18.6395 9.1852 18.5892L8.93261 18.8151ZM8.99296 18.1357C8.80027 18.3065 8.76516 18.6102 8.93261 18.8151L9.1852 18.5892C9.14455 18.5395 9.14642 18.4545 9.20749 18.4004L8.99296 18.1357ZM11.0274 14.0054C10.9964 15.315 10.5004 16.7993 8.99296 18.1357L9.20749 18.4004C10.7895 16.9979 11.3261 15.4191 11.3594 14.0135L11.0274 14.0054ZM10.1942 10.8457C10.609 11.5023 11.0589 12.6744 11.0274 14.0054L11.3594 14.0135C11.3928 12.6017 10.918 11.361 10.4714 10.654L10.1942 10.8457ZM10.3314 10.1776C10.1217 10.3239 10.0525 10.6213 10.1942 10.8457L10.4714 10.654C10.4366 10.5988 10.4485 10.513 10.5155 10.4662L10.3314 10.1776ZM7.09415 14.3319C7.16043 14.1931 7.24859 14.0481 7.34467 13.934L7.09554 13.7048C6.97644 13.8463 6.87315 14.0179 6.79708 14.1772L7.09415 14.3319ZM6.47688 14.5638C6.7078 14.6752 6.98168 14.5674 7.09415 14.3319L6.79708 14.1772C6.76203 14.2506 6.67868 14.2785 6.61642 14.2485L6.47688 14.5638ZM6.26624 13.9211C6.15219 14.1599 6.24219 14.4506 6.47688 14.5638L6.61642 14.2485C6.55794 14.2203 6.52986 14.1458 6.56332 14.0758L6.26624 13.9211ZM6.65375 13.3105C6.49161 13.5031 6.36027 13.7242 6.26624 13.9211L6.56332 14.0758C6.64755 13.8994 6.76376 13.7049 6.90289 13.5397L6.65375 13.3105ZM7.3109 12.8353C7.03078 12.9228 6.81006 13.1248 6.65375 13.3105L6.90289 13.5397C7.04032 13.3764 7.21088 13.2288 7.40552 13.168L7.3109 12.8353ZM8.22723 13.0451C7.9511 12.8039 7.62597 12.7369 7.3109 12.8353L7.40552 13.168C7.61023 13.1041 7.82046 13.1426 8.0141 13.3117L8.22723 13.0451ZM8.84201 14.0763C8.67745 13.616 8.47881 13.2648 8.22723 13.0451L8.0141 13.3117C8.20168 13.4756 8.37486 13.7618 8.5309 14.1983L8.84201 14.0763ZM8.57029 14.6995C8.80412 14.6023 8.93155 14.3267 8.84201 14.0763L8.5309 14.1983C8.55386 14.2625 8.52255 14.3459 8.44808 14.3768L8.57029 14.6995ZM7.97268 14.4302C8.06319 14.6834 8.33438 14.7975 8.57029 14.6995L8.44808 14.3768C8.37568 14.4069 8.30574 14.3697 8.28377 14.3082L7.97268 14.4302ZM7.62127 13.7879C7.70082 13.8574 7.83107 14.0341 7.97268 14.4302L8.28377 14.3082C8.1337 13.8884 7.978 13.6467 7.83441 13.5213L7.62127 13.7879ZM7.55788 13.7564C7.56403 13.7545 7.56765 13.7541 7.56765 13.7541L7.5694 13.7542C7.5694 13.7542 7.58766 13.7586 7.62127 13.7879L7.83441 13.5213C7.77177 13.4666 7.70723 13.4296 7.63829 13.4144C7.5675 13.3988 7.5079 13.4098 7.46327 13.4237L7.55788 13.7564ZM7.34467 13.934C7.44658 13.8129 7.5228 13.7674 7.55788 13.7564L7.46327 13.4237C7.34275 13.4614 7.21636 13.5613 7.09554 13.7048L7.34467 13.934ZM12.5019 14.2093C12.2689 14.3087 12.1438 14.5854 12.2356 14.835L12.5456 14.7099C12.5221 14.6461 12.5526 14.5625 12.6268 14.5309L12.5019 14.2093ZM15.7665 14.0082C14.7478 13.6981 13.4581 13.8018 12.5019 14.2093L12.6268 14.5309C13.5188 14.1507 14.7317 14.0549 15.6733 14.3416L15.7665 14.0082ZM17.09 14.8789C16.7653 14.4388 16.28 14.1646 15.7665 14.0082L15.6733 14.3416C16.1454 14.4854 16.5592 14.7285 16.827 15.0912L17.09 14.8789ZM17.4242 16.5957C17.5534 15.9165 17.4255 15.3334 17.09 14.8789L16.827 15.0912C17.0973 15.4574 17.2112 15.9359 17.0985 16.5285L17.4242 16.5957ZM16.4124 18.173C16.9169 17.8287 17.2889 17.3069 17.4242 16.5957L17.0985 16.5285C16.9814 17.1436 16.6645 17.5865 16.2312 17.8823L16.4124 18.173ZM14.7371 18.7029C15.3257 18.6621 15.9211 18.5083 16.4124 18.173L16.2312 17.8823C15.8025 18.1749 15.268 18.3182 14.7157 18.3565L14.7371 18.7029ZM11.495 17.8958C12.2769 18.4307 13.571 18.7838 14.7371 18.7029L14.7157 18.3565C13.6136 18.4329 12.3925 18.0945 11.6771 17.6051L11.495 17.8958ZM11.3757 17.227C11.2316 17.4461 11.2786 17.7478 11.495 17.8958L11.6771 17.6051C11.6243 17.569 11.6055 17.49 11.6492 17.4235L11.3757 17.227ZM12.0172 17.0881C11.8036 16.9419 11.5183 17.0102 11.3757 17.227L11.6492 17.4235C11.6944 17.3548 11.7796 17.3408 11.8351 17.3788L12.0172 17.0881ZM14.6976 17.7427C13.7125 17.811 12.6192 17.4999 12.0172 17.0881L11.8351 17.3788C12.5036 17.8361 13.6699 18.1619 14.7191 18.0892L14.6976 17.7427ZM15.917 17.3724C15.6058 17.5849 15.1846 17.7089 14.6976 17.7427L14.7191 18.0892C15.2424 18.0529 15.7245 17.9183 16.0982 17.6631L15.917 17.3724ZM16.5156 16.4311C16.4315 16.8734 16.2149 17.1691 15.917 17.3724L16.0982 17.6631C16.4675 17.4112 16.7389 17.0366 16.8413 16.4983L16.5156 16.4311ZM16.3499 15.4759C16.5112 15.6946 16.5987 15.994 16.5156 16.4311L16.8413 16.4983C16.941 15.9744 16.8393 15.5702 16.613 15.2635L16.3499 15.4759ZM15.4864 14.9323C15.8853 15.0538 16.1779 15.2428 16.3499 15.4759L16.613 15.2635C16.3841 14.9533 16.0201 14.733 15.5798 14.5989L15.4864 14.9323ZM12.8356 15.0985C13.6071 14.7697 14.6803 14.6868 15.4864 14.9323L15.5798 14.5989C14.6964 14.33 13.5464 14.4208 12.7107 14.777L12.8356 15.0985ZM12.2356 14.835C12.3284 15.0873 12.6006 15.1987 12.8356 15.0985L12.7107 14.777C12.6384 14.8078 12.5681 14.7711 12.5456 14.7099L12.2356 14.835ZM5.11544 15.0246L5.11633 15.0264L5.41166 14.8671L5.41016 14.8641L5.11544 15.0246Z" fill="#1B1B1B"/>
<path fill-rule="evenodd" clip-rule="evenodd" d="M2.78574 14.4939C2.9621 14.6866 2.9489 14.9857 2.75624 15.1621C2.14787 15.719 1.80828 16.2629 1.661 16.7769C1.51497 17.2865 1.54772 17.8015 1.74265 18.325C2.14132 19.3956 3.21883 20.4948 4.79414 21.4939C7.92949 23.4825 12.753 24.8961 16.8346 24.8961C20.9478 24.8961 24.8173 24.0476 27.4764 22.6846C28.8072 22.0026 29.8027 21.2081 30.3873 20.3581C30.9617 19.523 31.1422 18.6347 30.8607 17.6952C30.7857 17.445 30.9278 17.1814 31.178 17.1064C31.4282 17.0315 31.6918 17.1735 31.7667 17.4237C32.1409 18.6726 31.8815 19.8546 31.1666 20.8941C30.4619 21.9188 29.3188 22.8032 27.9079 23.5263C25.0837 24.9739 21.0579 25.8419 16.8346 25.8419C12.5795 25.8419 7.5793 24.3805 4.28755 22.2927C2.6493 21.2536 1.36241 20.0142 0.856281 18.6551C0.598818 17.9637 0.544069 17.2411 0.751758 16.5163C0.958183 15.796 1.41352 15.109 2.11758 14.4644C2.31024 14.2881 2.60938 14.3013 2.78574 14.4939Z" fill="black"/>
</svg>
