<svg width="25" height="25" viewBox="0 0 25 25" fill="none" xmlns="http://www.w3.org/2000/svg">
<path d="M23.2936 10.9191C23.1857 11.752 22.9346 12.5736 22.543 13.3589C22.0045 14.4388 21.209 15.4323 20.1918 16.2772C19.1744 17.1224 17.9577 17.7999 16.6077 18.2644C15.2578 18.7288 13.8065 18.9692 12.3379 18.9692C10.8694 18.9692 9.41808 18.7288 8.06818 18.2644C6.71821 17.7999 5.50146 17.1224 4.48404 16.2773C3.46686 15.4323 2.67134 14.4388 2.13285 13.3589C1.74124 12.5736 1.49014 11.752 1.3823 10.9191L23.2936 10.9191ZM24.2419 10.9171C24.301 10.4006 23.8741 9.9779 23.3543 9.9779L1.32155 9.9779C0.801748 9.9779 0.37489 10.4006 0.433941 10.9171C0.54626 11.8994 0.834384 12.8641 1.29058 13.7789C1.89151 14.984 2.7723 16.0789 3.88266 17.0012C4.99302 17.9236 6.31121 18.6552 7.76197 19.1543C9.21273 19.6535 10.7676 19.9104 12.3379 19.9104C13.9082 19.9104 15.4631 19.6535 16.9139 19.1543C18.3647 18.6552 19.6828 17.9236 20.7932 17.0012C21.9036 16.0789 22.7844 14.984 23.3853 13.7789C23.8415 12.8641 24.1296 11.8994 24.2419 10.9171Z" fill="#1B1B1B"/>
<path d="M16.6323 18.4351C17.1862 18.287 17.5453 18.1746 17.5453 18.1746L18.3114 23.3843C18.4159 24.0945 17.8654 24.7319 17.1475 24.7319H7.72132C7.00343 24.7319 6.45292 24.0945 6.55737 23.3843L7.32351 18.1746C7.32351 18.1746 7.68263 18.287 8.23649 18.4351C9.30457 18.7207 11.0969 19.1389 12.4344 19.1389C13.772 19.1389 15.5642 18.7207 16.6323 18.4351ZM16.7701 19.3723C16.53 19.4356 16.2587 19.5042 15.9672 19.5728C14.9312 19.8168 13.5648 20.0801 12.4344 20.0801C11.304 20.0801 9.93763 19.8168 8.90156 19.5728C8.61012 19.5042 8.33882 19.4356 8.09867 19.3723L7.48853 23.5212C7.46764 23.6633 7.57774 23.7908 7.72132 23.7908H17.1475C17.2911 23.7908 17.4012 23.6633 17.3803 23.5212L16.7701 19.3723Z" fill="#1B1B1B"/>
<path d="M13.665 5.03671C13.7822 5.03671 13.8815 5.12293 13.898 5.23895L14.5325 9.71173H10.1434L10.7779 5.23895C10.7944 5.12293 10.8937 5.03671 11.0109 5.03671H13.665ZM14.8298 5.10676C14.7475 4.52666 14.2509 4.09553 13.665 4.09553H11.0109C10.425 4.09553 9.92836 4.52666 9.84606 5.10676L9.05926 10.6529H15.6166L14.8298 5.10676Z" fill="#1B1B1B"/>
<path d="M6.2511 5.97594C6.2511 6.38538 6.39841 6.82103 6.73968 7.29028C6.89255 7.50047 6.84608 7.79478 6.63589 7.94765C6.4257 8.10051 6.13138 8.05404 5.97852 7.84385C5.54834 7.25235 5.30992 6.62724 5.30992 5.97594C5.30992 5.32463 5.54834 4.69953 5.97852 4.10802C6.31979 3.63877 6.4671 3.20313 6.4671 2.79368C6.4671 2.38424 6.31979 1.94859 5.97852 1.47934C5.82565 1.26915 5.87213 0.974838 6.08231 0.821974C6.2925 0.669108 6.58682 0.715579 6.73968 0.925768C7.16987 1.51727 7.40828 2.14238 7.40828 2.79368C7.40828 3.44499 7.16987 4.07009 6.73968 4.6616C6.39841 5.13085 6.2511 5.56649 6.2511 5.97594Z" fill="#1B1B1B"/>
<path d="M21.1017 5.97594C21.1017 5.56649 21.249 5.13085 21.5903 4.6616C22.0205 4.07009 22.2589 3.44499 22.2589 2.79368C22.2589 2.14237 22.0205 1.51727 21.5903 0.925768C21.4374 0.715579 21.1431 0.669108 20.9329 0.821973C20.7227 0.974838 20.6763 1.26915 20.8291 1.47934C21.1704 1.94859 21.3177 2.38424 21.3177 2.79368C21.3177 3.20313 21.1704 3.63877 20.8291 4.10802C20.3989 4.69953 20.1605 5.32463 20.1605 5.97594C20.1605 6.62724 20.3989 7.25235 20.8291 7.84385C20.982 8.05404 21.2763 8.10051 21.4865 7.94765C21.6967 7.79478 21.7431 7.50047 21.5903 7.29028C21.249 6.82103 21.1017 6.38538 21.1017 5.97594Z" fill="#1B1B1B"/>
<path d="M3.35813 5.97594C3.35813 5.56649 3.50545 5.13085 3.84672 4.6616C4.2769 4.07009 4.51532 3.44499 4.51532 2.79368C4.51532 2.14237 4.2769 1.51727 3.84672 0.925768C3.69385 0.715579 3.39954 0.669108 3.18935 0.821973C2.97916 0.974838 2.93269 1.26915 3.08556 1.47934C3.42683 1.94859 3.57414 2.38424 3.57414 2.79368C3.57414 3.20313 3.42683 3.63877 3.08556 4.10802C2.65537 4.69953 2.41696 5.32463 2.41696 5.97594C2.41696 6.62724 2.65537 7.25235 3.08556 7.84385C3.23842 8.05404 3.53273 8.10051 3.74292 7.94765C3.95311 7.79478 3.99958 7.50047 3.84672 7.29028C3.50545 6.82103 3.35813 6.38538 3.35813 5.97594Z" fill="#1B1B1B"/>
<path d="M18.2087 5.97594C18.2087 6.38538 18.356 6.82103 18.6973 7.29028C18.8502 7.50047 18.8037 7.79478 18.5935 7.94765C18.3833 8.10051 18.089 8.05404 17.9362 7.84385C17.506 7.25235 17.2676 6.62724 17.2676 5.97594C17.2676 5.32463 17.506 4.69953 17.9362 4.10802C18.2774 3.63877 18.4247 3.20313 18.4247 2.79368C18.4247 2.38424 18.2774 1.94859 17.9362 1.47934C17.7833 1.26915 17.8298 0.974838 18.04 0.821973C18.2501 0.669108 18.5445 0.715579 18.6973 0.925768C19.1275 1.51727 19.3659 2.14237 19.3659 2.79368C19.3659 3.44499 19.1275 4.07009 18.6973 4.6616C18.356 5.13085 18.2087 5.56649 18.2087 5.97594Z" fill="#1B1B1B"/>
</svg>
