<svg width="32" height="25" viewBox="0 0 32 25" fill="none" xmlns="http://www.w3.org/2000/svg">
<path d="M7.17221 0.620476C6.68343 0.789828 5.68658 1.32452 4.95661 1.80903C4.22688 2.2933 3.22242 3.23544 2.7246 3.90238C2.22677 4.56932 1.59218 5.5683 1.31389 6.1225C0.82391 7.09913 0.810352 7.37884 0.871004 15.2799L0.93356 23.4297L11.5704 23.4915C21.9129 23.5517 22.2143 23.5667 22.4605 24.0267C22.6986 24.4715 22.9645 24.5 26.8731 24.5H31.0322L31.2948 23.9237C31.4497 23.5838 31.488 22.9735 31.3881 22.4371C31.2684 21.7939 30.9135 21.2419 30.1788 20.5559L29.1389 19.585L29.0695 17.465L29.0003 15.345L28.1145 14.9285C27.6274 14.6995 27.0532 14.2445 26.8386 13.917C26.5506 13.4774 26.4895 13.05 26.6046 12.2817L26.7606 11.2418L25.6896 10.9721C24.9387 10.783 24.4204 10.454 23.9556 9.87154C23.5912 9.41487 23.1714 8.5643 23.0228 7.9818C22.8741 7.3993 22.8113 6.86389 22.8834 6.79182C22.9554 6.71999 23.1973 6.661 23.4212 6.661C23.645 6.661 23.9551 6.50782 24.1105 6.32087C24.3374 6.04758 24.2865 5.92365 23.8514 5.69103C23.5539 5.53167 19.8791 4.2563 15.6857 2.85701C8.34055 0.406171 8.02825 0.324111 7.17221 0.620476ZM15.3237 3.67856C19.3137 5.04312 22.4517 6.16531 22.2968 6.17245C22.1422 6.17958 21.9477 6.39936 21.8647 6.661C21.7167 7.12672 21.5048 7.13671 11.725 7.13671H1.73631L2.36805 5.97598C2.71556 5.33782 3.49809 4.32552 4.10724 3.72684C4.71662 3.12793 5.80361 2.31423 6.52311 1.91844C7.24262 1.52289 7.88482 1.1987 7.95023 1.19822C8.01564 1.19798 11.3337 2.31423 15.3237 3.67856ZM22.3256 8.68775C22.412 9.14847 22.8244 9.9146 23.2421 10.3901C23.6595 10.8658 24.3769 11.4254 24.8357 11.634C25.5621 11.9639 25.6736 12.1278 25.6967 12.8961C25.7112 13.3818 25.9063 14.0587 26.1303 14.4007C26.3544 14.7428 26.9045 15.2389 27.3529 15.5034C28.1604 15.9801 28.1678 15.9996 28.1678 17.6914V19.3988L27.2318 19.3096C26.7169 19.2603 25.8875 19.351 25.3885 19.511C24.8894 19.6709 24.1219 20.0702 23.6828 20.3985C23.2437 20.7265 22.7338 21.3553 22.5497 21.7961L22.215 22.5972H11.9906H1.76605V15.2237V7.85027H11.9673H22.1684L22.3256 8.68775ZM4.78964 10.7074C4.45498 10.9707 4.11247 11.498 4.02875 11.8793C3.93408 12.3103 4.01305 12.8366 4.2371 13.27C4.43547 13.6537 4.91618 14.0994 5.30507 14.2604C5.69467 14.4217 6.26076 14.478 6.56498 14.3855C6.86895 14.2932 7.35869 13.9971 7.65292 13.7279C8.03134 13.3813 8.18809 12.9684 8.18809 12.3172C8.18809 11.6566 8.02302 11.2314 7.60416 10.8127C7.21265 10.421 6.75336 10.2288 6.20915 10.2288C5.75651 10.2288 5.12905 10.4403 4.78964 10.7074ZM6.99882 11.4181C7.26046 11.6797 7.47453 12.0305 7.47453 12.1975C7.47453 12.3647 7.30779 12.7393 7.10419 13.03C6.90059 13.3209 6.50765 13.5587 6.23103 13.5587C5.95441 13.5587 5.53245 13.3815 5.29317 13.1651C5.05389 12.9487 4.85814 12.5265 4.85814 12.2272C4.85814 11.9278 5.09599 11.5163 5.38689 11.3127C5.67754 11.1091 6.05216 10.9424 6.21937 10.9424C6.38635 10.9424 6.73718 11.1564 6.99882 11.4181ZM17.7205 12.7474C17.1304 13.2441 16.9887 13.5454 16.9887 14.3042C16.9887 14.9863 17.1495 15.4062 17.5726 15.8291C17.9641 16.2208 18.4234 16.413 18.9676 16.413C19.4164 16.413 20.0467 16.2022 20.3788 15.9411C20.7087 15.6816 21.0505 15.1833 21.138 14.8341C21.2258 14.4849 21.1692 13.8894 21.0124 13.5109C20.8557 13.1325 20.4266 12.6673 20.0591 12.4772C19.6916 12.2872 19.1795 12.1316 18.9215 12.1316C18.6634 12.1316 18.123 12.4087 17.7205 12.7474ZM19.944 13.5392C20.1711 13.7899 20.3215 14.2421 20.2782 14.5442C20.2351 14.846 19.9388 15.2225 19.62 15.3807C19.2319 15.5736 18.9 15.5933 18.6146 15.4406C18.3806 15.3153 18.0718 14.994 17.9287 14.7266C17.7274 14.3508 17.7545 14.1089 18.0476 13.6617C18.269 13.3237 18.6565 13.083 18.979 13.083C19.2828 13.083 19.7171 13.2883 19.944 13.5392ZM10.1661 14.2559C9.57215 14.5273 9.02081 15.0011 8.79842 15.4311C8.59363 15.8274 8.42642 16.5048 8.42689 16.9363C8.42737 17.368 8.64381 18.0756 8.90783 18.5085C9.17399 18.9452 9.77338 19.457 10.2536 19.6575C10.7954 19.884 11.42 19.9629 11.9238 19.8683C12.3662 19.7853 13.0553 19.4254 13.4549 19.0684C14.0031 18.5784 14.211 18.1538 14.3033 17.3366C14.3865 16.5971 14.3021 16.016 14.0371 15.5032C13.8235 15.0903 13.4102 14.6015 13.1185 14.4169C12.8269 14.2321 12.2673 14.018 11.8748 13.9412C11.4169 13.8513 10.8047 13.964 10.1661 14.2559ZM12.4554 15.0977C12.8348 15.2936 13.2477 15.7805 13.3961 16.2065C13.6126 16.8276 13.585 17.1213 13.2437 17.818C13.0039 18.3075 12.5622 18.7611 12.2054 18.8838C11.8641 19.0015 11.3052 19.0275 10.9634 18.9418C10.6216 18.856 10.1249 18.5527 9.85972 18.268C9.55432 17.9402 9.37735 17.4258 9.37735 16.8649C9.37735 16.1682 9.53339 15.8483 10.1092 15.3638C10.5117 15.0251 11.0521 14.748 11.3101 14.748C11.5682 14.748 12.0836 14.9052 12.4554 15.0977ZM28.8062 20.6808C29.4025 20.9517 29.9505 21.4215 30.1738 21.8532C30.3786 22.2494 30.5463 22.7929 30.5463 23.061C30.5463 23.5315 30.4176 23.5486 26.8596 23.5486H23.1728V22.9723C23.1728 22.6552 23.4618 22.0523 23.8151 21.6324C24.1685 21.2126 24.7838 20.7269 25.1827 20.5533C25.5818 20.3794 26.3363 20.2355 26.8596 20.2331C27.3829 20.231 28.2589 20.4325 28.8062 20.6808Z" fill="#1B1B1B"/>
</svg>
