<svg width="31" height="31" viewBox="0 0 31 31" fill="none" xmlns="http://www.w3.org/2000/svg">
<path d="M14.3222 9.85408L14.4785 9.80197C15.9965 9.29597 17.67 9.74331 18.733 10.9392L20.6339 13.0777C21.7499 14.3332 21.6938 16.2409 20.506 17.4287L15.8703 23.1179C15.5177 23.5507 15.0784 23.9048 14.5807 24.1576L13.5521 24.68C13.0263 24.9471 12.5782 25.3452 12.2511 25.8358C11.0502 27.6372 8.50155 27.8895 6.97072 26.3587L5.1292 24.5172C3.81212 23.2001 3.57844 21.1483 4.56563 19.5688L5.51435 18.0508C6.08071 17.1446 7.00645 16.5228 8.05951 16.3412C9.23564 16.1383 10.2452 15.3883 10.779 14.3208L12.0094 11.86C12.4838 10.9111 13.3157 10.1896 14.3222 9.85408Z" stroke="black" stroke-width="0.85" stroke-linecap="round"/>
<path d="M19.9163 9.78752V9.78752C21.1254 9.39998 22.4494 9.76211 23.2929 10.7111L25.5585 13.2598C26.6744 14.5153 26.6184 16.423 25.4306 17.6108V17.6108L20.7949 23.3C20.4423 23.7328 20.003 24.087 19.5053 24.3397L18.3961 24.9031C17.9231 25.1433 17.52 25.5014 17.2258 25.9428L16.6133 26.8615C15.7474 28.1604 13.864 28.2306 12.9038 26.9999V26.9999" stroke="black" stroke-width="0.85" stroke-linecap="round"/>
<path d="M23.1044 9.14995V9.14995C24.1561 7.74774 23.8566 5.75611 22.4391 4.72518L20.1663 3.07223C18.8577 2.12055 17.1047 2.05095 15.7248 2.89588L15.3704 3.11292C14.9021 3.39965 14.4979 3.77972 14.1829 4.22946L12.1435 7.1412C11.805 7.62438 11.3639 8.02673 10.8517 8.31942L7.75039 10.0916C7.36421 10.3123 7.01753 10.5958 6.72464 10.9306L3.89195 14.1679C3.22378 14.9315 3.26211 16.0824 3.97958 16.7999V16.7999" stroke="black" stroke-width="0.85" stroke-linecap="round" stroke-linejoin="round"/>
<path d="M7.80322 26.9997L8.2363 25.5063C8.56335 24.3785 9.37848 23.4566 10.4577 22.9939V22.9939C11.4257 22.5789 12.1862 21.792 12.5678 20.8103L13.5803 18.2058L13.8004 17.3941C14.2855 15.6049 16.0401 14.4681 17.8713 14.7564V14.7564M20.5531 14.2498L19.6357 15.5269C19.2125 16.1161 18.5964 16.5385 17.8943 16.721V16.721C16.9759 16.9596 16.217 17.6049 15.8339 18.4729L14.653 21.1486" stroke="black" stroke-width="0.85" stroke-linecap="round"/>
</svg>
