<svg width="30" height="25" viewBox="0 0 30 25" fill="none" xmlns="http://www.w3.org/2000/svg">
<path d="M6.06638 1.24326C5.18902 1.68169 4.01797 2.57489 3.21038 3.42157C2.45747 4.21085 1.55017 5.43138 1.19413 6.13406L0.546875 7.4115V15.9558V24.5H15.1448H29.7428V20.1968V15.8939L29.1029 15.7333C28.7511 15.645 28.1944 15.3038 27.8658 14.9755C27.4427 14.5524 27.2685 14.1023 27.2685 13.4323C27.2685 12.912 27.4501 12.2271 27.6721 11.9104C27.894 11.5934 28.4507 11.1775 28.9092 10.986C29.7299 10.6431 29.7428 10.6139 29.7428 9.08755V7.5372L18.9999 4.0186C13.0912 2.08326 8.09871 0.5 7.90547 0.5C7.71199 0.5 6.88436 0.834515 6.06638 1.24326ZM17.1665 4.34198C21.9742 5.91089 26.019 7.23806 26.1551 7.29151C26.2912 7.34495 20.8054 7.39765 13.9646 7.40829L1.52642 7.42783L2.05368 6.39435C2.34366 5.82602 3.13813 4.772 3.81904 4.052C4.49995 3.332 5.623 2.46082 6.31455 2.11616C7.00609 1.77175 7.76395 1.48969 7.99875 1.48969C8.23331 1.48969 12.3591 2.77332 17.1665 4.34198ZM28.995 9.22165C28.9908 9.88301 28.8483 10.0916 28.1934 10.3969C27.7552 10.601 27.1453 11.1463 26.8378 11.6088C26.5156 12.0932 26.2793 12.8271 26.2798 13.3407C26.2803 13.8309 26.5023 14.5952 26.7729 15.0393C27.0436 15.4834 27.6555 16.0327 28.1328 16.2603L29.0005 16.674V20.0922V23.5103H15.1448H1.28914V15.9639V8.41753H15.1448H29.0005L28.995 9.22165ZM5.46762 11.0155C5.11207 11.2085 4.68824 11.688 4.52543 12.0809C4.36288 12.4738 4.30424 13.0923 4.39553 13.4555C4.48659 13.8188 4.84213 14.3371 5.18531 14.6071C5.52873 14.877 6.16782 15.0979 6.60601 15.0979C7.10852 15.0979 7.6442 14.874 8.05714 14.4913C8.55273 14.032 8.71182 13.6463 8.71182 12.905C8.71182 12.115 8.56461 11.8015 7.9505 11.2849C7.53187 10.9326 6.94745 10.6488 6.65154 10.6542C6.35587 10.6597 5.82316 10.8222 5.46762 11.0155ZM19.3701 11.7798C18.7644 12.2892 18.6087 12.6138 18.6087 13.366C18.6087 14.1181 18.7644 14.4428 19.3701 14.9522C19.7907 15.3063 20.4399 15.5928 20.8212 15.5928C21.2005 15.5928 21.7958 15.3689 22.1439 15.095C22.492 14.8211 22.8483 14.2725 22.9354 13.8759C23.0361 13.4174 22.9485 12.8739 22.6952 12.3837C22.4757 11.9596 22.016 11.5061 21.6736 11.376C21.3311 11.2458 20.8439 11.1392 20.5911 11.1392C20.3382 11.1392 19.7887 11.4274 19.3701 11.7798ZM7.6051 12.1363C7.96461 12.5336 8.01063 12.7793 7.82457 13.3115C7.63999 13.8398 7.40642 14.0021 6.73888 14.0659C6.14259 14.1228 5.79273 14.0165 5.56807 13.7094C5.39191 13.4684 5.24791 13.078 5.24791 12.8414C5.24791 12.6052 5.42283 12.2367 5.63661 12.0227C5.85063 11.8089 6.27867 11.634 6.58795 11.634C6.89747 11.634 7.35521 11.8602 7.6051 12.1363ZM21.9351 12.9461C22.0986 13.4142 22.0919 13.776 21.9145 14.0595C21.7698 14.2904 21.3079 14.5138 20.8877 14.5558C20.2934 14.6152 20.0317 14.4915 19.709 13.9991C19.3208 13.4068 19.3208 13.3252 19.709 12.7328C20.0346 12.2358 20.2922 12.1162 20.9083 12.1761C21.5117 12.235 21.7485 12.4127 21.9351 12.9461ZM10.9134 15.4146C10.3557 15.7887 9.9623 16.3252 9.74481 17.0071C9.45187 17.9257 9.46819 18.1511 9.89698 19.1205C10.2357 19.8861 10.6348 20.328 11.2519 20.6209C11.7331 20.8493 12.3715 21.0361 12.6706 21.0361C12.9697 21.0361 13.5865 20.8594 14.0413 20.6437C14.4963 20.4277 15.0273 20.0085 15.2215 19.7121C15.4157 19.4157 15.6513 18.8244 15.7451 18.3983C15.8524 17.9087 15.779 17.2973 15.5449 16.7371C15.3413 16.2499 14.8061 15.6264 14.3555 15.3518C13.9052 15.0772 13.1355 14.852 12.6453 14.8515C12.127 14.851 11.4023 15.0866 10.9134 15.4146ZM14.0893 16.2403C14.3934 16.4318 14.7116 16.8658 14.7967 17.2042C14.8816 17.5427 14.8806 18.1007 14.7942 18.4443C14.7079 18.788 14.4176 19.289 14.1489 19.5577C13.8332 19.8734 13.3263 20.0464 12.7174 20.0464C12.1119 20.0464 11.5814 19.8668 11.2358 19.5446C10.9396 19.2687 10.6242 18.7521 10.5348 18.3966C10.4458 18.041 10.4735 17.4596 10.5964 17.1045C10.7211 16.7445 11.2011 16.268 11.6809 16.028C12.1545 15.791 12.7656 15.6633 13.0392 15.7445C13.3126 15.8254 13.7852 16.0485 14.0893 16.2403ZM22.2347 18.2721C22.0096 18.521 21.8252 18.9637 21.8252 19.2561C21.8252 19.5523 22.1036 19.9699 22.4539 20.1995C22.948 20.5232 23.2083 20.5541 23.6695 20.344C23.9924 20.1968 24.3311 19.8415 24.4222 19.5545C24.5224 19.2388 24.4308 18.7927 24.1906 18.426C23.9578 18.0705 23.5555 17.8196 23.2187 17.8196C22.9028 17.8196 22.4599 18.0232 22.2347 18.2721ZM23.5572 19.1804C23.5572 19.3845 23.3902 19.5515 23.1861 19.5515C22.9819 19.5515 22.8149 19.3845 22.8149 19.1804C22.8149 18.9763 22.9819 18.8093 23.1861 18.8093C23.3902 18.8093 23.5572 18.9763 23.5572 19.1804Z" fill="#1B1B1B"/>
</svg>
