<svg width="27" height="27" viewBox="0 0 27 27" fill="none" xmlns="http://www.w3.org/2000/svg">
<path d="M19.3873 1.05513C19.5429 0.668329 19.9472 0.442453 20.3582 0.512749L25.783 1.44068C25.9896 1.47602 26.1285 1.67216 26.0931 1.87877C26.0578 2.08538 25.8617 2.22423 25.655 2.18889L20.2302 1.26096C20.1715 1.25091 20.1138 1.28318 20.0915 1.33844L18.2944 5.80567H22.8105C23.5577 5.80567 23.9691 6.67413 23.4957 7.2523L15.2164 17.3639C14.8583 17.8012 14.1878 17.7957 13.8369 17.3527L5.82908 7.24107C5.36933 6.66053 5.78278 5.80567 6.52333 5.80567H17.4762L19.3873 1.05513ZM17.1708 6.56475H6.52333C6.41754 6.56475 6.35847 6.68687 6.42415 6.7698L8.27165 9.10266H14.1412C14.3508 9.10266 14.5208 9.27259 14.5208 9.4822C14.5208 9.69182 14.3508 9.86174 14.1412 9.86174H8.87279L14.432 16.8814C14.4821 16.9447 14.5779 16.9455 14.6291 16.883L20.378 9.86174H16.6626L14.8767 14.301C14.7985 14.4954 14.5774 14.5897 14.3829 14.5114C14.1885 14.4332 14.0943 14.2121 14.1725 14.0177L17.1708 6.56475ZM16.968 9.10266H20.9995L22.9083 6.77141C22.976 6.68881 22.9172 6.56475 22.8105 6.56475H17.989L16.968 9.10266Z" fill="#1B1B1B"/>
<path d="M14.5247 17.1534C14.7343 17.1534 14.9042 17.3233 14.9042 17.533V25.7409H19.4318C19.6414 25.7409 19.8114 25.9109 19.8114 26.1205C19.8114 26.3301 19.6414 26.5 19.4318 26.5H9.54085C9.33123 26.5 9.16131 26.3301 9.16131 26.1205C9.16131 25.9109 9.33123 25.7409 9.54085 25.7409H14.1451V17.533C14.1451 17.3233 14.3151 17.1534 14.5247 17.1534Z" fill="#1B1B1B"/>
<path d="M5.01707 1.96433C6.61521 1.96433 7.99879 2.88594 8.66406 4.2284C8.75713 4.41622 8.98484 4.49302 9.17265 4.39995C9.36047 4.30687 9.43727 4.07917 9.3442 3.89135C8.55578 2.30037 6.91466 1.20526 5.01707 1.20526C2.35139 1.20526 0.19043 3.36622 0.19043 6.0319C0.19043 8.69758 2.35139 10.8585 5.01707 10.8585C5.93018 10.8585 6.78514 10.6046 7.51389 10.1633C7.69319 10.0548 7.75052 9.82138 7.64195 9.64208C7.53338 9.46278 7.30001 9.40545 7.1207 9.51402C6.50719 9.88553 5.78769 10.0995 5.01707 10.0995C2.77062 10.0995 0.949504 8.27835 0.949504 6.0319C0.949504 3.78545 2.77062 1.96433 5.01707 1.96433Z" fill="#1B1B1B"/>
<path d="M4.25911 1.36469C4.46534 1.3272 4.66292 1.46398 4.70042 1.67021L5.16046 4.20046C5.19796 4.40669 5.06117 4.60427 4.85494 4.64177C4.64871 4.67927 4.45113 4.54248 4.41363 4.33625L3.95359 1.806C3.91609 1.59977 4.05288 1.40219 4.25911 1.36469ZM8.2819 2.85618C8.42664 3.00781 8.42105 3.24805 8.26943 3.39278L6.58259 5.00294C6.43097 5.14767 6.19072 5.14209 6.04599 4.99046C5.90126 4.83884 5.90685 4.59859 6.05847 4.45386L7.7453 2.8437C7.89693 2.69897 8.13717 2.70456 8.2819 2.85618ZM0.857014 3.69122C0.964029 3.51098 1.19689 3.45162 1.37713 3.55864L3.8307 5.01545C4.01094 5.12246 4.0703 5.35533 3.96328 5.53556C3.85627 5.7158 3.6234 5.77516 3.44317 5.66814L0.989592 4.21133C0.809356 4.10432 0.749998 3.87145 0.857014 3.69122ZM3.75281 6.64239C3.83909 6.83343 3.75416 7.05823 3.56312 7.1445L1.18622 8.21794C0.99519 8.30422 0.770387 8.21929 0.684113 8.02826C0.597839 7.83722 0.682765 7.61242 0.8738 7.52614L3.2507 6.45271C3.44173 6.36643 3.66654 6.45136 3.75281 6.64239ZM4.69798 7.51965C4.50336 7.4418 4.28248 7.53647 4.20463 7.73109L3.28454 10.0313C3.2067 10.2259 3.30136 10.4468 3.49598 10.5247C3.6906 10.6025 3.91148 10.5078 3.98933 10.3132L4.90942 8.013C4.98726 7.81838 4.8926 7.5975 4.69798 7.51965Z" fill="#1B1B1B"/>
</svg>
