<svg width="24" height="27" viewBox="0 0 24 27" fill="none" xmlns="http://www.w3.org/2000/svg">
<path d="M17.5815 27H6.70803C6.60506 27 6.52269 26.9561 6.46091 26.8683C6.39912 26.7805 6.37853 26.6707 6.39912 26.5829L6.79041 25.0683C5.41062 24.5634 1.70375 22.2805 0.488713 18.7024C0.447526 18.5927 0.46812 18.4829 0.529901 18.3951C0.591682 18.3073 0.674057 18.2634 0.777026 18.2634H23.5125C23.6155 18.2634 23.6979 18.3073 23.7597 18.3951C23.8214 18.4829 23.842 18.5927 23.8009 18.7024C22.9771 21.2707 18.7348 25.0244 17.6021 25.178L17.8699 26.6049C17.8904 26.6927 17.8699 26.8024 17.8081 26.8683C17.7669 26.9561 17.6639 27 17.5815 27ZM7.11991 26.3415H17.2109L16.9843 25.178H7.40822L7.11991 26.3415ZM17.5404 24.5195C18.0758 24.4976 21.9474 21.3585 23.0389 18.922H1.23009C2.63047 22.2805 6.37853 24.3878 7.20228 24.5195H17.5404ZM5.22528 11.8756C5.06053 11.8756 4.91637 11.722 4.91637 11.5463V0.329268C4.91637 0.153659 5.06053 0 5.22528 0C5.39003 0 5.53419 0.153659 5.53419 0.329268V11.5463C5.53419 11.722 5.39003 11.8756 5.22528 11.8756ZM6.46091 8.56098C6.29615 8.56098 6.152 8.40732 6.152 8.23171V0.329268C6.152 0.153659 6.29615 0 6.46091 0C6.62566 0 6.76981 0.153659 6.76981 0.329268V8.23171C6.76981 8.42927 6.62566 8.56098 6.46091 8.56098ZM20.4647 7.70488C20.2381 7.70488 20.0734 7.66098 20.0528 7.66098L10.0648 5.50976C9.65294 6.10244 9.07631 6.3439 8.39672 6.21219C8.23197 6.19024 8.10841 6.01463 8.14959 5.83902C8.17019 5.66341 8.33494 5.53171 8.49969 5.57561C8.99394 5.66341 9.38522 5.46585 9.65294 4.98293C9.71472 4.87317 9.85888 4.80732 9.98244 4.82927L20.1764 7.02439C20.2999 7.06829 20.6294 7.1122 20.8148 6.95854C20.8559 6.93659 20.9589 6.87073 20.9795 6.62927C21.0001 6.45366 20.9589 6.32195 20.8765 6.19024C20.6912 5.94878 20.3205 5.90488 20.3205 5.88293H20.2999L10.209 3.73171C10.0854 3.70976 10.003 3.62195 9.96185 3.49024C9.69413 2.52439 8.99394 2.30488 8.39672 2.21707C8.23197 2.19512 8.10841 2.01951 8.129 1.8439C8.14959 1.66829 8.31434 1.53659 8.47909 1.55854C8.87038 1.60244 10.0442 1.77805 10.4767 3.11707L20.3823 5.22439C20.5059 5.24634 21.0207 5.33415 21.3502 5.77317C21.5355 6.01463 21.6179 6.3439 21.5767 6.69512C21.5355 7.13415 21.309 7.37561 21.1443 7.50732C20.9383 7.66098 20.6706 7.70488 20.4647 7.70488ZM7.69653 7.44146C7.53178 7.44146 7.38762 7.28781 7.38762 7.1122V0.856098C7.38762 0.680488 7.53178 0.526829 7.69653 0.526829C7.86128 0.526829 8.00544 0.680488 8.00544 0.856098V7.1122C8.00544 7.28781 7.86128 7.44146 7.69653 7.44146Z" fill="#1B1B1B"/>
<path d="M3.47472 0.834115C3.5365 0.658505 3.72185 0.592651 3.866 0.658505L4.33966 0.856066C4.50441 0.92192 4.56619 1.11948 4.50441 1.27314C4.44263 1.44875 4.25728 1.5146 4.11313 1.44875L3.63947 1.25119C3.49532 1.20729 3.41294 1.00972 3.47472 0.834115ZM3.24819 2.39265C3.30997 2.21704 3.47472 2.12924 3.63947 2.19509L4.33966 2.4585C4.50441 2.52436 4.58678 2.69997 4.525 2.87558C4.46322 3.05119 4.29847 3.13899 4.13372 3.07314L3.43353 2.80972C3.26878 2.76582 3.18641 2.56826 3.24819 2.39265ZM2.95988 3.95119C3.02166 3.77558 3.18641 3.68777 3.35116 3.73168L4.33966 4.06094C4.50441 4.1268 4.58678 4.30241 4.5456 4.47802C4.48382 4.65363 4.31907 4.74143 4.15432 4.69753L3.16582 4.36826C3.00106 4.32436 2.8981 4.1268 2.95988 3.95119ZM11.7534 14.3122C11.8976 14.1585 12.0417 14.0048 12.2271 13.8951C12.2477 13.8731 12.2477 13.8731 12.2477 13.8731C13.092 13.1487 14.1835 12.6658 15.6044 12.7756C19.0024 13.0609 20.547 15.9366 20.897 17.3195C20.9382 17.4951 21.103 17.6048 21.2677 17.5609C21.4325 17.517 21.5355 17.3414 21.4943 17.1658C21.1236 15.6073 19.4143 12.4244 15.6456 12.117C14.1217 11.9853 12.9273 12.4683 12.0005 13.2146C10.7031 12.4683 9.52929 12.1829 8.47901 12.2268C7.38754 12.2707 6.46082 12.6658 5.67825 13.2366C4.15432 14.3341 3.24819 16.1122 2.98047 17.1439C2.91869 17.2975 3.02166 17.4951 3.18641 17.539C3.33056 17.6048 3.51591 17.4951 3.5571 17.3195C3.78363 16.4195 4.60738 14.7731 6.00775 13.7634C6.68735 13.2805 7.5111 12.9292 8.47901 12.8853C9.34394 12.8414 10.353 13.0609 11.4651 13.6756C11.4033 13.7414 11.3621 13.7853 11.3004 13.8512C10.3324 14.9268 9.77641 16.2658 9.54988 17.1658C9.50869 17.3414 9.61166 17.517 9.77641 17.5609C9.94116 17.6048 10.1059 17.4951 10.1471 17.3195C10.353 16.5073 10.8679 15.278 11.7534 14.3122ZM15.3367 14.3561C14.4306 14.3561 12.5772 15.0366 11.9799 17.3195C11.9388 17.4951 11.774 17.6048 11.6093 17.5609C11.4445 17.517 11.3415 17.3414 11.3827 17.1658C12.0623 14.5317 14.2247 13.7195 15.3367 13.7195C16.387 13.7195 18.8995 14.1805 19.8056 17.1439C19.8674 17.3195 19.7644 17.4951 19.5996 17.5609C19.4349 17.6268 19.2701 17.517 19.2084 17.3414C18.4258 14.7512 16.284 14.3561 15.3367 14.3561ZM6.68735 15.1683C5.96657 15.739 5.5135 16.5731 5.30757 17.3195C5.26638 17.4951 5.08104 17.5829 4.91629 17.539C4.75153 17.4951 4.66916 17.2975 4.71035 17.1219C4.95747 16.2658 5.47232 15.3 6.29607 14.6195C7.14041 13.939 8.27307 13.5658 9.69404 13.8951C9.85879 13.939 9.96176 14.1146 9.92057 14.2902C9.87938 14.4658 9.71463 14.5756 9.54988 14.5317C8.31426 14.2683 7.36694 14.5975 6.68735 15.1683ZM7.86119 16.3317C7.5111 16.5073 7.20219 16.8366 6.99626 17.3634C6.93447 17.539 6.74913 17.6048 6.58438 17.539C6.41963 17.4731 6.35785 17.2756 6.41963 17.1C6.68735 16.4414 7.07863 15.9805 7.59347 15.717C8.10832 15.4536 8.70554 15.4317 9.30276 15.5634C9.46751 15.6073 9.57048 15.7829 9.52929 15.9585C9.4881 16.1341 9.32335 16.2439 9.1586 16.2C8.66435 16.1122 8.23188 16.1341 7.86119 16.3317ZM15.1514 16.3097C14.3688 16.3975 13.7716 16.8585 13.648 17.3414C13.6069 17.517 13.4215 17.6048 13.2568 17.5609C13.092 17.517 13.0096 17.3195 13.0508 17.1439C13.2774 16.3097 14.1835 15.739 15.0896 15.6512C16.0369 15.5634 17.0872 15.9366 17.7256 17.078C17.808 17.2317 17.7668 17.4292 17.6226 17.539C17.4785 17.6268 17.2931 17.5829 17.1902 17.4292C16.6959 16.5073 15.8928 16.2219 15.1514 16.3097Z" fill="#1B1B1B"/>
</svg>
