<svg width="30" height="25" viewBox="0 0 30 25" fill="none" xmlns="http://www.w3.org/2000/svg">
<path d="M7.14622 1.16158C6.52398 1.39763 5.44 2.01296 4.73726 2.52878C4.03477 3.04435 2.97696 4.12241 2.38657 4.92441C1.79618 5.72641 1.19567 6.78891 1.05172 7.28547C0.88381 7.86499 0.8164 11.1488 0.863562 16.4601L0.936898 24.7319H15.3818H29.8267V16.2445V7.75684L26.9871 6.83953C25.4253 6.33482 20.5768 4.75428 16.2127 3.32708L8.27786 0.731934L7.14622 1.16158ZM17.2337 4.59008L26.1229 7.52474L13.9546 7.54795L1.78631 7.57091L2.34929 6.55187C2.65893 5.99136 3.46784 4.95774 4.14687 4.25451C4.82591 3.55153 5.98668 2.67668 6.72621 2.3105C7.46599 1.94432 8.13268 1.64727 8.20774 1.64999C8.28305 1.65295 12.3447 2.97595 17.2337 4.59008ZM29.2094 16.2132V23.8677H15.3818H1.5542V16.2132V8.5586H15.3818H29.2094V16.2132ZM4.18613 9.91864C3.92218 10.1115 3.77057 10.4759 3.81847 10.8024C3.86785 11.1384 4.3533 11.6582 5.04814 12.1187C5.80149 12.618 6.3262 13.2 6.57361 13.8109C6.83461 14.4553 7.20326 14.8474 7.77118 15.0847C8.22231 15.2731 8.90628 15.3674 9.29074 15.2939C9.67544 15.2203 10.0483 15.0082 10.1196 14.8225C10.191 14.6366 10.5224 14.4847 10.8565 14.4847C11.1903 14.4847 11.6654 14.3768 11.9121 14.2447C12.1587 14.1126 12.4247 13.838 12.5027 13.6346C12.5807 13.4308 12.4748 13.0945 12.2671 12.8869C12.0595 12.6792 11.5333 12.5093 11.098 12.5093C10.5276 12.5093 10.1248 12.3024 9.65643 11.7686C9.10554 11.1409 8.82751 11.0278 7.83464 11.0278C6.99289 11.0278 6.44744 10.8663 5.89853 10.4547C5.47827 10.1396 5.02221 9.81617 4.88492 9.73592C4.74763 9.65567 4.43306 9.73789 4.18613 9.91864ZM25.572 11.1831C24.5413 11.8046 24.5129 11.8076 23.4462 11.4002C22.3973 10.9997 22.3222 11.0044 20.9106 11.5644C19.8148 11.9992 19.456 12.2632 19.456 12.634C19.456 12.9461 19.7451 13.2622 20.2454 13.497C20.6795 13.7007 21.0684 14.0783 21.1096 14.3361C21.1509 14.5938 21.3617 14.9156 21.5783 15.0514C21.7951 15.1872 22.2766 15.2218 22.6487 15.1284C23.0208 15.0351 23.5714 14.6929 23.8724 14.3684C24.1732 14.0437 24.747 13.7002 25.1478 13.6052C25.5483 13.5101 26.1364 13.1968 26.455 12.9091C26.7735 12.6212 27.175 12.1081 27.3471 11.7686C27.5192 11.4291 27.6106 11.0125 27.5498 10.8426C27.4893 10.673 27.2545 10.5384 27.0283 10.5436C26.8019 10.5488 26.1466 10.8367 25.572 11.1831ZM8.96184 12.3713C8.96184 12.5671 9.0969 12.8106 9.26209 12.9128C9.42728 13.0148 9.95495 13.1753 10.435 13.2694L11.3076 13.4402L10.5192 13.4686C10.009 13.4869 9.59642 13.6886 9.35024 14.04C9.03196 14.4946 8.86257 14.5447 8.30972 14.3486C7.87069 14.1928 7.50056 13.763 7.20475 13.0649L6.75979 12.0155H7.86082C8.65491 12.0155 8.96184 12.1148 8.96184 12.3713ZM24.1811 12.4214C24.607 12.4958 25.2038 12.4239 25.5073 12.2614C25.8191 12.0945 25.9908 12.0765 25.9024 12.2197C25.8162 12.3592 25.3305 12.6054 24.8231 12.7669C24.3156 12.9284 23.646 13.3254 23.3351 13.6491C23.024 13.9728 22.6405 14.2378 22.4832 14.2378C22.2716 14.2378 22.2741 14.1605 22.4931 13.9415C22.6561 13.7785 22.7894 13.4474 22.7894 13.2054C22.7894 12.9417 22.541 12.7034 22.1689 12.6098C21.8252 12.5237 21.3943 12.5819 21.2032 12.7407C20.9904 12.9172 20.8017 12.936 20.7111 12.7893C20.6301 12.6585 20.8704 12.4353 21.2447 12.2933C21.619 12.1513 22.2585 12.0915 22.666 12.1604C23.0734 12.2293 23.7551 12.3469 24.1811 12.4214ZM14.659 13.9007C14.3776 14.2585 14.1331 14.6753 14.1156 14.8267C14.0983 14.9781 14.0578 15.3568 14.0255 15.668C13.9931 15.9793 13.7422 16.4793 13.4679 16.7791C13.1938 17.0791 12.8921 17.5789 12.7975 17.8902C12.7032 18.2016 12.7 18.896 12.7908 19.4335C12.9163 20.1762 13.0701 20.4108 13.4314 20.4108C13.7687 20.4108 14.0771 20.0251 14.4948 19.0804L15.0833 17.75L16.8991 17.5707C17.8979 17.472 18.9096 17.289 19.1473 17.164C19.3851 17.0389 19.5794 16.8275 19.5794 16.6944C19.5794 16.5611 19.1629 16.2628 18.6535 16.0312C18.1443 15.7998 17.691 15.5892 17.6461 15.5628C17.6014 15.5366 17.7498 15.2326 17.9759 14.8874C18.2024 14.542 18.309 14.1328 18.2135 13.978C18.1177 13.8232 17.7172 13.7437 17.3233 13.8015C16.91 13.8622 16.4917 13.7679 16.3347 13.5785C16.1848 13.3978 15.8616 13.2501 15.6164 13.2501C15.3712 13.2501 14.9403 13.5429 14.659 13.9007ZM16.77 15.8894L17.5875 16.707H16.6243C16.0944 16.707 15.382 16.8129 15.0413 16.9426C14.7005 17.0722 14.2534 17.4887 14.0474 17.8685C13.8415 18.2483 13.6686 18.4458 13.6632 18.3075C13.6578 18.1693 13.9311 17.6475 14.2706 17.1478C14.6102 16.6482 14.8879 16.004 14.8879 15.7161C14.8879 15.4284 15.0124 14.9603 15.1647 14.6758C15.4292 14.1817 15.4527 14.179 15.6969 14.6153C15.8374 14.8662 16.3203 15.4395 16.77 15.8894ZM7.97415 17.9416C7.77044 18.0732 7.12598 18.1826 6.54201 18.1848C5.95829 18.1868 5.17999 18.3438 4.81307 18.5337C4.44589 18.7234 3.94069 19.1053 3.69007 19.3824C3.4387 19.6599 3.31574 20.0177 3.41599 20.1799C3.54192 20.3839 4.05107 20.4266 5.07505 20.3197C6.46719 20.174 6.60102 20.2078 7.39537 20.9054C8.1591 21.576 8.3996 21.6454 9.95816 21.6454C11.5935 21.6454 11.678 21.6173 11.678 21.0711C11.678 20.7553 11.4125 20.2476 11.0883 19.9429C10.7157 19.593 10.5446 19.2128 10.6236 18.9108C10.6923 18.648 10.6108 18.2668 10.4424 18.0638C10.272 17.8586 9.73791 17.6964 9.24036 17.6984C8.74751 17.7006 8.17786 17.81 7.97415 17.9416ZM22.3282 18.0947C22.0245 18.3075 21.8193 18.61 21.8724 18.7671C21.9252 18.9241 21.6533 19.2456 21.2679 19.4812C20.8825 19.717 20.5671 20.0557 20.5671 20.2343C20.5671 20.4128 20.7005 20.6923 20.8634 20.8553C21.0264 21.0182 21.5128 21.1516 21.9445 21.1516C22.3758 21.1516 22.8672 21.3182 23.0363 21.522C23.2055 21.7257 23.6569 21.8923 24.0396 21.8923C24.4226 21.8923 24.8038 21.782 24.887 21.6471C24.9796 21.4978 25.4256 21.5995 26.0317 21.9089C26.8281 22.3151 27.0967 22.3556 27.3881 22.1138C27.5881 21.9479 27.7185 21.5817 27.678 21.3005C27.633 20.9876 27.1723 20.5538 26.4932 20.1851C25.8821 19.8533 25.3031 19.4525 25.2068 19.295C25.1102 19.1372 24.8325 18.7799 24.5895 18.5011C24.3463 18.2221 23.8623 17.9295 23.5139 17.851C23.1294 17.7643 22.663 17.8601 22.3282 18.0947ZM9.27049 18.9369C8.96505 19.0599 8.71492 19.3083 8.71492 19.4893C8.71492 19.67 8.84825 19.9515 9.01122 20.1145C9.17419 20.2775 9.55642 20.4108 9.86088 20.4108C10.1653 20.4108 10.4829 20.5219 10.5668 20.6577C10.6589 20.8066 10.3253 20.9047 9.72581 20.9047C8.98727 20.9047 8.5238 20.7239 7.92106 20.2002C7.47488 19.8128 6.94326 19.4328 6.73955 19.3555C6.53584 19.2784 6.72374 19.2063 7.15709 19.1957C7.59044 19.1851 8.01366 19.0651 8.09761 18.9293C8.18157 18.7935 8.60479 18.6895 9.03813 18.6979C9.75766 18.7122 9.77791 18.733 9.27049 18.9369ZM23.8292 19.0762C24.0043 19.293 24.3779 19.7229 24.6596 20.0315L25.1715 20.593L24.5403 20.815C24.0505 20.9874 23.806 20.9335 23.4472 20.5748C23.1099 20.2375 22.7749 20.1511 22.2082 20.255L21.4314 20.3975L22.1104 20.0259C22.4953 19.8152 22.7894 19.4439 22.7894 19.1683C22.7894 18.9011 22.9517 18.6824 23.1502 18.6824C23.3485 18.6824 23.6539 18.8597 23.8292 19.0762Z" fill="#1B1B1B"/>
</svg>
