<svg width="26" height="23" viewBox="0 0 26 23" fill="none" xmlns="http://www.w3.org/2000/svg">
<path d="M2.86846 6.06642L3.08396 6.24428C3.95262 6.9612 5.57904 6.85314 6.84434 5.52763C7.90592 4.41552 8.1858 2.96092 7.79507 1.96974L7.69339 1.71182L7.53453 1.49858C7.48812 1.43628 7.43786 1.37666 7.38369 1.31991C6.54861 0.445085 4.812 0.46904 3.46044 1.88493C2.23697 3.16663 2.06711 4.86264 2.71083 5.82962L2.86846 6.06642ZM1.41284 11.5468C1.41284 17.4148 6.60671 22.2737 13.1449 22.2737C19.683 22.2737 24.8769 17.4148 24.8769 11.5468C24.8769 10.1217 24.5705 8.7561 24.013 7.50517C23.9126 7.28002 23.8041 7.05859 23.6878 6.8412C23.4945 6.99345 23.2833 7.11481 23.0591 7.20583C21.82 7.7089 20.1842 7.28511 18.9853 6.02914C17.776 4.76223 17.3749 3.02967 17.8748 1.72763C17.875 1.72708 17.8752 1.72654 17.8755 1.726C17.7539 1.67696 17.6312 1.62976 17.5074 1.58442C17.4037 1.54644 17.2992 1.50977 17.194 1.47443C15.9882 1.06932 14.6869 0.839862 13.3252 0.821211C13.2652 0.820385 13.2051 0.81997 13.1449 0.81997C13.085 0.81997 13.0252 0.82038 12.9655 0.821197C11.6253 0.83945 10.3434 1.06194 9.15358 1.45514C8.94455 1.52421 8.73835 1.59856 8.53518 1.67798C8.51369 1.68638 8.49224 1.69484 8.47082 1.70336M8.47142 1.70498C8.98479 3.00953 8.58609 4.75487 7.36972 6.02914C6.1535 7.30324 4.48772 7.72096 3.2425 7.18347C3.02054 7.08766 2.81195 6.96151 2.62164 6.80445C2.50407 7.02211 2.39435 7.24384 2.2928 7.46934C1.72507 8.73001 1.41284 10.1081 1.41284 11.5468M18.6529 1.72799L18.5534 1.98675C18.1722 2.97763 18.4556 4.42232 19.5107 5.52763C20.7596 6.83592 22.3646 6.95893 23.2384 6.27064L23.4562 6.09906L23.6182 5.86773C24.2911 4.90683 24.1358 3.18522 22.8946 1.88493C21.543 0.469039 19.8064 0.445085 18.9714 1.31991C18.9129 1.38116 18.859 1.44578 18.8095 1.51349L18.6529 1.72799ZM24.2134 6.28394L24.2131 6.28436C24.2166 6.29059 24.2202 6.29682 24.2237 6.30306C25.0905 7.84782 25.5863 9.59722 25.6028 11.4517C25.6031 11.4834 25.6032 11.5151 25.6032 11.5468C25.6032 17.8712 20.0266 23 13.1449 23C6.26315 23 0.686523 17.8712 0.686523 11.5468C0.686523 11.5409 0.686528 11.535 0.686538 11.5291C0.689671 9.63043 1.19534 7.8401 2.08781 6.26448C2.09393 6.25368 2.10007 6.24288 2.10623 6.2321L2.10572 6.23134C1.2237 4.90539 1.54691 2.83764 2.93507 1.38342C4.45754 -0.211514 6.68447 -0.464482 7.90907 0.818397C7.98332 0.896181 8.05218 0.977824 8.11569 1.06293C8.11612 1.0635 8.11654 1.06408 8.11697 1.06465C8.14564 1.05302 8.17436 1.04147 8.20313 1.03003C9.71819 0.427549 11.3891 0.0936564 13.1449 0.0936564C14.9238 0.0936564 16.6156 0.436415 18.1465 1.05401C18.172 1.06432 18.1975 1.0747 18.223 1.08516C18.2234 1.0846 18.2238 1.08404 18.2242 1.08348C18.2919 0.99095 18.3658 0.902421 18.446 0.818397C19.6706 -0.464482 21.8975 -0.211514 23.42 1.38342C24.8266 2.85702 25.1398 4.96061 24.2134 6.28394Z" fill="#1B1B1B"/>
<path d="M14.715 11.8292C16.8636 11.8292 18.6054 13.5711 18.6054 15.7197C18.6054 17.2799 17.3406 18.5448 15.7804 18.5448H10.34C8.7798 18.5448 7.51498 17.2799 7.51498 15.7197C7.51498 13.5711 9.2568 11.8292 11.4055 11.8292H14.715ZM11.4055 11.1029C8.85567 11.1029 6.78867 13.1699 6.78867 15.7197C6.78867 17.6811 8.37867 19.2711 10.34 19.2711H15.7804C17.7418 19.2711 19.3318 17.6811 19.3318 15.7197C19.3318 13.1699 17.2648 11.1029 14.715 11.1029H11.4055Z" fill="#1B1B1B"/>
<path d="M11.5346 15.1871C11.5346 15.7755 11.0793 16.2525 10.5176 16.2525C9.95593 16.2525 9.5006 15.7755 9.5006 15.1871C9.5006 14.5987 9.95593 14.1217 10.5176 14.1217C11.0793 14.1217 11.5346 14.5987 11.5346 15.1871Z" fill="#1B1B1B"/>
<path d="M16.6198 15.1871C16.6198 15.7755 16.1644 16.2525 15.6028 16.2525C15.0411 16.2525 14.5858 15.7755 14.5858 15.1871C14.5858 14.5987 15.0411 14.1217 15.6028 14.1217C16.1644 14.1217 16.6198 14.5987 16.6198 15.1871Z" fill="#1B1B1B"/>
<path d="M9.66968 8.79436C9.66968 9.38277 9.21435 9.85977 8.65268 9.85977C8.091 9.85977 7.63567 9.38277 7.63567 8.79436C7.63567 8.20595 8.091 7.72895 8.65268 7.72895C9.21435 7.72895 9.66968 8.20595 9.66968 8.79436Z" fill="#1B1B1B"/>
<path d="M18.6534 8.79438C18.6534 9.3828 18.1981 9.8598 17.6364 9.8598C17.0747 9.8598 16.6194 9.3828 16.6194 8.79438C16.6194 8.20597 17.0747 7.72897 17.6364 7.72897C18.1981 7.72897 18.6534 8.20597 18.6534 8.79438Z" fill="#1B1B1B"/>
</svg>
