<svg width="27" height="27" viewBox="0 0 27 27" fill="none" xmlns="http://www.w3.org/2000/svg">
<path fill-rule="evenodd" clip-rule="evenodd" d="M17.8751 1.80583C17.8219 1.47251 17.5043 1.24865 17.1725 1.31058L14.6306 1.78499L15.5178 6.15206L18.4927 5.67607L17.8751 1.80583ZM13.8441 1.93179L14.7272 6.27857L10.3057 6.98601L9.45872 2.75025L13.8441 1.93179ZM14.8866 7.06324L10.4626 7.77107L11.3158 12.0382L15.7387 11.2577L14.8866 7.06324ZM8.67222 2.89704L9.5151 7.1125L6.59623 7.57952L5.99323 3.99655C5.93892 3.67388 6.15317 3.36719 6.47482 3.30716L8.67222 2.89704ZM9.67208 7.89756L6.729 8.36845L6.93727 9.60597C7.75718 10.1198 9.04718 11.0905 10.5969 12.523L9.67208 7.89756ZM18.6188 6.46608L15.6772 6.93673L16.5268 11.1186L19.2006 10.6468C19.2251 10.5952 19.2459 10.5457 19.2624 10.4987L18.6188 6.46608ZM19.7409 11.3197C19.8289 11.2533 19.887 11.1523 19.8983 11.0406C19.9671 10.9031 20.0223 10.7656 20.0584 10.6314C20.2123 10.0587 20.2801 9.45776 20.2984 8.95364C20.876 9.25785 21.2331 9.59931 21.4401 9.93285C21.7026 10.3558 21.7473 10.8034 21.6495 11.2327C21.55 11.6693 21.3017 12.0869 20.9819 12.4132C20.6589 12.7427 20.293 12.9492 19.985 13.0063C19.6168 13.0745 19.134 13.2543 18.615 13.485C18.0883 13.7191 17.4974 14.0179 16.9039 14.3407C16.4355 14.5955 15.9622 14.8671 15.5142 15.1362C15.8896 14.6511 16.1943 14.3126 16.4746 14.051C16.9347 13.6218 17.3341 13.3931 17.9287 13.0526C18.0125 13.0046 18.1 12.9545 18.1922 12.9012C18.5216 12.7109 18.9273 12.3464 19.2698 11.9505C19.437 11.7573 19.6021 11.5419 19.7409 11.3197ZM18.5295 11.5775L16.6861 11.9028L16.8592 12.7549C17.073 12.62 17.2942 12.4935 17.5336 12.3567L17.5336 12.3567L17.5337 12.3567L17.5354 12.3557C17.6186 12.3082 17.704 12.2594 17.792 12.2085C17.983 12.0982 18.2587 11.8676 18.5295 11.5775ZM16.1825 13.2424C16.1471 13.1959 16.1213 13.1408 16.1089 13.0797L15.898 12.0419L11.0698 12.894C11.0462 12.8981 11.0227 12.9001 10.9995 12.9001C11.9124 13.7664 12.9047 14.7846 13.9368 15.9555C14.7975 14.7002 15.3868 13.9719 15.9289 13.4661C16.0145 13.3862 16.0989 13.312 16.1825 13.2424ZM19.6735 7.99855L18.6651 1.67975C18.541 0.902004 17.7999 0.379658 17.0257 0.524157L6.32805 2.52074C5.57751 2.66082 5.07761 3.37642 5.20432 4.12932L6.08661 9.37178C4.53267 9.26468 3.35276 10.2989 2.65688 11.2401C2.37098 11.6268 2.36272 12.0815 2.53129 12.4566C2.69587 12.8228 3.02734 13.1175 3.43782 13.2468C4.49174 13.5789 5.66901 14.0934 6.89126 14.717C6.88867 14.7537 6.89113 14.7913 6.8992 14.8291L9.15894 25.3924C9.32078 26.149 10.0656 26.6308 10.822 26.4684L21.4728 24.1805C21.7485 24.1213 21.9881 23.9844 22.173 23.7975C22.2888 23.7793 22.3955 23.7106 22.4583 23.601C22.5145 23.5026 22.5245 23.3904 22.4949 23.2896C22.5782 23.0608 22.6028 22.8075 22.5543 22.5514L21.7877 18.5017L20.8454 13.5234C21.1004 13.3789 21.341 13.1897 21.5532 12.9732C21.9599 12.5583 22.2922 12.0129 22.4295 11.4105C22.5684 10.8008 22.5061 10.1334 22.1199 9.51101C21.7372 8.89436 21.0608 8.36047 20.042 7.95918C19.9199 7.91106 19.7822 7.92604 19.6735 7.99855ZM21.7773 22.7694C21.7757 22.7464 21.7727 22.7233 21.7683 22.7002L21.0017 18.6505L20.0839 13.8022C19.8136 13.8598 19.4202 14.0026 18.9399 14.2161C18.4386 14.4389 17.8676 14.7272 17.2862 15.0435C16.2962 15.582 15.2912 16.1933 14.5664 16.6855C15.5436 17.8528 16.272 18.9141 17.2725 20.3718L17.483 20.6785C17.5207 20.7254 17.5484 20.7816 17.562 20.8444C17.6088 21.0603 17.4716 21.2733 17.2557 21.32C17.0929 21.3553 16.9216 21.4 16.7463 21.4514C17.0383 21.4662 17.3371 21.4922 17.6402 21.5299C18.9791 21.696 20.4287 22.0914 21.7773 22.7694ZM16.29 20.7545C14.8161 19.6333 12.7941 18.2014 10.6485 16.863C9.70565 16.2749 8.74288 15.7074 7.79519 15.1932L9.77762 24.4603C10.0494 24.174 10.3957 23.8093 10.8448 23.4403C11.4927 22.908 12.3821 22.3353 13.7154 21.7999L13.7249 21.7952L13.7897 21.764C13.8459 21.7372 13.9273 21.6987 14.0291 21.6517C14.2326 21.5577 14.5185 21.4293 14.8488 21.2912C15.275 21.113 15.7844 20.9148 16.29 20.7545ZM9.9951 25.3757C10.1164 25.6101 10.3835 25.7443 10.654 25.6862L21.2623 23.4075C20.0498 22.8222 18.7503 22.4737 17.5417 22.3238C16.1115 22.1463 14.8442 22.2511 14.0186 22.5402C12.7553 23.047 11.9358 23.5793 11.3527 24.0584C10.9423 24.3956 10.6602 24.6933 10.4012 24.9667C10.2794 25.0952 10.1628 25.2184 10.0402 25.3377C10.0259 25.3517 10.0108 25.3643 9.9951 25.3757ZM6.42038 10.2269C5.08405 9.93062 4.00638 10.7605 3.30015 11.7157C3.20501 11.8444 3.19738 11.9871 3.261 12.1287C3.32862 12.2792 3.47743 12.4205 3.67826 12.4838C5.89514 13.1824 8.58017 14.63 11.0719 16.1842C12.6444 17.1651 14.1508 18.1953 15.4291 19.1204C14.8686 18.3351 14.3351 17.6365 13.6738 16.8709C10.5112 13.2093 7.70683 11.011 6.42038 10.2269Z" fill="#1B1B1B"/>
</svg>
