<svg width="26" height="25" viewBox="0 0 26 25" fill="none" xmlns="http://www.w3.org/2000/svg">
<path d="M10.9474 16.0479C11.124 15.9517 11.3452 16.017 11.4413 16.1936L13.6629 20.2747L13.6692 20.2892C14.0534 21.169 14.2001 21.917 14.079 22.5597C13.9546 23.2195 13.5603 23.7076 12.9978 24.0826C12.4128 24.4726 11.7072 24.612 10.9999 24.4034C10.2969 24.1961 9.63646 23.6589 9.09935 22.78L9.09632 22.775L6.80582 18.7437C6.70647 18.5689 6.76768 18.3466 6.94254 18.2472C7.1174 18.1479 7.3397 18.2091 7.43905 18.3839L9.72377 22.405C10.1925 23.17 10.7204 23.5617 11.2059 23.7049C11.6882 23.8471 12.1722 23.7577 12.5938 23.4767C13.0378 23.1806 13.284 22.8452 13.3632 22.4248C13.4452 21.9899 13.3599 21.4053 13.008 20.595L10.8017 16.5418C10.7055 16.3652 10.7708 16.144 10.9474 16.0479Z" fill="#1B1B1B"/>
<path d="M18.7744 11.155C18.9748 11.1722 19.1233 11.3487 19.106 11.549L18.7432 11.5178L18.3804 11.4866C18.3976 11.2862 18.5741 11.1378 18.7744 11.155ZM18.7432 11.5178C18.3804 11.4866 18.3804 11.4866 18.3804 11.4866L18.2907 12.5305C18.2355 13.1725 18.1597 14.0545 18.0774 15.0148C17.9128 16.9353 17.7219 19.1692 17.6167 20.4216C17.5151 21.6324 17.1968 22.1812 16.8417 22.4455C16.475 22.7184 15.9733 22.7656 15.3031 22.7346C14.7602 22.7095 14.3439 22.5599 14.0572 22.2787C13.9137 22.1378 13.6831 22.14 13.5423 22.2836C13.4014 22.4271 13.4036 22.6577 13.5472 22.7985C14.0041 23.2468 14.6174 23.4319 15.2694 23.4621C15.946 23.4934 16.6858 23.4694 17.2766 23.0297C17.8789 22.5813 18.2339 21.7758 18.3425 20.4825C18.4476 19.2309 18.6385 16.9976 18.8031 15.077C18.8854 14.1168 18.9611 13.2348 19.0163 12.5928L19.106 11.549C19.106 11.549 19.106 11.549 18.7432 11.5178ZM13.6365 14.2654C13.8374 14.2749 13.9925 14.4454 13.983 14.6463L13.7078 20.4684C13.6984 20.6693 13.5278 20.8245 13.3269 20.815C13.126 20.8055 12.9709 20.635 12.9804 20.4341L13.2555 14.6119C13.265 14.411 13.4356 14.2559 13.6365 14.2654Z" fill="#1B1B1B"/>
<path d="M14.4308 10.9913C15.0592 11.7271 15.4908 12.4919 15.6521 13.1156C15.77 13.5718 15.4982 13.9625 15.1749 14.1482L3.37766 20.9267C3.29412 20.9747 3.15466 21.0443 2.98195 21.0445C2.62739 21.045 2.30924 20.8492 2.05117 20.5978C1.78703 20.3405 1.5428 19.9845 1.33039 19.5682C0.904707 18.7339 0.578848 17.6026 0.489317 16.3743C0.310143 13.9162 1.07818 10.9846 4.01143 9.28141C7.08398 7.49738 9.85233 7.85637 11.9198 8.96558C12.9468 9.51655 13.7979 10.2504 14.4308 10.9913ZM11.5755 9.60736C9.71 8.60652 7.21152 8.2655 4.37714 9.91125C1.75985 11.4309 1.04959 14.0425 1.2157 16.3213C1.2988 17.4615 1.60148 18.497 1.97913 19.2372C2.1684 19.6081 2.36955 19.8912 2.55935 20.0761C2.74878 20.2606 2.89004 20.3129 2.97274 20.3161C2.98019 20.3134 2.9934 20.3075 3.01482 20.2952L14.8121 13.5168C14.871 13.4829 14.9115 13.4384 14.9326 13.3978C14.9521 13.3602 14.9548 13.3282 14.9469 13.2979C14.8224 12.8164 14.4614 12.1486 13.8769 11.4643C13.2969 10.7851 12.515 10.1114 11.5755 9.60736Z" fill="#1B1B1B"/>
<path d="M25.8059 9.26039C25.877 10.3657 25.7454 11.3565 25.4612 12.02C25.2774 12.4492 24.8311 12.6008 24.4586 12.5569L14.0543 11.3306C13.8546 11.3071 13.7117 11.1261 13.7353 10.9264C13.7588 10.7266 13.9398 10.5838 14.1396 10.6073L24.5439 11.8336C24.6917 11.851 24.7693 11.7857 24.7917 11.7333C25.0152 11.2114 25.1459 10.346 25.0791 9.30713C25.0127 8.27594 24.7535 7.10484 24.228 5.98116C23.1834 3.74783 21.0836 1.68869 17.2889 1.27661C14.6249 0.987319 12.587 2.03349 11.1532 3.51893C9.70939 5.01481 8.89124 6.94541 8.6929 8.36563C8.66508 8.56481 8.48106 8.70373 8.28188 8.67591C8.0827 8.6481 7.94378 8.46408 7.97159 8.2649C8.19085 6.69491 9.07656 4.62175 10.6292 3.01313C12.192 1.39407 14.4432 0.235003 17.3675 0.552559C21.4389 0.994683 23.7458 3.23116 24.8877 5.67261C25.4553 6.88631 25.7343 8.14739 25.8059 9.26039Z" fill="#1B1B1B"/>
<path d="M4.36076 9.10303C4.48157 8.94224 4.70985 8.90983 4.87064 9.03063C5.51376 9.51382 5.93088 10.2842 5.93088 11.1519C5.93088 12.6164 4.74364 13.8037 3.2791 13.8037C2.46001 13.8037 1.72743 13.4319 1.24157 12.8492C1.11278 12.6947 1.13359 12.4651 1.28806 12.3363C1.44252 12.2075 1.67215 12.2283 1.80095 12.3828C2.15435 12.8066 2.68517 13.0754 3.2791 13.0754C4.34141 13.0754 5.20258 12.2142 5.20258 11.1519C5.20258 10.5229 4.90107 9.96446 4.43316 9.61291C4.27237 9.4921 4.23996 9.26382 4.36076 9.10303Z" fill="#1B1B1B"/>
<path d="M2.36398 17.647C1.99706 17.647 1.65516 17.7493 1.36404 17.9269C1.19235 18.0316 0.968259 17.9774 0.86353 17.8057C0.758802 17.634 0.81309 17.4099 0.984786 17.3051C1.38689 17.0599 1.8595 16.9187 2.36398 16.9187C3.82853 16.9187 5.01577 18.1059 5.01577 19.5704C5.01577 19.7716 4.85274 19.9346 4.65162 19.9346C4.4505 19.9346 4.28747 19.7716 4.28747 19.5704C4.28747 18.5081 3.42629 17.647 2.36398 17.647Z" fill="#1B1B1B"/>
<path d="M8.45742 16.0371C7.39511 16.0371 6.53394 16.8983 6.53394 17.9606C6.53394 18.2348 6.5911 18.4948 6.69383 18.7299L6.02644 19.0215C5.8843 18.6961 5.80563 18.3371 5.80563 17.9606C5.80563 16.4961 6.99288 15.3088 8.45742 15.3088C9.37207 15.3088 10.1784 15.7722 10.6545 16.4754L10.0515 16.8837C9.70503 16.3721 9.12028 16.0371 8.45742 16.0371Z" fill="#1B1B1B"/>
<path d="M9.79264 13.6449C8.93145 13.6449 8.23332 12.9468 8.23332 12.0856C8.23332 11.2244 8.93145 10.5263 9.79264 10.5263C10.6538 10.5263 11.352 11.2244 11.352 12.0856C11.352 12.9468 10.6538 13.6449 9.79264 13.6449ZM9.79264 14.3732C11.0561 14.3732 12.0803 13.349 12.0803 12.0856C12.0803 10.8222 11.0561 9.79797 9.79264 9.79797C8.52922 9.79797 7.50501 10.8222 7.50501 12.0856C7.50501 13.349 8.52922 14.3732 9.79264 14.3732Z" fill="#1B1B1B"/>
<path d="M13.4362 7.40397C12.7266 7.40397 12.1514 6.82874 12.1514 6.11916C12.1514 5.40957 12.7266 4.83434 13.4362 4.83434C14.1458 4.83434 14.721 5.40957 14.721 6.11916C14.721 6.82874 14.1458 7.40397 13.4362 7.40397ZM13.4362 8.13228C14.548 8.13228 15.4493 7.23097 15.4493 6.11916C15.4493 5.00734 14.548 4.10604 13.4362 4.10604C12.3244 4.10604 11.4231 5.00734 11.4231 6.11916C11.4231 7.23097 12.3244 8.13228 13.4362 8.13228Z" fill="#1B1B1B"/>
<path d="M18.7435 9.41711C18.0339 9.41711 17.4586 8.84188 17.4586 8.1323C17.4586 7.42272 18.0339 6.84749 18.7435 6.84749C19.453 6.84749 20.0283 7.42272 20.0283 8.1323C20.0283 8.84188 19.453 9.41711 18.7435 9.41711ZM18.7435 10.1454C19.8553 10.1454 20.7566 9.24411 20.7566 8.1323C20.7566 7.02048 19.8553 6.11918 18.7435 6.11918C17.6316 6.11918 16.7303 7.02048 16.7303 8.1323C16.7303 9.24411 17.6316 10.1454 18.7435 10.1454Z" fill="#1B1B1B"/>
<path d="M20.8143 2.23474L20.5161 1.5703C19.6888 1.94164 19.1115 2.77302 19.1115 3.74003C19.1115 5.05296 20.1758 6.1173 21.4888 6.1173C22.6545 6.1173 23.6235 5.27862 23.8268 4.17184L23.1105 4.04026C22.9696 4.80759 22.2967 5.38899 21.4888 5.38899C20.5781 5.38899 19.8398 4.65072 19.8398 3.74003C19.8398 3.07022 20.2392 2.49291 20.8143 2.23474Z" fill="#1B1B1B"/>
</svg>
