<svg width="24" height="27" viewBox="0 0 24 27" fill="none" xmlns="http://www.w3.org/2000/svg">
<path d="M14.8202 11.5184C14.8202 12.2928 14.1925 12.9205 13.4181 12.9205C12.6438 12.9205 12.016 12.2928 12.016 11.5184C12.016 10.7441 12.6438 10.1163 13.4181 10.1163C14.1925 10.1163 14.8202 10.7441 14.8202 11.5184Z" fill="#1B1B1B"/>
<path d="M21.5364 12.0098C20.8591 11.3913 20.1467 11.1286 19.5966 11.1934C19.128 11.2485 18.8174 11.6155 18.6702 12.2314C18.5236 12.8444 18.5781 13.589 18.7594 14.1283C18.7609 14.133 18.7623 14.1342 18.7623 14.1342C18.7633 14.1351 18.7681 14.1395 18.7802 14.144C18.8071 14.154 18.8547 14.1585 18.9085 14.1417C20.4194 13.6717 21.9681 14.2743 22.947 14.7826C23.0076 14.814 23.0616 14.8022 23.0915 14.7816C23.106 14.7716 23.1118 14.7619 23.114 14.7563C23.1153 14.7529 23.1196 14.7413 23.1125 14.7149C22.8014 13.5474 22.2053 12.6206 21.5364 12.0098ZM22.0471 11.4506C22.8281 12.1638 23.4976 13.2191 23.8443 14.5199C23.9429 14.8901 23.7856 15.2231 23.5211 15.4052C23.2644 15.582 22.9113 15.6173 22.5981 15.4547C21.6503 14.9626 20.3397 14.4896 19.1335 14.8648C18.7686 14.9784 18.2153 14.8865 18.0415 14.3695C17.8183 13.7053 17.7517 12.8161 17.9337 12.0552C18.1149 11.2972 18.5825 10.5502 19.5081 10.4413C20.3528 10.3419 21.2745 10.7451 22.0471 11.4506Z" fill="#1B1B1B"/>
<path d="M13.3964 1.97314C12.8704 1.40345 11.9696 0.83858 10.9835 0.745298C10.4661 0.69635 9.92122 0.77747 9.40334 1.06152C8.9027 1.33612 8.4499 1.7879 8.07407 2.44768C7.30101 2.19557 6.28754 2.30226 5.49042 2.83969C4.65733 3.40138 4.09148 4.41034 4.22275 5.87986C3.34889 5.99948 2.54385 6.78014 2.25557 7.73512C1.95026 8.74652 2.2108 9.9607 3.45698 10.9398C3.62142 11.069 3.85945 11.0405 3.98865 10.876C4.11784 10.7116 4.08928 10.4736 3.92485 10.3444C2.91081 9.54764 2.77002 8.65134 2.98054 7.95396C3.20493 7.21064 3.81831 6.69088 4.34177 6.62805C4.67184 6.58844 5.02523 6.28969 4.98202 5.86474C4.85498 4.6152 5.32018 3.86779 5.91376 3.46759C6.53362 3.04967 7.32853 2.98472 7.88087 3.18183C8.17326 3.28618 8.53319 3.18294 8.70041 2.87908C9.02741 2.28486 9.39871 1.92778 9.76752 1.72549C10.1357 1.52356 10.5254 1.46262 10.9122 1.49921C11.7023 1.57396 12.4619 2.05615 12.8783 2.52937C13.1001 2.78141 13.4857 2.83423 13.7669 2.63726C14.4339 2.17008 14.9687 2.15047 15.4188 2.34433C15.9025 2.55269 16.3611 3.03856 16.7745 3.73013C17.5975 5.10681 18.1221 7.09528 18.3326 8.44236C18.3649 8.64897 18.5586 8.79029 18.7652 8.75801C18.9718 8.72573 19.1131 8.53207 19.0808 8.32546C18.8634 6.93403 18.3186 4.83714 17.4245 3.34157C16.9794 2.59702 16.4177 1.95004 15.7184 1.64883C15.004 1.34111 14.2155 1.4227 13.3964 1.97314Z" fill="#1B1B1B"/>
<path d="M13.3931 5.20319C10.1814 5.04262 6.43093 6.64987 3.47576 10.5902C2.83602 11.4432 2.3202 12.7223 1.91893 14.147C1.51526 15.5803 1.2181 17.1957 1.03228 18.7476C0.846516 20.299 0.770733 21.7977 0.813726 22.9981C0.835195 23.5976 0.886575 24.1319 0.971866 24.5653C1.05365 24.9809 1.17766 25.3664 1.38635 25.6102C1.95408 26.2734 2.67396 26.718 3.46133 26.7316C4.24309 26.7452 4.99112 26.333 5.62419 25.5032C6.06034 25.9943 6.77142 26.4624 7.56482 26.5861C8.39836 26.7162 9.29546 26.4592 10.0005 25.5318C10.4726 26.0975 11.2322 26.5672 12.0435 26.6746C12.8936 26.7871 13.7884 26.4967 14.4191 25.5553C14.4197 25.5553 14.4207 25.5555 14.4207 25.5555C14.7715 25.9366 15.2564 26.2364 15.774 26.4042C16.2966 26.5737 16.8821 26.6179 17.4196 26.4443C17.9693 26.2668 18.4393 25.8699 18.7175 25.2201C18.9903 24.5826 19.0706 23.7229 18.9061 22.6122C18.8754 22.4053 18.6829 22.2625 18.476 22.2931C18.2692 22.3238 18.1263 22.5163 18.157 22.7232C18.3096 23.7532 18.2198 24.4583 18.0213 24.9221C17.828 25.3735 17.5253 25.6144 17.1869 25.7237C16.8362 25.837 16.4181 25.817 16.0076 25.6839C15.5975 25.5509 15.2246 25.3141 14.97 25.034C14.8064 24.854 14.5748 24.7893 14.377 24.7988C14.1791 24.8084 13.9457 24.8966 13.8042 25.1124C13.3425 25.8164 12.7324 26.0018 12.1429 25.9238C11.5247 25.842 10.9184 25.4649 10.5587 25.0183C10.4112 24.8352 10.1932 24.7559 9.99694 24.7552C9.8 24.7545 9.57409 24.8336 9.42765 25.0333C8.88875 25.7679 8.25789 25.9278 7.68156 25.8379C7.07337 25.743 6.49837 25.362 6.16272 24.9685C6.01723 24.798 5.80838 24.7213 5.61639 24.7209C5.42326 24.7206 5.20388 24.7985 5.06031 24.993C4.51645 25.7296 3.96059 25.9829 3.47446 25.9744C2.97521 25.9658 2.44285 25.6799 1.96165 25.1177C1.88905 25.0329 1.79319 24.8169 1.71489 24.4191C1.6401 24.039 1.59118 23.548 1.57052 22.971C1.52925 21.8187 1.60187 20.3603 1.78419 18.8377C1.96645 17.3155 2.25706 15.7399 2.64786 14.3523C3.04107 12.9562 3.52642 11.7848 4.08159 11.0445C6.90995 7.27331 10.4328 5.81342 13.3553 5.95952C16.2812 6.1058 18.61 7.84955 19.1819 10.5453C19.2253 10.7499 19.4263 10.8805 19.6308 10.8371C19.8354 10.7938 19.9661 10.5927 19.9227 10.3882C19.2676 7.30028 16.6014 5.36358 13.3931 5.20319Z" fill="#1B1B1B"/>
<path d="M18.8988 21.3745C18.4558 21.9607 18.0218 22.1296 17.7134 22.0956C17.405 22.0616 17.0183 21.8024 16.7135 21.1337C16.4163 20.4819 16.265 19.5606 16.3782 18.5329C16.4915 17.5053 16.8397 16.639 17.2716 16.0675C17.7147 15.4813 18.1486 15.3124 18.457 15.3464C18.7654 15.3804 19.1522 15.6396 19.457 16.3083C19.7541 16.9601 19.9054 17.8814 19.7922 18.9091C19.679 19.9367 19.3307 20.803 18.8988 21.3745ZM17.6305 22.8484C18.989 22.998 20.2938 21.2715 20.5449 18.992C20.7961 16.7125 19.8984 14.7433 18.5399 14.5937C17.1815 14.444 15.8767 16.1705 15.6255 18.45C15.3744 20.7295 16.272 22.6987 17.6305 22.8484Z" fill="#1B1B1B"/>
<path d="M19.4313 21.8355C19.2714 22.0467 19.0986 22.2319 18.9162 22.3866C19.3872 22.7745 19.9151 22.9673 20.4429 22.8967C21.8507 22.7084 22.725 20.7181 22.3959 18.4511C22.0667 16.1842 20.6586 14.4991 19.2508 14.6873C19.1119 14.7059 18.9783 14.742 18.8505 14.7941C19.1612 14.9257 19.4395 15.1521 19.6755 15.4524C19.968 15.5164 20.3056 15.7199 20.6472 16.1287C21.1118 16.6847 21.4976 17.5349 21.6453 18.5515C21.7929 19.5681 21.6639 20.4871 21.3755 21.1438C21.0816 21.8128 20.6828 22.1006 20.334 22.1473C20.0808 22.1811 19.7659 22.0996 19.4313 21.8355Z" fill="#1B1B1B"/>
</svg>
