<svg width="27" height="27" viewBox="0 0 27 27" fill="none" xmlns="http://www.w3.org/2000/svg">
<path d="M12.2273 0.512762C12.1293 0.52426 11.8316 0.557227 11.5656 0.586073C9.88638 0.768206 8.02679 1.39804 6.52623 2.29299C4.61645 3.43193 3.06423 4.98347 1.92479 6.89242C1.03678 8.38006 0.446977 10.1088 0.206334 11.9296C0.12393 12.553 0.12393 14.4605 0.206334 15.0839C0.446977 16.9047 1.03678 18.6335 1.92479 20.1211C3.06423 22.03 4.61645 23.5816 6.52623 24.7205C8.01452 25.6081 9.74407 26.1977 11.5656 26.4382C12.1893 26.5206 14.0976 26.5206 14.7213 26.4382C17.8906 26.0197 20.577 24.6283 22.7695 22.2699C23.9824 20.9652 24.9313 19.3423 25.5137 17.5768C25.9727 16.1851 26.1445 15.0769 26.1445 13.5068C26.1445 12.3452 26.0955 11.832 25.8869 10.8104C25.1717 7.30756 22.9202 4.17725 19.7607 2.29299C18.2876 1.41442 16.5309 0.812417 14.7722 0.583377C14.3258 0.525277 12.5429 0.475775 12.2273 0.512762ZM14.9249 1.37296C15.2188 1.41732 15.769 1.53047 16.1475 1.62439C20.4629 2.69495 23.9402 6.1621 25.0263 10.4772C25.3078 11.5955 25.3806 12.2176 25.3806 13.5068C25.3806 14.7959 25.3078 15.418 25.0263 16.5363C24.1616 19.9716 21.7628 22.9259 18.5641 24.4949C17.6843 24.9264 17.036 25.1677 16.1744 25.3844C15.0556 25.6658 14.4332 25.7385 13.1435 25.7385C11.8537 25.7385 11.2313 25.6658 10.1126 25.3844C5.807 24.3016 2.34388 20.84 1.26063 16.5363C0.979111 15.418 0.906378 14.7959 0.906378 13.5068C0.906378 12.2176 0.979111 11.5955 1.26063 10.4772C2.12532 7.04189 4.52418 4.08756 7.72288 2.51862C9.1672 1.81018 10.4731 1.44785 12.2019 1.27589C12.6354 1.23275 14.4166 1.29624 14.9249 1.37296ZM12.1001 2.28663C11.3012 2.37017 10.6904 2.48326 10.0642 2.66351C6.30717 3.74492 3.3745 6.6763 2.29588 10.4285C1.63365 12.7322 1.76639 15.3985 2.65552 17.6531C2.87341 18.2056 3.32864 19.0878 3.66589 19.611C4.01871 20.1583 4.56805 20.8633 4.67315 20.9037C4.82702 20.9627 5.00042 20.934 5.10166 20.8328C5.2828 20.6517 5.23292 20.4673 4.87649 20.0003C4.1769 19.0839 3.73852 18.3111 3.34432 17.2996C2.61984 15.4404 2.44776 13.4297 2.84206 11.4302C4.00996 5.5081 10.0173 1.79477 15.8919 3.36376C17.2127 3.71653 18.4501 4.33604 19.6277 5.23409C19.9424 5.47411 20.1116 5.57022 20.2197 5.57022C20.4251 5.57022 20.5745 5.41006 20.5745 5.18972C20.5745 5.02982 20.5363 4.98235 20.1801 4.69903C19.0821 3.82606 17.745 3.12444 16.4009 2.71602C15.1077 2.32306 13.3907 2.15166 12.1001 2.28663ZM10.7327 4.50555C10.5574 4.64337 10.5499 4.89622 10.7164 5.05261C10.8142 5.14444 10.8947 5.16322 11.191 5.16322C11.4983 5.16322 11.5633 5.14683 11.6586 5.04549C11.8054 4.88925 11.7996 4.68026 11.6443 4.52499C11.5377 4.41835 11.4716 4.40009 11.1931 4.40009C10.9401 4.40009 10.8367 4.42374 10.7327 4.50555ZM13.3073 4.8917C13.0029 5.04168 12.9506 5.17863 12.6261 6.67777C12.305 8.16119 12.2878 8.37324 12.4685 8.6152C12.6636 8.87635 12.7993 8.92356 14.2495 9.23471C15.509 9.50491 15.7114 9.5362 15.8886 9.48848C16.133 9.4227 16.3675 9.23486 16.4441 9.04347C16.5243 8.84333 17.0626 6.29997 17.0626 6.12145C17.0626 5.90391 16.8863 5.59525 16.6952 5.47813C16.5061 5.36234 14.0011 4.80638 13.6766 4.80826C13.5653 4.80887 13.3991 4.84642 13.3073 4.8917ZM8.62962 5.3162C8.26066 5.46481 8.39865 6.0281 8.80405 6.0281C8.96488 6.0281 9.17346 5.83884 9.17346 5.69293C9.17346 5.55842 9.05742 5.37659 8.93643 5.32144C8.79331 5.25627 8.77901 5.25606 8.62962 5.3162ZM15.0088 5.83004C15.6765 5.97295 16.2418 6.10761 16.2651 6.12929C16.3015 6.16317 15.7848 8.69589 15.7304 8.75028C15.7098 8.77083 13.1357 8.22489 13.104 8.19324C13.0875 8.17676 13.5692 5.8658 13.6321 5.65925C13.6471 5.61026 13.6898 5.57022 13.727 5.57022C13.7643 5.57022 14.341 5.68713 15.0088 5.83004ZM21.1853 6.18072C21.0029 6.36301 21.0537 6.5458 21.4198 7.0254C22.1189 7.94131 22.5449 8.6934 22.9426 9.7139C23.6671 11.5731 23.8392 13.5838 23.4449 15.5833C22.277 21.5054 16.2696 25.2187 10.395 23.6498C9.07599 23.2975 7.83114 22.6732 6.64706 21.7701C6.34229 21.5377 6.17483 21.4433 6.06729 21.4433C5.86181 21.4433 5.71243 21.6034 5.71243 21.8238C5.71243 21.9838 5.7503 22.0308 6.10688 22.313C9.59214 25.0713 14.2603 25.5547 18.2078 23.5661C21.0315 22.1436 23.1168 19.6263 23.9911 16.585C24.6533 14.2813 24.5205 11.615 23.6314 9.36042C23.2612 8.42167 22.6018 7.28588 21.9551 6.47325C21.6716 6.11713 21.6241 6.07897 21.4641 6.07897C21.3549 6.07897 21.2481 6.11794 21.1853 6.18072ZM8.84263 6.59149C8.24657 6.73201 7.71749 6.88458 7.64654 6.93647C7.42829 7.09607 7.29025 7.34653 7.29025 7.58289C7.29025 7.87059 7.7351 9.81835 7.85481 10.0548C7.97839 10.2991 8.24809 10.4629 8.52467 10.4619C8.81194 10.4609 10.7793 10.0153 11.0058 9.90001C11.2226 9.78956 11.411 9.47688 11.4121 9.2253C11.4134 8.93328 10.9153 6.83248 10.8115 6.69263C10.5004 6.27306 10.2483 6.26014 8.84263 6.59149ZM18.5406 7.15697C18.4571 7.24656 18.4368 7.3364 18.4368 7.61713C18.4368 7.91969 18.4534 7.98257 18.5618 8.09083C18.721 8.25002 18.9161 8.25002 19.0753 8.09083C19.182 7.98425 19.2003 7.91826 19.2003 7.63982C19.2003 7.38692 19.1766 7.28359 19.0948 7.17966C18.9585 7.00648 18.691 6.99554 18.5406 7.15697ZM10.3095 7.64338C10.6268 9.01432 10.6612 9.1907 10.6183 9.22825C10.5478 9.29006 8.63089 9.70866 8.55445 9.679C8.48528 9.65214 8.00903 7.63296 8.05993 7.58208C8.08929 7.55267 9.96802 7.11001 10.0981 7.10182C10.1651 7.0976 10.2094 7.2111 10.3095 7.64338ZM20.3894 8.37589C20.2778 8.43104 20.1673 8.61943 20.1673 8.75465C20.1673 8.88423 20.4059 9.08061 20.5633 9.08061C20.7436 9.08061 20.9308 8.8939 20.9308 8.71411C20.9308 8.4495 20.6259 8.25898 20.3894 8.37589ZM5.67848 9.09755C5.32154 9.45434 5.26947 9.62981 5.45993 9.83412C5.65369 10.0421 5.85245 9.98695 6.21016 9.62615C6.56735 9.2659 6.62105 9.07059 6.41537 8.87909C6.21097 8.68872 6.03542 8.74076 5.67848 9.09755ZM17.6822 8.89308C17.4946 9.09272 17.561 9.39655 17.8131 9.49234C18.1046 9.60315 18.3997 9.30818 18.2889 9.01676C18.1916 8.76096 17.8683 8.69508 17.6822 8.89308ZM18.6913 10.4031C17.6261 10.9319 17.4632 11.0372 17.3377 11.2784C17.1883 11.5653 17.241 11.7612 17.7539 12.8254C18.2946 13.9475 18.4224 14.1461 18.6709 14.2498C18.988 14.3823 19.1333 14.3416 20.2443 13.8093C21.3246 13.2916 21.4939 13.1846 21.6227 12.937C21.7888 12.618 21.7306 12.4132 21.1368 11.2268C20.5181 9.99061 20.4737 9.93832 20.0146 9.9053C19.7455 9.88591 19.6943 9.9052 18.6913 10.4031ZM12.4763 10.2128C12.3752 10.2757 11.8436 10.7374 11.2949 11.2388C10.1237 12.3093 10.0083 12.4927 10.2114 12.9615C10.3055 13.1787 12.0844 15.1285 12.3216 15.2744C12.5545 15.4177 12.905 15.4262 13.118 15.2939C13.202 15.2417 13.7173 14.7937 14.2632 14.2985C15.4748 13.1992 15.6123 12.9877 15.4148 12.5258C15.3339 12.3367 13.5774 10.3836 13.3344 10.2126C13.1123 10.0562 12.7279 10.0564 12.4763 10.2128ZM15.5079 10.63C15.302 10.8359 15.3422 10.983 15.707 11.3586C15.9697 11.629 16.0612 11.6922 16.1899 11.6922C16.41 11.6922 16.5536 11.5485 16.5536 11.3282C16.5536 11.1766 16.5047 11.1007 16.2313 10.8273C15.8668 10.463 15.716 10.4219 15.5079 10.63ZM20.4747 11.6058C20.7255 12.1273 20.9308 12.5685 20.9308 12.5863C20.9308 12.6297 19.0069 13.5852 18.9791 13.5555C18.9286 13.5017 18.0296 11.6717 18.0296 11.6228C18.0296 11.5693 19.8294 10.6703 19.953 10.6621C19.9896 10.6597 20.22 11.0763 20.4747 11.6058ZM13.6779 11.6568C14.0698 12.0902 14.4656 12.5334 14.5574 12.6418L14.7244 12.8389L13.7433 13.7325C13.2038 14.2239 12.7458 14.626 12.7257 14.626C12.6741 14.626 10.901 12.6749 10.9167 12.6354C10.9475 12.5575 12.8538 10.8617 12.9065 10.8651C12.9389 10.8672 13.286 11.2235 13.6779 11.6568ZM9.38591 11.0807C9.19815 11.2806 9.24935 11.5461 9.49559 11.6496C9.69328 11.7327 9.90206 11.665 9.9808 11.4922C10.0617 11.3147 10.054 11.2505 9.93321 11.097C9.79533 10.9218 9.54237 10.9143 9.38591 11.0807ZM6.50862 11.0662C6.93071 10.9397 7.08707 11.0259 8.2114 12.0041C9.50623 13.1306 9.53906 13.2642 8.74943 14.1937C8.53556 14.4455 8.36022 14.6651 8.35981 14.6819C8.35941 14.6986 8.7076 14.7852 9.13356 14.8744C9.94303 15.0438 10.1406 15.123 10.3057 15.3445C10.5157 15.6262 10.5077 15.7764 10.2089 17.1579C10.0808 17.7503 10.0554 17.8145 9.8791 17.9907C9.59474 18.2749 9.44602 18.2856 8.48634 18.0907C7.418 17.8737 7.32222 17.8435 7.13995 17.6653C6.88078 17.4121 6.8507 17.2093 6.9781 16.5738C7.03862 16.272 7.10193 15.9736 7.11878 15.9106C7.1453 15.8116 7.12977 15.7959 7.00355 15.7948C6.73516 15.7924 6.48617 15.6232 5.55765 14.8128C4.16255 13.5952 4.1627 13.5976 5.39849 12.1708C6.26451 11.171 6.31007 11.1256 6.50862 11.0662ZM7.58072 12.4691C7.13858 12.0885 6.77008 11.777 6.76178 11.777C6.74 11.777 5.25435 13.4975 5.25435 13.5228C5.25435 13.5344 5.64743 13.8833 6.12785 14.298L7.00136 15.052L7.13308 14.897C7.20551 14.8117 7.54744 14.4154 7.89283 14.0162C8.41081 13.4177 8.50894 13.2792 8.4527 13.2258C8.41524 13.1903 8.02282 12.8498 7.58072 12.4691ZM15.7385 14.3335C15.6076 14.3998 15.4711 14.52 15.4141 14.6194C15.2864 14.8416 14.9223 16.5807 14.9604 16.7861C15.0364 17.1957 15.3255 17.4145 15.9428 17.5299C16.1248 17.5639 16.2818 17.5983 16.2916 17.6064C16.3015 17.6145 16.1684 17.7851 15.9958 17.9855C15.8232 18.1859 15.6606 18.4063 15.6343 18.4754C15.5545 18.6851 15.582 18.9655 15.7019 19.165C15.8087 19.3428 17.294 20.6606 17.5294 20.7866C17.6948 20.8751 18.1001 20.857 18.2757 20.7533C18.4438 20.6541 19.7708 19.1409 19.8898 18.9127C19.9868 18.7269 19.9832 18.4218 19.8815 18.2075C19.8162 18.07 18.7977 17.1275 18.342 16.7829C18.2776 16.7342 18.2871 16.6323 18.4132 16.0168L18.5588 15.3068L18.4342 15.0581C18.3657 14.9213 18.252 14.7676 18.1816 14.7167C18.0646 14.632 16.3229 14.2228 16.0681 14.2201C16.0111 14.2195 15.8627 14.2705 15.7385 14.3335ZM21.2205 14.5333C21.0321 14.7022 21.0183 14.917 21.1853 15.0839C21.409 15.3075 21.796 15.1339 21.796 14.81C21.796 14.4968 21.4478 14.3294 21.2205 14.5333ZM16.9118 15.159C17.3667 15.2564 17.7456 15.3427 17.7538 15.3509C17.7748 15.3718 17.4423 16.9381 17.4036 17.0007C17.3754 17.0462 15.8597 16.7609 15.7414 16.6878C15.7191 16.674 15.7534 16.4163 15.8175 16.115C15.8816 15.8137 15.9605 15.4356 15.9929 15.2747C16.0253 15.1138 16.0592 14.9821 16.0682 14.9821C16.0772 14.9821 16.4568 15.0618 16.9118 15.159ZM8.8808 15.6017C8.43993 15.511 8.06354 15.4374 8.0444 15.4383C7.99605 15.4407 7.97538 15.5189 7.80218 16.3547C7.7182 16.7598 7.66598 17.1058 7.68618 17.1236C7.73306 17.1647 9.32295 17.4955 9.34773 17.4693C9.37552 17.4398 9.68244 15.9616 9.68244 15.8571C9.68244 15.7814 9.5528 15.7401 8.8808 15.6017ZM11.6878 16.2249C11.4426 16.3316 11.3809 16.629 11.5656 16.8136C11.6493 16.8973 11.7353 16.9154 12.0492 16.9154C12.3631 16.9154 12.449 16.8973 12.5327 16.8136C12.6424 16.704 12.6648 16.5074 12.5847 16.3578C12.4819 16.1659 11.9907 16.0931 11.6878 16.2249ZM20.2728 16.3372C20.2148 16.4109 20.1673 16.5159 20.1673 16.5705C20.1673 16.6945 20.7565 17.315 20.9111 17.3538C21.087 17.3979 21.2295 17.3303 21.3171 17.1609C21.4255 16.9515 21.3532 16.7892 21.0051 16.4601C20.6771 16.15 20.4501 16.112 20.2728 16.3372ZM5.11708 16.671C4.88422 16.7835 4.89018 17.2499 5.12563 17.3402C5.53266 17.4963 5.86446 16.9806 5.52742 16.7156C5.37997 16.5997 5.28601 16.5894 5.11708 16.671ZM13.28 17.5107C12.5421 17.7016 10.5936 18.3117 10.5 18.3813C10.4317 18.4319 10.3327 18.5312 10.2799 18.6018C10.0834 18.8649 10.1075 19.0398 10.5448 20.5173C10.7709 21.2812 10.9935 21.9636 11.0395 22.0338C11.147 22.1978 11.4636 22.359 11.6781 22.359C11.9023 22.359 14.4476 21.6113 14.6592 21.4832C14.8509 21.3672 15.0267 21.059 15.0267 20.8389C15.0267 20.7561 14.8423 20.0626 14.617 19.2979C14.2609 18.0892 14.1864 17.8858 14.0467 17.7416C13.839 17.5273 13.5512 17.4406 13.28 17.5107ZM18.6084 18.0155C18.92 18.2848 19.1823 18.5246 19.1914 18.5484C19.2114 18.601 17.9949 20.0158 17.8975 20.0531C17.8367 20.0765 16.35 18.8379 16.35 18.7639C16.35 18.7486 16.5334 18.5246 16.7575 18.2662C17.158 17.8045 17.1691 17.7963 17.3973 17.7929C17.5582 17.7904 17.687 17.7499 17.8168 17.6607C17.9199 17.5899 18.0127 17.5306 18.0231 17.529C18.0336 17.5273 18.2969 17.7462 18.6084 18.0155ZM13.8928 19.5344C14.0985 20.2298 14.2487 20.8161 14.2268 20.8372C14.1498 20.9111 11.7057 21.6035 11.6689 21.5618C11.6161 21.502 10.8982 19.041 10.9255 19.0137C10.9627 18.9765 13.4195 18.249 13.4712 18.2599C13.4975 18.2655 13.6872 18.839 13.8928 19.5344ZM7.44468 19.0903C7.27977 19.2512 7.12875 19.4478 7.10911 19.5272C7.05694 19.7382 7.21925 19.9377 7.45969 19.9582C7.62012 19.9719 7.67906 19.9417 7.90723 19.7293C8.22437 19.4339 8.31716 19.2457 8.24611 19.0419C8.18864 18.8771 8.06873 18.7978 7.87705 18.7978C7.78452 18.7978 7.65422 18.8859 7.44468 19.0903ZM8.97231 20.2101C8.76944 20.3743 8.76969 20.9888 8.97272 21.1918C9.10119 21.3202 9.32855 21.3179 9.46923 21.1869C9.56461 21.0981 9.58064 21.0286 9.58064 20.7036C9.58064 20.3919 9.56247 20.3059 9.47885 20.2223C9.35308 20.0966 9.11946 20.091 8.97231 20.2101ZM16.0955 21.429C15.834 21.5234 15.7512 21.8622 15.9428 22.0538C16.1705 22.2814 16.5536 22.1109 16.5536 21.7819C16.5536 21.5432 16.3065 21.3528 16.0955 21.429Z" fill="#1B1B1B"/>
</svg>
