<svg width="30" height="25" viewBox="0 0 30 25" fill="none" xmlns="http://www.w3.org/2000/svg">
<path d="M12.0709 0.753087C11.119 0.873982 9.52811 1.19489 8.53574 1.4661C7.54311 1.73731 6.09682 2.28022 5.32176 2.67233C4.54644 3.06443 3.39312 3.84345 2.75873 4.40318C2.12409 4.96291 1.37326 5.8999 1.08993 6.4851C0.618714 7.45869 0.574707 7.98603 0.574707 12.673C0.574707 17.2334 0.626872 17.8984 1.0484 18.7249C1.30873 19.2354 2.02273 20.1148 2.63462 20.6788C3.24651 21.243 4.4431 22.0558 5.29382 22.485C6.14453 22.9145 7.90604 23.5456 9.20845 23.8878C11.2288 24.4184 12.1028 24.5081 15.1612 24.4995C17.2928 24.4935 19.2959 24.3543 20.1024 24.1565C21.4122 23.8354 21.4648 23.7902 21.6334 22.8401C21.7294 22.2989 21.8144 20.9967 21.8221 19.9462L21.8364 18.0366L25.7303 17.9684L29.6241 17.9004L29.6911 13.0139C29.7532 8.4921 29.7188 8.03597 29.232 6.9039C28.9361 6.21611 28.19 5.19802 27.5274 4.57822C26.8794 3.97226 25.6915 3.14429 24.8875 2.73834C24.0837 2.33263 22.651 1.77019 21.7042 1.48835C20.757 1.20651 19.0395 0.862362 17.8872 0.723419C16.7351 0.584476 15.3444 0.484843 14.7968 0.501902C14.2495 0.519208 13.0227 0.632192 12.0709 0.753087ZM20.8831 2.16551C21.9222 2.4387 23.4553 3.00683 24.2897 3.42786C25.1241 3.84914 26.2564 4.59997 26.8062 5.09666C27.3561 5.59334 28.0201 6.42007 28.2822 6.93382C28.5445 7.44756 28.7588 8.03918 28.7588 8.24858C28.7588 8.5821 27.916 8.62932 21.9524 8.62932C16.1049 8.62932 15.1254 8.68198 15.0023 9.00337C14.9076 9.24961 15.7568 10.3401 17.4921 12.2005L20.1253 15.0241L18.9411 15.2261C18.2899 15.3371 16.3665 15.4229 14.6668 15.4165C12.6561 15.4091 10.9198 15.2548 9.69697 14.9752C8.66331 14.7388 7.03332 14.1695 6.07457 13.7101C5.11606 13.2508 3.86854 12.4564 3.30239 11.9449C2.73648 11.4336 2.11371 10.7063 1.9184 10.329C1.72333 9.9515 1.56362 9.09757 1.56362 8.43153C1.56362 7.48415 1.7216 7.00205 2.2885 6.21957C2.68703 5.66924 3.39015 4.93151 3.85074 4.5802C4.31133 4.22888 5.40359 3.61823 6.27804 3.2234C7.15249 2.82833 8.70237 2.32893 9.72219 2.11334C10.742 1.89801 11.8545 1.67031 12.1945 1.60776C12.5344 1.54496 14.2032 1.53334 15.9029 1.58155C17.9527 1.63965 19.6297 1.8362 20.8831 2.16551ZM29.0061 13.3267V17.0351H25.4324H21.8589L21.6965 16.108C21.5726 15.4002 21.0863 14.7131 19.64 13.2031C18.5982 12.1152 17.4216 10.8635 17.0253 10.4217L16.3049 9.61823H22.6555H29.0061V13.3267ZM5.59915 14.5591C6.71094 15.0741 8.34389 15.6815 9.22773 15.9087C10.1116 16.1362 12.1905 16.3874 13.8475 16.4667C15.7677 16.5587 17.4263 16.5036 18.4212 16.3147C19.2798 16.1515 20.18 15.9602 20.4215 15.8897C20.8307 15.7703 20.8562 16.0128 20.7924 19.4093L20.7239 23.0571L19.9822 23.2942C19.5743 23.4243 17.4048 23.5333 15.1612 23.536C11.7806 23.5402 10.7583 23.4524 9.19213 23.0245C8.15302 22.7404 6.61996 22.1631 5.78556 21.7421C4.95116 21.3208 3.80945 20.5623 3.24824 20.0565C2.68703 19.5504 2.02545 18.6915 1.77772 18.1476C1.42518 17.3736 1.32604 16.529 1.32183 14.2602L1.31639 11.3619L2.44697 12.4923C3.16171 13.207 4.32072 13.967 5.59915 14.5591Z" fill="#1B1B1B"/>
</svg>
