<svg width="27" height="27" viewBox="0 0 27 27" fill="none" xmlns="http://www.w3.org/2000/svg">
<path fill-rule="evenodd" clip-rule="evenodd" d="M18.8417 13.7322C19.1224 13.7983 19.278 14.0816 19.2026 14.3467C19.1447 14.5505 19.0646 14.7943 18.9635 15.0708C19.5369 15.066 20.1736 15.2145 20.6885 15.5651C21.0765 15.8293 21.3982 16.211 21.5609 16.7255C21.6665 17.0593 21.7012 17.4364 21.6542 17.8572C21.9981 17.7187 22.3019 17.612 22.557 17.5388C22.8327 17.4596 23.1296 17.6252 23.1849 17.9214C23.3562 18.8387 23.0604 19.9656 22.4942 21.0499C21.9224 22.1449 21.049 23.2474 19.9888 24.1305C17.8862 25.8816 14.9535 26.8295 12.1895 24.9538C12.1655 24.9414 12.1458 24.9281 12.1307 24.9164C12.1143 24.9038 12.1002 24.8908 12.0883 24.8785C12.0641 24.8558 12.0416 24.8298 12.0224 24.8004C10.9588 23.4998 10.637 22.0821 10.8148 20.7104C10.9936 19.3319 11.6734 18.0182 12.569 16.9138C13.4654 15.8085 14.5948 14.8917 15.7066 14.3103C16.7948 13.7413 17.9384 13.4574 18.8417 13.7322ZM12.866 24.5221C15.1772 25.9163 17.6243 25.1506 19.5177 23.5736C20.5043 22.752 21.3165 21.725 21.8437 20.7155C22.3109 19.8208 22.5349 18.9779 22.4964 18.3198C22.168 18.4302 21.7673 18.5897 21.3102 18.7959C21.3083 18.7968 21.3064 18.7977 21.3045 18.7985C20.4996 19.1621 19.5207 19.6704 18.4551 20.3111C16.8055 21.303 14.9657 22.6015 13.2645 24.1474C13.1334 24.2752 13.0005 24.4003 12.866 24.5221ZM15.6728 21.2709C16.4937 20.6814 17.3053 20.1524 18.0754 19.6894C19.0894 19.0797 20.038 18.5805 20.847 18.2072C20.9813 17.6709 20.9613 17.2575 20.8619 16.9432C20.7538 16.6013 20.5427 16.3475 20.2739 16.1645C19.8024 15.8434 19.1637 15.7495 18.6706 15.8191C18.2905 16.7358 17.7513 17.8649 17.0776 19.0466C16.6613 19.7767 16.1913 20.531 15.6728 21.2709ZM12.7603 23.6198C12.6191 23.7483 12.4788 23.8784 12.3396 24.0101C11.6106 22.9675 11.403 21.8712 11.5415 20.8031C11.6983 19.5936 12.3025 18.402 13.1398 17.3696C13.9764 16.3381 15.0288 15.4865 16.0482 14.9534C16.9734 14.4697 17.8134 14.2772 18.4272 14.3807C18.1292 15.3106 17.4421 16.9309 16.4399 18.6887C15.4697 20.3902 14.2177 22.1968 12.7603 23.6198Z" fill="#1B1B1B"/>
<path fill-rule="evenodd" clip-rule="evenodd" d="M11.569 23.4197C11.6157 23.5278 11.6667 23.6362 11.722 23.7448C11.7553 23.81 11.8051 23.867 11.8645 23.9102L12.0001 24.0088C10.9215 24.7077 9.61071 25.0725 8.30255 25.1844C6.87801 25.3062 5.42958 25.1307 4.2375 24.7358C3.07076 24.3493 2.07322 23.726 1.64872 22.8885C1.50271 22.6416 1.60135 22.3342 1.84647 22.2049C2.03491 22.1055 2.26775 21.9943 2.539 21.8755C2.13896 21.4678 1.80676 20.9088 1.70593 20.2974C1.62993 19.8365 1.68537 19.342 1.94742 18.8696C2.11744 18.5631 2.36795 18.2774 2.70676 18.0201C2.36818 17.8694 2.08035 17.7254 1.85066 17.5932C1.60236 17.4504 1.51759 17.123 1.69499 16.8786C2.24437 16.1214 3.26926 15.5542 4.45016 15.2102C5.64278 14.8628 7.04932 14.7264 8.42541 14.8758C10.1414 15.0619 11.8532 15.7031 13.0232 16.9686C12.8664 17.1415 12.7075 17.3324 12.552 17.5395C11.5306 16.3799 9.9844 15.7762 8.34576 15.5984C7.06538 15.4595 5.75606 15.5874 4.65653 15.9077C3.68217 16.1916 2.91363 16.6139 2.4612 17.0965C2.76864 17.2556 3.16184 17.4326 3.62803 17.6175L3.63392 17.6198C4.45518 17.9454 5.5022 18.2955 6.70544 18.6162C8.12748 18.9952 9.75623 19.33 11.4713 19.5341C11.3679 19.8302 11.2847 20.1383 11.228 20.456C9.75191 20.567 8.26717 20.8425 6.9179 21.1825C4.94517 21.6798 3.2904 22.3077 2.40738 22.7371C2.75652 23.2487 3.47755 23.7177 4.4695 24.0463C5.56245 24.4083 6.9102 24.5738 8.23963 24.4601C9.44982 24.3566 10.6225 24.0238 11.569 23.4197ZM6.51538 19.3182C7.38506 19.55 8.33141 19.7659 9.32825 19.9467C8.431 20.0867 7.55685 20.2714 6.73753 20.4779C5.41135 20.8122 4.21643 21.2065 3.28631 21.568C2.89463 21.2628 2.5213 20.7399 2.42895 20.18C2.37631 19.8608 2.41516 19.534 2.58927 19.2201C2.74936 18.9315 3.03652 18.6312 3.51978 18.3567C4.35101 18.6783 5.37037 19.0131 6.51538 19.3182Z" fill="#1B1B1B"/>
<path fill-rule="evenodd" clip-rule="evenodd" d="M10.941 2.30562C8.03557 1.02893 4.50724 1.99609 2.78001 4.62415L2.68651 4.76641C1.75099 6.18985 1.14546 7.64576 1.24196 9.12923C1.33755 10.5986 2.12789 12.1719 4.15056 13.8246C4.30674 13.9522 4.32909 14.1813 4.20048 14.3362C4.07188 14.4912 3.84101 14.5134 3.68483 14.3858C1.55546 12.6459 0.623101 10.9017 0.51084 9.17606C0.399497 7.46453 1.10097 5.84804 2.07283 4.36931L2.16632 4.22705C4.09825 1.28753 8.01802 0.226152 11.2376 1.64091C12.5872 2.23394 13.4897 3.21997 14.363 4.29476C15.062 5.15503 15.7546 5.67986 16.6012 6.02905C17.46 6.38323 18.4968 6.56526 19.9044 6.70563C20.5351 6.76852 21.1629 6.90104 21.7652 7.11883C25.9255 8.62321 27.7419 13.4639 25.5861 17.3017L25.3646 17.6961L25.3627 17.6992C25.0633 18.2084 24.7118 18.6699 24.3187 19.0807C24.1794 19.2263 23.9476 19.2323 23.8008 19.0941C23.6541 18.9559 23.6481 18.7258 23.7874 18.5802C24.1411 18.2106 24.4578 17.795 24.7282 17.3358L24.9462 16.9477C26.8824 13.5008 25.251 9.15304 21.5144 7.80186C20.9759 7.60715 20.4085 7.48653 19.8311 7.42895C18.4096 7.28719 17.2831 7.09755 16.32 6.70033C15.3448 6.29812 14.557 5.69182 13.7926 4.75104C12.9302 3.6896 12.12 2.8237 10.941 2.30562Z" fill="#1B1B1B"/>
<path fill-rule="evenodd" clip-rule="evenodd" d="M10.068 4.82595C8.94744 4.13103 7.62772 3.80853 5.65746 4.28037C5.46079 4.32747 5.26288 4.20746 5.21542 4.01231C5.16795 3.81717 5.2889 3.62079 5.48557 3.57369C7.63737 3.05838 9.16044 3.40585 10.4563 4.20949C11.0928 4.60421 11.6652 5.10303 12.2228 5.63963C12.4962 5.9027 12.7691 6.17788 13.0447 6.45575L13.0618 6.47298C13.3441 6.75772 13.63 7.04574 13.9286 7.3333C15.0871 8.44901 16.0158 8.81451 16.8624 8.95827C17.2774 9.02874 17.6786 9.04714 18.1048 9.06668C18.1258 9.06764 18.1468 9.06861 18.1679 9.06958C18.6112 9.09003 19.0808 9.11452 19.5731 9.21222C20.5449 9.40508 21.396 9.7645 22.1477 10.3513C22.8975 10.9367 23.5317 11.7352 24.0894 12.7838C24.1838 12.9614 24.1153 13.1812 23.9364 13.2749C23.7575 13.3686 23.5359 13.3007 23.4414 13.1231C22.9189 12.1408 22.3449 11.4303 21.6946 10.9226C21.0462 10.4164 20.3054 10.0989 19.4294 9.92507C18.9977 9.83941 18.5789 9.8163 18.1339 9.79576C18.1093 9.79463 18.0845 9.7935 18.0597 9.79237C17.6427 9.77333 17.1998 9.75311 16.7388 9.67481C15.7375 9.50478 14.6762 9.06637 13.4184 7.85495C13.1128 7.56073 12.8213 7.26696 12.5396 6.98287L12.5252 6.96843C12.2476 6.68848 11.9799 6.41857 11.7128 6.1615C11.1689 5.63811 10.6397 5.1805 10.068 4.82595Z" fill="#1B1B1B"/>
<path fill-rule="evenodd" clip-rule="evenodd" d="M4.29872 6.09189C4.39931 5.91771 4.62316 5.85742 4.79869 5.95723L11.1239 9.55371C11.2995 9.65351 11.3602 9.87562 11.2596 10.0498C11.159 10.224 10.9352 10.2843 10.7597 10.1845L4.43443 6.58798C4.25889 6.48817 4.19814 6.26606 4.29872 6.09189ZM2.66348 7.61691C2.85726 7.55923 3.06148 7.66834 3.11962 7.86062C3.30333 8.46824 4.23065 10.0985 6.42145 11.2397C6.60058 11.333 6.66955 11.5528 6.57551 11.7305C6.48147 11.9082 6.26002 11.9767 6.08089 11.8834C3.72322 10.6552 2.66058 8.87227 2.41787 8.06951C2.35974 7.87723 2.4697 7.67459 2.66348 7.61691ZM13.8214 11.3821C13.9212 11.2075 14.1448 11.1463 14.3208 11.2454L16.9503 12.7263C17.1263 12.8254 17.188 13.0473 17.0881 13.2219C16.9882 13.3964 16.7647 13.4576 16.5887 13.3586L13.9591 11.8777C13.7832 11.7786 13.7215 11.5567 13.8214 11.3821ZM12.0728 12.8208C12.1962 12.6617 12.4262 12.6319 12.5865 12.7543C12.6257 12.7842 12.6632 12.8118 12.701 12.8397C12.7935 12.9078 12.8883 12.9776 13.0169 13.0877C13.1991 13.2437 13.4609 13.489 13.945 13.9693C14.088 14.1113 14.088 14.3414 13.945 14.4834C13.8019 14.6253 13.57 14.6253 13.4269 14.4834C12.9444 14.0046 12.6988 13.7755 12.5383 13.6381C12.4305 13.5458 12.3662 13.4986 12.284 13.4381C12.2429 13.408 12.1974 13.3745 12.1398 13.3305C11.9795 13.2081 11.9495 12.9799 12.0728 12.8208Z" fill="#1B1B1B"/>
<path fill-rule="evenodd" clip-rule="evenodd" d="M2.12454 4.19959C4.07053 1.23867 8.01692 0.171055 11.2578 1.59514C12.619 2.19327 13.5277 3.18749 14.4018 4.26323C15.0963 5.11796 15.7824 5.63724 16.6203 5.98282C17.472 6.33409 18.5027 6.5156 19.9094 6.65587C20.5437 6.71913 21.1756 6.85245 21.7822 7.07181C25.9713 8.58659 27.8008 13.4612 25.6297 17.3262L25.4082 17.7206L25.4077 17.7215L25.4058 17.7246C25.1044 18.2371 24.7506 18.7017 24.3548 19.1153C24.1966 19.2807 23.9333 19.2875 23.7666 19.1305C23.5996 18.9732 23.5928 18.7113 23.7513 18.5456C24.1022 18.1789 24.4165 17.7665 24.6848 17.3109C24.6849 17.3108 24.6847 17.3111 24.6848 17.3109L24.9026 16.9233C26.8236 13.5035 25.2052 9.18966 21.4974 7.84888C20.9632 7.65574 20.4 7.53592 19.8262 7.4787C18.4037 7.33685 17.2711 7.14669 16.301 6.74656C15.317 6.34074 14.5227 5.72889 13.7538 4.78257C12.8921 3.72206 12.0883 2.86437 10.9209 2.35139C8.03669 1.08403 4.53497 2.04493 2.82179 4.65161L2.7283 4.79387C1.79527 6.21352 1.19638 7.65833 1.29186 9.12599C1.38629 10.5776 2.16681 12.1392 4.18219 13.7859C4.35982 13.931 4.38534 14.1918 4.23896 14.3682C4.09277 14.5443 3.83059 14.5694 3.6532 14.4245C1.51657 12.6787 0.574362 10.9227 0.460946 9.17931C0.348574 7.45197 1.0567 5.82436 2.03105 4.34185L2.12454 4.19959ZM11.2175 1.68669C8.01912 0.28125 4.12597 1.33639 2.20811 4.25451L2.11461 4.39677C1.14524 5.87171 0.450421 7.4771 0.560735 9.17281C0.671839 10.8807 1.59436 12.6131 3.71647 14.3471C3.85144 14.4573 4.05098 14.4381 4.16201 14.3043C4.27284 14.1708 4.25366 13.9734 4.11892 13.8633C2.08898 12.2047 1.28881 10.6196 1.19207 9.13248C1.09453 7.6332 1.70672 6.16618 2.64473 4.73895L2.73822 4.59669C4.47951 1.94725 8.03444 0.973819 10.9611 2.25984C12.1517 2.78303 12.9682 3.65714 13.8314 4.71951C14.5913 5.65476 15.3726 6.2555 16.3391 6.65411C17.2951 7.04841 18.4155 7.23754 19.8361 7.3792C20.4171 7.43713 20.9886 7.55856 21.5314 7.75484C25.2968 9.11642 26.9413 13.4981 24.9898 16.9722L24.7718 17.3603L24.7713 17.3612C24.4989 17.8237 24.1798 18.2424 23.8235 18.6148C23.7034 18.7403 23.7086 18.9385 23.8351 19.0577C23.9619 19.1771 24.1623 19.1719 24.2826 19.0462C24.673 18.6381 25.0221 18.1797 25.3196 17.6739L25.321 17.6716L25.3215 17.6707L25.5426 17.2772C27.683 13.4666 25.8797 8.65982 21.7482 7.16585C21.1502 6.94963 20.5265 6.81791 19.8994 6.75538C18.4909 6.61492 17.448 6.43238 16.5822 6.07527C15.7268 5.72248 15.0277 5.19209 14.3242 4.32629C13.4517 3.25245 12.5555 2.27462 11.2175 1.68669ZM5.47393 3.52507C7.63801 3.00681 9.17486 3.35596 10.4826 4.167C11.1235 4.56446 11.6989 5.06609 12.2575 5.6036C12.5314 5.86712 12.8046 6.14267 13.0801 6.42043L13.0973 6.43777C13.3797 6.72256 13.6652 7.01018 13.9633 7.29728C15.115 8.40644 16.0347 8.76699 16.8707 8.90897C17.2822 8.97885 17.6805 8.99717 18.1071 9.01673L18.1702 9.01963C18.6134 9.04008 19.0864 9.06467 19.5828 9.16318C20.5611 9.35733 21.4197 9.71959 22.1784 10.3119C22.935 10.9026 23.5734 11.7072 24.1335 12.7603C24.2411 12.9626 24.1629 13.2128 23.9596 13.3192C23.7565 13.4256 23.5047 13.3486 23.3973 13.1466C22.8772 12.1688 22.3073 11.4644 21.6639 10.9621C21.0225 10.4614 20.2892 10.1467 19.4196 9.97411C18.9921 9.88927 18.5767 9.86625 18.1316 9.84571L18.0563 9.84226C17.6399 9.82325 17.1945 9.80292 16.7304 9.72411C15.7186 9.55229 14.6484 9.10894 13.3837 7.89097C13.0777 7.59629 12.7857 7.30213 12.5041 7.01808L12.4897 7.00364C12.212 6.72361 11.9448 6.45412 11.6781 6.19753C11.1351 5.67504 10.6089 5.22026 10.0416 4.86844C8.93302 4.18092 7.62707 3.8601 5.66911 4.329C5.44597 4.38243 5.22089 4.24635 5.16683 4.02413C5.11275 3.80177 5.25066 3.57854 5.47393 3.52507ZM10.4299 4.25198C9.14602 3.45574 7.63673 3.10994 5.49721 3.62232C5.32715 3.66305 5.22316 3.83257 5.264 4.00049C5.30488 4.16856 5.47562 4.2725 5.64582 4.23175C7.62836 3.75696 8.96187 4.08115 10.0943 4.78346C10.6705 5.14075 11.2026 5.60117 11.7475 6.12547C12.015 6.38291 12.283 6.65312 12.5604 6.93287L12.5751 6.94766C12.8568 7.2318 13.148 7.52517 13.453 7.81894C14.7041 9.0238 15.7563 9.45726 16.7471 9.62552C17.2047 9.70323 17.6446 9.72336 18.062 9.74242L18.1362 9.74582C18.5811 9.76634 19.0034 9.78955 19.4391 9.87603C20.3216 10.0512 21.07 10.3715 21.7254 10.8832C22.3825 11.3962 22.9606 12.1127 23.4856 13.0997C23.567 13.2527 23.7585 13.3117 23.9132 13.2306C24.0677 13.1497 24.1266 12.9602 24.0452 12.8073C23.4899 11.7633 22.8599 10.9708 22.1169 10.3907C21.3723 9.80942 20.5287 9.45284 19.5633 9.26126C19.0752 9.16438 18.609 9.13999 18.1656 9.11953L18.101 9.11656C17.6759 9.09706 17.272 9.07855 16.854 9.00756C15.997 8.86202 15.0592 8.49158 13.8939 7.36931C13.5949 7.0813 13.3086 6.79288 13.0263 6.50819L13.0092 6.49096C12.7335 6.21301 12.4611 5.93825 12.1882 5.67566C11.6315 5.13997 11.062 4.64396 10.4299 4.25198ZM4.25543 6.06688C4.36985 5.86875 4.62414 5.80046 4.82341 5.91377L11.1486 9.51024C11.3481 9.62367 11.4175 9.87644 11.3029 10.0748C11.1885 10.2729 10.9342 10.3412 10.7349 10.2279L4.40972 6.63144C4.21022 6.51801 4.14087 6.26525 4.25543 6.06688ZM4.77398 6.0007C4.62217 5.91438 4.42878 5.96667 4.34202 6.11689C4.2554 6.26688 4.30756 6.45833 4.45915 6.54451L10.7844 10.141C10.9362 10.2273 11.1296 10.175 11.2163 10.0248C11.3029 9.87481 11.2508 9.68336 11.0992 9.59717L4.77398 6.0007ZM2.64922 7.56899C2.86909 7.50354 3.10129 7.62722 3.16748 7.84615C3.34711 8.44027 4.2651 10.06 6.44455 11.1954C6.64809 11.3014 6.72682 11.5514 6.61971 11.7539C6.51271 11.9561 6.26112 12.0336 6.05779 11.9277C3.68877 10.6936 2.6168 8.90025 2.37001 8.08398C2.30377 7.86489 2.42918 7.63449 2.64922 7.56899ZM3.07176 7.87509C3.02168 7.70945 2.84543 7.61492 2.67775 7.66483C2.51022 7.7147 2.4157 7.88957 2.46573 8.05504C2.70435 8.84429 3.75766 10.6167 6.10399 11.839C6.25892 11.9197 6.45023 11.8604 6.53132 11.7071C6.61229 11.5541 6.55306 11.3646 6.39835 11.2841C4.1962 10.1369 3.25955 8.49622 3.07176 7.87509ZM13.7779 11.3573C13.8916 11.1587 14.1456 11.0894 14.3453 11.2019L16.9749 12.6828C17.1748 12.7954 17.2452 13.0478 17.1315 13.2467C17.0179 13.4453 16.7639 13.5146 16.5642 13.4021L13.9346 11.9212C13.7346 11.8086 13.6642 11.5561 13.7779 11.3573ZM14.2962 11.289C14.1441 11.2033 13.9509 11.2564 13.8648 11.4069C13.7788 11.5573 13.8317 11.7485 13.9837 11.8341L16.6132 13.315C16.7654 13.4007 16.9586 13.3476 17.0447 13.197C17.1307 13.0467 17.0777 12.8555 16.9258 12.7699L14.2962 11.289ZM12.0333 12.7902C12.1736 12.6093 12.4348 12.5756 12.6169 12.7146C12.6557 12.7442 12.6928 12.7715 12.7306 12.7994C12.8233 12.8676 12.9195 12.9385 13.0494 13.0497C13.2331 13.207 13.496 13.4534 13.9802 13.9338C14.1429 14.0953 14.1429 14.3574 13.9802 14.5189C13.8176 14.6802 13.5542 14.6802 13.3917 14.5189C12.9093 14.0403 12.6648 13.8122 12.5058 13.6761C12.3994 13.585 12.3363 13.5386 12.2544 13.4784C12.2133 13.4482 12.1675 13.4145 12.1095 13.3703C11.9271 13.2311 11.8929 12.9713 12.0333 12.7902ZM12.5562 12.7941C12.4176 12.6883 12.2188 12.7141 12.1123 12.8515C12.0061 12.9886 12.0318 13.1852 12.1702 13.2908C12.2274 13.3345 12.2726 13.3677 12.3136 13.3978C12.3961 13.4585 12.4616 13.5066 12.5708 13.6001C12.7328 13.7388 12.9795 13.969 13.4621 14.4479C13.5857 14.5705 13.7862 14.5705 13.9097 14.4479C14.0331 14.3255 14.0331 14.1272 13.9097 14.0048C13.4258 13.5246 13.1651 13.2804 12.9844 13.1257C12.8573 13.0169 12.7637 12.9479 12.6713 12.8799C12.6336 12.8521 12.5957 12.8243 12.5562 12.7941ZM18.8547 13.6839C19.1631 13.7575 19.3335 14.0692 19.2507 14.3604C19.1971 14.549 19.1248 14.7711 19.0347 15.021C19.5973 15.0286 20.2132 15.181 20.7166 15.5237C21.1128 15.7935 21.4421 16.184 21.6086 16.7104C21.7095 17.0296 21.7467 17.3863 21.7121 17.7802C22.0259 17.6561 22.3052 17.559 22.5432 17.4907C22.8455 17.4039 23.173 17.5853 23.2341 17.9122C23.4083 18.8454 23.107 19.9844 22.5386 21.073C21.9637 22.174 21.0861 23.2816 20.0208 24.1689C17.9096 25.9272 14.9528 26.8878 12.1639 24.9969C12.138 24.9833 12.1167 24.9688 12.1002 24.956C12.082 24.942 12.0665 24.9277 12.0533 24.9141C12.0272 24.8897 12.003 24.8617 11.9821 24.8301C11.8409 24.6573 11.7127 24.4825 11.5969 24.3059C10.6009 24.8453 9.45188 25.1362 8.30681 25.2342C6.87583 25.3566 5.42058 25.1804 4.22178 24.7833C3.05146 24.3956 2.03875 23.7671 1.60483 22.9125C1.44479 22.64 1.55451 22.3024 1.82314 22.1607C1.99751 22.0687 2.2092 21.9669 2.45345 21.8586C2.07008 21.4501 1.75518 20.9033 1.65659 20.3055C1.57898 19.8349 1.63557 19.3287 1.9037 18.8453C2.06617 18.5524 2.29997 18.2792 2.61045 18.0317C2.30346 17.8928 2.03986 17.7598 1.82573 17.6366C1.55309 17.4797 1.45873 17.119 1.65452 16.8492C2.21331 16.0791 3.2506 15.5075 4.43618 15.1622C5.63511 14.813 7.04824 14.676 8.4308 14.826C10.0081 14.9972 11.5863 15.5514 12.7477 16.6229C13.6098 15.6286 14.6536 14.8045 15.6835 14.266C16.7751 13.6952 17.9328 13.4041 18.8547 13.6839ZM12.6825 16.6989C11.5411 15.6445 9.98456 15.0952 8.42001 14.9255C7.05041 14.7769 5.65045 14.9126 4.46415 15.2582C3.28793 15.6008 2.27542 16.1638 1.73546 16.9079C1.57644 17.1271 1.65162 17.4211 1.87559 17.5499C2.10339 17.681 2.3896 17.8242 2.7271 17.9745L2.80431 18.0089L2.73699 18.06C2.40298 18.3136 2.15737 18.5942 1.99114 18.8938C1.73517 19.3553 1.68088 19.8382 1.75526 20.2892C1.8541 20.8886 2.18034 21.4386 2.57469 21.8405L2.62546 21.8923L2.55906 21.9213C2.28861 22.0398 2.05691 22.1504 1.8698 22.2491C1.64866 22.3658 1.56102 22.642 1.69176 22.8631L1.69341 22.8659C2.1089 23.6856 3.09071 24.3033 4.25322 24.6884C5.43858 25.081 6.88019 25.2558 8.29829 25.1345C9.43063 25.0377 10.5629 24.7506 11.5426 24.2216C11.428 24.0402 11.3263 23.857 11.2369 23.6726C10.3525 24.1495 9.31167 24.4186 8.24389 24.5099C6.90803 24.6242 5.55346 24.458 4.45378 24.0937C3.45717 23.7636 2.72412 23.2899 2.36609 22.7653L2.33344 22.7175L2.38552 22.6922C3.27217 22.261 4.93026 21.6319 6.90568 21.1341C8.1295 20.8256 9.46509 20.5701 10.8053 20.442C10.8595 20.1336 10.9379 19.829 11.0374 19.5299C9.47701 19.3231 7.99783 19.0124 6.69256 18.6645C5.48764 18.3433 4.43875 17.9926 3.6155 17.6663L3.60961 17.664C3.14233 17.4786 2.74752 17.301 2.43823 17.1409L2.37952 17.1106L2.42472 17.0623C2.88552 16.5707 3.66341 16.1449 4.64255 15.8597C5.74839 15.5376 7.0643 15.4091 8.35116 15.5487C9.84412 15.7107 11.2659 16.2251 12.2877 17.1936C12.3666 17.0881 12.4475 16.9843 12.5302 16.8823C12.5803 16.8206 12.6311 16.7594 12.6825 16.6989ZM12.3602 17.2637C12.4406 17.1558 12.5233 17.0496 12.6079 16.9453C12.6564 16.8855 12.7056 16.8262 12.7555 16.7675C12.8237 16.8328 12.8904 16.9001 12.9554 16.9692C12.8199 17.1202 12.6833 17.2845 12.5489 17.4608C12.4877 17.3932 12.4248 17.3275 12.3602 17.2637ZM12.3002 17.345C12.374 17.4183 12.4455 17.4942 12.5145 17.5726L12.5551 17.6187L12.592 17.5695C12.7465 17.3637 12.9044 17.174 13.0602 17.0022L13.091 16.9683L13.0599 16.9347C12.9825 16.8509 12.9027 16.7698 12.8207 16.6915C13.6753 15.7048 14.7105 14.8876 15.7298 14.3546C16.814 13.7877 17.9427 13.5109 18.8271 13.7801L18.8302 13.7809C19.0823 13.8403 19.2223 14.0945 19.1545 14.333C19.097 14.5354 19.0173 14.778 18.9165 15.0537L18.8917 15.1214L18.9639 15.1208C19.5293 15.1161 20.1555 15.2626 20.6603 15.6064C21.0402 15.8651 21.3543 16.238 21.5132 16.7406C21.6164 17.0669 21.6508 17.4369 21.6045 17.8516L21.5952 17.9348L21.6729 17.9035C22.0157 17.7656 22.3178 17.6595 22.5708 17.5868C22.8199 17.5153 23.0862 17.6651 23.1358 17.9306C23.3041 18.832 23.0138 19.9469 22.4499 21.0268C21.8812 22.1159 21.012 23.2132 19.9568 24.092C17.8635 25.8355 14.9558 26.7707 12.2176 24.9125L12.2125 24.9094C12.1915 24.8986 12.1744 24.887 12.1613 24.8769C12.147 24.8658 12.1347 24.8545 12.1242 24.8437L12.1224 24.8419C12.1009 24.8218 12.0811 24.7988 12.0642 24.773L12.0611 24.7688C11.9232 24.6002 11.798 24.4296 11.6847 24.2575C11.8012 24.1921 11.9155 24.1232 12.0273 24.0508L12.0884 24.0112L11.8939 23.8698C11.8405 23.831 11.7961 23.7799 11.7666 23.722C11.7117 23.6144 11.6612 23.507 11.6149 23.3999L11.5916 23.346L11.5421 23.3776C11.4572 23.4318 11.3704 23.4838 11.2819 23.5336C10.8561 22.608 10.7432 21.6517 10.8644 20.7168C10.8723 20.6559 10.8812 20.595 10.8911 20.5344C11.0046 20.5239 11.1182 20.5144 11.2318 20.5059L11.2704 20.5029L11.2772 20.4648C11.3334 20.1499 11.4159 19.8444 11.5185 19.5506L11.5391 19.4918L11.4773 19.4845C11.3751 19.4723 11.2732 19.4597 11.1717 19.4466C11.4338 18.7031 11.8269 17.9938 12.3002 17.345ZM12.2278 17.2746C11.226 16.3203 9.82381 15.8091 8.34037 15.6481C7.06647 15.5099 5.76373 15.6373 4.67052 15.9557C3.7338 16.2286 2.99347 16.6287 2.54394 17.0827C2.84022 17.2328 3.21115 17.3983 3.64647 17.571L3.65234 17.5734C4.47161 17.8981 5.51677 18.2476 6.71832 18.5679C8.02539 18.9162 9.50733 19.2272 11.0703 19.4334C11.3377 18.6674 11.7418 17.9387 12.2278 17.2746ZM11.1384 19.5432C11.0404 19.835 10.9628 20.1319 10.9086 20.4323C11.001 20.424 11.0934 20.4162 11.1857 20.4091C11.2388 20.123 11.3131 19.8448 11.4039 19.5764C11.3152 19.5657 11.2267 19.5546 11.1384 19.5432ZM10.7882 20.5441C9.46306 20.6724 8.1421 20.9256 6.93012 21.231C4.99903 21.7177 3.37408 22.3297 2.48233 22.7565C2.83439 23.2369 3.52939 23.6822 4.48522 23.9988C5.57145 24.3586 6.91238 24.5234 8.23537 24.4103C9.29487 24.3196 10.3234 24.0526 11.1941 23.5821C10.7578 22.6369 10.6414 21.6593 10.7653 20.7039C10.7722 20.6505 10.7798 20.5972 10.7882 20.5441ZM11.3247 23.6243C11.4138 23.8087 11.5155 23.9919 11.6304 24.1733C11.7256 24.1199 11.8193 24.0642 11.9114 24.0062L11.8351 23.9507C11.7696 23.903 11.7145 23.84 11.6775 23.7675C11.6308 23.6759 11.5871 23.5844 11.5465 23.493C11.4738 23.5383 11.3998 23.5821 11.3247 23.6243ZM18.3615 14.4213C17.7681 14.3412 16.963 14.5315 16.0714 14.9978C15.0583 15.5275 14.0111 16.3746 13.1787 17.4011C12.3454 18.4285 11.7464 19.6117 11.5911 20.8096C11.4562 21.8498 11.6529 22.9164 12.3476 23.9338C12.4729 23.8157 12.5991 23.6989 12.726 23.5835C14.1787 22.1649 15.4278 20.3628 16.3964 18.6639C17.3774 16.9433 18.0556 15.3556 18.3615 14.4213ZM16.025 14.9091C16.9546 14.4231 17.8063 14.2253 18.4355 14.3314L18.4925 14.341L18.4748 14.3959C18.1756 15.3297 17.4869 16.9532 16.4833 18.7134C15.5118 20.4174 14.2571 22.2282 12.7952 23.6556L12.794 23.6568C12.653 23.7851 12.5129 23.9149 12.374 24.0465L12.3319 24.0863L12.2986 24.0388C11.562 22.9853 11.3519 21.8763 11.4919 20.7967C11.6503 19.5754 12.2597 18.3754 13.101 17.3381C13.9416 16.3015 14.9994 15.4455 16.025 14.9091ZM18.7057 15.8649C18.3255 16.7786 17.7893 17.8993 17.121 19.0714C16.7481 19.7254 16.3321 20.399 15.8766 21.0644C16.6191 20.5404 17.3514 20.0664 18.0497 19.6465C19.056 19.0415 19.9982 18.5449 20.8042 18.1719C20.9304 17.654 20.9089 17.2576 20.8142 16.9582C20.7099 16.6283 20.5064 16.3833 20.2458 16.2058C19.7954 15.8992 19.185 15.804 18.7057 15.8649ZM18.6636 15.7696C19.1664 15.6986 19.8183 15.7938 20.3021 16.1232C20.579 16.3117 20.7977 16.5743 20.9095 16.9281C21.0123 17.253 21.0315 17.676 20.8955 18.2193L20.8897 18.2426L20.8679 18.2526C20.0607 18.6251 19.1138 19.1234 18.1012 19.7322C17.3322 20.1946 16.5217 20.7229 15.702 21.3116L15.6318 21.2422C16.1494 20.5038 16.6185 19.7508 17.0341 19.0219C17.7068 17.842 18.2451 16.7147 18.6244 15.8L18.6353 15.7736L18.6636 15.7696ZM22.5425 18.2516L22.5463 18.3169C22.5856 18.9873 22.3575 19.8395 21.888 20.7386C21.3578 21.7541 20.5413 22.7862 19.5497 23.6121C17.6474 25.1965 15.1768 25.9744 12.8401 24.5649L12.7826 24.5302L12.8324 24.4851C12.9665 24.3636 13.0989 24.239 13.2296 24.1116L13.2309 24.1104C14.9349 22.5619 16.7774 21.2615 18.4294 20.2682C19.4964 19.6267 20.477 19.1174 21.2839 18.753L21.2893 18.7505C21.7474 18.5438 22.1501 18.3835 22.4805 18.2725L22.5425 18.2516ZM22.4494 18.3887C22.1351 18.4973 21.7579 18.6488 21.3308 18.8415L21.325 18.8441C20.5221 19.2068 19.5449 19.7142 18.4809 20.3539C16.8337 21.3443 14.997 22.6408 13.2988 24.1838C13.1837 24.296 13.0673 24.406 12.9495 24.5137C15.2185 25.8454 17.6171 25.0916 19.4857 23.5352C20.4672 22.7178 21.2753 21.696 21.7994 20.6923C22.2486 19.8321 22.4692 19.0247 22.4494 18.3887ZM3.51571 18.3015L3.53783 18.31C4.3672 18.631 5.38483 18.9652 6.52826 19.2699C7.3967 19.5014 8.34173 19.717 9.33716 19.8975L9.33595 19.9961C8.44041 20.1358 7.56778 20.3203 6.74975 20.5264C5.4256 20.8602 4.23264 21.2539 3.30442 21.6146L3.27796 21.6249L3.25557 21.6075C2.85612 21.2961 2.47441 20.7629 2.37962 20.1881C2.32536 19.8591 2.36537 19.5207 2.54554 19.1959C2.71098 18.8976 3.00559 18.5913 3.49508 18.3132L3.51571 18.3015ZM3.52397 18.4119C3.05941 18.6797 2.78551 18.9694 2.63299 19.2444C2.46495 19.5473 2.42727 19.8625 2.47829 20.1718C2.56646 20.7065 2.9192 21.2096 3.29489 21.5111C4.22301 21.1517 5.40974 20.761 6.72531 20.4295C7.45906 20.2445 8.23683 20.077 9.0359 19.9433C8.14153 19.7736 7.2906 19.5766 6.5025 19.3666C5.36609 19.0637 4.35294 18.7316 3.52397 18.4119Z" fill="#1B1B1B"/>
</svg>
