<svg width="25" height="25" viewBox="0 0 25 25" fill="none" xmlns="http://www.w3.org/2000/svg">
<path d="M16.9168 2.4661C12.8064 0.490383 7.95378 0.951333 5.34153 2.9732C4.40653 3.69688 3.96729 4.29253 3.11841 5.44368C3.10983 5.45531 3.10122 5.46699 3.09256 5.47873C1.9392 7.91485 2.18949 11.3634 4.50605 14.4204C6.80018 17.4479 11.1373 20.1038 18.1628 20.9307C17.9974 20.8159 17.8203 20.698 17.6354 20.5749C15.9405 19.4467 13.5878 17.8806 13.5878 14.2489C13.5878 13.2411 14.1836 12.0327 15.442 11.7272C17.6803 11.1838 19.5395 11.5728 21.0544 12.4831C22.2229 13.1853 23.1743 14.1899 23.9399 15.289C23.994 8.34571 20.7816 4.32379 16.9168 2.4661ZM23.8534 16.4423C23.049 15.1019 22.0089 13.8723 20.6943 13.0823C19.3365 12.2664 17.6659 11.9066 15.6069 12.4065C14.8977 12.5787 14.4564 13.1909 14.3268 13.8451C16.6812 13.5898 18.4129 14.3036 19.6974 15.3902C21.0261 16.5142 21.859 18.0224 22.4301 19.1939L23.8534 16.4423ZM14.2929 14.5526C14.4147 17.5662 16.3499 18.8657 17.9871 19.9651C18.2637 20.1508 18.5318 20.3308 18.7812 20.5124C18.9811 20.6579 19.0465 20.8731 19.0311 21.066C19.0303 21.0853 19.0279 21.1047 19.0239 21.1238C19.0168 21.1662 19.0058 21.207 18.9916 21.2451C18.9419 21.3784 18.8398 21.5111 18.6956 21.589L16.6249 24.1359C16.624 24.1375 16.6228 24.1397 16.6213 24.1426L16.6166 24.1516L16.6105 24.1632C16.5078 24.3575 16.3054 24.4815 16.0871 24.4878C7.49533 24.7358 2.92604 21.1785 1.10907 16.8535C-0.683954 12.5855 0.234565 7.61504 2.52041 5.07679C2.53867 5.05204 2.55676 5.0275 2.57469 5.00318C3.41025 3.86988 3.90111 3.20412 4.91367 2.4204C7.77408 0.206461 12.9184 -0.231349 17.2196 1.83606C21.5626 3.92356 25.0433 8.55453 24.6017 16.4505L24.5975 16.5252L22.9881 19.6367C22.8548 19.8943 22.5917 19.9853 22.3718 19.9638C22.1556 19.9428 21.9232 19.8091 21.8272 19.5542L21.8256 19.5501L21.8245 19.547L21.8241 19.5461C21.26 18.3839 20.4747 16.9634 19.246 15.9239C18.0834 14.9404 16.5077 14.2843 14.2929 14.5526ZM1.78926 7.5185C0.676085 10.012 0.450496 13.4811 1.75355 16.5828C3.43345 20.5815 7.68604 24.0168 16.0171 23.7904C16.0318 23.7648 16.0521 23.7323 16.076 23.7029L17.7939 21.5899C10.797 20.7086 6.35332 18.0156 3.94891 14.8426C2.1468 12.4645 1.49921 9.8235 1.78926 7.5185Z" fill="#1B1B1B"/>
<path d="M8.45727 5.34064C9.57077 4.51025 11.2236 4.06641 13.6624 4.49678C13.8525 4.53032 14.0338 4.40341 14.0673 4.21332C14.1009 4.02322 13.974 3.84193 13.7839 3.80838C10.9761 3.31288 9.02295 3.89725 7.71689 5.04108C5.70873 6.79981 5.35875 9.7638 5.54558 11.6321C5.56479 11.8241 5.73606 11.9643 5.92814 11.9451C6.12021 11.9259 6.26035 11.7546 6.24114 11.5625C6.07184 9.86951 6.38753 7.36437 7.93009 5.80016L10.6527 8.74215C10.5023 8.92204 10.3657 9.11014 10.2419 9.30453C9.19006 10.9567 9.07041 13.0527 9.2697 14.4698C9.29658 14.661 9.47333 14.7942 9.66448 14.7673C9.85563 14.7404 9.9888 14.5636 9.96192 14.3725C9.77614 13.0514 9.90037 11.1426 10.8316 9.67996C10.9236 9.53543 11.0236 9.39515 11.132 9.26007L14.1085 12.4765C14.2396 12.6182 14.4607 12.6267 14.6024 12.4956C14.7441 12.3645 14.7527 12.1434 14.6216 12.0017L11.6121 8.74973C11.9656 8.42963 12.3852 8.1559 12.8815 7.94673C13.8128 7.55424 15.0353 7.38038 16.6321 7.57998C16.8236 7.60392 16.9983 7.46805 17.0223 7.27651C17.0462 7.08497 16.9103 6.91028 16.7188 6.88634C15.0296 6.6752 13.6786 6.85218 12.61 7.30257C12.0347 7.545 11.5474 7.86413 11.1373 8.23666L8.45727 5.34064Z" fill="#1B1B1B"/>
</svg>
