<svg width="28" height="25" viewBox="0 0 28 25" fill="none" xmlns="http://www.w3.org/2000/svg">
<path d="M10.2417 22.324C10.4348 22.324 10.5914 22.4805 10.5914 22.6736V23.8007H18.5414V22.6736C18.5414 22.4805 18.6979 22.324 18.891 22.324C19.0841 22.324 19.2407 22.4805 19.2407 22.6736V23.9172C19.2407 24.2391 18.9798 24.5 18.6579 24.5H10.4748C10.153 24.5 9.89204 24.2391 9.89204 23.9172V22.6736C9.89204 22.4805 10.0486 22.324 10.2417 22.324Z" fill="#1B1B1B"/>
<path d="M1.32293 9.70734C1.36423 9.69356 1.41308 9.67899 1.46991 9.66443C1.64676 9.6191 1.87916 9.5793 2.15622 9.56081C2.71 9.52385 3.43105 9.57274 4.23009 9.82263C4.41441 9.88027 4.61055 9.77758 4.66819 9.59327C4.72583 9.40896 4.62314 9.21282 4.43883 9.15518C3.55061 8.8774 2.74241 8.82081 2.10965 8.86303C1.79345 8.88414 1.51825 8.9301 1.29627 8.987C1.08284 9.0417 0.893203 9.11289 0.765569 9.19798L0.609863 9.30178V9.48892C0.609863 10.6473 1.44858 11.7387 2.31541 12.5523C3.19722 13.3799 4.20503 14.0098 4.71985 14.2386C4.89632 14.317 5.10296 14.2375 5.18139 14.0611C5.25982 13.8846 5.18034 13.6779 5.00387 13.5995C4.56937 13.4064 3.62602 12.8233 2.794 12.0423C2.01945 11.3154 1.41986 10.49 1.32293 9.70734Z" fill="#1B1B1B"/>
<path d="M5.10667 14.374C5.12058 16.4932 6.2702 20.5639 10.3294 22.324H18.6216C18.6797 22.2873 18.7386 22.2502 18.7984 22.2127C19.7048 21.6427 20.7947 20.9574 21.7363 19.831C22.7265 18.6466 23.5645 16.9567 23.7886 14.374H5.10667ZM4.40793 14.2387C4.41283 13.914 4.6811 13.6746 4.98559 13.6746H23.9171C24.257 13.6746 24.5224 13.966 24.4962 14.3016C24.2783 17.093 23.3773 18.9584 22.2728 20.2796C21.2576 21.4941 20.0806 22.2333 19.1781 22.8001C19.1057 22.8456 19.035 22.8899 18.9664 22.9334C18.8722 22.9929 18.7646 23.0233 18.6553 23.0233H10.305C10.2262 23.0233 10.1477 23.0071 10.0752 22.976C5.56331 21.0341 4.37397 16.4885 4.40793 14.2387Z" fill="#1B1B1B"/>
<path d="M3.54963 6.50986C3.68012 6.36751 3.9013 6.35789 4.04366 6.48838L5.07495 7.43373C5.90981 6.7533 6.82112 6.71256 7.29281 6.80982C7.41999 6.83604 7.5215 6.90463 7.59325 6.98393L13.5598 13.5786C13.6894 13.7218 13.6783 13.9429 13.5351 14.0725C13.3919 14.202 13.1708 14.191 13.0413 14.0478L7.10463 7.48623C6.75108 7.4304 5.99142 7.48244 5.32029 8.15357C4.98712 8.48674 4.8666 8.88672 4.85636 9.27249C4.84638 9.64854 4.94261 9.99784 5.03942 10.2176L9.0921 13.5429C9.24139 13.6654 9.26312 13.8857 9.14062 14.035C9.01813 14.1843 8.7978 14.206 8.64851 14.0835L4.57322 10.7397C4.51141 10.689 4.45603 10.6224 4.41796 10.5405C4.27888 10.241 4.14356 9.77071 4.15728 9.25393C4.16862 8.82669 4.28286 8.35854 4.5886 7.9366L3.57111 7.0039C3.42875 6.87341 3.41913 6.65222 3.54963 6.50986Z" fill="#1B1B1B"/>
<path d="M4.88505 7.92705C4.83821 7.7397 4.64837 7.62579 4.46102 7.67263L3.19527 7.98907C3.00792 8.03591 2.89401 8.22575 2.94085 8.4131C2.98768 8.60045 3.17753 8.71436 3.36488 8.66752L4.63063 8.35108C4.81798 8.30424 4.93189 8.1144 4.88505 7.92705Z" fill="#1B1B1B"/>
<path d="M5.43905 5.66169C5.24788 5.63438 5.07076 5.76722 5.04345 5.95839L4.83249 7.43511C4.80518 7.62628 4.93802 7.8034 5.12919 7.83071C5.32037 7.85802 5.49748 7.72518 5.52479 7.53401L5.73575 6.05729C5.76306 5.86612 5.63023 5.689 5.43905 5.66169Z" fill="#1B1B1B"/>
<path d="M8.95054 1.30901C8.36125 1.66556 7.6539 2.30144 7.21661 3.19515C6.75764 4.13314 6.58413 5.37774 7.19205 6.93552C7.26225 7.11542 7.17332 7.31817 6.99342 7.38837C6.81352 7.45858 6.61077 7.36965 6.54057 7.18975C5.8622 5.45145 6.04271 4.00311 6.58844 2.88779C7.12797 1.78516 8.0126 1.03041 8.71987 0.634136C9.00544 0.474141 9.34233 0.592741 9.49234 0.849891L10.1198 1.92557L12.1235 5.19213C12.2245 5.35675 12.1729 5.57205 12.0083 5.67302C11.8437 5.77399 11.6284 5.7224 11.5274 5.55779L9.72466 2.61885C9.33408 2.93898 8.9395 3.35192 8.70069 3.87529C8.40885 4.51488 8.33009 5.36215 8.86942 6.48985C9.31247 7.41623 10.1105 7.88246 10.6266 7.98549C10.8159 8.0233 10.9388 8.20747 10.901 8.39685C10.8632 8.58623 10.679 8.7091 10.4896 8.67129C9.76397 8.52641 8.77934 7.92235 8.23853 6.79158C7.61759 5.49325 7.67947 4.42871 8.06446 3.58498C8.38066 2.89202 8.90126 2.37815 9.36142 2.01337L8.95054 1.30901ZM9.11767 8.92501C9.25422 9.06157 9.25422 9.28296 9.11767 9.41951L7.64095 10.8962C7.5044 11.0328 7.28301 11.0328 7.14645 10.8962C7.0099 10.7597 7.0099 10.5383 7.14645 10.4017L8.62317 8.92501C8.75972 8.78846 8.98111 8.78846 9.11767 8.92501ZM10.1591 10.1781C10.3027 10.3073 10.3143 10.5284 10.1851 10.6719L9.2358 11.7267C9.10661 11.8702 8.88552 11.8819 8.74198 11.7527C8.59844 11.6235 8.58681 11.4024 8.71599 11.2589L9.66531 10.2041C9.7945 10.0605 10.0156 10.0489 10.1591 10.1781ZM11.3131 11.3328C11.4597 11.4585 11.4766 11.6792 11.351 11.8259L10.7181 12.5642C10.5924 12.7108 10.3717 12.7278 10.225 12.6021C10.0784 12.4764 10.0614 12.2557 10.1871 12.109L10.82 11.3707C10.9457 11.2241 11.1664 11.2071 11.3131 11.3328Z" fill="#1B1B1B"/>
<path d="M11.4594 8.42474C10.8681 8.5 10.3042 8.93972 10.0319 9.52968C9.95094 9.70502 9.7432 9.78156 9.56786 9.70063C9.39252 9.6197 9.31598 9.41196 9.39691 9.23662C9.75749 8.45537 10.5121 7.84033 11.3711 7.73101C12.2645 7.61731 13.1822 8.05864 13.818 9.21463C13.9111 9.38384 13.8494 9.59646 13.6802 9.68953C13.511 9.7826 13.2983 9.72087 13.2053 9.55166C12.6808 8.59813 12.0163 8.35387 11.4594 8.42474Z" fill="#1B1B1B"/>
<path d="M13.8246 2.37534C11.9761 4.19968 11.8392 6.76986 12.0619 7.94698C12.0978 8.13673 11.9731 8.31966 11.7833 8.35555C11.5936 8.39145 11.4107 8.26673 11.3748 8.07698C11.1209 6.73495 11.2713 3.83322 13.4249 1.789C13.6568 1.56889 14.009 1.58732 14.2256 1.79189L14.2267 1.79295C14.4394 1.99374 14.7094 2.24875 15.0201 2.69715C15.3289 3.14272 15.6716 3.76965 16.0508 4.71774C16.1225 4.89704 16.0353 5.10053 15.856 5.17225C15.6767 5.24397 15.4732 5.15676 15.4015 4.97746C15.0363 4.06458 14.7167 3.48719 14.4453 3.09547C14.2107 2.75697 14.0075 2.55005 13.8246 2.37534ZM13.8276 3.33766C14.0207 3.33766 14.1773 3.49421 14.1773 3.68732V9.27774C14.1773 9.47085 14.0207 9.6274 13.8276 9.6274C13.6345 9.6274 13.4779 9.47085 13.4779 9.27774V3.68732C13.4779 3.49421 13.6345 3.33766 13.8276 3.33766Z" fill="#1B1B1B"/>
<path d="M12.779 11.4227C12.6305 11.8727 12.6079 12.2782 12.6875 12.557C12.7405 12.7427 12.633 12.9362 12.4473 12.9892C12.2616 13.0423 12.0681 12.9347 12.015 12.749C11.8838 12.2894 11.9403 11.7325 12.1149 11.2035C12.2915 10.6684 12.6005 10.1249 13.0209 9.68281C13.4419 9.24007 13.9853 8.88835 14.629 8.76457C15.2779 8.63977 15.9956 8.75327 16.7453 9.18575C17.7496 9.7651 18.2623 10.6573 18.3496 11.6019C18.4359 12.5361 18.1051 13.5 17.4704 14.2501C17.3456 14.3975 17.125 14.4159 16.9776 14.2911C16.8302 14.1664 16.8118 13.9458 16.9365 13.7983C17.4621 13.1773 17.7206 12.3958 17.6532 11.6662C17.5868 10.9471 17.2029 10.2571 16.3959 9.79151C15.7743 9.43293 15.2262 9.36186 14.761 9.45132C14.2905 9.5418 13.8715 9.80317 13.5277 10.1647C13.1833 10.5269 12.9254 10.9788 12.779 11.4227Z" fill="#1B1B1B"/>
<path d="M21.803 1.43318C21.3698 1.689 21.0624 2.1124 20.7568 2.54428C20.5347 2.85811 20.1473 2.94312 19.8273 2.85096C19.2278 2.67826 18.8259 2.7766 18.5417 2.96235C18.2421 3.15816 18.0264 3.48203 17.872 3.8355C17.7529 4.10825 17.5079 4.27586 17.3007 4.37937C17.0853 4.48698 16.85 4.55513 16.6712 4.5993C16.4594 4.65165 16.1041 4.87425 15.7231 5.63615C15.2856 6.51124 15.2876 7.1964 15.4312 7.72138C15.5784 8.25973 15.8813 8.66004 16.1101 8.95915C16.2274 9.11255 16.1981 9.33201 16.0447 9.44932C15.8913 9.56662 15.6719 9.53736 15.5546 9.38396L15.5479 9.37521C15.3188 9.07571 14.9417 8.58259 14.7566 7.90583C14.5661 7.20906 14.5857 6.34719 15.0976 5.32339C15.5224 4.4739 16.0084 4.04275 16.5034 3.9204C16.6647 3.88054 16.8415 3.82704 16.9881 3.75377C17.143 3.67639 17.2101 3.60388 17.2311 3.55564C17.4119 3.1416 17.6983 2.6781 18.1591 2.37695C18.6353 2.06573 19.2522 1.95752 20.0209 2.17896C20.1061 2.20348 20.1645 2.17056 20.1859 2.14029L20.196 2.126C20.4874 1.7143 20.872 1.17078 21.4475 0.830979C22.0564 0.471488 22.8342 0.361555 23.8587 0.720069C24.7676 1.03814 25.272 1.63062 25.5253 2.27795C25.7726 2.90968 25.7749 3.5758 25.7277 4.06187C25.7208 4.13336 25.7632 4.22088 25.8539 4.26667C27.168 4.93024 27.6543 6.3971 27.0535 7.71871C27.0066 7.82195 27.0257 8.00041 27.1324 8.145C27.6399 8.83235 27.8354 10.0077 27.5422 11.0189C27.3926 11.5344 27.1111 12.0262 26.6589 12.3942C26.2042 12.7641 25.5998 12.99 24.8394 13.0088C24.7579 13.0108 24.7067 13.0573 24.6915 13.0991L24.3882 13.9327C24.3222 14.1142 24.1215 14.2078 23.9401 14.1418C23.7586 14.0757 23.665 13.8751 23.731 13.6936L24.0343 12.86C24.1602 12.514 24.4908 12.3179 24.8221 12.3097C25.4479 12.2942 25.8977 12.1119 26.2175 11.8517C26.5397 11.5896 26.7529 11.2296 26.8705 10.8241C27.1115 9.99318 26.9309 9.04948 26.5698 8.56039C26.3538 8.26783 26.2389 7.82075 26.4169 7.42931C26.8666 6.43997 26.509 5.38091 25.5386 4.89093C25.2176 4.72881 24.9941 4.38193 25.0317 3.99431C25.0739 3.55948 25.0643 3.01879 24.8741 2.53283C24.69 2.06248 24.3315 1.62643 23.6277 1.38015C22.7687 1.07956 22.2097 1.19311 21.803 1.43318Z" fill="#1B1B1B"/>
<path d="M23.1329 2.72914C22.9533 2.65832 22.7502 2.74654 22.6794 2.9262L21.5659 5.75061C21.5574 5.74138 21.5489 5.73222 21.5404 5.72314C21.3399 5.50993 21.0897 5.31019 20.8316 5.13205C20.3153 4.77569 19.7299 4.48031 19.3452 4.31529C19.1678 4.23916 18.9622 4.32131 18.8861 4.49879C18.8099 4.67626 18.8921 4.88185 19.0696 4.95798C19.4225 5.1094 19.9649 5.3836 20.4343 5.70759C20.6691 5.86962 20.8762 6.03774 21.031 6.20229C21.1482 6.32685 21.2216 6.43489 21.2612 6.52362L20.1571 9.32423C19.7792 8.59069 19.2322 8.02719 18.6655 7.60926C17.8973 7.04274 17.0758 6.73053 16.5382 6.61529C16.3494 6.57481 16.1635 6.69507 16.123 6.8839C16.0826 7.07272 16.2028 7.25861 16.3916 7.29908C16.8382 7.3948 17.5668 7.668 18.2504 8.1721C18.9051 8.65487 19.5027 9.33717 19.7871 10.2627L19.0662 12.0913C18.883 11.8014 18.6235 11.488 18.2569 11.2131C18.1024 11.0972 17.8833 11.1285 17.7674 11.283C17.6515 11.4375 17.6828 11.6567 17.8373 11.7725C18.359 12.1638 18.6074 12.6567 18.7228 12.9625L18.3547 13.8961C18.2839 14.0757 18.3721 14.2788 18.5518 14.3496C18.7314 14.4204 18.9345 14.3322 19.0053 14.1526L19.3709 13.2253C19.665 13.0962 20.1151 12.9782 20.6099 12.9494C21.1725 12.9166 21.7459 13.0017 22.1919 13.2694C22.3575 13.3687 22.5723 13.315 22.6716 13.1494C22.771 12.9838 22.7173 12.769 22.5517 12.6697C21.9429 12.3044 21.2133 12.2137 20.5692 12.2513C20.2659 12.2689 19.971 12.3156 19.7036 12.3813L20.4385 10.5172C21.1718 10.0928 22.9114 9.56244 24.6258 10.5315C24.7939 10.6265 25.0072 10.5672 25.1022 10.3991C25.1972 10.231 25.138 10.0177 24.9699 9.92265C23.4073 9.03943 21.8361 9.22197 20.805 9.58735L21.9006 6.8085C22.1939 6.7121 22.6335 6.63546 23.0943 6.62106C23.6395 6.60403 24.1304 6.67716 24.4134 6.83886C24.581 6.93467 24.7946 6.87642 24.8905 6.70875C24.9863 6.54108 24.928 6.32749 24.7603 6.23167C24.305 5.97146 23.6529 5.90394 23.0725 5.92207C22.7801 5.93121 22.4849 5.96287 22.2144 6.01237L23.33 3.18268C23.4008 3.00303 23.3126 2.79997 23.1329 2.72914Z" fill="#1B1B1B"/>
<path d="M16.2579 10.0491C16.0876 9.95809 15.8758 10.0224 15.7847 10.1927L15.2288 11.2327C15.1378 11.403 15.2021 11.6149 15.3724 11.7059C15.5427 11.797 15.7546 11.7327 15.8456 11.5624L16.4015 10.5223C16.4925 10.352 16.4283 10.1402 16.2579 10.0491ZM13.1229 11.0699C13.2139 10.8996 13.4258 10.8353 13.5961 10.9263L14.6361 11.4822C14.8065 11.5733 14.8707 11.7851 14.7797 11.9554C14.6887 12.1257 14.4768 12.19 14.3065 12.099L13.2664 11.5431C13.0961 11.452 13.0319 11.2402 13.1229 11.0699ZM15.5164 12.2957C15.6075 12.1254 15.8193 12.0612 15.9897 12.1522L17.0297 12.7081C17.2 12.7991 17.2643 13.011 17.1733 13.1813C17.0822 13.3516 16.8704 13.4159 16.7 13.3249L15.66 12.7689C15.4897 12.6779 15.4254 12.4661 15.5164 12.2957ZM14.9347 12.5513C15.1016 12.6484 15.1583 12.8624 15.0612 13.0294L14.397 14.172C14.3 14.3389 14.0859 14.3956 13.919 14.2985C13.752 14.2015 13.6954 13.9875 13.7924 13.8205L14.4566 12.6779C14.5537 12.5109 14.7677 12.4543 14.9347 12.5513Z" fill="#1B1B1B"/>
</svg>
