<svg width="24" height="25" viewBox="0 0 24 25" fill="none" xmlns="http://www.w3.org/2000/svg">
<path d="M15.0762 5.62585C16.9226 5.40579 18.5083 5.94801 19.3199 6.42631C20.5748 7.16583 21.9202 8.73012 21.8549 11.0143C21.79 13.2885 20.3284 16.1747 16.2132 19.5786C8.65753 25.8283 3.18544 24.9434 0.827794 23.3001C0.346635 22.9647 0.222297 22.2699 0.677488 21.8227C1.27454 21.2362 2.21102 20.7153 3.12851 20.301C3.9843 19.9145 4.85455 19.6071 5.4855 19.4168C6.5751 17.0573 8.20725 15.3663 9.23103 14.5499C9.39134 14.422 9.48738 14.2345 9.49292 14.0422C9.66952 7.91616 13.1759 5.8521 15.0762 5.62585ZM5.14086 20.2359C4.6193 20.4123 4.00844 20.6441 3.40628 20.916C2.50524 21.3229 1.65923 21.8043 1.15042 22.3042C1.03295 22.4196 1.03627 22.6228 1.21368 22.7464C3.24137 24.1597 8.37463 25.1865 15.7831 19.0586C19.8338 15.708 21.1235 12.9865 21.1803 10.9951C21.2369 9.01363 20.0746 7.65436 18.9772 7.00772C18.2766 6.59484 16.8379 6.0955 15.156 6.29597C13.6179 6.47908 10.3354 8.23873 10.1675 14.0616C10.1559 14.4649 9.95735 14.8338 9.65179 15.0775C8.67418 15.8571 7.07332 17.5179 6.03694 19.8344C5.87903 20.1874 5.73433 20.5553 5.60695 20.9375C5.54802 21.1142 5.35693 21.2098 5.18013 21.1509C5.00334 21.0919 4.90779 20.9008 4.96672 20.724C5.02184 20.5587 5.07999 20.396 5.14086 20.2359Z" fill="#1B1B1B"/>
<path d="M21.9419 1.98661C21.325 2.41123 20.6047 3.0389 20.0664 3.71344C19.7335 4.13064 19.1843 4.33801 18.6538 4.22161C17.3484 3.93519 16.5506 4.14397 16.0569 4.47078C15.5559 4.80243 15.3091 5.29429 15.1856 5.68269C15.1291 5.86028 14.9393 5.95843 14.7617 5.90193C14.5841 5.84542 14.486 5.65566 14.5425 5.47807C14.6917 5.00911 15.007 4.35642 15.6844 3.90804C16.369 3.45482 17.3658 3.2481 18.7984 3.56243C19.0687 3.62174 19.3605 3.51612 19.5389 3.29249C20.1259 2.55703 20.8982 1.88575 21.5593 1.4307C21.8892 1.20368 22.2032 1.02222 22.4624 0.914018C22.5901 0.8607 22.7213 0.817941 22.8435 0.802909C22.9479 0.790074 23.1452 0.785207 23.2936 0.933598C23.4462 1.08615 23.5579 1.21781 23.6691 1.36887C24.032 1.86192 23.9372 2.52897 23.5337 2.94082C23.1787 3.30309 22.7035 3.7947 22.3069 4.22781C22.1082 4.44475 21.9322 4.64379 21.8018 4.80302C21.7364 4.88289 21.6854 4.94909 21.6497 5.0003C21.6465 5.00487 21.6435 5.00917 21.6408 5.01321C21.6484 5.0329 21.6585 5.05716 21.6717 5.08656C21.7258 5.207 21.809 5.36567 21.9145 5.56665C22.1203 5.95891 22.3943 6.48159 22.5999 7.04082C22.8041 7.5962 22.9542 8.22197 22.8841 8.81867C22.8116 9.43569 22.5048 10.0022 21.8446 10.405C21.6855 10.5021 21.4779 10.4518 21.3808 10.2927C21.2837 10.1337 21.334 9.92601 21.4931 9.82895C21.967 9.53977 22.1643 9.16199 22.2139 8.73992C22.2658 8.29754 22.1561 7.78943 21.9665 7.27369C21.7783 6.76178 21.5246 6.27607 21.3169 5.88018L21.3079 5.86311C21.21 5.67648 21.1187 5.50252 21.0561 5.36295C21.0239 5.2913 20.9937 5.21659 20.9741 5.14622C20.9594 5.09317 20.9284 4.97119 20.9705 4.8442C20.9985 4.75987 21.0531 4.67593 21.0963 4.61401C21.146 4.54286 21.209 4.46178 21.2798 4.37536C21.4218 4.20202 21.6073 3.99246 21.8091 3.77205C22.2135 3.33047 22.695 2.83244 23.0517 2.4685C23.2489 2.26715 23.2715 1.96727 23.1255 1.76892C23.0514 1.66824 22.9784 1.57943 22.8846 1.4807C22.8466 1.48999 22.793 1.50731 22.7224 1.53677C22.5225 1.62023 22.2511 1.77379 21.9419 1.98661ZM22.9428 1.4717C22.9427 1.47187 22.9401 1.47205 22.9356 1.47175C22.9407 1.47138 22.943 1.47153 22.9428 1.4717ZM21.6213 4.95191C21.6215 4.95205 21.6222 4.95484 21.6228 4.95987C21.6214 4.95429 21.6211 4.95177 21.6213 4.95191Z" fill="#1B1B1B"/>
<path d="M6.30657 1.32855C5.75055 3.71048 6.26396 5.3739 6.67699 6.71212C6.69589 6.77333 6.71457 6.83386 6.73293 6.89374C6.94571 7.58778 7.13967 8.26138 7.04613 8.89449C6.94698 9.56568 6.54039 10.1309 5.72091 10.6553C5.15504 11.0175 4.62157 11.14 4.13488 10.9991C3.65643 10.8606 3.3061 10.4909 3.04861 10.0523C2.61567 9.31499 2.36923 8.25297 2.22258 7.24159C1.32316 10.5239 1.6016 12.6824 2.28735 14.0469C3.00756 15.4799 4.20032 16.0858 5.08279 16.2118C5.26728 16.2382 5.39546 16.4091 5.36911 16.5936C5.34275 16.7781 5.17184 16.9063 4.98735 16.8799C3.90291 16.725 2.51116 15.995 1.68436 14.3499C0.858679 12.7071 0.619807 10.2006 1.72602 6.52695C1.81449 6.23313 2.0845 6.10794 2.31876 6.13179C2.5514 6.15548 2.7887 6.32942 2.82349 6.62945C2.95721 7.78257 3.19869 8.9751 3.63057 9.71064C3.84411 10.0743 4.07716 10.2799 4.3225 10.3509C4.5596 10.4195 4.89033 10.3857 5.35713 10.0869C6.07047 9.63037 6.31667 9.21454 6.37852 8.79586C6.446 8.3391 6.3092 7.81397 6.08772 7.09156C6.06876 7.02974 6.04936 6.96694 6.02966 6.90315C5.59675 5.50181 5.01423 3.61618 5.71294 0.916958C5.83605 0.441368 6.44603 0.360108 6.71344 0.737928C7.30788 1.57782 8.17493 2.655 9.06943 3.4716C9.51725 3.88042 9.96011 4.21294 10.3691 4.42013C10.7828 4.62977 11.1198 4.69013 11.3799 4.6251C11.5607 4.5799 11.7439 4.68982 11.7891 4.87061C11.8343 5.0514 11.7244 5.23461 11.5436 5.2798C11.0575 5.40133 10.5439 5.26526 10.0641 5.02213C9.57935 4.77656 9.08541 4.39998 8.61443 3.97001C7.74298 3.17445 6.90954 2.15846 6.30657 1.32855Z" fill="#1B1B1B"/>
<path d="M14.3868 7.77221C14.9004 7.50441 15.4394 7.46621 15.7939 7.51685C15.9784 7.54321 16.1066 7.71413 16.0802 7.89861C16.0539 8.08309 15.883 8.21128 15.6985 8.18493C15.4649 8.15156 15.0714 8.17636 14.6987 8.37063C14.3389 8.55821 13.981 8.91208 13.804 9.57603C13.7559 9.7561 13.5711 9.86314 13.391 9.81513C13.2109 9.76711 13.1039 9.58221 13.1519 9.40215C13.3781 8.55391 13.8603 8.04668 14.3868 7.77221Z" fill="#1B1B1B"/>
</svg>
