<svg width="27" height="23" viewBox="0 0 27 23" fill="none" xmlns="http://www.w3.org/2000/svg">
<path d="M9.94531 0.572752C9.0478 0.835192 8.32874 1.60577 8.09337 2.55725C7.98891 2.97957 7.98917 4.24814 8.09383 4.71564C8.2644 5.47767 8.76978 6.15291 9.42983 6.50059C9.99873 6.8003 10.1197 6.81222 12.414 6.79495L14.4902 6.77928L14.8085 6.59753C15.2072 6.3699 15.4035 6.14227 15.7072 5.55563C15.8675 5.24598 15.995 5.06631 16.0921 5.01348C16.216 4.946 16.7621 4.9345 19.8477 4.9345C23.8096 4.9345 23.671 4.94563 23.8331 4.61544C23.9436 4.39037 23.9436 2.91198 23.8331 2.68692C23.6785 2.37203 23.6479 2.36785 21.5085 2.36785C19.619 2.36785 19.5559 2.37117 19.4662 2.47549C19.3394 2.62297 19.3483 2.88177 19.4851 3.02588C19.5949 3.14154 19.6212 3.14341 21.3725 3.15854L23.1484 3.17389V3.65316V4.13243H19.6792C15.8676 4.13243 15.8918 4.13055 15.52 4.45433C15.4097 4.55041 15.2125 4.84125 15.0464 5.15299C14.832 5.5552 14.7103 5.72284 14.5535 5.83213L14.3453 5.9772H12.2341H10.123L9.84207 5.83187C9.48335 5.64637 9.11748 5.26111 8.94096 4.88306C8.80649 4.59496 8.80273 4.56154 8.80273 3.65118C8.80273 2.72505 8.80426 2.71216 8.95127 2.39689C9.1352 2.00237 9.47675 1.64518 9.84375 1.46343L10.123 1.32515L12.1912 1.31008C14.7226 1.29163 14.5727 1.24976 15.0253 2.1005C15.3367 2.68564 15.4566 2.83397 15.7502 2.99668C16.0125 3.14202 16.0185 3.14272 17.0618 3.14293C18.0215 3.1432 18.1191 3.13459 18.2171 3.04133C18.3568 2.90845 18.3596 2.61901 18.2227 2.4748C18.1286 2.37577 18.0534 2.36785 17.2054 2.36785C16.5481 2.36785 16.2436 2.34737 16.1263 2.29524C15.9987 2.23856 15.9017 2.10836 15.6836 1.70058C15.3585 1.09293 15.0476 0.767443 14.6382 0.606172C14.3728 0.501581 14.2595 0.496554 12.2666 0.5011C10.7609 0.504575 10.1097 0.524627 9.94531 0.572752ZM3.52692 2.06039C3.31998 2.25615 3.33116 2.43828 3.56836 2.73724C3.79103 3.01786 3.87208 3.27869 3.83211 3.58573C3.81475 3.7193 3.63077 4.20226 3.42175 4.66319C3.21334 5.12262 3.00504 5.65397 2.95878 5.84395C2.80308 6.48406 2.95537 7.11728 3.37996 7.59473C3.61116 7.85471 3.81068 7.8931 3.99431 7.71295C4.16173 7.54874 4.13888 7.30614 3.92997 7.02937C3.5386 6.51096 3.56008 6.23317 4.08038 5.08754C4.28925 4.62763 4.4973 4.09863 4.5427 3.91196C4.7021 3.25672 4.52705 2.59351 4.08018 2.15974C3.82262 1.90976 3.7079 1.88917 3.52692 2.06039ZM5.69817 2.00264C5.55944 2.07339 5.46356 2.2938 5.50764 2.44084C5.52643 2.50362 5.6189 2.64997 5.71305 2.76606C5.94258 3.04898 6.01241 3.33195 5.93811 3.67791C5.90653 3.82496 5.71204 4.31824 5.50597 4.77409C5.29984 5.22993 5.10317 5.73204 5.06889 5.88983C4.93407 6.51048 5.09951 7.14096 5.51902 7.60531C5.75114 7.86225 5.95391 7.89321 6.12788 7.69825C6.28764 7.51912 6.26733 7.31587 6.06349 7.05391C5.85295 6.7834 5.78125 6.59897 5.78125 6.32803C5.78125 6.05907 5.8558 5.84802 6.26296 4.96482C6.49259 4.46657 6.63112 4.08703 6.68678 3.80373C6.76392 3.41104 6.76361 3.35938 6.68236 3.03315C6.58827 2.65532 6.38519 2.30214 6.13438 2.07991C5.9662 1.93088 5.87174 1.91415 5.69817 2.00264ZM10.2596 2.36994C10.0985 2.528 10.1094 2.809 10.2822 2.95214C10.4101 3.05807 10.477 3.06299 11.7826 3.06299H13.1492L13.2738 2.93172C13.3423 2.85953 13.3984 2.73815 13.3984 2.66195C13.3984 2.58575 13.3423 2.46437 13.2738 2.39218L13.1492 2.26091H11.7599C10.4321 2.26091 10.3658 2.26572 10.2596 2.36994ZM10.2596 4.3484C10.0985 4.50646 10.1094 4.78746 10.2822 4.9306C10.4101 5.03653 10.477 5.04145 11.7826 5.04145H13.1492L13.2738 4.91017C13.3423 4.83799 13.3984 4.71661 13.3984 4.64041C13.3984 4.56421 13.3423 4.44283 13.2738 4.37064L13.1492 4.23937H11.7599C10.4321 4.23937 10.3658 4.24418 10.2596 4.3484ZM9.67988 8.06196C9.25012 8.17693 8.89566 8.38579 8.56274 8.72015C8.03853 9.24663 7.8125 9.81375 7.8125 10.6025C7.8125 11.5436 8.06148 11.9637 8.71118 12.1192C9.16318 12.2274 9.46934 12.2287 9.88981 12.1243C10.7839 11.9024 11.509 11.1334 11.7223 10.1811C11.8521 9.60163 11.7147 8.65914 11.4586 8.37215C11.1863 8.06688 10.2632 7.90593 9.67988 8.06196ZM10.6524 8.84206C10.8868 8.895 10.9118 8.9157 10.9594 9.09606C11.044 9.41678 11.0218 9.9284 10.9097 10.2438C10.6078 11.0937 9.66993 11.5912 8.85656 11.3328C8.69025 11.28 8.64861 11.2378 8.61007 11.083C8.53207 10.7692 8.59235 10.0719 8.72001 9.8114C9.09412 9.04782 9.86076 8.66331 10.6524 8.84206ZM4.08008 10.9162C3.09939 11.213 2.35778 12.0626 2.1414 13.1374C1.94544 14.1108 2.25023 14.6129 3.03703 14.6129H3.35843L3.32364 14.9738C3.3045 15.1723 3.27509 15.5082 3.25834 15.7203L3.22787 16.1057L3.40768 16.2951L3.5875 16.4844H4.78848C6.08761 16.4844 6.20111 16.4633 6.33664 16.1966C6.40576 16.0607 6.39433 15.5182 6.30866 14.8669L6.27525 14.6129H6.61726C7.22582 14.6129 7.51076 14.3642 7.54956 13.799C7.63751 12.5187 6.72751 11.235 5.49164 10.896C5.11084 10.7916 4.46129 10.8009 4.08008 10.9162ZM5.40638 11.6976C5.74393 11.8031 6.16617 12.1212 6.40266 12.4482C6.61381 12.7401 6.79688 13.2762 6.79688 13.6026V13.8108H6.3627C5.84782 13.8108 5.6543 13.8942 5.54806 14.1619C5.48459 14.3219 5.48509 14.4293 5.55207 14.9989C5.59432 15.3584 5.62891 15.6591 5.62891 15.6674C5.62891 15.6756 5.26282 15.6823 4.81544 15.6823H4.00198L4.02696 15.562C4.09054 15.2556 4.16026 14.3795 4.13187 14.2434C4.11446 14.1599 4.04245 14.0344 3.97191 13.9646C3.85776 13.8516 3.78737 13.8355 3.33334 13.819L2.82314 13.8004L2.85549 13.5106C2.97746 12.4174 3.78656 11.6291 4.79447 11.6213C4.99191 11.6197 5.26724 11.6541 5.40638 11.6976ZM11.3672 12.4969C9.94998 12.8132 8.84986 13.9796 8.61489 15.415C8.53771 15.8866 8.58636 16.1168 8.80609 16.3199L8.98402 16.4844H12.0104C14.9526 16.4844 15.0414 16.4814 15.2019 16.377C15.5261 16.166 15.5744 15.7324 15.3549 15.0038C15.1811 14.4267 14.9089 13.9592 14.4895 13.5175C13.8493 12.8435 13.0824 12.4875 12.1808 12.4456C11.8817 12.4318 11.5714 12.4514 11.3672 12.4969ZM12.8945 13.3835C13.7709 13.6865 14.5346 14.5852 14.7003 15.5086L14.7314 15.6823H12.0337C10.4808 15.6823 9.33594 15.662 9.33594 15.6345C9.33594 15.6082 9.38129 15.432 9.43674 15.243C9.69714 14.3553 10.4878 13.5544 11.3164 13.339C11.4421 13.3063 11.5906 13.268 11.6465 13.2538C11.8606 13.1994 12.5773 13.2739 12.8945 13.3835ZM21.752 15.7106C23.4473 15.2291 24.7467 14.8868 24.8885 14.8844C25.0943 14.8809 25.1567 14.9062 25.3065 15.054C25.4716 15.217 25.5033 15.3094 25.8135 16.5308C25.9956 17.2475 26.1445 17.8799 26.1445 17.9362C26.1445 18.114 26.0055 18.3977 25.8739 18.4885C25.8041 18.5367 25.4081 18.6722 24.9937 18.7898C21.45 19.795 19.8783 20.2274 19.7685 20.2274C19.5977 20.2274 19.3725 20.1009 19.2489 19.9355L19.1491 19.8018L17.8674 20.1624L16.5857 20.5231L16.4374 20.9168C16.1698 21.6269 15.818 22.0402 15.2328 22.3322L14.8965 22.5H8.80273H2.70898L2.36575 22.3288C1.96098 22.1269 1.53355 21.7205 1.3514 21.3643C1.14939 20.9692 0.144531 18.2206 0.144531 18.0631C0.144531 17.8559 0.280016 17.6166 0.464402 17.4982C0.617355 17.4 0.730902 17.3938 2.38596 17.3937C4.02914 17.3934 4.15275 17.4 4.26233 17.4935C4.40731 17.6171 4.42336 17.9371 4.29163 18.076C4.21282 18.159 4.03285 18.1716 2.58574 18.1955L0.967949 18.2223L1.44509 19.5056C2.01679 21.0434 2.03999 21.0925 2.31822 21.3521C2.74204 21.7477 2.34072 21.7247 8.80421 21.7247C13.0654 21.7247 14.6478 21.7082 14.7747 21.6627C15.0394 21.5677 15.3687 21.3108 15.5061 21.0922C15.5743 20.9838 15.8544 20.2936 16.1286 19.5586L16.6273 18.2223L11.1334 18.1955C5.82132 18.1697 5.63602 18.1654 5.53268 18.0669C5.37663 17.9182 5.38968 17.645 5.55959 17.5043C5.69309 17.3937 5.70472 17.3934 11.3113 17.3934C16.8154 17.3934 16.9331 17.3956 17.117 17.4994L17.3048 17.6054L17.9161 17.4343L18.5273 17.2632V17.0869C18.5273 16.9624 18.5758 16.8551 18.6924 16.7217C18.8549 16.5356 18.9012 16.5203 21.752 15.7106ZM25.0782 16.7523C24.9298 16.1638 24.7949 15.6844 24.7783 15.6868C24.7009 15.6984 19.3254 17.2307 19.3147 17.2443C19.3027 17.2593 19.8057 19.2341 19.8507 19.3489C19.8647 19.3847 20.8844 19.1196 22.5889 18.6369C24.0827 18.2138 25.3145 17.8575 25.3264 17.845C25.3383 17.8324 25.2267 17.3407 25.0782 16.7523ZM18.8241 18.4559C18.7638 18.2245 18.701 18.0368 18.6844 18.0388C18.6679 18.0409 18.5515 18.075 18.4258 18.1148C18.3001 18.1545 18.0119 18.2388 17.7853 18.3021L17.3733 18.4172L17.1616 18.9819C17.0451 19.2925 16.9572 19.5544 16.9663 19.564C16.9755 19.5736 17.4218 19.4582 17.9582 19.3076C18.6632 19.1096 18.9336 19.0119 18.9336 18.9552C18.9336 18.9121 18.8843 18.6874 18.8241 18.4559Z" fill="#1B1B1B"/>
</svg>
