<svg width="27" height="23" viewBox="0 0 27 23" fill="none" xmlns="http://www.w3.org/2000/svg">
<path d="M22.2996 3.60864C24.2419 4.84615 25.0542 6.35195 25.0667 7.47715C24.8385 9.40998 21.9796 13.2412 13.0238 13.2412C4.42926 13.2412 1.44189 9.26687 1.22491 7.46073C1.14067 5.86369 3.18674 1.62879 13.0305 1.49482C17.3224 1.43641 20.3561 2.37028 22.2996 3.60864ZM25.0669 9.90797V15.2295C25.0669 16.0448 24.8654 16.7924 24.3792 17.3187C22.7383 19.095 19.0654 21.5078 13.0238 21.5078C6.74845 21.5078 3.15454 18.5028 1.70363 16.4405C1.36108 15.9536 1.22655 15.331 1.22655 14.6553V9.82907C2.85296 12.0136 6.54773 14.2335 13.0238 14.2335C19.7421 14.2335 23.4464 12.1026 25.0669 9.90797ZM0.23432 7.51787V14.6553C0.23432 15.4477 0.389949 16.2977 0.892127 17.0115C2.51376 19.3164 6.40013 22.5 13.0238 22.5C19.3443 22.5 23.2807 19.97 25.108 17.992C25.8246 17.2163 26.0591 16.1868 26.0591 15.2295V7.50357C26.0591 5.9212 24.9631 4.12914 22.8328 2.77184C20.6887 1.40569 17.4527 0.442317 13.017 0.502686C2.99332 0.639107 0.0974956 5.03648 0.23432 7.51787Z" fill="#1B1B1B"/>
<path d="M13.2644 3.76825C13.3382 3.70255 13.403 3.65604 13.4554 3.62775C13.4926 3.60766 13.5127 3.60257 13.518 3.60138C13.5246 3.60226 13.5445 3.60618 13.5796 3.62384C13.6239 3.6461 13.6782 3.68309 13.7396 3.73646C13.8634 3.84414 13.9814 3.98795 14.0668 4.11155C14.1514 4.23386 14.2642 4.34385 14.4057 4.42379C14.8589 4.67993 15.4989 5.14116 16.0257 5.74049C16.5175 6.30013 16.8803 6.94465 16.9449 7.62921C16.9043 7.68016 16.8665 7.72996 16.8321 7.77726C16.8136 7.80253 16.7899 7.81918 16.7669 7.82713C15.087 8.40885 14.0468 9.6404 13.4691 10.7252C13.2216 10.1363 12.8481 9.6367 12.4229 9.22586C11.6765 8.50473 10.7565 8.04142 10.0167 7.81766C9.98998 7.80956 9.96391 7.79199 9.9437 7.76449C9.88141 7.67969 9.80822 7.5866 9.72726 7.49313C9.8561 6.7208 10.5084 5.25086 12.3868 4.58149C12.5802 4.51257 12.7438 4.38586 12.8604 4.22566C12.9704 4.07449 13.1165 3.89995 13.2644 3.76825ZM17.6944 6.94028C17.5006 6.25953 17.1106 5.65982 16.6778 5.16733C16.0753 4.48189 15.3542 3.96258 14.8328 3.66793C14.8173 3.65916 14.7989 3.6438 14.781 3.61779C14.6692 3.45616 14.5046 3.25115 14.3093 3.08132C14.128 2.9237 13.8486 2.73293 13.5155 2.73293C13.3332 2.73293 13.1705 2.79485 13.0428 2.86387C12.9124 2.93427 12.7922 3.02626 12.6871 3.11983C12.4773 3.30667 12.2901 3.53375 12.1583 3.71487C12.1403 3.73962 12.1173 3.75582 12.0953 3.76367C10.1795 4.44638 9.30012 5.84785 8.98234 6.88574C8.86885 6.83525 8.7388 6.79844 8.59815 6.79844C8.25765 6.79844 7.96233 7.01496 7.77595 7.17985C7.56741 7.36436 7.38109 7.58903 7.24879 7.76969C7.22932 7.79628 7.20482 7.8124 7.1822 7.81938C4.78736 8.55871 3.66221 10.4018 3.38823 11.3079C3.31884 11.5374 3.44862 11.7797 3.6781 11.8491C3.90759 11.9185 4.14988 11.7887 4.21927 11.5592C4.42423 10.8814 5.36413 9.28928 7.4383 8.64895C7.64798 8.58422 7.82508 8.4522 7.94924 8.28265C8.05984 8.13163 8.20498 7.95949 8.35124 7.8301C8.50191 7.69679 8.58405 7.67118 8.59661 7.66726L8.59697 7.66715C8.60444 7.66909 8.63775 7.67801 8.7003 7.71822C8.77779 7.76804 8.86729 7.84477 8.9611 7.94143C9.06625 8.04977 9.16476 8.17062 9.24402 8.2785C9.37176 8.45239 9.55297 8.58442 9.76539 8.64868C10.3949 8.83908 11.1876 9.23962 11.8197 9.85026C12.4462 10.4556 12.9007 11.2512 12.9151 12.2529C12.9204 12.6239 12.8658 13.031 12.7312 13.4762C12.6618 13.7057 12.7916 13.948 13.021 14.0174C13.2505 14.0868 13.4928 13.957 13.5622 13.7275C13.7149 13.2225 13.7847 12.7437 13.7836 12.292C13.9993 11.3468 14.9428 9.37756 17.051 8.64754C17.2479 8.57935 17.415 8.45147 17.5336 8.28868C17.5862 8.21658 17.6484 8.13728 17.7162 8.05914C17.8236 7.93544 17.9354 7.82581 18.0378 7.75067C18.1263 7.68571 18.1745 7.67096 18.186 7.66762C18.1864 7.6678 18.1869 7.66802 18.1876 7.66827C18.2016 7.67378 18.2629 7.69786 18.37 7.80278C18.4897 7.92002 18.6068 8.07998 18.6975 8.22736C18.816 8.41978 18.999 8.57766 19.2285 8.65607C19.7882 8.84728 20.4733 9.17258 21.0821 9.62727C21.6925 10.0832 22.2005 10.6496 22.4524 11.316C22.5371 11.5403 22.7877 11.6534 23.0119 11.5686C23.2362 11.4838 23.3493 11.2333 23.2645 11.0091C22.9349 10.1371 22.2931 9.44814 21.6016 8.93167C20.9084 8.41394 20.1394 8.04978 19.5092 7.83449C19.4858 7.8265 19.4584 7.80726 19.4368 7.77211C19.3248 7.59026 19.1654 7.36662 18.9776 7.18257C18.8071 7.01561 18.5304 6.79844 18.187 6.79844C18.0024 6.79844 17.8342 6.86185 17.6944 6.94028Z" fill="#1B1B1B"/>
<path d="M13.2016 4.60192C13.0211 4.50368 12.7952 4.57036 12.6969 4.75085C12.632 4.87018 12.3076 5.23423 11.6715 5.23423C11.466 5.23423 11.2994 5.40082 11.2994 5.60632C11.2994 5.81181 11.466 5.9784 11.6715 5.9784C12.6089 5.9784 13.1696 5.439 13.3505 5.10661C13.4488 4.92612 13.3821 4.70016 13.2016 4.60192ZM13.6599 4.63191C13.496 4.75584 13.4635 4.98918 13.5874 5.15311C13.7142 5.3208 13.9416 5.55381 14.2358 5.74764C14.5299 5.94133 14.9184 6.11392 15.3595 6.11392C15.565 6.11392 15.7315 5.94733 15.7315 5.74183C15.7315 5.53634 15.565 5.36975 15.3595 5.36975C15.1121 5.36975 14.8655 5.2713 14.6452 5.1262C14.4252 4.98124 14.2592 4.8077 14.1811 4.70435C14.0572 4.54042 13.8238 4.50799 13.6599 4.63191ZM17.996 8.66743C18.1765 8.76567 18.2432 8.99163 18.1449 9.17212C17.964 9.50451 17.4033 10.0439 16.4659 10.0439C16.2604 10.0439 16.0938 9.87732 16.0938 9.67183C16.0938 9.46633 16.2604 9.29974 16.4659 9.29974C17.102 9.29974 17.4264 8.93569 17.4913 8.81636C17.5896 8.63587 17.8155 8.56919 17.996 8.66743ZM8.32493 8.6931C8.49125 8.8138 8.52823 9.04647 8.40753 9.21278C8.18009 9.52619 7.68513 9.91914 6.80491 10.0404C6.60134 10.0685 6.41357 9.92619 6.38552 9.72262C6.35747 9.51904 6.49976 9.33128 6.70333 9.30322C7.39666 9.20769 7.70487 8.91401 7.80525 8.7757C7.92595 8.60938 8.15862 8.5724 8.32493 8.6931ZM18.4601 8.6931C18.6264 8.5724 18.8591 8.60938 18.9798 8.7757C19.1004 8.94189 19.5008 9.29974 20.0309 9.29974C20.2364 9.29974 20.403 9.46633 20.403 9.67183C20.403 9.87732 20.2364 10.0439 20.0309 10.0439C19.1842 10.0439 18.5847 9.49832 18.3775 9.21278C18.2568 9.04647 18.2938 8.8138 18.4601 8.6931ZM8.71693 8.71865C8.86913 8.58058 9.10444 8.59204 9.24251 8.74424C9.34618 8.85852 9.53423 9.03011 9.74377 9.15715C9.96716 9.2926 10.1375 9.33086 10.2391 9.30847C10.4398 9.26422 10.6383 9.39104 10.6826 9.59172C10.7268 9.79239 10.6 9.99094 10.3993 10.0352C10.0091 10.1212 9.62629 9.95619 9.35795 9.7935C9.07575 9.62241 8.83354 9.401 8.69134 9.24424C8.55327 9.09204 8.56472 8.85672 8.71693 8.71865Z" fill="#1B1B1B"/>
</svg>
