<svg width="26" height="25" viewBox="0 0 26 25" fill="none" xmlns="http://www.w3.org/2000/svg">
<path d="M2.85852 1.55527C2.87634 1.71625 2.8929 1.93281 2.8929 2.18261C2.8929 2.45086 2.8738 2.69816 2.85491 2.87766C2.84542 2.96775 2.83591 3.04159 2.82867 3.09346C2.82505 3.11941 2.82199 3.13992 2.81978 3.15426L2.81715 3.17108L2.81637 3.17587L2.81613 3.17734C2.81613 3.17734 2.81599 3.17816 2.48081 3.12231L2.81613 3.17734C2.7844 3.36774 2.60419 3.4972 2.41378 3.46547C2.22344 3.43376 2.09483 3.25379 2.12644 3.06345L2.12694 3.06037L2.12888 3.04798C2.13062 3.03667 2.1332 3.0194 2.13635 2.99687C2.14264 2.95176 2.15116 2.88579 2.15972 2.80449C2.17691 2.6412 2.19388 2.41945 2.19388 2.18261C2.19388 2.03247 2.18705 1.89597 2.17777 1.77981C2.1675 1.78343 2.15711 1.7871 2.1466 1.79082C2.12663 1.79788 2.10613 1.80515 2.08535 1.81251C1.93356 1.86634 1.76732 1.92528 1.6901 1.94459C1.50283 1.99141 1.31307 1.87755 1.26625 1.69028C1.21944 1.50301 1.33329 1.31325 1.52056 1.26643C1.56252 1.25594 1.69607 1.20871 1.87006 1.14716C1.88431 1.14212 1.89883 1.13699 1.91359 1.13177C2.06727 1.07743 2.25824 1.01 2.36988 0.981788C3.38642 0.610183 4.89778 0.433093 6.45296 0.523114C7.99853 0.612578 9.63562 0.968516 10.9123 1.70266C11.8507 1.16628 13.8692 0.45744 15.8454 1.20956C16.1164 1.31271 16.2333 1.57984 16.2212 1.80738C16.2015 2.17993 16.3097 2.69652 16.7463 2.9707C16.9061 3.07103 17.0357 3.25421 17.0357 3.48129V4.50794C18.1516 5.16721 19.3855 6.00386 20.497 6.90225C21.6238 7.81299 22.6436 8.80214 23.2815 9.74719C23.9044 10.67 24.2453 11.6806 23.7284 12.5295C23.4763 12.9435 23.0457 13.2676 22.4539 13.5084C21.9407 13.7173 21.2894 13.8707 20.4871 13.9648C20.6571 14.8043 21.0666 16.1885 21.7652 17.1775C23.5031 16.3571 25.1499 17.2668 25.7525 18.5336C26.0612 19.1826 26.1086 19.95 25.7328 20.6336C25.3644 21.3041 24.6244 21.8306 23.4861 22.1008C23.2345 23.397 22.4752 24.1716 21.5594 24.4166C20.647 24.6606 19.6404 24.3599 18.9576 23.6369C18.3652 23.0097 18.2311 22.1989 18.2577 21.5081C18.2823 20.8728 18.4435 20.2971 18.5564 19.9639L16.8641 19.1383C16.9841 19.4246 17.0636 19.6939 17.108 19.9468C17.2196 20.583 17.1079 21.1143 16.8598 21.5302C16.6147 21.9409 16.2499 22.217 15.8866 22.3737L15.8646 22.3832L15.8417 22.3896C14.7762 22.6855 13.8907 22.6662 13.1656 22.4012C12.4389 22.1356 11.9099 21.6365 11.5353 21.0398C10.8129 19.8891 10.643 18.3443 10.6945 17.2187L7.77929 15.869C7.5435 15.8409 7.20369 15.9814 6.79621 16.3054C6.3977 16.6222 6.01409 17.0507 5.73022 17.4189C5.53943 17.6664 5.12384 17.7596 4.86087 17.4627C4.31944 16.8517 4.1055 15.94 4.02782 15.0851C3.9511 14.2409 4.00209 13.3841 4.05643 12.7751C0.654776 9.2722 0.148016 4.20645 0.318902 2.08258C0.334383 1.89017 0.502912 1.74674 0.695321 1.76222C0.88773 1.7777 1.03116 1.94623 1.01568 2.13864C0.853002 4.16046 1.3533 9.01809 4.59146 12.3225C4.71034 12.4438 4.77317 12.6128 4.75727 12.7865C4.70246 13.3851 4.65084 14.217 4.72397 15.0218C4.79117 15.7613 4.95932 16.4214 5.27694 16.8645C5.57015 16.4988 5.95139 16.084 6.36118 15.7582C6.79888 15.4102 7.35879 15.0911 7.91245 15.182C7.96754 15.191 8.01544 15.208 8.05495 15.2263L11.0578 16.6166C11.2788 16.7189 11.4094 16.9447 11.3962 17.1819C11.3372 18.2476 11.499 19.6673 12.1273 20.6682C12.4362 21.1602 12.8517 21.5422 13.4056 21.7446C13.9565 21.946 14.6802 21.9827 15.6306 21.7226C15.8731 21.6136 16.1054 21.4303 16.2595 21.172C16.415 20.9114 16.5045 20.5522 16.4195 20.0675C16.3466 19.6522 16.1453 19.1458 15.7487 18.5439C15.7463 18.5404 15.744 18.5369 15.7418 18.5333C15.1897 17.6986 14.263 16.6808 12.7845 15.4681C12.6353 15.3457 12.6135 15.1255 12.7359 14.9762C12.8583 14.827 13.0786 14.8052 13.2278 14.9276C14.6827 16.1209 15.6596 17.1653 16.2748 18.073L18.9475 19.377C19.2285 19.514 19.3426 19.8382 19.2442 20.1142C19.1436 20.3963 18.9791 20.9427 18.9563 21.5351C18.9333 22.1294 19.0538 22.7208 19.4658 23.157C19.9831 23.7047 20.7293 23.915 21.3788 23.7413C22.0098 23.5725 22.6118 23.0223 22.8101 21.9132C22.8528 21.6738 23.0393 21.4855 23.2701 21.4333C24.3166 21.1964 24.8708 20.7509 25.1202 20.297C25.3691 19.8442 25.3513 19.3176 25.1212 18.8339C24.6554 17.8547 23.3712 17.1524 21.9992 17.841C21.7692 17.9565 21.447 17.9245 21.2623 17.6749C20.3239 16.4063 19.8616 14.5585 19.7362 13.7364C19.031 11.584 17.5596 9.37981 15.9845 7.48613C14.4059 5.58822 12.7442 4.02721 11.7025 3.17485C11.5531 3.05262 11.531 2.83241 11.6533 2.68302C11.7755 2.53362 11.9957 2.5116 12.1451 2.63383C13.2199 3.51324 14.9136 5.1055 16.5219 7.03912C18.0645 8.89366 19.548 11.0854 20.3195 13.2804C21.1227 13.1918 21.7359 13.0459 22.1904 12.8609C22.695 12.6556 22.9818 12.4115 23.1314 12.1659C23.4177 11.6957 23.2983 11.0215 22.7021 10.1383C22.121 9.27731 21.1628 8.33921 20.0576 7.4459C18.9565 6.55589 17.7279 5.72516 16.6234 5.07635C16.4431 4.97045 16.3366 4.77896 16.3366 4.57412V3.53821C15.6513 3.08373 15.5099 2.31571 15.5208 1.83481C13.8111 1.2223 12.0274 1.85618 11.2162 2.33452C11.031 2.44375 10.7995 2.44681 10.6103 2.33565C9.4554 1.65687 7.91548 1.30797 6.41256 1.22097C5.04935 1.14206 3.75732 1.28087 2.85852 1.55527ZM9.99658 2.55546C10.1893 2.56707 10.3361 2.73268 10.3244 2.92536C10.2608 3.98158 9.8449 5.56643 8.80108 6.93191C7.74773 8.30986 6.06253 9.45245 3.50196 9.60307C3.30926 9.61441 3.14386 9.46738 3.13252 9.27469C3.12119 9.08199 3.26821 8.91659 3.46091 8.90525C5.80701 8.76725 7.30875 7.73309 8.24573 6.50738C9.19224 5.2692 9.57005 3.82345 9.62669 2.88332C9.63829 2.69064 9.8039 2.54385 9.99658 2.55546ZM4.69191 3.44686C4.50682 3.48632 4.31236 3.56244 4.14683 3.64787C3.9753 3.7364 3.76448 3.66912 3.67595 3.49759C3.58742 3.32605 3.6547 3.11523 3.82623 3.0267C4.03351 2.91971 4.28702 2.81844 4.54616 2.7632C4.79881 2.70933 5.09681 2.69064 5.36628 2.79481C5.6613 2.90885 5.874 3.15182 5.95451 3.51117C6.02977 3.84709 5.98903 4.27533 5.8379 4.80429C5.78487 4.98989 5.59141 5.09736 5.40581 5.04433C5.22021 4.9913 5.11273 4.79785 5.16576 4.61225C5.30326 4.13101 5.31063 3.83466 5.27239 3.66399C5.2394 3.51674 5.177 3.47108 5.11424 3.44682C5.02593 3.41268 4.88347 3.40602 4.69191 3.44686ZM8.84489 8.07886C8.89623 7.89278 9.08869 7.78355 9.27477 7.83488C10.394 8.14364 11.6198 8.9606 12.3284 9.947C12.6847 10.443 12.9283 11.0075 12.9345 11.5919C12.9408 12.1894 12.6982 12.7656 12.1613 13.2628C11.6012 13.7814 10.9598 13.9749 10.3115 13.9288C9.67557 13.8836 9.05295 13.61 8.49802 13.2321C7.39491 12.4808 6.46088 11.2493 6.10957 10.2344C6.04643 10.052 6.14311 9.85291 6.32552 9.78976C6.50794 9.72662 6.707 9.82331 6.77014 10.0057C7.06824 10.8669 7.90206 11.9805 8.8915 12.6543C9.38285 12.9889 9.88768 13.1979 10.3611 13.2316C10.8223 13.2644 11.2723 13.1333 11.6863 12.7499C12.0921 12.3742 12.2396 11.9818 12.2355 11.5994C12.2313 11.2039 12.064 10.7771 11.7606 10.3548C11.15 9.50468 10.0622 8.77723 9.08887 8.50873C8.90279 8.4574 8.79356 8.26494 8.84489 8.07886Z" fill="#1B1B1B"/>
</svg>
