<svg width="31" height="31" viewBox="0 0 31 31" fill="none" xmlns="http://www.w3.org/2000/svg">
<path fill-rule="evenodd" clip-rule="evenodd" d="M1.84924 21.4989C2.20501 20.863 2.92396 20.4767 3.68949 20.4767C3.93287 20.4767 4.13016 20.674 4.13016 20.9174C4.13016 21.1607 3.93287 21.358 3.68949 21.358C3.2061 21.358 2.80106 21.6027 2.61837 21.9292C2.4522 22.2262 2.42385 22.6777 2.87466 23.2242C3.34186 23.7905 4.31598 24.4349 6.10015 24.9676C7.8758 25.4977 10.4123 25.9047 13.9493 26.0301C21.0432 26.2816 25.3997 25.3382 27.4382 24.2057C28.4844 23.6244 28.7633 23.0888 28.7424 22.7587C28.7219 22.4365 28.3899 21.9786 27.3617 21.612C27.1325 21.5303 27.0129 21.2782 27.0946 21.049C27.1764 20.8197 27.4285 20.7001 27.6577 20.7819C28.7535 21.1726 29.5657 21.8156 29.6219 22.7029C29.6777 23.5824 28.9659 24.3652 27.8663 24.9761C25.6132 26.2278 21.0578 27.164 13.9181 26.9109C10.3348 26.7838 7.71849 26.3705 5.84802 25.8121C3.98608 25.2562 2.82083 24.5439 2.1948 23.785C1.55239 23.0063 1.47695 22.1642 1.84924 21.4989Z" fill="black"/>
<path fill-rule="evenodd" clip-rule="evenodd" d="M6.00518 16.6243C6.24105 16.5644 6.48087 16.707 6.54083 16.9428L7.48498 20.6571C7.53671 20.8607 7.43763 21.0725 7.24821 21.1632C7.05879 21.2539 6.83169 21.1983 6.70555 21.0304L4.54537 18.1547C4.3992 17.9601 4.43845 17.6839 4.63304 17.5377C4.82763 17.3915 5.10387 17.4308 5.25004 17.6253L6.08876 18.7419L5.68665 17.16C5.62669 16.9241 5.7693 16.6843 6.00518 16.6243ZM2.57114 18.299C2.73769 18.1216 3.01657 18.1127 3.19403 18.2793L7.11386 21.9584C7.29132 22.1249 7.30016 22.4038 7.1336 22.5813C6.96704 22.7587 6.68816 22.7676 6.51071 22.601L2.59087 18.9219C2.41342 18.7554 2.40458 18.4765 2.57114 18.299Z" fill="black"/>
<path fill-rule="evenodd" clip-rule="evenodd" d="M17.83 16.0097C14.14 14.4283 9.92417 16.2578 8.04712 18.8292C7.90363 19.0258 7.62795 19.0688 7.43137 18.9254C7.2348 18.7819 7.19177 18.5062 7.33526 18.3096C9.40552 15.4735 14.0382 13.4258 18.1771 15.1996C18.4008 15.2955 18.5045 15.5546 18.4086 15.7783C18.3127 16.002 18.0537 16.1056 17.83 16.0097ZM22.706 17.0504C22.8511 16.8549 23.1271 16.8141 23.3225 16.9591C24.0565 17.5038 24.8338 18.1967 25.44 18.9441C26.0367 19.6796 26.515 20.5258 26.5505 21.3698C26.5688 21.8033 26.4696 22.2313 26.2181 22.6256C25.969 23.016 25.5861 23.3496 25.0727 23.6256C24.0566 24.172 22.4667 24.5268 20.1459 24.6337C19.9028 24.6449 19.6967 24.4569 19.6855 24.2138C19.6743 23.9707 19.8623 23.7645 20.1054 23.7533C22.3815 23.6485 23.8135 23.3021 24.6553 22.8494C25.0708 22.626 25.3258 22.3856 25.475 22.1516C25.6218 21.9216 25.6813 21.6748 25.67 21.4069C25.6464 20.8484 25.3127 20.1862 24.7556 19.4993C24.2079 18.8242 23.4897 18.1807 22.7973 17.6668C22.6018 17.5218 22.561 17.2458 22.706 17.0504Z" fill="black"/>
<path fill-rule="evenodd" clip-rule="evenodd" d="M2.74912 2.39801C2.78539 2.15735 3.00988 1.99166 3.25054 2.02793L22.5666 4.93893C22.8072 4.9752 22.9729 5.19969 22.9366 5.44035C22.9004 5.68101 22.6759 5.8467 22.4352 5.81043L3.1192 2.89943C2.87854 2.86316 2.71285 2.63867 2.74912 2.39801ZM2.74621 5.33261C2.76945 5.09035 2.98468 4.91279 3.22694 4.93602L22.543 6.78848C22.7852 6.81171 22.9628 7.02694 22.9395 7.26921C22.9163 7.51147 22.7011 7.68903 22.4588 7.66579L3.1428 5.81334C2.90054 5.79011 2.72298 5.57488 2.74621 5.33261Z" fill="black"/>
<path fill-rule="evenodd" clip-rule="evenodd" d="M23.2023 25.5422C23.4276 25.6343 23.5357 25.8915 23.4436 26.1168C22.9726 27.2701 21.6504 27.9864 20.1453 28.4109C18.6071 28.8447 16.7306 29.0161 14.9276 28.9699C13.1264 28.9238 11.3618 28.6595 10.0497 28.1981C9.39624 27.9683 8.82434 27.6792 8.41758 27.3192C8.00535 26.9543 7.72632 26.4795 7.77816 25.9102C7.80023 25.6679 8.01461 25.4893 8.25698 25.5113C8.49935 25.5334 8.67794 25.7478 8.65587 25.9901C8.6377 26.1898 8.72071 26.4105 9.00171 26.6592C9.28819 26.9127 9.74073 27.1552 10.3421 27.3667C11.5395 27.7877 13.2059 28.0442 14.9502 28.0888C16.6928 28.1335 18.4764 27.9658 19.9061 27.5626C21.3689 27.1501 22.3223 26.5314 22.6277 25.7835C22.7198 25.5582 22.977 25.4502 23.2023 25.5422Z" fill="black"/>
<path fill-rule="evenodd" clip-rule="evenodd" d="M14.8669 17.6186C14.2682 17.6536 13.8392 17.7668 13.6222 17.8914C13.4111 18.0125 13.1418 17.9396 13.0207 17.7286C12.8995 17.5175 12.9724 17.2482 13.1834 17.127C13.5759 16.9017 14.1664 16.7767 14.8154 16.7387C15.4787 16.6999 16.2549 16.7491 17.0521 16.9119C18.6369 17.2356 20.3731 18.0243 21.4393 19.5498C21.5788 19.7493 21.5301 20.024 21.3306 20.1635C21.1311 20.3029 20.8564 20.2542 20.717 20.0547C19.8268 18.7811 18.3347 18.0734 16.8757 17.7754C16.151 17.6274 15.4513 17.5844 14.8669 17.6186Z" fill="black"/>
<path fill-rule="evenodd" clip-rule="evenodd" d="M18.5878 5.95666C18.8204 6.02809 18.9511 6.2746 18.8797 6.50726L18.4413 7.93505C18.2766 8.47143 18.2866 9.04626 18.4698 9.57661C18.7669 10.4368 18.7202 11.3784 18.3396 12.205L18.1247 12.6715C18.0229 12.8926 17.7612 12.9893 17.5401 12.8875C17.3191 12.7857 17.2224 12.5239 17.3242 12.3029L17.539 11.8364C17.8246 11.2162 17.8596 10.5097 17.6367 9.86434C17.3926 9.15747 17.3793 8.3913 17.5988 7.67638L18.0372 6.24859C18.1086 6.01593 18.3551 5.88523 18.5878 5.95666ZM20.3003 5.95666C20.533 6.02809 20.6637 6.2746 20.5922 6.50726L20.2032 7.77434C20.0065 8.41516 20.0184 9.10191 20.2372 9.73552C20.4937 10.4781 20.5284 11.2794 20.337 12.0414L20.1926 12.6164C19.9939 13.4074 19.9857 14.2342 20.1687 15.029L20.6004 16.9039C20.655 17.1411 20.507 17.3776 20.2699 17.4322C20.0327 17.4868 19.7962 17.3388 19.7415 17.1017L19.3098 15.2267C19.0955 14.2961 19.1051 13.3279 19.3378 12.4017L19.4822 11.8267C19.6319 11.2307 19.6048 10.6041 19.4042 10.0233C19.1244 9.21311 19.1091 8.33502 19.3607 7.51567L19.7497 6.24859C19.8211 6.01593 20.0677 5.88523 20.3003 5.95666ZM21.7682 5.95666C22.0009 6.02809 22.1316 6.2746 22.0602 6.50726L21.8627 7.15044C21.5319 8.22798 21.4729 9.37065 21.6912 10.4765L21.874 11.4029C22.0183 12.1336 21.9661 12.8895 21.723 13.5936C21.4925 14.2607 21.48 14.9838 21.6872 15.6585L22.0602 16.8734C22.1316 17.1061 22.0009 17.3526 21.7682 17.424C21.5356 17.4955 21.2891 17.3648 21.2176 17.1321L20.8446 15.9172C20.5827 15.0639 20.5985 14.1495 20.8899 13.3058C21.0822 12.7491 21.1234 12.1514 21.0094 11.5735L20.8265 10.6472C20.5801 9.39857 20.6466 8.10839 21.0202 6.89177L21.2176 6.24859C21.2891 6.01593 21.5356 5.88523 21.7682 5.95666Z" fill="black"/>
<path fill-rule="evenodd" clip-rule="evenodd" d="M18.9883 20.7648C19.0726 20.5365 19.3261 20.4198 19.5544 20.5041C19.9869 20.6638 20.6382 21.0005 21.2357 21.5058C21.8323 22.0103 22.4101 22.7128 22.6262 23.6103C22.6831 23.847 22.5375 24.085 22.3009 24.1419C22.0643 24.1989 21.8263 24.0532 21.7693 23.8166C21.6126 23.1656 21.1807 22.6135 20.6666 22.1788C20.1536 21.7449 19.5932 21.4579 19.2491 21.3309C19.0208 21.2466 18.904 20.9931 18.9883 20.7648Z" fill="black"/>
<path fill-rule="evenodd" clip-rule="evenodd" d="M17.8227 20.1093C18.2922 20.9179 18.128 21.9367 17.4138 22.426C16.8304 22.8256 16.0466 22.9994 15.3785 22.8466C15.0377 22.7686 14.7091 22.6007 14.4651 22.3132C14.2181 22.0221 14.0869 21.6424 14.0869 21.1969C14.0869 20.9535 14.2842 20.7562 14.5276 20.7562C14.771 20.7562 14.9683 20.9535 14.9683 21.1969C14.9683 21.4637 15.0436 21.6327 15.1371 21.743C15.2338 21.8568 15.3797 21.9427 15.575 21.9874C15.9792 22.0799 16.514 21.9741 16.9157 21.6989C17.1867 21.5133 17.3386 21.0307 17.0605 20.5518C16.7993 20.102 16.089 19.5951 14.5518 19.6798C13.0637 19.7617 12.2671 20.4464 11.9075 21.2011C11.5315 21.9901 11.6136 22.8856 11.9451 23.4122C11.9885 23.4813 12.012 23.561 12.0128 23.6425C12.0135 23.6449 12.0208 23.6808 12.0743 23.7515C12.1376 23.8352 12.2446 23.9388 12.4029 24.0505C12.7186 24.2733 13.1916 24.4956 13.7786 24.6462C14.4981 24.8309 15.3672 24.9024 16.2947 24.7491L15.9897 24.7096C15.7483 24.6784 15.578 24.4574 15.6092 24.216C15.6405 23.9747 15.8614 23.8043 16.1028 23.8356L18.3391 24.125C18.5315 24.15 18.685 24.2978 18.7171 24.4891C18.7492 24.6805 18.6524 24.8703 18.4786 24.9567C16.6932 25.8441 14.9052 25.8452 13.5596 25.4999C12.8885 25.3277 12.313 25.0658 11.8947 24.7706C11.6861 24.6233 11.5048 24.4595 11.3715 24.2833C11.2671 24.1454 11.1754 23.9772 11.1435 23.7885C10.6877 22.9847 10.6366 21.8193 11.1118 20.8219C11.6222 19.7509 12.7223 18.8978 14.5034 18.7998C16.2355 18.7044 17.3363 19.2715 17.8227 20.1093Z" fill="black"/>
<path fill-rule="evenodd" clip-rule="evenodd" d="M13.8645 22.4922C13.9213 22.7289 13.7755 22.9668 13.5389 23.0236C13.2489 23.0932 12.817 23.2288 12.4678 23.4032C12.2918 23.491 12.1594 23.5777 12.0773 23.6546C12.0343 23.6951 12.0179 23.7203 12.0124 23.7304C12.0035 23.966 11.8097 24.1541 11.572 24.1541C11.3286 24.1541 11.1313 23.9568 11.1313 23.7135C11.1313 23.4022 11.3099 23.1661 11.4744 23.0118C11.6448 22.852 11.8619 22.7206 12.0742 22.6146C12.5017 22.4012 13.0018 22.2461 13.3332 22.1666C13.5698 22.1098 13.8077 22.2556 13.8645 22.4922ZM14.7965 23.6106C14.8533 23.8473 14.7075 24.0852 14.4709 24.142C14.3786 24.1641 14.2168 24.2327 14.0858 24.3547C13.9648 24.4675 13.8767 24.6171 13.8767 24.8319C13.8767 25.0753 13.6794 25.2726 13.436 25.2726C13.1927 25.2726 12.9954 25.0753 12.9954 24.8319C12.9954 24.3309 13.218 23.9586 13.4852 23.7097C13.7426 23.4701 14.0468 23.3374 14.2652 23.285C14.5018 23.2282 14.7397 23.374 14.7965 23.6106Z" fill="black"/>
<path fill-rule="evenodd" clip-rule="evenodd" d="M10.9859 18.5529C11.085 18.7752 10.9852 19.0357 10.763 19.1349C10.2769 19.3517 9.66859 19.8032 9.37873 20.4245C9.10932 21.002 9.07393 21.8131 9.88307 22.888C10.0294 23.0824 9.99046 23.3587 9.79602 23.5051C9.60158 23.6515 9.3253 23.6125 9.17893 23.418C8.20682 22.1267 8.15116 20.9712 8.58003 20.0519C8.98846 19.1764 9.79703 18.6007 10.4039 18.33C10.6262 18.2308 10.8867 18.3306 10.9859 18.5529Z" fill="black"/>
</svg>
