<svg width="30" height="21" viewBox="0 0 30 21" fill="none" xmlns="http://www.w3.org/2000/svg">
<path d="M14.7064 15.2364C13.4793 14.189 12.7753 12.6625 12.7753 11.0501C12.7753 8.02028 15.2295 5.55872 18.2429 5.55872C19.8515 5.55872 21.3714 6.2658 22.411 7.49823L21.98 7.86498C21.0457 6.76141 19.6871 6.13033 18.2462 6.13033C15.5453 6.13033 13.3477 8.33747 13.3477 11.0501C13.3477 12.4973 13.9761 13.8652 15.0748 14.8003L14.7064 15.2364Z" fill="#1B1B1B"/>
<path fill-rule="evenodd" clip-rule="evenodd" d="M14.727 15.4888L14.5905 15.3722C13.3237 14.2909 12.5968 12.7148 12.5968 11.0501C12.5968 7.92232 15.1302 5.38015 18.2429 5.38015C19.9043 5.38015 21.474 6.11053 22.5475 7.38309L22.6621 7.51899L21.9594 8.117L21.8437 7.98036C20.9432 6.91672 19.6343 6.3089 18.2462 6.3089C15.6446 6.3089 13.5263 8.43536 13.5263 11.0501C13.5263 12.4454 14.132 13.7634 15.1906 14.6643L15.3261 14.7796L14.727 15.4888ZM14.7064 15.2364L15.0748 14.8003C13.9761 13.8652 13.3477 12.4973 13.3477 11.0501C13.3477 8.33747 15.5453 6.13033 18.2462 6.13033C19.6785 6.13033 21.0297 6.75398 21.9634 7.84547C21.9689 7.85196 21.9745 7.85846 21.98 7.86498L22.411 7.49823C22.4006 7.48589 22.3901 7.47361 22.3796 7.46139C22.3513 7.42841 22.3226 7.39581 22.2936 7.3636C21.2588 6.21445 19.792 5.55872 18.2429 5.55872C15.2295 5.55872 12.7753 8.02028 12.7753 11.0501C12.7753 12.6029 13.4282 14.076 14.5724 15.1183C14.6164 15.1583 14.661 15.1977 14.7064 15.2364Z" fill="#1B1B1B"/>
<path d="M12.0318 17.6583H10.8903C10.7324 17.6583 10.6041 17.5295 10.6041 17.3709C10.6041 17.2123 10.7324 17.0834 10.8903 17.0834H12.0318C12.1898 17.0834 12.318 17.2123 12.318 17.3709C12.318 17.5295 12.1898 17.6583 12.0318 17.6583Z" fill="#1B1B1B"/>
<path fill-rule="evenodd" clip-rule="evenodd" d="M29.7076 4.22056L29.6286 4.13135C29.6549 4.15779 29.6813 4.19083 29.7076 4.22056ZM27.9542 4.91773L24.9704 7.91785C24.819 7.73612 24.6546 7.56431 24.4868 7.39911L27.4541 4.41881L27.01 4.01571C27.0001 4.0091 26.9936 4.00249 26.987 3.99589C26.8751 3.88024 26.8126 3.73156 26.8126 3.56966C26.8126 3.40776 26.8751 3.25577 26.987 3.14343C27.1021 3.03109 27.2502 2.96831 27.4113 2.96831C27.5725 2.96831 27.7239 3.03109 27.8357 3.14343C27.9805 3.28881 28.0397 3.49366 27.9969 3.69521L27.8127 4.56089L28.6746 4.37586C28.7141 4.36594 28.7569 4.36264 28.7996 4.36264C28.9608 4.36264 29.1121 4.42542 29.224 4.53776C29.4576 4.77235 29.4576 5.15232 29.224 5.38691C29.1089 5.49925 28.9608 5.56203 28.7996 5.56203C28.6384 5.56203 28.4871 5.49925 28.3752 5.38691C28.3687 5.377 28.3621 5.37039 28.3555 5.36378L27.9542 4.91773ZM27.5232 2.3967C27.4475 2.39009 27.3719 2.39009 27.2995 2.3967C27.3357 2.3934 27.3752 2.39009 27.4113 2.39009C27.4475 2.39009 27.487 2.3934 27.5232 2.3967ZM26.8685 2.52556C26.9376 2.48922 27.0067 2.45948 27.0791 2.43966C27.0067 2.46278 26.9343 2.48922 26.8685 2.52556ZM27.7436 2.43966C27.816 2.46278 27.8851 2.48922 27.9542 2.52556C27.8884 2.48922 27.816 2.46278 27.7436 2.43966Z" fill="white"/>
<path d="M29.9214 4.62697C29.8885 4.51793 29.8425 4.4122 29.7767 4.31638C29.7536 4.28334 29.7306 4.25361 29.7076 4.22056L29.6286 4.13135C29.5957 4.09831 29.5595 4.06858 29.5234 4.03884C29.5135 4.02893 29.5003 4.02232 29.4905 4.01241C29.4641 3.99258 29.4378 3.97606 29.4115 3.95954C29.3983 3.95293 29.3852 3.94302 29.372 3.93641C29.3424 3.91989 29.3128 3.90667 29.2832 3.89346C29.2733 3.89015 29.2635 3.88355 29.2503 3.88024C29.2108 3.86372 29.1681 3.8472 29.1253 3.83729C29.1154 3.83398 29.1089 3.83398 29.099 3.83068C29.0661 3.82077 29.0299 3.81416 28.997 3.80755C28.9838 3.80425 28.9674 3.80425 28.9542 3.80094C28.9246 3.79764 28.895 3.79434 28.8621 3.79103C28.849 3.79103 28.8325 3.78773 28.8194 3.78773H28.7963C28.7733 3.78773 28.7503 3.79103 28.7272 3.79103C28.7141 3.79103 28.6976 3.79103 28.6845 3.79433C28.6384 3.79764 28.5957 3.80425 28.5529 3.81416C28.6318 3.43749 28.5266 3.03109 28.2371 2.73702C28.1515 2.65112 28.0561 2.58173 27.9542 2.52887C27.8851 2.49252 27.816 2.46278 27.7436 2.44296C27.6712 2.41983 27.5989 2.40661 27.5232 2.40001C27.487 2.3967 27.4475 2.3934 27.4113 2.3934C27.3752 2.3934 27.3357 2.3967 27.2995 2.40001C27.2238 2.40661 27.1515 2.42313 27.0791 2.44296C27.0067 2.46609 26.9376 2.49252 26.8685 2.52887C26.7666 2.58173 26.6712 2.65112 26.5856 2.73702C26.556 2.76676 26.5297 2.7965 26.5067 2.82623C26.4573 2.88901 26.4146 2.95179 26.3784 3.02118C26.3619 3.05422 26.3455 3.09056 26.329 3.12691C26.2731 3.26898 26.2435 3.41767 26.2435 3.56966C26.2435 3.87033 26.3586 4.171 26.5856 4.39899C26.5988 4.4122 26.6119 4.42542 26.6284 4.43863L24.2137 6.86384C24.2697 7.00261 24.319 7.13808 24.3683 7.28016V7.28346C24.4078 7.31981 24.4473 7.35946 24.4868 7.39911L27.4541 4.41881L27.01 4.01241C27.0034 4.0058 26.9968 3.99919 26.987 3.99258C26.8751 3.88024 26.8126 3.72825 26.8126 3.56635C26.8126 3.40445 26.8751 3.25577 26.987 3.14012C27.0988 3.02778 27.2502 2.96501 27.4113 2.96501C27.5725 2.96501 27.7206 3.02778 27.8357 3.14012C27.9805 3.2855 28.0397 3.49036 27.9969 3.69191L27.8127 4.55758L28.6746 4.37255C28.7174 4.36264 28.7601 4.35934 28.7996 4.35934C28.9608 4.35934 29.1089 4.42211 29.224 4.53445C29.4576 4.76904 29.4576 5.14901 29.224 5.38361C29.1121 5.49594 28.9608 5.55872 28.7996 5.55872C28.6384 5.55872 28.4904 5.49594 28.3752 5.38361C28.3687 5.377 28.3621 5.37039 28.3555 5.36048L27.9542 4.91442L24.9704 7.91454C25.0954 8.05992 25.2138 8.21191 25.3257 8.36721L27.9311 5.75036C27.9443 5.76358 27.9574 5.7801 27.9706 5.79331C28.1976 6.0213 28.497 6.13694 28.7963 6.13694C29.0957 6.13694 29.3951 6.0213 29.622 5.79331C29.6517 5.76358 29.678 5.73384 29.701 5.7041C29.7503 5.64133 29.7931 5.57855 29.8293 5.50916C29.8458 5.47612 29.8622 5.43978 29.8786 5.40343C29.9346 5.26135 29.9642 5.11267 29.9642 4.96068C29.9708 4.84834 29.9543 4.736 29.9214 4.62697Z" fill="#1B1B1B"/>
<path d="M5.72213 7.83855C5.6366 8.14253 5.56752 8.44981 5.51159 8.7637C5.38 8.78022 5.24841 8.80335 5.11682 8.82978C5.24512 8.80335 5.37671 8.78022 5.51159 8.7637C5.56752 8.44981 5.6366 8.13922 5.72213 7.83855ZM24.3683 7.28016C24.3683 7.27685 24.3683 7.27685 24.3651 7.27685L24.3683 7.28016Z" fill="#1B1B1B"/>
<path d="M24.4868 7.3958C24.6578 7.56101 24.819 7.73282 24.9769 7.90794C25.102 8.05332 25.2204 8.2053 25.3322 8.3606C25.4079 8.46302 25.4803 8.57206 25.5494 8.67779C25.5559 8.69101 25.5658 8.70753 25.5757 8.72074C25.6448 8.82978 25.7138 8.93881 25.7764 9.05115C25.8389 9.16349 25.9014 9.27583 25.9573 9.38817C26.1876 9.84414 26.3718 10.3232 26.5067 10.8255C26.6777 11.4532 26.7666 12.1141 26.7666 12.7947C26.7666 16.9513 23.411 20.3214 19.2725 20.3214H6.06756V20.3148C2.97521 20.1992 0.501325 17.6484 0.501325 14.5128C0.501325 13.0392 1.04742 11.6977 1.94552 10.6735C2.11658 10.4785 2.29752 10.3001 2.48832 10.1316C2.61662 10.0193 2.74821 9.91022 2.88638 9.8111C2.95547 9.76153 3.02455 9.71197 3.09693 9.66572C3.23838 9.5699 3.38313 9.48399 3.53446 9.40139C3.90949 9.19653 4.31084 9.03133 4.73192 8.91568C4.86022 8.87934 4.98852 8.8496 5.11682 8.82317C5.24841 8.79674 5.38 8.77361 5.51159 8.75709C5.56752 8.4432 5.6366 8.13592 5.72213 7.83194C5.80767 7.53127 5.90636 7.2339 6.01821 6.94314C6.15309 6.59621 6.30771 6.25589 6.47877 5.92878C6.61036 5.67767 6.75182 5.43647 6.90315 5.19858C7.28147 4.60714 7.72229 4.05866 8.21246 3.56305C8.31115 3.46392 8.41314 3.36811 8.51512 3.27229C8.82106 2.98814 9.14675 2.72381 9.48888 2.4793C9.71587 2.3174 9.95273 2.16542 10.1929 2.02334C10.7982 1.6665 11.443 1.37574 12.1207 1.15436C12.3937 1.06845 12.6701 0.992461 12.9497 0.926379C13.6504 0.764478 14.384 0.678571 15.1341 0.678571C18.0718 0.678571 20.7069 1.98369 22.4998 4.04545C22.661 4.23378 22.8189 4.42872 22.9669 4.62697C23.1182 4.82521 23.2564 5.03007 23.3913 5.24153C23.4571 5.34726 23.5229 5.45299 23.5854 5.56203C23.6545 5.68428 23.7203 5.80653 23.7861 5.92878C23.8124 5.97504 23.8354 6.0246 23.8584 6.07086C23.8979 6.14685 23.9341 6.22285 23.9703 6.29884C23.9966 6.35831 24.0262 6.41779 24.0525 6.47726C24.0821 6.54334 24.1085 6.61273 24.1381 6.67881C24.1611 6.73829 24.1907 6.79776 24.2137 6.86054C24.2664 6.99931 24.319 7.13808 24.3683 7.27685L24.3683 7.28016C24.4078 7.31981 24.4473 7.35615 24.4868 7.3958ZM16.6046 19.2939C16.7131 19.1848 16.7724 19.0394 16.7756 18.8908C16.7756 18.5736 16.519 18.3158 16.2032 18.3158H14.18C14.1373 18.7123 14.0353 19.0989 13.8807 19.4624H16.2032C16.3546 19.4624 16.496 19.4029 16.6046 19.2939ZM26.1941 12.7947C26.1941 10.8717 25.3882 9.01481 23.9802 7.69978L23.8749 7.60396L23.8288 7.46849C22.5425 3.75469 19.0488 1.25679 15.1308 1.25679C10.6666 1.25679 6.85709 4.45516 6.07085 8.86282L5.99847 9.27583L5.58396 9.332C3.01139 9.67563 1.07045 11.9059 1.07045 14.5161C1.07045 15.8807 1.59023 17.1693 2.53438 18.1506C3.47524 19.1286 4.73521 19.6937 6.08729 19.7432L6.22546 19.7498H13.0253C13.4168 19.2113 13.6339 18.5603 13.6372 17.8962V17.8863C13.6372 17.8467 13.6339 17.8037 13.6339 17.7641C13.5616 16.0624 12.1865 14.7342 10.4955 14.7342C8.80132 14.7342 7.42293 16.0658 7.35713 17.7641C7.35384 17.9028 7.25186 18.0185 7.11369 18.0383C7.07421 18.0449 7.03803 18.0416 7.00184 18.0317C4.98852 17.9953 3.3601 16.3367 3.3601 14.3047C3.3601 14.1461 3.4884 14.0172 3.64631 14.0172C3.80422 14.0172 3.93252 14.1461 3.93252 14.3047C3.93252 15.9534 5.20236 17.3147 6.81433 17.4469C7.02816 15.58 8.59407 14.1593 10.4988 14.1593C12.4957 14.1593 14.1241 15.7287 14.2064 17.731V17.7442H16.2065C16.8349 17.7442 17.3481 18.2597 17.3481 18.8908C17.3481 19.2046 17.2198 19.4921 17.0125 19.7003C16.9928 19.7168 16.9763 19.7333 16.9566 19.7498H18.6311V19.7432L19.2068 19.7465H19.2725C23.0886 19.7465 26.1941 16.6274 26.1941 12.7947Z" fill="#1B1B1B"/>
<path fill-rule="evenodd" clip-rule="evenodd" d="M24.3683 7.27685L24.3683 7.28016C24.3881 7.29998 24.4078 7.31898 24.4276 7.33798C24.4473 7.35698 24.467 7.37598 24.4868 7.3958C24.6578 7.56101 24.819 7.73282 24.9769 7.90794C25.102 8.05332 25.2204 8.2053 25.3322 8.3606C25.4079 8.46302 25.4803 8.57206 25.5494 8.67779C25.5559 8.69101 25.5658 8.70753 25.5757 8.72074C25.6448 8.82978 25.7138 8.93881 25.7764 9.05115C25.8389 9.16349 25.9014 9.27583 25.9573 9.38817C26.1876 9.84414 26.3718 10.3232 26.5067 10.8255C26.6777 11.4532 26.7666 12.1141 26.7666 12.7947C26.7666 16.9513 23.411 20.3214 19.2725 20.3214H6.06756V20.3148C2.97521 20.1992 0.501325 17.6484 0.501325 14.5128C0.501325 13.0392 1.04742 11.6977 1.94552 10.6735C2.11658 10.4785 2.29752 10.3001 2.48832 10.1316C2.61662 10.0193 2.74821 9.91022 2.88638 9.8111C2.95547 9.76153 3.02455 9.71197 3.09693 9.66572C3.23838 9.5699 3.38313 9.48399 3.53446 9.40139C3.90949 9.19653 4.31084 9.03133 4.73192 8.91568C4.86022 8.87934 4.98852 8.8496 5.11682 8.82317C5.24841 8.79674 5.38 8.77361 5.51159 8.75709C5.56752 8.4432 5.6366 8.13592 5.72213 7.83194C5.80767 7.53127 5.90636 7.2339 6.01821 6.94314C6.15309 6.59621 6.30771 6.25589 6.47877 5.92878C6.61036 5.67767 6.75182 5.43647 6.90315 5.19858C7.28147 4.60714 7.72229 4.05866 8.21246 3.56305C8.31115 3.46392 8.41314 3.36811 8.51512 3.27229C8.82106 2.98814 9.14675 2.72381 9.48888 2.4793C9.71587 2.3174 9.95273 2.16542 10.1929 2.02334C10.7982 1.6665 11.443 1.37574 12.1207 1.15436C12.3937 1.06845 12.6701 0.992461 12.9497 0.926379C13.6504 0.764478 14.384 0.678571 15.1341 0.678571C18.0718 0.678571 20.7069 1.98369 22.4998 4.04545C22.661 4.23378 22.8189 4.42872 22.9669 4.62697C23.1182 4.82521 23.2564 5.03007 23.3913 5.24153C23.4571 5.34726 23.5229 5.45299 23.5854 5.56203C23.6545 5.68428 23.7203 5.80653 23.7861 5.92878C23.8059 5.96356 23.8238 6.00021 23.8412 6.03592C23.847 6.0477 23.8527 6.05938 23.8584 6.07086C23.8979 6.14685 23.9341 6.22285 23.9703 6.29884C23.9834 6.32858 23.9974 6.35831 24.0114 6.38805C24.0254 6.41779 24.0394 6.44752 24.0525 6.47726C24.0673 6.5103 24.0813 6.54417 24.0953 6.57803C24.1093 6.6119 24.1233 6.64577 24.1381 6.67881C24.1484 6.7056 24.1601 6.73239 24.172 6.75949C24.1864 6.79254 24.2011 6.82604 24.2137 6.86054C24.2664 6.99931 24.319 7.13808 24.3683 7.27685ZM24.3809 6.7978C24.3675 6.76132 24.3526 6.72682 24.3396 6.697L24.3358 6.68848C24.3237 6.66067 24.3135 6.6374 24.3046 6.61433L24.3029 6.61002L24.301 6.6058C24.2875 6.57559 24.2745 6.54419 24.2604 6.50989L24.26 6.50892C24.2463 6.47585 24.2315 6.43999 24.2156 6.40457C24.2017 6.37317 24.1871 6.3421 24.1735 6.31312L24.173 6.31207C24.1589 6.28201 24.1458 6.25413 24.1336 6.22658L24.1326 6.22431L24.1308 6.22059C24.0953 6.14594 24.0582 6.06817 24.0177 5.98998C24.0133 5.98115 24.0085 5.97148 24.0035 5.96123C23.9859 5.92527 23.9648 5.88207 23.9424 5.84244C23.877 5.72099 23.8107 5.59771 23.7409 5.47417L23.7403 5.47322C23.6762 5.36134 23.6089 5.25329 23.5436 5.14837L23.5429 5.14718L23.5418 5.1455C23.4056 4.93188 23.2646 4.72274 23.1094 4.51931C22.9587 4.31761 22.7985 4.11983 22.6354 3.92933L22.6345 3.92827C20.8094 1.82941 18.1259 0.5 15.1341 0.5C14.3704 0.5 13.6224 0.587666 12.9086 0.752594C12.6248 0.819668 12.3443 0.8968 12.0671 0.984011L12.0652 0.984617C11.3754 1.20995 10.7185 1.50616 10.102 1.86965C9.85812 2.01391 9.61678 2.16874 9.38505 2.33402C9.03701 2.58275 8.70538 2.85187 8.39359 3.14144L8.3918 3.14312C8.29051 3.23829 8.1863 3.33624 8.0855 3.43748C7.58668 3.94184 7.1377 4.5005 6.75248 5.10273C6.59884 5.34425 6.45474 5.58992 6.32053 5.84603C6.1464 6.179 5.98882 6.52595 5.85154 6.87903C5.73769 7.17499 5.63718 7.47795 5.55024 7.78357C5.47464 8.05223 5.41174 8.32308 5.3593 8.59819C5.26603 8.61263 5.17254 8.62984 5.08079 8.64827C4.94991 8.67524 4.81738 8.7059 4.68391 8.74369C4.24916 8.86315 3.83524 9.03362 3.44886 9.24467C3.29457 9.32889 3.14538 9.41732 2.99874 9.51654C2.92306 9.56501 2.85139 9.61643 2.78402 9.66476L2.78229 9.666C2.6376 9.7698 2.50064 9.88347 2.37012 9.99775C2.17437 10.1706 1.98791 10.3544 1.81125 10.5557C0.885755 11.6113 0.322754 12.9942 0.322754 14.5128C0.322754 17.686 2.7813 20.279 5.88898 20.4844V20.5H19.2725C23.5104 20.5 26.9451 17.0491 26.9451 12.7947C26.9451 12.0987 26.8543 11.4223 26.6791 10.7791C26.5411 10.2651 26.3525 9.77464 26.1168 9.30799C26.0592 9.19219 25.9951 9.07707 25.9334 8.96614L25.9324 8.96433C25.8674 8.84754 25.796 8.7349 25.7278 8.62722L25.7229 8.61939L25.7188 8.6139C25.7178 8.61267 25.716 8.61006 25.7138 8.60644C25.713 8.60505 25.7122 8.60374 25.7116 8.60257C25.7105 8.60072 25.7097 8.59921 25.7092 8.59821L25.7046 8.58886L25.6988 8.58011C25.6298 8.47437 25.5552 8.36195 25.4765 8.25533C25.3622 8.09672 25.2408 7.94095 25.1123 7.79151L25.111 7.78991L25.1096 7.78835C24.9506 7.61201 24.7867 7.4373 24.612 7.26852C24.5912 7.24761 24.5705 7.22775 24.5514 7.20932C24.5422 7.20044 24.5333 7.19189 24.5246 7.18344C24.4781 7.05407 24.4292 6.92507 24.3809 6.7978ZM19.2068 19.7465H19.2725C23.0886 19.7465 26.1941 16.6274 26.1941 12.7947C26.1941 10.8717 25.3882 9.01481 23.9802 7.69978L23.8749 7.60396L23.8288 7.46849C22.5425 3.75469 19.0488 1.25679 15.1308 1.25679C10.6666 1.25679 6.85709 4.45516 6.07085 8.86282L5.99847 9.27583L5.58396 9.332C3.01139 9.67563 1.07045 11.9059 1.07045 14.5161C1.07045 15.8807 1.59023 17.1693 2.53438 18.1506C3.47524 19.1286 4.73521 19.6937 6.08729 19.7432L6.22546 19.7498H13.0253C13.4168 19.2113 13.6339 18.5603 13.6372 17.8962V17.8863C13.6372 17.8665 13.6364 17.8458 13.6356 17.8252C13.6348 17.8045 13.6339 17.7839 13.6339 17.7641C13.5616 16.0624 12.1865 14.7342 10.4955 14.7342C8.80132 14.7342 7.42293 16.0658 7.35713 17.7641C7.35384 17.9028 7.25186 18.0185 7.11369 18.0383C7.07421 18.0449 7.03803 18.0416 7.00184 18.0317C4.98852 17.9953 3.3601 16.3367 3.3601 14.3047C3.3601 14.1461 3.4884 14.0172 3.64631 14.0172C3.80422 14.0172 3.93252 14.1461 3.93252 14.3047C3.93252 15.9534 5.20236 17.3147 6.81433 17.4469C7.02816 15.58 8.59407 14.1593 10.4988 14.1593C12.4957 14.1593 14.1241 15.7287 14.2064 17.731V17.7442H16.2065C16.8349 17.7442 17.3481 18.2597 17.3481 18.8908C17.3481 19.1441 17.2645 19.3802 17.1233 19.5712C17.0896 19.617 17.0525 19.6601 17.0125 19.7003C17.0026 19.7085 16.9936 19.7168 16.9845 19.725C16.9755 19.7333 16.9664 19.7416 16.9566 19.7498H18.6311V19.7432L19.2068 19.7465ZM18.4525 19.5712H17.3378C17.4575 19.3718 17.5266 19.1385 17.5266 18.8908C17.5266 18.1618 16.9342 17.5657 16.2065 17.5657H14.3752C14.2122 15.5443 12.5392 13.9807 10.4988 13.9807C8.56288 13.9807 6.96065 15.3816 6.66112 17.2503C5.22221 17.0486 4.11109 15.8026 4.11109 14.3047C4.11109 14.0482 3.90357 13.8386 3.64631 13.8386C3.38905 13.8386 3.18153 14.0482 3.18153 14.3047C3.18153 16.4267 4.87653 18.1611 6.97851 18.2098C7.02857 18.2209 7.08258 18.2243 7.14109 18.2148C7.36436 18.1817 7.52957 17.9941 7.53561 17.7698C7.5983 16.1673 8.89825 14.9128 10.4955 14.9128C12.0884 14.9128 13.3853 16.1626 13.4554 17.7681C13.4555 17.7902 13.4564 17.8123 13.4571 17.8308L13.4572 17.8323C13.458 17.8536 13.4587 17.8707 13.4587 17.8863V17.8956C13.4557 18.4916 13.2698 19.0773 12.9327 19.5712H6.22975L6.09583 19.5648L6.09384 19.5648C4.7882 19.5169 3.57196 18.9716 2.66306 18.0268C1.75092 17.0788 1.24902 15.8346 1.24902 14.5161C1.24902 11.9945 3.12458 9.84067 5.60761 9.509L6.15183 9.43526L6.24668 8.89394C7.0179 4.5712 10.7536 1.43536 15.1308 1.43536C18.9721 1.43536 22.3984 3.88485 23.6601 7.52693L23.7206 7.70503L23.8583 7.83028L23.8592 7.83113C25.2305 9.11235 26.0156 10.9216 26.0156 12.7947C26.0156 16.5296 22.9893 19.5679 19.2725 19.5679H19.2068L18.4525 19.5636V19.5712ZM16.2032 19.2838C16.3061 19.2838 16.4023 19.2439 16.478 19.1679C16.5528 19.0927 16.5943 18.9923 16.5971 18.8888C16.596 18.6704 16.419 18.4944 16.2032 18.4944H14.3373C14.2976 18.7641 14.2317 19.0286 14.1416 19.2838H16.2032ZM13.8807 19.4624C13.9057 19.4034 13.9294 19.3439 13.9517 19.2838C14.0668 18.9733 14.1442 18.648 14.18 18.3158H16.2032C16.519 18.3158 16.7756 18.5736 16.7756 18.8908C16.7724 19.0394 16.7131 19.1848 16.6046 19.2939C16.496 19.4029 16.3546 19.4624 16.2032 19.4624H13.8807Z" fill="#1B1B1B"/>
</svg>
