<svg width="30" height="25" viewBox="0 0 30 25" fill="none" xmlns="http://www.w3.org/2000/svg">
<path d="M7.22068 10.6319C7.53575 9.78895 7.90683 8.79619 8.81712 7.93773C9.88774 6.92807 11.7496 6.07693 15.2656 6.07575C18.7746 6.07693 20.5921 6.92817 21.6218 7.93382C22.471 8.76311 22.815 9.71306 23.1148 10.5409C23.1851 10.7348 23.2529 10.9221 23.3242 11.0995C23.397 11.2807 23.5625 11.3907 23.7364 11.4106C24.9286 11.5474 25.6421 11.8787 26.1618 12.3415C26.6683 12.7926 27.0162 13.3882 27.4305 14.1526C27.1752 14.3369 26.7856 14.5461 26.1867 14.6404C25.489 14.7503 24.4867 14.7072 23.0577 14.2577C22.7768 14.1693 22.4655 14.3372 22.4046 14.6413C22.2784 15.272 21.8702 17.2911 21.4325 19.2436C21.2136 20.2202 20.988 21.1771 20.787 21.9342C20.6864 22.313 20.593 22.6382 20.5105 22.8892C20.4236 23.1538 20.3601 23.2994 20.3269 23.3491C20.1236 23.6541 19.8152 23.8722 19.0404 24.0101C18.262 24.1488 17.0748 24.1954 15.1829 24.1968C13.2911 24.1954 12.1039 24.1488 11.3255 24.0101C10.5507 23.8722 10.2423 23.6541 10.0389 23.3491C10.0058 23.2994 9.9423 23.1538 9.85536 22.8892C9.77289 22.6382 9.67946 22.313 9.57889 21.9342C9.37791 21.1771 9.15228 20.2202 8.93335 19.2436C8.49567 17.2911 8.08753 15.272 7.96128 14.6413C7.90042 14.3372 7.58909 14.1693 7.30818 14.2577C5.87915 14.7072 4.87689 14.7503 4.17921 14.6404C3.58025 14.5461 3.19069 14.3369 2.9354 14.1526C3.34972 13.3882 3.69758 12.7926 4.20413 12.3415C4.72378 11.8787 5.43731 11.5474 6.62945 11.4106C6.8034 11.3907 6.96887 11.2807 7.04172 11.0995C7.10159 10.9505 7.1601 10.7939 7.22068 10.6319ZM15.2656 5.42454C15.2631 5.42454 15.2607 5.42454 15.2583 5.42454C11.6439 5.42691 9.6002 6.30412 8.37033 7.46396C7.33971 8.4359 6.91227 9.58784 6.5994 10.431C6.55446 10.5521 6.51188 10.6669 6.47022 10.7738C5.22925 10.928 4.40131 11.2939 3.77105 11.8551C3.13933 12.4177 2.73289 13.1562 2.29817 13.962C2.19506 14.1531 2.21912 14.4168 2.41732 14.5762C2.73668 14.833 3.25222 15.1537 4.07794 15.2837C4.87089 15.4085 5.93045 15.3544 7.35401 14.925C7.50777 15.6896 7.88988 17.5658 8.29791 19.386C8.51749 20.3655 8.74527 21.332 8.94947 22.1012C9.05148 22.4855 9.14858 22.8243 9.23669 23.0925C9.32034 23.3471 9.40749 23.5759 9.4971 23.7104C9.83528 24.2176 10.3391 24.4959 11.2113 24.6513C12.0407 24.799 13.2577 24.8452 15.0927 24.848C15.1229 24.848 15.153 24.8481 15.1829 24.8481C15.2129 24.8481 15.2429 24.8481 15.2732 24.8481C17.1082 24.8453 18.3252 24.799 19.1546 24.6513C20.0268 24.4959 20.5306 24.2176 20.8688 23.7104C20.9584 23.5759 21.0456 23.3471 21.1292 23.0925C21.2173 22.8243 21.3144 22.4855 21.4164 22.1012C21.6206 21.332 21.8484 20.3655 22.068 19.386C22.476 17.5658 22.8581 15.6896 23.0119 14.925C24.4354 15.3544 25.495 15.4085 26.2879 15.2837C27.1137 15.1537 27.6292 14.833 27.9486 14.5762C28.1468 14.4168 28.1708 14.1531 28.0677 13.962C27.633 13.1562 27.2266 12.4177 26.5948 11.8551C25.9646 11.2939 25.1367 10.928 23.8958 10.7738C23.847 10.6476 23.7975 10.5098 23.7448 10.3631C23.446 9.53157 23.0439 8.41236 22.0768 7.46792C20.8851 6.30408 18.8796 5.42695 15.2732 5.42454C15.2707 5.42454 15.2681 5.42454 15.2656 5.42454Z" fill="#1B1B1B"/>
<path d="M13.3293 21.1832C13.3293 21.6318 12.9656 21.9955 12.517 21.9955C12.0684 21.9955 11.7048 21.6318 11.7048 21.1832C11.7048 20.7346 12.0684 20.371 12.517 20.371C12.9656 20.371 13.3293 20.7346 13.3293 21.1832Z" fill="#1B1B1B"/>
<path d="M18.5636 21.1832C18.5636 21.6318 18.2 21.9955 17.7514 21.9955C17.3028 21.9955 16.9391 21.6318 16.9391 21.1832C16.9391 20.7346 17.3028 20.371 17.7514 20.371C18.2 20.371 18.5636 20.7346 18.5636 21.1832Z" fill="#1B1B1B"/>
<path d="M11.7046 12.6096C11.7046 13.2077 11.2197 13.6926 10.6216 13.6926C10.0235 13.6926 9.53863 13.2077 9.53863 12.6096C9.53863 12.0115 10.0235 11.5266 10.6216 11.5266C11.2197 11.5266 11.7046 12.0115 11.7046 12.6096Z" fill="#1B1B1B"/>
<path fill-rule="evenodd" clip-rule="evenodd" d="M10.6216 13.4755C11.0998 13.4755 11.4875 13.0878 11.4875 12.6096C11.4875 12.1313 11.0998 11.7437 10.6216 11.7437C10.1434 11.7437 9.7557 12.1313 9.7557 12.6096C9.7557 13.0878 10.1434 13.4755 10.6216 13.4755ZM10.6216 13.6926C11.2197 13.6926 11.7046 13.2077 11.7046 12.6096C11.7046 12.0115 11.2197 11.5266 10.6216 11.5266C10.0235 11.5266 9.53863 12.0115 9.53863 12.6096C9.53863 13.2077 10.0235 13.6926 10.6216 13.6926Z" fill="#1B1B1B"/>
<path d="M21.0905 12.6096C21.0905 13.2077 20.6056 13.6926 20.0075 13.6926C19.4094 13.6926 18.9245 13.2077 18.9245 12.6096C18.9245 12.0115 19.4094 11.5266 20.0075 11.5266C20.6056 11.5266 21.0905 12.0115 21.0905 12.6096Z" fill="#1B1B1B"/>
<path fill-rule="evenodd" clip-rule="evenodd" d="M20.0075 13.4755C20.4858 13.4755 20.8734 13.0878 20.8734 12.6096C20.8734 12.1313 20.4858 11.7437 20.0075 11.7437C19.5293 11.7437 19.1416 12.1313 19.1416 12.6096C19.1416 13.0878 19.5293 13.4755 20.0075 13.4755ZM20.0075 13.6926C20.6056 13.6926 21.0905 13.2077 21.0905 12.6096C21.0905 12.0115 20.6056 11.5266 20.0075 11.5266C19.4094 11.5266 18.9245 12.0115 18.9245 12.6096C18.9245 13.2077 19.4094 13.6926 20.0075 13.6926Z" fill="#1B1B1B"/>
<path d="M14.8785 17.8646C12.5795 17.9845 10.4357 19.075 9.37658 20.7269C9.27953 20.8783 9.07813 20.9224 8.92674 20.8253C8.77535 20.7283 8.73131 20.5269 8.82836 20.3755C10.0255 18.5082 12.3866 17.3425 14.8445 17.2142C17.3134 17.0854 19.9325 17.9997 21.6401 20.3603C21.7455 20.506 21.7128 20.7095 21.5671 20.8149C21.4214 20.9203 21.2179 20.8877 21.1125 20.742C19.5561 18.5904 17.1664 17.7452 14.8785 17.8646Z" fill="#1B1B1B"/>
<path d="M3.94304 1.91255C3.37831 2.72474 2.787 3.73443 2.3056 4.69206C2.01743 5.26531 1.77136 5.81457 1.59494 6.28666C1.41518 6.76771 1.31909 7.13946 1.30852 7.36911C1.2716 8.17133 1.28094 9.19103 1.89574 9.92283C2.48681 10.6264 3.74105 11.1709 6.46567 10.7706C6.58213 10.4394 6.84404 9.71777 7.14033 9.05505C7.27625 8.75102 7.42326 8.4506 7.57038 8.20341C7.4085 8.20707 7.23129 8.21018 7.04577 8.21197C6.59829 8.21629 6.09914 8.21298 5.64931 8.19091C5.20887 8.16931 4.78501 8.12866 4.50535 8.0483C4.12834 7.93996 3.90944 7.60056 3.78238 7.22982C3.65197 6.84933 3.58759 6.35278 3.57288 5.78035C3.54653 4.75424 3.6788 3.41731 3.94304 1.91255ZM8.39888 8.17742C8.39216 8.18274 8.38273 8.19087 8.37053 8.20286C8.32262 8.24996 8.2611 8.32835 8.18861 8.4414C8.04476 8.66572 7.88798 8.97828 7.73483 9.32084C7.42996 10.0028 7.15998 10.7568 7.05892 11.0469C6.99102 11.2418 6.81907 11.376 6.6246 11.4054C3.77663 11.8351 2.21241 11.3122 1.39713 10.3417C0.601117 9.39421 0.6218 8.1256 0.657996 7.33917C0.673518 7.00192 0.801379 6.54991 0.984932 6.05871C1.17183 5.55856 1.42842 4.98711 1.72377 4.39958C2.31367 3.2261 3.06896 1.96716 3.75685 1.05988C3.92165 0.84252 4.1895 0.798373 4.39851 0.900388C4.60234 0.999873 4.73276 1.22863 4.68356 1.48549C4.3566 3.19241 4.19606 4.68041 4.22388 5.76363C4.23785 6.30753 4.299 6.72861 4.39841 7.01869C4.50117 7.31851 4.61639 7.40264 4.6852 7.42241C4.88454 7.47969 5.23993 7.51884 5.68121 7.54048C6.11309 7.56167 6.59812 7.56505 7.03949 7.56079C7.4802 7.55654 7.87398 7.54471 8.12243 7.53586C8.23638 7.53181 8.31959 7.52838 8.36302 7.5266L8.37369 7.52616C8.38312 7.52577 8.39113 7.52545 8.39593 7.52528L8.40136 7.52511C8.40228 7.52509 8.40471 7.52503 8.40772 7.52501C8.40939 7.52501 8.41369 7.52503 8.41637 7.52507C8.42149 7.52521 8.4404 7.52643 8.45417 7.52801C8.57581 7.57033 8.7191 7.95332 8.50329 8.16261C8.48306 8.16795 8.45615 8.17296 8.44973 8.17381C8.442 8.17476 8.43564 8.17524 8.43544 8.17526C8.43227 8.17551 8.42945 8.17569 8.42847 8.17575C8.42358 8.17606 8.41348 8.17662 8.39888 8.17742Z" fill="#1B1B1B"/>
<path d="M26.4843 1.91255C27.049 2.72474 27.6403 3.73443 28.1217 4.69206C28.4099 5.26531 28.6559 5.81457 28.8324 6.28666C29.0121 6.76771 29.1082 7.13946 29.1188 7.36911C29.1557 8.17133 29.1464 9.19103 28.5316 9.92283C27.9405 10.6264 26.6862 11.1709 23.9616 10.7706C23.8452 10.4394 23.5833 9.71777 23.287 9.05505C23.151 8.75102 23.004 8.4506 22.8569 8.20341C23.0188 8.20707 23.196 8.21018 23.3815 8.21197C23.829 8.21629 24.3282 8.21298 24.778 8.19091C25.2184 8.16931 25.6423 8.12866 25.9219 8.0483C26.299 7.93996 26.5179 7.60056 26.6449 7.22982C26.7753 6.84933 26.8397 6.35278 26.8544 5.78035C26.8808 4.75424 26.7485 3.41731 26.4843 1.91255ZM22.0284 8.17742C22.0351 8.18274 22.0446 8.19087 22.0568 8.20286C22.1047 8.24996 22.1662 8.32835 22.2387 8.4414C22.3825 8.66572 22.5393 8.97828 22.6925 9.32084C22.9973 10.0028 23.2673 10.7568 23.3684 11.0469C23.4363 11.2418 23.6082 11.376 23.8027 11.4054C26.6507 11.8351 28.2149 11.3122 29.0302 10.3417C29.8262 9.39421 29.8055 8.1256 29.7693 7.33917C29.7538 7.00192 29.6259 6.54991 29.4424 6.05871C29.2555 5.55856 28.9989 4.98711 28.7035 4.39958C28.1136 3.2261 27.3583 1.96716 26.6705 1.05988C26.5056 0.84252 26.2378 0.798373 26.0288 0.900388C25.825 0.999873 25.6945 1.22863 25.7437 1.48549C26.0707 3.19241 26.2312 4.68041 26.2034 5.76363C26.1894 6.30753 26.1283 6.72861 26.0289 7.01869C25.9261 7.31851 25.8109 7.40264 25.7421 7.42241C25.5428 7.47969 25.1874 7.51884 24.7461 7.54048C24.3142 7.56167 23.8292 7.56505 23.3878 7.56079C22.9471 7.55654 22.5533 7.54471 22.3049 7.53586C22.1909 7.53181 22.1077 7.52838 22.0643 7.5266L22.0536 7.52616C22.0442 7.52577 22.0362 7.52545 22.0314 7.52528L22.0259 7.52511C22.025 7.52509 22.0226 7.52503 22.0196 7.52501C22.0179 7.52501 22.0136 7.52503 22.0109 7.52507C22.0058 7.52521 21.9869 7.52643 21.9731 7.52801C21.8515 7.57033 21.7082 7.95332 21.924 8.16261C21.9442 8.16795 21.9711 8.17296 21.9776 8.17381C21.9853 8.17476 21.9917 8.17524 21.9919 8.17526C21.995 8.17551 21.9978 8.17569 21.9988 8.17575C22.0037 8.17606 22.0138 8.17662 22.0284 8.17742Z" fill="#1B1B1B"/>
</svg>
