<svg width="26" height="27" viewBox="0 0 26 27" fill="none" xmlns="http://www.w3.org/2000/svg">
<path d="M20.2355 25.7261C17.8441 25.7261 15.9054 23.7875 15.9054 21.3961C15.9054 19.0046 17.8441 17.066 20.2355 17.066C22.6269 17.066 24.5656 19.0046 24.5656 21.3961C24.5656 23.7875 22.6269 25.7261 20.2355 25.7261ZM20.2355 26.5C23.0543 26.5 25.3395 24.2149 25.3395 21.3961C25.3395 18.5772 23.0543 16.2921 20.2355 16.2921C17.4167 16.2921 15.1316 18.5772 15.1316 21.3961C15.1316 24.2149 17.4167 26.5 20.2355 26.5Z" fill="#1B1B1B"/>
<path d="M12.5446 16.4032C10.2227 16.4032 8.3454 18.2707 8.3454 20.5684C8.3454 22.8661 10.2227 24.7336 12.5446 24.7336C13.7543 24.7336 14.8436 24.2268 15.6099 23.4152L16.1726 23.9466C15.2654 24.9071 13.975 25.5075 12.5446 25.5075C9.80077 25.5075 7.57153 23.2989 7.57153 20.5684C7.57153 17.8379 9.80077 15.6293 12.5446 15.6293C14.3796 15.6293 15.9832 16.6168 16.8448 18.086L16.1772 18.4774C15.4498 17.237 14.0958 16.4032 12.5446 16.4032Z" fill="#1B1B1B"/>
<path d="M18.9963 11.3284C19.1474 11.1773 19.3924 11.1773 19.5435 11.3284L20.0953 11.8802C20.2464 12.0313 20.2464 12.2763 20.0953 12.4274C19.9442 12.5785 19.6992 12.5785 19.5481 12.4274L18.9963 11.8756C18.8452 11.7245 18.8452 11.4795 18.9963 11.3284ZM21.6127 11.4663C21.7638 11.6175 21.7638 11.8624 21.6127 12.0136L21.1988 12.4274C21.0477 12.5785 20.8027 12.5785 20.6516 12.4274C20.5005 12.2763 20.5005 12.0313 20.6516 11.8802L21.0655 11.4663C21.2166 11.3152 21.4616 11.3152 21.6127 11.4663ZM20.0953 13.1217C20.2464 13.2728 20.2464 13.5178 20.0953 13.6689L19.6815 14.0827C19.5303 14.2338 19.2854 14.2338 19.1342 14.0827C18.9831 13.9316 18.9831 13.6866 19.1342 13.5355L19.5481 13.1217C19.6992 12.9706 19.9442 12.9706 20.0953 13.1217ZM20.7896 13.1217C20.9407 12.9706 21.1857 12.9706 21.3368 13.1217L21.6127 13.3976C21.7638 13.5487 21.7638 13.7937 21.6127 13.9448C21.4616 14.0959 21.2166 14.0959 21.0655 13.9448L20.7896 13.6689C20.6385 13.5178 20.6385 13.2728 20.7896 13.1217Z" fill="#1B1B1B"/>
<path d="M18.8561 9.23005C21.4612 9.23005 23.5731 11.3419 23.5731 13.9471C23.5731 15.186 23.1967 16.1637 22.4333 16.9962C22.2889 17.1537 22.2995 17.3985 22.457 17.5429C22.6145 17.6873 22.8593 17.6767 23.0037 17.5192C23.9061 16.5351 24.3469 15.3672 24.3469 13.9471C24.3469 10.9145 21.8886 8.45618 18.8561 8.45618C15.8235 8.45618 13.3652 10.9145 13.3652 13.9471C13.3652 14.7968 13.5585 15.6026 13.9039 16.3217C13.9964 16.5143 14.2276 16.5955 14.4202 16.503C14.6129 16.4104 14.694 16.1793 14.6015 15.9866C14.3052 15.3698 14.1391 14.6784 14.1391 13.9471C14.1391 11.3419 16.2509 9.23005 18.8561 9.23005Z" fill="#1B1B1B"/>
<path d="M1.75905 13.7514L6.55472 17.1262L3.64711 18.0557C2.67894 16.9797 1.92661 15.5655 1.75905 13.7514ZM4.25937 18.6725L7.3603 17.6811L8.30419 18.275C8.48506 18.3888 8.72395 18.3344 8.83775 18.1535C8.95154 17.9726 8.89717 17.7337 8.71629 17.6199L7.81372 17.0521L8.04174 13.1915C9.69145 13.611 11.1657 14.3802 12.3371 15.9699C12.4638 16.1419 12.7061 16.1786 12.8781 16.0518C13.0501 15.9251 13.0868 15.6828 12.9601 15.5108C11.5402 13.5838 9.713 12.7512 7.76397 12.3318C5.24302 11.7894 2.69807 12.1557 1.22287 12.6117L0.950195 12.696V12.9814C0.950195 15.5032 1.95057 17.4038 3.25064 18.7663C4.73885 20.3261 6.34575 21.0469 7.58873 21.3576C7.79604 21.4094 8.00612 21.2834 8.05795 21.0761C8.10978 20.8687 7.98374 20.6587 7.77642 20.6068C6.77678 20.3569 5.4986 19.8092 4.25937 18.6725ZM7.06866 16.5416L2.24066 13.1441C3.57113 12.8494 5.42205 12.6851 7.27643 13.0238L7.06866 16.5416Z" fill="#1B1B1B"/>
<path d="M19.824 21.5363C19.6729 21.6874 19.6729 21.9324 19.824 22.0835L20.3757 22.6353C20.5269 22.7864 20.7718 22.7864 20.923 22.6353C21.0741 22.4842 21.0741 22.2392 20.923 22.0881L20.3712 21.5363C20.2201 21.3852 19.9751 21.3852 19.824 21.5363ZM22.4403 21.6742C22.5914 21.8253 22.5914 22.0703 22.4403 22.2214L22.0265 22.6353C21.8754 22.7864 21.6304 22.7864 21.4793 22.6353C21.3282 22.4842 21.3282 22.2392 21.4793 22.0881L21.8931 21.6742C22.0442 21.5231 22.2892 21.5231 22.4403 21.6742ZM20.923 23.3296C21.0741 23.4807 21.0741 23.7257 20.923 23.8768L20.5091 24.2906C20.358 24.4417 20.113 24.4417 19.9619 24.2906C19.8108 24.1395 19.8108 23.8945 19.9619 23.7434L20.3757 23.3296C20.5269 23.1785 20.7718 23.1785 20.923 23.3296ZM21.6172 23.3296C21.4661 23.4807 21.4661 23.7257 21.6172 23.8768L21.8931 24.1527C22.0442 24.3038 22.2892 24.3038 22.4403 24.1527C22.5914 24.0016 22.5914 23.7566 22.4403 23.6055L22.1645 23.3296C22.0133 23.1785 21.7684 23.1785 21.6172 23.3296Z" fill="#1B1B1B"/>
<path d="M9.61608 19.3292C9.76719 19.1781 10.0122 19.1781 10.1633 19.3292L10.7151 19.881C10.8662 20.0321 10.8662 20.2771 10.7151 20.4282C10.564 20.5793 10.319 20.5793 10.1679 20.4282L9.61608 19.8764C9.46497 19.7253 9.46497 19.4803 9.61608 19.3292ZM12.2325 19.4671C12.0813 19.316 11.8364 19.316 11.6852 19.4671L11.2714 19.881C11.1203 20.0321 11.1203 20.2771 11.2714 20.4282C11.4225 20.5793 11.6675 20.5793 11.8186 20.4282L12.2325 20.0143C12.3836 19.8632 12.3836 19.6182 12.2325 19.4671ZM10.7151 21.1225C10.8662 21.2736 10.8662 21.5186 10.7151 21.6697L10.3012 22.0835C10.1501 22.2346 9.90513 22.2346 9.75402 22.0835C9.60292 21.9324 9.60292 21.6874 9.75402 21.5363L10.1679 21.1225C10.319 20.9713 10.564 20.9713 10.7151 21.1225ZM11.4094 21.1225C11.5605 20.9713 11.8055 20.9713 11.9566 21.1225L12.2325 21.3983C12.3836 21.5494 12.3836 21.7944 12.2325 21.9455C12.0813 22.0967 11.8364 22.0967 11.6852 21.9455L11.4094 21.6697C11.2582 21.5186 11.2582 21.2736 11.4094 21.1225Z" fill="#1B1B1B"/>
<path d="M10.2878 1.29493C12.6192 2.16261 16.2835 4.33103 16.9556 9.03578C16.9859 9.24733 17.1819 9.39432 17.3934 9.3641C17.605 9.33388 17.7519 9.13789 17.7217 8.92634C16.9901 3.80513 12.9951 1.47677 10.5578 0.569658C9.97331 0.352143 9.3427 0.663479 9.1323 1.23313C7.09428 6.75108 7.77212 11.2105 8.42303 12.9773C8.49691 13.1778 8.71935 13.2805 8.91987 13.2066C9.12039 13.1327 9.22306 12.9103 9.14919 12.7097C8.56255 11.1174 7.88347 6.84796 9.85824 1.50125C9.92599 1.31781 10.1199 1.23242 10.2878 1.29493Z" fill="#1B1B1B"/>
<path d="M9.8998 0.753016C9.6981 0.823611 9.59182 1.04435 9.66242 1.24605L12.0238 7.99281L8.33942 6.95333C8.13375 6.8953 7.91998 7.01499 7.86195 7.22066C7.80393 7.42633 7.92362 7.6401 8.12929 7.69812L12.3395 8.88596L13.6077 12.3446C13.6432 12.4415 13.5563 12.5388 13.456 12.5143L8.73987 11.364C8.53226 11.3134 8.32291 11.4406 8.27227 11.6483C8.22163 11.8559 8.34889 12.0652 8.5565 12.1159L13.2727 13.2661C13.9743 13.4373 14.5829 12.7563 14.3343 12.0782L13.0701 8.63046L15.7178 5.07378C15.8454 4.90237 15.8099 4.65996 15.6385 4.53235C15.4671 4.40475 15.2247 4.44026 15.0971 4.61167L12.7594 7.7519L10.3928 0.990403C10.3222 0.788703 10.1015 0.682421 9.8998 0.753016Z" fill="#1B1B1B"/>
</svg>
