<svg width="28" height="23" viewBox="0 0 28 23" fill="none" xmlns="http://www.w3.org/2000/svg">
<path d="M14.1934 0.754098C8.26156 0.754098 3.37783 4.45226 2.12793 9.29648C2.05 9.59852 2.28436 9.98822 2.77062 9.98822H25.6162C26.1024 9.98822 26.3368 9.59852 26.2589 9.29648C25.009 4.45226 20.1252 0.754098 14.1934 0.754098ZM25.6162 10.7423H2.77062C1.88037 10.7423 1.17533 9.97009 1.39775 9.10808C2.74416 3.88979 7.96195 0 14.1934 0C20.4248 0 25.6426 3.88979 26.989 9.10808C27.2115 9.97009 26.5064 10.7423 25.6162 10.7423Z" fill="#1B1B1B"/>
<path d="M25.6688 11.0393H2.5842C2.18018 11.0393 1.85266 11.3669 1.85266 11.7709C1.85266 12.1749 2.18018 12.5024 2.5842 12.5024H6.24191C6.63009 12.5024 7.00738 12.6308 7.31502 12.8675L11.2514 15.8968L15.1022 12.8774C15.4119 12.6344 15.7942 12.5024 16.1879 12.5024H25.6688C26.0728 12.5024 26.4003 12.1749 26.4003 11.7709C26.4003 11.3669 26.0728 11.0393 25.6688 11.0393ZM11.0978 16.0173C11.0979 16.0172 11.0981 16.0171 11.0982 16.017L11.0978 16.0173ZM15.5675 13.4708L11.5631 16.6107C11.3823 16.7525 11.1284 16.7537 10.9463 16.6135L6.85512 13.4652C6.67932 13.3299 6.46373 13.2565 6.24191 13.2565H2.5842C1.76371 13.2565 1.09856 12.5914 1.09856 11.7709C1.09856 10.9504 1.76371 10.2852 2.5842 10.2852H25.6688C26.4893 10.2852 27.1544 10.9504 27.1544 11.7709C27.1544 12.5914 26.4893 13.2565 25.6688 13.2565H16.1879C15.9629 13.2565 15.7445 13.332 15.5675 13.4708Z" fill="#1B1B1B"/>
<path d="M13.4829 15.54H25.6688C26.4893 15.54 27.1544 14.8748 27.1544 14.0543C27.1544 13.2338 26.4893 12.5687 25.6688 12.5687H16.2978L15.5834 13.3228H25.6688C26.0728 13.3228 26.4003 13.6503 26.4003 14.0543C26.4003 14.4583 26.0728 14.7859 25.6688 14.7859H14.1973L13.4829 15.54ZM6.88098 13.3228H2.5842C2.18018 13.3228 1.85266 13.6503 1.85266 14.0543C1.85266 14.4583 2.18018 14.7859 2.5842 14.7859H8.34407L9.09817 15.54H2.5842C1.76371 15.54 1.09856 14.8748 1.09856 14.0543C1.09856 13.2338 1.76371 12.5687 2.5842 12.5687H6.12688L6.88098 13.3228Z" fill="#1B1B1B"/>
<path d="M4.03435 16.7433C4.4131 17.0826 4.61661 17.5437 4.74424 17.8911C4.7549 17.9202 4.76519 17.9483 4.77518 17.9756C4.89108 18.2923 4.96501 18.4944 5.08225 18.639C5.17594 18.7546 5.31497 18.8525 5.65609 18.8525C6.08207 18.8525 6.17996 18.7787 6.21413 18.7374C6.23614 18.7107 6.26686 18.6561 6.28993 18.5354C6.31329 18.4131 6.32425 18.2482 6.32425 18.0211C6.32425 17.4385 6.56048 16.9918 6.95749 16.704C7.33702 16.4288 7.82667 16.3246 8.30853 16.3246C8.86766 16.3246 9.31175 16.5678 9.59748 17.0109C9.86775 17.4301 9.97747 17.9972 9.97747 18.6351C9.97747 19.1816 10.121 19.3306 10.1946 19.3807C10.3042 19.4552 10.4636 19.4665 10.7375 19.4665C10.7842 19.4665 10.8303 19.467 10.8758 19.4676C11.1204 19.4704 11.3457 19.473 11.5383 19.391C11.6347 19.3499 11.7117 19.2897 11.7693 19.1925C11.8297 19.0906 11.8849 18.9205 11.8849 18.6351C11.8849 17.9611 11.9684 17.3511 12.3437 16.9218C12.7306 16.4792 13.3379 16.3246 14.1269 16.3246C14.3352 16.3246 14.504 16.4934 14.504 16.7017C14.504 16.9099 14.3352 17.0787 14.1269 17.0787C13.4044 17.0787 13.0792 17.2263 12.9115 17.4181C12.7322 17.6232 12.639 17.9799 12.639 18.6351C12.639 19.0144 12.5658 19.3277 12.418 19.577C12.2675 19.831 12.0565 19.9898 11.8339 20.0847C11.4787 20.2361 11.0648 20.2271 10.8313 20.2221C10.7955 20.2213 10.764 20.2206 10.7375 20.2206C10.7278 20.2206 10.7177 20.2206 10.7073 20.2206C10.4789 20.2211 10.0907 20.222 9.77061 20.0043C9.39994 19.7523 9.22337 19.2971 9.22337 18.6351C9.22337 18.0647 9.12197 17.665 8.9637 17.4196C8.82089 17.1981 8.61904 17.0787 8.30853 17.0787C7.92072 17.0787 7.60677 17.1647 7.4001 17.3145C7.21092 17.4517 7.07835 17.6647 7.07835 18.0211C7.07835 18.2637 7.06737 18.4845 7.03064 18.6769C6.99361 18.8707 6.92609 19.0596 6.7955 19.2176C6.52449 19.5457 6.09977 19.6066 5.65609 19.6066C5.12756 19.6066 4.75668 19.435 4.49638 19.1138C4.29424 18.8644 4.17548 18.5356 4.07305 18.2521C4.06063 18.2177 4.04844 18.184 4.03638 18.1511C3.91806 17.829 3.76618 17.5155 3.53119 17.305C3.31731 17.1134 3.00106 16.9768 2.46688 17.0729C2.17749 17.1249 1.97585 17.2507 1.85641 17.4472C1.73243 17.6512 1.65701 17.9968 1.76347 18.5658C1.77023 18.6019 1.7771 18.639 1.78414 18.6769C1.90138 19.3089 2.06313 20.1808 2.46226 20.9156C2.87165 21.6694 3.51011 22.2459 4.62298 22.2459H15.3072C15.3073 22.2459 15.3073 22.2459 15.3073 22.6229C15.3073 23 15.3073 23 15.3072 23H4.62298C3.16445 23 2.30423 22.2047 1.79959 21.2755C1.34078 20.4308 1.15966 19.4489 1.04535 18.8292C1.03734 18.7858 1.02966 18.7442 1.02223 18.7045C0.895937 18.0295 0.957484 17.4743 1.21201 17.0555C1.47107 16.6293 1.88946 16.4105 2.33345 16.3307C3.07863 16.1967 3.63447 16.3851 4.03435 16.7433ZM15.6844 22.6229C15.6844 22.8312 15.5155 23 15.3072 23L15.3073 22.6229L15.3072 22.2459C15.5155 22.2459 15.6844 22.4147 15.6844 22.6229Z" fill="#1B1B1B"/>
<path d="M24.2547 16.7432C23.8759 17.0825 23.6724 17.5437 23.5448 17.8911C23.5341 17.9201 23.5238 17.9483 23.5138 17.9755C23.3979 18.2923 23.324 18.4943 23.2068 18.639C23.1131 18.7546 22.974 18.8525 22.6329 18.8525C22.2069 18.8525 22.1091 18.7787 22.0749 18.7373C22.0529 18.7107 22.0221 18.6561 21.9991 18.5353C21.9757 18.4131 21.9648 18.2481 21.9648 18.0211C21.9648 17.4384 21.7285 16.9918 21.3315 16.7039C20.952 16.4288 20.4623 16.3246 19.9805 16.3246C19.4213 16.3246 18.9773 16.5677 18.6915 17.0109C18.4213 17.4301 18.3115 17.9971 18.3115 18.6351C18.3115 19.1816 18.168 19.3306 18.0944 19.3807C17.9848 19.4552 17.8254 19.4665 17.5515 19.4665C17.5048 19.4665 17.4587 19.467 17.4132 19.4675C17.1686 19.4704 16.9433 19.473 16.7507 19.3909C16.6543 19.3498 16.5773 19.2896 16.5197 19.1924C16.4593 19.0906 16.4041 18.9204 16.4041 18.6351C16.4041 17.9554 16.3101 17.3457 15.9238 16.9174C15.5289 16.4795 14.9168 16.3246 14.1269 16.3246C13.9187 16.3246 13.7499 16.4934 13.7499 16.7016C13.7499 16.9099 13.9187 17.0787 14.1269 17.0787C14.8487 17.0787 15.1866 17.2259 15.3638 17.4224C15.5497 17.6285 15.65 17.9855 15.65 18.6351C15.65 19.0144 15.7232 19.3276 15.871 19.577C16.0216 19.831 16.2325 19.9898 16.4551 20.0847C16.8103 20.236 17.2242 20.2271 17.4577 20.222C17.4935 20.2213 17.525 20.2206 17.5515 20.2206C17.5612 20.2206 17.5713 20.2206 17.5817 20.2206C17.8101 20.2211 18.1983 20.2219 18.5184 20.0043C18.8891 19.7522 19.0656 19.2971 19.0656 18.6351C19.0656 18.0646 19.167 17.665 19.3253 17.4195C19.4681 17.198 19.67 17.0787 19.9805 17.0787C20.3683 17.0787 20.6822 17.1647 20.8889 17.3145C21.0781 17.4516 21.2107 17.6647 21.2107 18.0211C21.2107 18.2636 21.2216 18.4845 21.2584 18.6768C21.2954 18.8707 21.3629 19.0595 21.4935 19.2176C21.7645 19.5457 22.1892 19.6065 22.6329 19.6065C23.1614 19.6065 23.5323 19.435 23.7926 19.1138C23.9948 18.8643 24.1135 18.5356 24.216 18.252C24.2284 18.2177 24.2406 18.1839 24.2526 18.1511C24.3709 17.829 24.5228 17.5154 24.7578 17.3049C24.9717 17.1133 25.288 16.9768 25.8221 17.0728C26.1115 17.1248 26.3132 17.2507 26.4326 17.4472C26.5566 17.6511 26.632 17.9968 26.5255 18.5658C26.5188 18.6019 26.5119 18.639 26.5049 18.6769C26.3876 19.3088 26.2259 20.1807 25.8267 20.9156C25.4174 21.6694 24.7789 22.2459 23.666 22.2459H12.9818C12.9817 22.2459 12.9817 22.2459 12.9817 22.6229C12.9817 23 12.9817 23 12.9818 23H23.666C25.1246 23 25.9848 22.2046 26.4894 21.2755C26.9482 20.4308 27.1294 19.4489 27.2437 18.8292C27.2517 18.7858 27.2593 18.7442 27.2668 18.7045C27.3931 18.0294 27.3315 17.4742 27.077 17.0555C26.8179 16.6293 26.3995 16.4104 25.9556 16.3306C25.2104 16.1967 24.6545 16.385 24.2547 16.7432ZM12.6046 22.6229C12.6046 22.8312 12.7735 23 12.9818 23L12.9817 22.6229L12.9818 22.2459C12.7735 22.2459 12.6046 22.4147 12.6046 22.6229Z" fill="#1B1B1B"/>
<path d="M9.82063 15.606L8.77327 14.8519H3.23517C2.05516 14.8519 1.09856 15.8085 1.09856 16.9885V17.5442H1.85266V16.9885C1.85266 16.225 2.47163 15.606 3.23517 15.606H9.82063ZM12.7263 15.606H25.0178C25.7813 15.606 26.4003 16.225 26.4003 16.9885V17.5442H27.1544V16.9885C27.1544 15.8085 26.1978 14.8519 25.0178 14.8519H13.6689L12.7263 15.606Z" fill="#1B1B1B"/>
<path d="M10.3324 4.29626C10.3324 4.53 10.1429 4.71948 9.90916 4.71948C9.67542 4.71948 9.48594 4.53 9.48594 4.29626C9.48594 4.06253 9.67542 3.87305 9.90916 3.87305C10.1429 3.87305 10.3324 4.06253 10.3324 4.29626Z" fill="#1B1B1B"/>
<path d="M14.8467 2.03909C14.8467 2.27283 14.6572 2.46231 14.4235 2.46231C14.1898 2.46231 14.0003 2.27283 14.0003 2.03909C14.0003 1.80536 14.1898 1.61588 14.4235 1.61588C14.6572 1.61588 14.8467 1.80536 14.8467 2.03909Z" fill="#1B1B1B"/>
<path d="M7.79307 6.55343C7.79307 6.78717 7.60359 6.97665 7.36986 6.97665C7.13612 6.97665 6.94664 6.78717 6.94664 6.55343C6.94664 6.31969 7.13612 6.13021 7.36986 6.13021C7.60359 6.13021 7.79307 6.31969 7.79307 6.55343Z" fill="#1B1B1B"/>
<path d="M12.3074 6.55343C12.3074 6.78717 12.1179 6.97665 11.8842 6.97665C11.6505 6.97665 11.461 6.78717 11.461 6.55343C11.461 6.31969 11.6505 6.13021 11.8842 6.13021C12.1179 6.13021 12.3074 6.31969 12.3074 6.55343Z" fill="#1B1B1B"/>
<path d="M10.3324 8.8106C10.3324 9.04433 10.1429 9.23382 9.90916 9.23382C9.67542 9.23382 9.48594 9.04433 9.48594 8.8106C9.48594 8.57686 9.67542 8.38738 9.90916 8.38738C10.1429 8.38738 10.3324 8.57686 10.3324 8.8106Z" fill="#1B1B1B"/>
<path d="M14.8467 8.8106C14.8467 9.04433 14.6572 9.23382 14.4235 9.23382C14.1898 9.23382 14.0003 9.04433 14.0003 8.8106C14.0003 8.57686 14.1898 8.38738 14.4235 8.38738C14.6572 8.38738 14.8467 8.57686 14.8467 8.8106Z" fill="#1B1B1B"/>
<path d="M14.8467 4.86053C14.8467 5.09426 14.6572 5.28374 14.4235 5.28374C14.1898 5.28374 14.0003 5.09426 14.0003 4.86053C14.0003 4.62679 14.1898 4.43731 14.4235 4.43731C14.6572 4.43731 14.8467 4.62679 14.8467 4.86053Z" fill="#1B1B1B"/>
<path d="M17.386 6.2713C17.386 6.50503 17.1965 6.69452 16.9628 6.69452C16.7291 6.69452 16.5396 6.50503 16.5396 6.2713C16.5396 6.03756 16.7291 5.84808 16.9628 5.84808C17.1965 5.84808 17.386 6.03756 17.386 6.2713Z" fill="#1B1B1B"/>
<path d="M19.0788 4.01413C19.0788 4.24787 18.8893 4.43735 18.6556 4.43735C18.4219 4.43735 18.2324 4.24787 18.2324 4.01413C18.2324 3.78039 18.4219 3.59091 18.6556 3.59091C18.8893 3.59091 19.0788 3.78039 19.0788 4.01413Z" fill="#1B1B1B"/>
<path d="M21.3361 5.70692C21.3361 5.94066 21.1466 6.13014 20.9129 6.13014C20.6791 6.13014 20.4897 5.94066 20.4897 5.70692C20.4897 5.47319 20.6791 5.28371 20.9129 5.28371C21.1466 5.28371 21.3361 5.47319 21.3361 5.70692Z" fill="#1B1B1B"/>
<path d="M19.0788 8.8106C19.0788 9.04433 18.8893 9.23382 18.6556 9.23382C18.4219 9.23382 18.2324 9.04433 18.2324 8.8106C18.2324 8.57686 18.4219 8.38738 18.6556 8.38738C18.8893 8.38738 19.0788 8.57686 19.0788 8.8106Z" fill="#1B1B1B"/>
</svg>
