<svg width="31" height="31" viewBox="0 0 31 31" fill="none" xmlns="http://www.w3.org/2000/svg">
<path d="M3.09049 15.9198L7.67148 19.5888M3.09049 15.9198C3.09053 14.5264 4.22498 11.482 7.20082 9.84252C7.69059 9.5727 8.28373 9.83602 8.48244 10.3587L11.6999 18.8222C11.9788 19.5558 11.3426 20.3101 10.5724 20.1587L7.67148 19.5888M3.09049 15.9198L1.90331 20.8491C1.88483 20.9259 1.8755 21.0046 1.87551 21.0835L1.87574 22.1033C1.87592 22.9013 2.76466 23.3776 3.42923 22.936L4.32518 22.3405L7.67148 19.5888" stroke="black" stroke-width="0.85" stroke-linecap="round"/>
<path d="M28.1941 15.92L23.6131 19.589M28.1941 15.92C28.194 14.5266 27.0597 11.5077 24.084 9.87275C23.5939 9.60348 23.0008 9.86678 22.8021 10.3895L19.5894 18.8404C19.3095 19.5766 19.9512 20.3324 20.7231 20.1757L23.6131 19.589M28.1941 15.92L29.385 21.9538C29.5606 22.8434 28.5566 23.4887 27.8203 22.9595L26.9594 22.3407L23.6131 19.589" stroke="black" stroke-width="0.85" stroke-linecap="round"/>
<path d="M16.0086 20.5672H13.3733C12.751 20.5672 12.1935 20.1825 11.9727 19.6007L8.19547 9.65025C7.93922 8.97522 8.19765 8.20786 8.8397 7.87758C10.5924 6.97599 13.3949 6.56384 15.6417 6.56384C17.8884 6.56384 20.6914 6.97598 22.444 7.87757C23.0861 8.20785 23.3445 8.97521 23.0883 9.65024L19.3111 19.6007C19.0902 20.1825 18.5327 20.5672 17.9104 20.5672H15.2752" stroke="black" stroke-width="0.85" stroke-linecap="round"/>
<path d="M15.644 19.8763V15.8488" stroke="black" stroke-width="0.85" stroke-linecap="round"/>
</svg>
