<svg width="23" height="25" viewBox="0 0 23 25" fill="none" xmlns="http://www.w3.org/2000/svg">
<path d="M20.4744 15.2334C20.2969 15.1506 20.0858 15.2273 20.003 15.4048L16.0896 23.7906H6.16052L2.77145 15.7444C2.69542 15.5639 2.48743 15.4792 2.30691 15.5552C2.12638 15.6312 2.04168 15.8392 2.11772 16.0197L5.68959 24.5H16.5414L20.6458 15.7048C20.7286 15.5273 20.6519 15.3162 20.4744 15.2334Z" fill="#1B1B1B"/>
<path d="M16.7718 15.4653C16.9551 15.5343 17.0478 15.7388 16.9789 15.9222L13.8699 24.1854C13.8009 24.3687 13.5964 24.4615 13.413 24.3925C13.2297 24.3235 13.137 24.1189 13.206 23.9356L16.3149 15.6724C16.3839 15.489 16.5885 15.3963 16.7718 15.4653ZM5.985 16.0321C5.79839 16.0916 5.69539 16.2912 5.75495 16.4778L8.20938 24.1683C8.26894 24.355 8.46849 24.458 8.6551 24.3984C8.84172 24.3388 8.94471 24.1393 8.88516 23.9527L6.43073 16.2621C6.37117 16.0755 6.17161 15.9725 5.985 16.0321ZM11.2471 16.0153C11.443 16.0153 11.6018 16.1741 11.6018 16.37V24.0605C11.6018 24.2564 11.443 24.4152 11.2471 24.4152C11.0513 24.4152 10.8925 24.2564 10.8925 24.0605V16.37C10.8925 16.1741 11.0513 16.0153 11.2471 16.0153Z" fill="#1B1B1B"/>
<path d="M6.13708 4.90024C6.88169 4.08097 7.97762 3.4957 9.50217 3.63434C9.69725 3.65208 9.86977 3.50832 9.88751 3.31324C9.90525 3.11816 9.76149 2.94564 9.56641 2.9279C7.79744 2.76703 6.49013 3.45711 5.61214 4.42314C4.74525 5.37695 4.29615 6.59795 4.20385 7.53747C4.19361 7.64171 4.1148 7.71858 4.03464 7.73143C2.28701 8.01168 1.1731 8.9214 0.587046 10.0278C0.00845963 11.1202 -0.0447202 12.3836 0.27949 13.3722L0.284618 13.3878L0.291173 13.4029C1.33234 15.8007 2.76443 16.7952 4.23289 16.9452C5.66525 17.0915 7.02485 16.4208 7.92588 15.7208C7.99 15.671 8.09419 15.6705 8.16616 15.7326C8.90045 16.3667 9.64986 16.6214 10.3675 16.6296C11.0762 16.6377 11.7239 16.4052 12.2658 16.1167C12.8075 15.8282 13.2631 15.4728 13.5852 15.2172C13.6041 15.2021 13.6224 15.1876 13.6401 15.1735C13.7483 15.0875 13.8336 15.0197 13.9017 14.9697C13.9594 15.0061 14.0293 15.0478 14.1095 15.0934C14.3031 15.2032 14.564 15.3392 14.873 15.4808C15.4892 15.7631 16.3098 16.0736 17.1783 16.2391C18.0428 16.4038 18.9876 16.4311 19.8302 16.1107C20.6905 15.7836 21.4057 15.1083 21.8137 13.9522C22.5299 11.9225 22.2016 10.4112 21.3798 9.38778C20.575 8.38554 19.3423 7.90867 18.3411 7.83418C18.2272 7.82571 18.129 7.73172 18.1145 7.62524C17.928 6.26272 17.0862 5.36959 16.2564 4.79942C15.575 4.33119 14.8627 4.0576 14.5072 3.92109C14.4346 3.89321 14.3769 3.87105 14.3374 3.85412C14.1574 3.77695 13.9489 3.86036 13.8717 4.0404C13.7945 4.22045 13.8779 4.42896 14.058 4.50612C14.1164 4.53114 14.1913 4.56011 14.2794 4.59421C14.6496 4.73744 15.2539 4.97124 15.8547 5.38407C16.5893 5.88884 17.2619 6.62731 17.4116 7.72143C17.4725 8.16616 17.8475 8.50878 18.2884 8.54158C19.1369 8.60471 20.1699 9.01392 20.8267 9.83191C21.4664 10.6287 21.7955 11.8718 21.1447 13.7162C20.8019 14.6878 20.2316 15.1992 19.5781 15.4476C18.907 15.7028 18.11 15.6945 17.3111 15.5423C16.5163 15.3908 15.752 15.1032 15.1685 14.8359C14.8776 14.7026 14.635 14.5759 14.4596 14.4764C14.3717 14.4265 14.3026 14.3845 14.2537 14.3528C14.2116 14.3256 14.196 14.3137 14.196 14.3137C14.196 14.3137 14.1964 14.3142 14.1974 14.3152C14.0247 14.1486 13.8121 14.2161 13.7604 14.2347C13.6839 14.2623 13.6121 14.3073 13.5575 14.3444C13.4578 14.412 13.3327 14.5116 13.2001 14.617C13.1816 14.6318 13.1629 14.6467 13.1441 14.6616C12.8244 14.9155 12.4123 15.235 11.9324 15.4906C11.4525 15.746 10.9246 15.9266 10.3756 15.9203C9.83556 15.9141 9.24525 15.7272 8.62976 15.1957C8.31258 14.9218 7.83259 14.895 7.49069 15.1606C6.6637 15.8031 5.48347 16.3598 4.30497 16.2395C3.1652 16.1231 1.91852 15.36 0.948539 13.1357C0.687675 12.3255 0.731875 11.2699 1.2139 10.3599C1.69151 9.45817 2.61004 8.6783 4.14695 8.43184C4.56836 8.36427 4.87039 8.00813 4.90981 7.60682C4.98849 6.806 5.38136 5.73174 6.13708 4.90024Z" fill="#1B1B1B"/>
<path d="M11.9079 4.86313C10.8989 4.86313 10.081 4.04521 10.081 3.03625C10.081 2.02728 10.8989 1.20936 11.9079 1.20936C12.9169 1.20936 13.7348 2.02728 13.7348 3.03625C13.7348 4.04521 12.9169 4.86313 11.9079 4.86313ZM11.9079 5.57249C13.3086 5.57249 14.4441 4.43698 14.4441 3.03625C14.4441 1.63552 13.3086 0.5 11.9079 0.5C10.5072 0.5 9.37164 1.63552 9.37164 3.03625C9.37164 4.43698 10.5072 5.57249 11.9079 5.57249Z" fill="#1B1B1B"/>
<path d="M9.45831 6.17047C9.62309 6.32883 9.62828 6.59078 9.46993 6.75555L8.18421 8.09332C8.02585 8.2581 7.76391 8.26329 7.59914 8.10494C7.43437 7.94658 7.42917 7.68463 7.58753 7.51986L8.87324 6.18208C9.0316 6.01731 9.29354 6.01211 9.45831 6.17047ZM13.3572 7.7735C13.5196 7.61269 13.7816 7.61396 13.9424 7.77634L15.438 9.28659C15.5989 9.44897 15.5976 9.71097 15.4352 9.87178C15.2728 10.0326 15.0108 10.0313 14.85 9.86893L13.3544 8.35869C13.1936 8.19631 13.1948 7.93431 13.3572 7.7735ZM9.35634 10.7344C9.5101 10.5653 9.7718 10.5529 9.94087 10.7066L11.3317 11.9715C11.5008 12.1253 11.5132 12.387 11.3594 12.556C11.2057 12.7251 10.944 12.7375 10.7749 12.5838L9.38406 11.3189C9.21499 11.1651 9.20258 10.9034 9.35634 10.7344ZM5.86107 10.7169C6.02446 10.8767 6.02737 11.1387 5.86758 11.3021L4.31055 12.8942C4.15076 13.0575 3.88878 13.0605 3.7254 12.9007C3.56201 12.7409 3.5591 12.4789 3.71889 12.3155L5.27592 10.7234C5.4357 10.5601 5.69769 10.5571 5.86107 10.7169ZM19.1255 10.7176C19.2885 10.8778 19.2908 11.1398 19.1306 11.3028L17.5664 12.8948C17.4062 13.0579 17.1442 13.0602 16.9812 12.9C16.8182 12.7398 16.8159 12.4778 16.976 12.3148L18.5403 10.7228C18.7005 10.5597 18.9625 10.5574 19.1255 10.7176Z" fill="#1B1B1B"/>
</svg>
