<svg width="27" height="27" viewBox="0 0 27 27" fill="none" xmlns="http://www.w3.org/2000/svg">
<path d="M12.2273 0.512762C12.1293 0.52426 11.8316 0.557227 11.5656 0.586073C9.88638 0.768206 8.02679 1.39804 6.52623 2.29299C4.61645 3.43193 3.06423 4.98347 1.92479 6.89242C1.03678 8.38006 0.446977 10.1088 0.206334 11.9296C0.12393 12.553 0.12393 14.4605 0.206334 15.0839C0.446977 16.9047 1.03678 18.6335 1.92479 20.1211C3.06423 22.03 4.61645 23.5816 6.52623 24.7205C8.01452 25.6081 9.74407 26.1977 11.5656 26.4382C12.1893 26.5206 14.0976 26.5206 14.7213 26.4382C17.8906 26.0197 20.577 24.6283 22.7695 22.2699C23.9824 20.9652 24.9313 19.3423 25.5137 17.5768C25.9727 16.1851 26.1445 15.0769 26.1445 13.5068C26.1445 12.3452 26.0955 11.832 25.8869 10.8104C25.1717 7.30756 22.9202 4.17725 19.7607 2.29299C18.2876 1.41442 16.5309 0.812417 14.7722 0.583377C14.3258 0.525277 12.5429 0.475775 12.2273 0.512762ZM14.9249 1.37296C15.2188 1.41732 15.769 1.53047 16.1475 1.62439C20.4629 2.69495 23.9402 6.1621 25.0263 10.4772C25.3078 11.5955 25.3806 12.2176 25.3806 13.5068C25.3806 14.7959 25.3078 15.418 25.0263 16.5363C24.1616 19.9716 21.7628 22.926 18.5641 24.4949C17.6843 24.9264 17.036 25.1677 16.1744 25.3844C15.0556 25.6658 14.4332 25.7385 13.1435 25.7385C11.8537 25.7385 11.2313 25.6658 10.1126 25.3844C5.807 24.3016 2.34388 20.84 1.26063 16.5363C0.979111 15.418 0.906378 14.7959 0.906378 13.5068C0.906378 12.2176 0.979111 11.5955 1.26063 10.4772C2.12532 7.04189 4.52418 4.08756 7.72288 2.51862C9.1672 1.81018 10.4731 1.44785 12.2019 1.27589C12.6354 1.23275 14.4166 1.29624 14.9249 1.37296ZM12.4431 3.13523C10.7267 3.23566 8.97628 3.81258 7.52291 4.75688L7.0635 5.05536L6.75155 4.75596C6.20715 4.23342 6.04469 4.28475 5.623 5.1126C5.35793 5.633 5.22106 6.01929 5.05249 6.7227C4.99762 6.95174 4.90865 7.15921 4.81251 7.28232C3.86078 8.5015 3.12994 10.219 2.86207 11.866L2.80206 12.2349L2.28499 12.2356C1.486 12.2368 1.34232 12.371 1.49939 12.9696C1.71112 13.7765 2.15398 14.652 2.68011 15.3037C2.89815 15.5738 2.95409 15.6923 3.07746 16.1452C3.5333 17.8187 4.27915 19.1912 5.44176 20.4956L5.70805 20.7944L5.583 20.9583C5.42516 21.1652 5.42099 21.3917 5.57246 21.5304C5.8553 21.7895 6.70585 22.1707 7.41795 22.3577C7.64165 22.4164 7.86779 22.4886 7.92052 22.5181C8.99792 23.1218 10.3938 23.6139 11.4893 23.7763C12.2224 23.8851 12.3745 23.8954 13.2071 23.8934L14.0596 23.8915V24.4249C14.0596 24.9234 14.0678 24.9665 14.1846 25.0832C14.3486 25.2471 14.5053 25.2424 15.076 25.0559C15.6536 24.8673 16.3544 24.5225 16.8001 24.2079C17.2446 23.8941 17.9728 23.1844 18.2939 22.7523C18.4792 22.5029 18.672 22.3242 18.9928 22.1046C20.7945 20.8711 22.1323 19.1703 22.8853 17.1556C23.4065 15.7611 23.6114 14.3587 23.518 12.8246C23.4509 11.7214 23.1226 10.2596 22.9174 10.1498C22.7679 10.0699 22.5326 10.0886 22.4479 10.1871C22.311 10.3465 22.3089 10.4412 22.4319 10.9007C22.6188 11.5989 22.7092 12.1486 22.7558 12.8708C22.9088 15.2432 22.2257 17.4962 20.7809 19.3844C20.4626 19.8003 19.6377 20.6663 19.3959 20.8385L19.2604 20.9349L19.3563 20.6182C19.5554 19.9608 19.6231 19.3453 19.5924 18.4722C19.5619 17.6065 19.4844 17.184 19.223 16.4575C18.492 14.4265 16.8824 12.9364 14.7514 12.318L14.1453 12.1421L10.8959 8.89451C9.10877 7.10828 7.64654 5.63168 7.64654 5.61321C7.64654 5.5486 8.38908 5.10156 8.9515 4.82754C10.4286 4.10791 12.107 3.7876 13.7924 3.90365C14.8143 3.97401 14.805 3.97431 14.9206 3.86976C15.0747 3.73037 15.067 3.41133 14.907 3.30652C14.683 3.15985 13.4671 3.0753 12.4431 3.13523ZM17.0662 4.0721C16.4049 4.21546 15.6029 4.68321 15.1146 5.21043C13.8643 6.56025 13.7313 8.58173 14.7948 10.0714C15.8977 11.6162 17.9773 12.1399 19.6554 11.2952C20.6019 10.8187 21.289 10.0213 21.6293 9.0043C21.7524 8.63616 21.7656 8.52444 21.7666 7.83417C21.7676 7.12873 21.757 7.04026 21.6258 6.66404C21.1691 5.35415 20.1713 4.42252 18.874 4.09479C18.3949 3.97375 17.5679 3.96338 17.0662 4.0721ZM18.705 4.83609C19.5627 5.05826 20.3379 5.69446 20.7154 6.48597C20.9585 6.99584 21.0328 7.31605 21.0318 7.84938C21.0295 9.04668 20.3544 10.116 19.2766 10.6295C18.8121 10.8508 18.4588 10.929 17.9278 10.9278C16.5439 10.9248 15.3522 10.0141 14.9448 8.64817C14.8215 8.23486 14.8215 7.43347 14.9448 7.02016C15.264 5.94985 16.118 5.10954 17.1644 4.83609C17.5437 4.73693 18.3223 4.73693 18.705 4.83609ZM13.8102 13.2717C13.4137 13.3303 13.3283 13.3037 12.9202 12.9949C12.4112 12.6097 12.1927 12.529 11.5579 12.4912C11.1996 12.4699 10.9853 12.4339 10.9264 12.3851C10.8773 12.3445 10.7109 12.1197 10.5566 11.8856C10.2146 11.3666 10.019 11.2192 9.39904 11.0127C9.09691 10.9121 8.89083 10.8129 8.84334 10.745C8.80181 10.6858 8.70943 10.462 8.63802 10.2476C8.43718 9.64487 8.27975 9.43775 7.75342 9.08402C7.50056 8.9141 7.26765 8.72642 7.23584 8.66699C7.20403 8.60762 7.16113 8.3158 7.14046 8.01854C7.09684 7.39028 7.04564 7.25444 6.65978 6.74411C6.37461 6.36703 6.3741 6.36565 6.3741 6.0022C6.3741 5.8019 6.39028 5.62186 6.41008 5.60207C6.42988 5.58228 8.17103 7.2898 10.2793 9.39655L14.1125 13.2269L13.8102 13.2717ZM17.2834 5.82465C16.748 5.99986 16.2547 6.44074 16.0196 6.95402C15.6563 7.74722 15.8297 8.70831 16.4475 9.32583C16.8724 9.75059 17.344 9.94401 17.9569 9.94493C18.7858 9.9462 19.5056 9.47377 19.8768 8.68495C20.0198 8.38123 20.0379 8.29169 20.0389 7.88504C20.0396 7.61474 20.0122 7.36123 19.9721 7.2662C19.8881 7.06717 19.6803 6.96954 19.4927 7.04087C19.289 7.11825 19.2356 7.26543 19.2756 7.63876C19.3432 8.26986 19.0262 8.84419 18.4807 9.07878C18.1596 9.21686 17.6593 9.20678 17.3475 9.05594C16.9015 8.84028 16.6032 8.37965 16.5975 7.89786C16.5925 7.48557 16.6825 7.23572 16.9382 6.95143C17.252 6.60253 17.6125 6.46333 18.0906 6.50637C18.5069 6.54387 18.6761 6.47956 18.7354 6.26126C18.7845 6.08024 18.6969 5.85833 18.5532 5.79997C18.5032 5.77967 18.2676 5.75383 18.0296 5.74253C17.6918 5.72646 17.5283 5.74447 17.2834 5.82465ZM6.21637 7.43698C6.33852 7.62008 6.36361 7.72087 6.39354 8.14924C6.41273 8.42366 6.45151 8.7343 6.47971 8.83961C6.54842 9.09572 6.77649 9.34506 7.2108 9.63881C7.68746 9.96121 7.72639 10.0108 7.9283 10.5537C8.20936 11.3094 8.3249 11.4222 9.13157 11.7296C9.66803 11.9339 9.6805 11.9437 9.96919 12.3875C10.4064 13.0597 10.6381 13.1954 11.4428 13.2506L12.0177 13.29L12.349 13.5263C12.5312 13.6563 12.6927 13.7826 12.7077 13.807C12.7535 13.881 12.5384 13.9159 11.8456 13.947C8.95043 14.0768 6.39247 12.0536 5.78959 9.15692C5.69395 8.69737 5.66525 7.75704 5.73065 7.22366L5.77427 6.86754L5.92421 7.0456C6.00667 7.14354 6.13814 7.31967 6.21637 7.43698ZM5.0304 9.23324C5.18885 10.1132 5.62611 11.1563 6.12388 11.8417C6.26151 12.0311 6.3741 12.1971 6.3741 12.2105C6.3741 12.2239 5.74322 12.2349 4.97212 12.2349H3.5701L3.60359 12.0441C3.81853 10.8194 4.15166 9.84364 4.68496 8.87711C4.91878 8.45322 4.92382 8.44818 4.93802 8.62273C4.94601 8.72067 4.98755 8.99539 5.0304 9.23324ZM7.34904 13.1846C8.04649 13.773 9.05701 14.2837 10.0041 14.5264C10.368 14.6197 10.5089 14.6725 10.395 14.6728C10.297 14.673 10.0794 14.6401 9.91148 14.5996C9.36305 14.4672 9.10597 14.4965 8.56269 14.7532C8.29675 14.8789 8.00694 14.9818 7.91863 14.9819C7.83033 14.982 7.55777 14.886 7.3129 14.7686C6.78306 14.5145 6.45828 14.4738 5.92549 14.5949C5.30876 14.7351 5.25985 14.7234 4.81073 14.3281C4.59284 14.1363 4.34583 13.9443 4.26185 13.9014C4.10371 13.8209 3.73939 13.7393 3.28915 13.6839C3.06448 13.6561 2.99811 13.6193 2.80272 13.4139C2.3623 12.9509 2.138 12.998 4.78523 12.998H7.12794L7.34904 13.1846ZM17.1378 14.5507C17.9975 15.4095 18.5567 16.4979 18.7712 17.7294C18.8958 18.4452 18.8502 19.5647 18.6685 20.2477C18.4186 21.1875 17.8991 22.1214 17.2434 22.8095C16.9409 23.127 16.3457 23.6309 16.2733 23.6309C16.2265 23.6309 16.2871 23.1024 16.3608 22.8678C16.3916 22.7699 16.5651 22.5196 16.7463 22.3117C17.2708 21.7099 17.3461 21.4414 17.1898 20.731C17.0714 20.193 17.0897 20.0506 17.3483 19.4977C17.5642 19.0359 17.5814 18.9702 17.5628 18.6773C17.5473 18.4352 17.4911 18.2519 17.328 17.9121C17.092 17.4206 17.0755 17.2826 17.1898 16.7628C17.3503 16.0335 17.2702 15.7499 16.7334 15.1472C16.3909 14.7627 16.3341 14.6341 16.2707 14.1L16.2353 13.803L16.5078 13.9983C16.6577 14.1057 16.9412 14.3542 17.1378 14.5507ZM14.2055 14.3335C14.1419 14.4244 14.0035 14.6147 13.8978 14.7564C13.6411 15.1002 13.5722 15.3185 13.5292 15.9233C13.508 16.2202 13.4626 16.479 13.42 16.5448C13.3798 16.6068 13.1499 16.7873 12.909 16.9459C12.4025 17.2793 12.2499 17.4833 12.0436 18.1024C11.9685 18.3276 11.8575 18.5615 11.797 18.622C11.7365 18.6826 11.5025 18.7935 11.2771 18.8685C10.6593 19.0741 10.4585 19.2244 10.1252 19.7303C9.96655 19.971 9.78484 20.2004 9.72142 20.24C9.65297 20.2827 9.39288 20.325 9.08174 20.3439C8.45901 20.3817 8.33498 20.4282 7.7806 20.8308C7.38197 21.1202 7.34156 21.1377 7.08208 21.133C6.47935 21.1219 6.39354 21.2443 8.42221 19.2222C10.2231 17.4272 10.2767 17.3789 10.6384 17.2296C11.7249 16.7809 12.7586 15.9055 13.4725 14.8295C13.7491 14.4126 13.8237 14.3344 14.0154 14.2609C14.3247 14.1423 14.336 14.1466 14.2055 14.3335ZM3.73878 14.5299C3.85487 14.5596 4.08824 14.7161 4.34155 14.9342C4.56886 15.1299 4.83567 15.3237 4.93446 15.365C5.15876 15.4587 5.53709 15.4582 5.96692 15.3637C6.4651 15.2542 6.57967 15.2686 7.06747 15.5026C7.42569 15.6744 7.5852 15.7217 7.85878 15.7371C8.17892 15.7552 8.23445 15.741 8.70337 15.5219C9.24909 15.2669 9.38117 15.249 9.86058 15.3647C10.5438 15.5296 10.9072 15.4421 11.4146 14.9904L11.6929 14.7427L12.1677 14.7056C12.6338 14.6693 12.6415 14.6705 12.5874 14.7716C12.4979 14.9387 11.8207 15.6051 11.4697 15.8714C10.8188 16.3652 9.87228 16.7733 8.97379 16.9476C8.51388 17.0368 7.45017 17.0493 6.97733 16.9711C5.76363 16.7703 4.70384 16.2469 3.84495 15.4241C3.45156 15.0473 3.01486 14.5355 3.01486 14.4512C3.01486 14.4085 3.44759 14.4555 3.73878 14.5299ZM14.9662 15.7081C14.9876 16.6436 14.9089 17.155 14.6229 17.9373C13.896 19.9255 12.0743 21.4044 9.92659 21.7496C9.48221 21.821 8.18391 21.7979 8.03748 21.716C7.95584 21.6704 7.97951 21.6382 8.23893 21.4424C8.61491 21.1586 8.80746 21.0922 9.26075 21.0894C9.92435 21.0854 10.3035 20.8712 10.661 20.2986C10.9413 19.8495 11.0893 19.7279 11.5362 19.5796C12.2867 19.3307 12.4826 19.1414 12.7427 18.4139C12.9325 17.883 13.0041 17.7903 13.4489 17.4999C14.0996 17.075 14.2258 16.853 14.2872 16.0251C14.3285 15.4676 14.3399 15.4357 14.6357 15.0434C14.7794 14.8528 14.8547 14.7899 14.893 14.8282C14.9252 14.8604 14.9549 15.2177 14.9662 15.7081ZM16.362 15.8876C16.5244 16.0918 16.5337 16.2169 16.4218 16.696C16.2934 17.2462 16.3376 17.624 16.5928 18.1556C16.7112 18.4022 16.8081 18.669 16.8081 18.7483C16.8081 18.8276 16.705 19.1043 16.5791 19.363C16.3205 19.894 16.2911 20.1671 16.4264 20.7819C16.5509 21.3477 16.5417 21.3838 16.1664 21.8043C15.7521 22.2683 15.6098 22.5648 15.535 23.12C15.5031 23.3567 15.4565 23.5887 15.4314 23.6355C15.4063 23.6824 15.2649 23.8293 15.1172 23.9621L14.8485 24.2036L14.8353 21.7548L14.8221 19.3059L14.9959 18.9609C15.5374 17.8861 15.7434 17.0352 15.7443 15.8699L15.7448 15.1809L15.9831 15.4457C16.1141 15.5914 16.2846 15.7902 16.362 15.8876ZM4.89644 17.0926C5.91363 17.6047 7.18678 17.8661 8.31925 17.7955L8.74083 17.7692L7.5002 19.0152L6.25963 20.2612L5.95409 19.9243C5.16314 19.0518 4.50056 17.9587 4.09093 16.8503L3.98227 16.5564L4.26195 16.7352C4.41581 16.8336 4.7013 16.9944 4.89644 17.0926ZM14.0405 23.1074C13.9948 23.1531 12.3778 23.127 11.9728 23.074C11.2842 22.9838 9.98553 22.6698 9.87239 22.5661C9.85091 22.5463 10.0091 22.5029 10.2239 22.4695C10.9584 22.3553 11.9621 21.9636 12.6547 21.5207C12.9963 21.3024 13.6193 20.8013 13.856 20.5548L14.0342 20.3692L14.0478 21.7279C14.0552 22.4751 14.0519 23.0959 14.0405 23.1074Z" fill="#1B1B1B"/>
</svg>
