<svg width="39" height="23" viewBox="0 0 39 23" fill="none" xmlns="http://www.w3.org/2000/svg">
<path d="M7.47229 0.781934C7.47229 0.516147 7.65996 0.300684 7.89147 0.300684H21.5446C26.803 0.300684 31.0658 5.19477 31.0658 11.2319C31.0658 17.2691 26.803 22.1632 21.5446 22.1632H7.89147C7.65996 22.1632 7.47229 21.9477 7.47229 21.6819C7.47229 21.4161 7.65996 21.2007 7.89147 21.2007H21.5446C26.34 21.2007 30.2275 16.7375 30.2275 11.2319C30.2275 5.72635 26.34 1.26318 21.5446 1.26318H7.89147C7.65996 1.26318 7.47229 1.04772 7.47229 0.781934Z" fill="#1B1B1B"/>
<path d="M11.0507 18.4562C9.93972 20.2688 8.48402 21.2694 6.96884 21.2694C5.45365 21.2694 3.99795 20.2688 2.88694 18.4562C1.77758 16.6463 1.06491 14.0951 1.06491 11.2319C1.06491 8.36872 1.77758 5.81758 2.88694 4.00767C3.99795 2.19505 5.45365 1.19443 6.96884 1.19443C8.48402 1.19443 9.93972 2.19505 11.0507 4.00767C12.1601 5.81758 12.8728 8.36872 12.8728 11.2319C12.8728 14.0951 12.1601 16.6463 11.0507 18.4562ZM6.96884 22.2319C10.6925 22.2319 13.7111 17.3071 13.7111 11.2319C13.7111 5.1568 10.6925 0.231934 6.96884 0.231934C3.24518 0.231934 0.226562 5.1568 0.226562 11.2319C0.226562 17.3071 3.24518 22.2319 6.96884 22.2319Z" fill="#1B1B1B"/>
<path d="M34.605 6.25429L30.8423 8.53423C30.6376 8.65829 30.384 8.5683 30.2759 8.33324C30.1679 8.09819 30.2463 7.80707 30.451 7.68301L34.4707 5.2473C34.8004 5.04756 35.2951 5.19908 35.3899 5.72869C35.5006 6.34756 35.4667 7.23436 35.1737 8.50097C35.527 8.54043 35.9391 8.61005 36.3756 8.86571C36.91 9.1786 37.4417 9.74255 38.0102 10.7485C38.1555 11.0056 38.1498 11.3389 37.9967 11.5892C37.5679 12.2902 37.1651 12.8721 36.6931 13.2673C36.2747 13.6175 35.8168 13.8096 35.2695 13.8451C35.3596 14.0687 35.4578 14.3422 35.514 14.6671C35.6043 15.1886 35.5922 15.8304 35.3912 16.725C35.2823 17.2098 34.8069 17.4238 34.4408 17.1903L30.4431 14.6404C30.2407 14.5113 30.1678 14.2184 30.2802 13.986C30.3926 13.7537 30.6478 13.67 30.8502 13.799L34.6356 16.2134C34.7556 15.5756 34.7443 15.1582 34.6918 14.8547C34.6438 14.5777 34.5638 14.3844 34.4663 14.1488C34.4362 14.0761 34.4045 13.9994 34.3715 13.9149C34.2679 13.6496 34.3169 13.3715 34.4509 13.1764C34.5794 12.9893 34.7819 12.8799 34.9975 12.8872C35.5066 12.9043 35.8678 12.767 36.1992 12.4896C36.5302 12.2125 36.8476 11.7826 37.2384 11.1532C36.7505 10.3186 36.3405 9.92561 35.9947 9.72311C35.6395 9.51511 35.3142 9.4816 34.9109 9.44005C34.8998 9.43891 34.8887 9.43776 34.8775 9.4366C34.4523 9.39267 34.2014 8.91527 34.3097 8.47814C34.568 7.4357 34.6292 6.72542 34.605 6.25429Z" fill="#1B1B1B"/>
<path d="M6.49431 6.6102C6.29604 6.90613 6.08018 7.01017 5.9042 7.01017C5.72822 7.01017 5.51236 6.90613 5.31409 6.6102C5.11512 6.31324 4.96826 5.86189 4.96826 5.32453C4.96826 4.78716 5.11512 4.33581 5.31409 4.03885C5.51236 3.74293 5.72822 3.63888 5.9042 3.63888C6.08018 3.63888 6.29604 3.74293 6.49431 4.03885C6.69328 4.33581 6.84013 4.78716 6.84013 5.32453C6.84013 5.86189 6.69328 6.31324 6.49431 6.6102ZM5.9042 7.97267C6.88411 7.97267 7.67848 6.78706 7.67848 5.32453C7.67848 3.86199 6.88411 2.67638 5.9042 2.67638C4.92429 2.67638 4.12992 3.86199 4.12992 5.32453C4.12992 6.78706 4.92429 7.97267 5.9042 7.97267Z" fill="#1B1B1B"/>
<path d="M4.78782 17.1686C4.63151 17.4033 4.475 17.467 4.36644 17.467C4.25788 17.467 4.10137 17.4033 3.94506 17.1686C3.78816 16.9331 3.66708 16.5658 3.66708 16.1208C3.66708 15.6759 3.78816 15.3086 3.94506 15.0731C4.10137 14.8384 4.25788 14.7747 4.36644 14.7747C4.475 14.7747 4.63151 14.8384 4.78782 15.0731C4.94472 15.3086 5.0658 15.6759 5.0658 16.1208C5.0658 16.5658 4.94472 16.9331 4.78782 17.1686ZM4.36644 18.4295C5.2157 18.4295 5.90415 17.3959 5.90415 16.1208C5.90415 14.8458 5.2157 13.8122 4.36644 13.8122C3.51719 13.8122 2.82873 14.8458 2.82873 16.1208C2.82873 17.3959 3.51719 18.4295 4.36644 18.4295Z" fill="#1B1B1B"/>
<path d="M10.4362 13.7727C10.7569 13.2788 10.9803 12.5517 10.9803 11.7072C10.9803 10.8627 10.7569 10.1356 10.4362 9.64172C10.1156 9.14792 9.73812 8.93513 9.39376 8.93513C9.0494 8.93513 8.6719 9.14792 8.35127 9.64172C8.0306 10.1356 7.80726 10.8627 7.80726 11.7072C7.80726 12.5517 8.0306 13.2788 8.35127 13.7727C8.6719 14.2665 9.0494 14.4793 9.39376 14.4793C9.73812 14.4793 10.1156 14.2665 10.4362 13.7727ZM9.39376 15.4418C8.05455 15.4418 6.96891 13.7697 6.96891 11.7072C6.96891 9.64466 8.05455 7.97263 9.39376 7.97263C10.733 7.97263 11.8186 9.64466 11.8186 11.7072C11.8186 13.7697 10.733 15.4418 9.39376 15.4418Z" fill="#1B1B1B"/>
<path d="M13.6401 3.32568C13.6401 3.0599 13.8278 2.84443 14.0593 2.84443H18.4906C18.7221 2.84443 18.9098 3.0599 18.9098 3.32568C18.9098 3.59147 18.7221 3.80693 18.4906 3.80693H14.0593C13.8278 3.80693 13.6401 3.59147 13.6401 3.32568Z" fill="#1B1B1B"/>
<path d="M20.1673 3.25693C20.1673 3.52272 20.355 3.73818 20.5865 3.73818H22.7422C22.9737 3.73818 23.1614 3.52272 23.1614 3.25693C23.1614 2.99115 22.9737 2.77568 22.7422 2.77568H20.5865C20.355 2.77568 20.1673 2.99115 20.1673 3.25693Z" fill="#1B1B1B"/>
</svg>
